<svg xmlns="http://www.w3.org/2000/svg" xmlns:xlink="http://www.w3.org/1999/xlink" width="500" zoomAndPan="magnify" viewBox="0 0 375 374.999991" height="500" preserveAspectRatio="xMidYMid meet" version="1.0"><defs><g/><clipPath id="c2e67a96aa"><path d="M 0 0.273438 L 375 0.273438 L 375 374.726562 L 0 374.726562 Z M 0 0.273438 " clip-rule="nonzero"/></clipPath><clipPath id="e9abb145d0"><path d="M 17.25 0.273438 L 357.75 0.273438 C 367.277344 0.273438 375 7.996094 375 17.523438 L 375 357.476562 C 375 367.003906 367.277344 374.726562 357.75 374.726562 L 17.25 374.726562 C 7.722656 374.726562 0 367.003906 0 357.476562 L 0 17.523438 C 0 7.996094 7.722656 0.273438 17.25 0.273438 Z M 17.25 0.273438 " clip-rule="nonzero"/></clipPath><clipPath id="5f768ddc90"><path d="M 259.65625 8.046875 L 273.136719 8.046875 L 273.136719 374.75 L 259.65625 374.75 Z M 259.65625 8.046875 " clip-rule="nonzero"/></clipPath><clipPath id="affd58e1d8"><path d="M 266.394531 8.046875 C 270.117188 8.046875 273.136719 11.066406 273.136719 14.785156 L 273.136719 367.988281 C 273.136719 371.710938 270.117188 374.726562 266.394531 374.726562 C 262.675781 374.726562 259.65625 371.710938 259.65625 367.988281 L 259.65625 14.785156 C 259.65625 11.066406 262.675781 8.046875 266.394531 8.046875 Z M 266.394531 8.046875 " clip-rule="nonzero"/></clipPath><clipPath id="a4421144db"><path d="M 273.136719 64.042969 L 287.808594 64.042969 L 287.808594 315.910156 L 273.136719 315.910156 Z M 273.136719 64.042969 " clip-rule="nonzero"/></clipPath></defs><g clip-path="url(#c2e67a96aa)"><g clip-path="url(#e9abb145d0)"><path fill="#000000" d="M 0 0.273438 L 374.457031 0.273438 L 374.457031 374.726562 L 0 374.726562 Z M 0 0.273438 " fill-opacity="1" fill-rule="nonzero"/></g></g><g fill="#ffffff" fill-opacity="1"><g transform="translate(64.966927, 309.09611)"><g><path d="M 26.484375 0 L 26.484375 -247.171875 L 88.28125 -247.171875 L 208.328125 -93.21875 L 208.328125 -247.171875 L 218.578125 -247.171875 L 218.578125 4.59375 L 208.328125 4.59375 L 36.71875 -214.6875 L 36.71875 0 Z M 26.484375 0 "/></g></g></g><g clip-path="url(#5f768ddc90)"><g clip-path="url(#affd58e1d8)"><path fill="#000000" d="M 259.65625 8.046875 L 273.136719 8.046875 L 273.136719 374.75 L 259.65625 374.75 Z M 259.65625 8.046875 " fill-opacity="1" fill-rule="nonzero"/></g></g><g clip-path="url(#a4421144db)"><path fill="#ffffff" d="M 273.136719 64.042969 L 287.808594 64.042969 L 287.808594 315.929688 L 273.136719 315.929688 Z M 273.136719 64.042969 " fill-opacity="1" fill-rule="nonzero"/></g></svg>