<?xml version="1.0" encoding="UTF-8" standalone="no" ?>
<!DOCTYPE svg PUBLIC "-//W3C//DTD SVG 1.1//EN" "http://www.w3.org/Graphics/SVG/1.1/DTD/svg11.dtd">
<svg xmlns="http://www.w3.org/2000/svg" xmlns:xlink="http://www.w3.org/1999/xlink" version="1.1" width="1080" height="1080" viewBox="0 0 1080 1080" xml:space="preserve">
<desc>Created with Fabric.js 5.2.4</desc>
<defs>
</defs>
<rect x="0" y="0" width="100%" height="100%" fill="transparent"></rect>
<g transform="matrix(1 0 0 1 540 540)" id="52aded00-ce11-4da5-92c7-f92af95f0b4c"  >
<rect style="stroke: none; stroke-width: 1; stroke-dasharray: none; stroke-linecap: butt; stroke-dashoffset: 0; stroke-linejoin: miter; stroke-miterlimit: 4; fill: rgb(255,255,255); fill-rule: nonzero; opacity: 1;" vector-effect="non-scaling-stroke"  x="-540" y="-540" rx="0" ry="0" width="1080" height="1080" />
</g>
<g transform="matrix(1 0 0 1 540 540)" id="3285afb4-cd52-46e9-a742-05a0e4ad54a3"  >
</g>
<g transform="matrix(2.19 0 0 2.19 537.31 540.18)"  >
<g style="" vector-effect="non-scaling-stroke"   >
		<g transform="matrix(1 0 0 1 0 -64.82)"  >
<path style="stroke: none; stroke-width: 1; stroke-dasharray: none; stroke-linecap: butt; stroke-dashoffset: 0; stroke-linejoin: miter; stroke-miterlimit: 4; fill: rgb(0,255,208); fill-rule: nonzero; opacity: 1;" vector-effect="non-scaling-stroke"  transform=" translate(-255.49, -186.93)" d="M 387.07 172.13 L 344.67 172.13 C 339.73 172.13 335.03000000000003 170.01 331.76 166.32 L 314.56 146.89 C 312 143.98999999999998 308.31 142.33999999999997 304.45 142.33999999999997 C 300.59 142.33999999999997 296.9 143.99999999999997 294.34 146.89 L 279.59 163.56 C 274.76 169.01 267.83 172.14000000000001 260.54999999999995 172.14000000000001 L 28.46 172.14000000000001 C 21.85 190.98000000000002 17.54 210.88000000000002 15.82 231.52 L 234.92 231.52 C 238.76999999999998 231.52 242.45999999999998 229.95000000000002 245.11999999999998 227.17000000000002 L 265.52 205.88000000000002 C 268.07 203.22000000000003 271.59 201.72000000000003 275.27 201.72000000000003 L 276.10999999999996 201.72000000000003 C 279.97999999999996 201.72000000000003 283.65999999999997 203.38000000000002 286.21999999999997 206.28000000000003 L 303.40999999999997 225.71000000000004 C 306.67999999999995 229.41000000000003 311.38 231.52000000000004 316.32 231.52000000000004 L 495.15999999999997 231.52000000000004 C 493.43999999999994 210.87000000000003 489.13 190.97000000000003 482.52 172.14000000000004 L 387.06 172.14000000000004 Z" stroke-linecap="round" />
</g>
		<g transform="matrix(1 0 0 1 0 59.75)"  >
<path style="stroke: none; stroke-width: 1; stroke-dasharray: none; stroke-linecap: butt; stroke-dashoffset: 0; stroke-linejoin: miter; stroke-miterlimit: 4; fill: rgb(0,255,208); fill-rule: nonzero; opacity: 1;" vector-effect="non-scaling-stroke"  transform=" translate(-255.48, -311.5)" d="M 148.4 356.39 C 152.25 356.39 155.94 354.82 158.6 352.03999999999996 L 179 330.74999999999994 C 181.55 328.0899999999999 185.07 326.5899999999999 188.75 326.5899999999999 L 189.59 326.5899999999999 C 193.46 326.5899999999999 197.14000000000001 328.24999999999994 199.7 331.13999999999993 L 216.89 350.56999999999994 C 220.16 354.2699999999999 224.85999999999999 356.37999999999994 229.79999999999998 356.37999999999994 L 472.15999999999997 356.37999999999994 C 481.23999999999995 337.61999999999995 487.89 317.48999999999995 491.84999999999997 296.3999999999999 L 259.21999999999997 296.3999999999999 C 254.27999999999997 296.3999999999999 249.57999999999998 294.2799999999999 246.30999999999997 290.5899999999999 L 229.11999999999998 271.1599999999999 C 226.55999999999997 268.25999999999993 222.86999999999998 266.6099999999999 219.01 266.6099999999999 C 215.15 266.6099999999999 211.45999999999998 268.2699999999999 208.89999999999998 271.1599999999999 L 194.14999999999998 287.8299999999999 C 189.31999999999996 293.2799999999999 182.39 296.4099999999999 175.09999999999997 296.4099999999999 L 19.12 296.4099999999999 C 23.080000000000002 317.4999999999999 29.740000000000002 337.6299999999999 38.81 356.38999999999993 L 148.4 356.38999999999993 Z" stroke-linecap="round" />
</g>
		<g transform="matrix(1 0 0 1 0 -192.55)"  >
<path style="stroke: none; stroke-width: 1; stroke-dasharray: none; stroke-linecap: butt; stroke-dashoffset: 0; stroke-linejoin: miter; stroke-miterlimit: 4; fill: rgb(0,255,208); fill-rule: nonzero; opacity: 1;" vector-effect="non-scaling-stroke"  transform=" translate(-255.49, -59.2)" d="M 320.34 107.24 C 324.19 107.24 327.88 105.67 330.53999999999996 102.89 L 350.93999999999994 81.6 C 353.48999999999995 78.94 357.00999999999993 77.44 360.68999999999994 77.44 L 361.5299999999999 77.44 C 365.3999999999999 77.44 369.0799999999999 79.1 371.63999999999993 82 L 388.8299999999999 101.43 C 392.0999999999999 105.13000000000001 396.79999999999995 107.24000000000001 401.73999999999995 107.24000000000001 L 447.8299999999999 107.24000000000001 C 403.94 48.9 334.13 11.16 255.49 11.16 C 176.85000000000002 11.16 107.04 48.9 63.15 107.24 L 320.34 107.24 Z" stroke-linecap="round" />
</g>
		<g transform="matrix(1 0 0 1 0.02 187.44)"  >
<path style="stroke: none; stroke-width: 1; stroke-dasharray: none; stroke-linecap: butt; stroke-dashoffset: 0; stroke-linejoin: miter; stroke-miterlimit: 4; fill: rgb(0,255,208); fill-rule: nonzero; opacity: 1;" vector-effect="non-scaling-stroke"  transform=" translate(-255.51, -439.19)" d="M 227.77 415.83 L 164.74 415.83 C 159.8 415.83 155.10000000000002 413.71 151.83 410.02 L 134.64000000000001 390.59 C 132.08 387.69 128.39000000000001 386.03999999999996 124.53000000000002 386.03999999999996 C 120.67000000000002 386.03999999999996 116.98000000000002 387.7 114.42000000000002 390.59 L 99.67000000000002 407.26 C 94.84000000000002 412.71 87.91000000000001 415.84 80.62000000000002 415.84 L 79.64000000000001 415.84 C 123.55000000000001 462.89 186.08 492.34 255.51000000000002 492.34 C 324.94000000000005 492.34 387.46000000000004 462.89 431.38 415.84 L 227.77 415.84 Z" stroke-linecap="round" />
</g>
</g>
</g>
</svg>