<svg xmlns="http://www.w3.org/2000/svg" xmlns:xlink="http://www.w3.org/1999/xlink" width="1756pt" height="2072pt" viewBox="0.00 0.00 1755.83 2072.00">
<g id="graph0" class="graph" transform="scale(1 1) rotate(0) translate(4 2068)">
<title>Neura Execution Engine Architecture</title>
<polygon fill="white" stroke="none" points="-4,4 -4,-2068 1751.83,-2068 1751.83,4 -4,4"/>
<g id="clust1" class="cluster">
<title>cluster_core</title>
<path fill="#fce8e6" stroke="#db4437" d="M20,-786C20,-786 830.36,-786 830.36,-786 836.36,-786 842.36,-792 842.36,-798 842.36,-798 842.36,-1182 842.36,-1182 842.36,-1188 836.36,-1194 830.36,-1194 830.36,-1194 20,-1194 20,-1194 14,-1194 8,-1188 8,-1182 8,-1182 8,-798 8,-798 8,-792 14,-786 20,-786"/>
<text text-anchor="middle" x="425.18" y="-1175.6" font-family="Arial" font-size="16.00" fill="#db4437">Core Components</text>
</g>
<g id="clust2" class="cluster">
<title>cluster_elements</title>
<path fill="#fef7e0" stroke="#f7b529" d="M660.15,-1202C660.15,-1202 1169.29,-1202 1169.29,-1202 1175.29,-1202 1181.29,-1208 1181.29,-1214 1181.29,-1214 1181.29,-2044 1181.29,-2044 1181.29,-2050 1175.29,-2056 1169.29,-2056 1169.29,-2056 660.15,-2056 660.15,-2056 654.15,-2056 648.15,-2050 648.15,-2044 648.15,-2044 648.15,-1214 648.15,-1214 648.15,-1208 654.15,-1202 660.15,-1202"/>
<text text-anchor="middle" x="914.72" y="-2037.6" font-family="Arial" font-size="16.00" fill="#f7b529">Element Types</text>
</g>
<g id="clust3" class="cluster">
<title>cluster_flowelement_types</title>
<path fill="#feefc3" stroke="#f7b529" d="M1024.16,-1734C1024.16,-1734 1140.68,-1734 1140.68,-1734 1146.68,-1734 1152.68,-1740 1152.68,-1746 1152.68,-1746 1152.68,-2009 1152.68,-2009 1152.68,-2015 1146.68,-2021 1140.68,-2021 1140.68,-2021 1024.16,-2021 1024.16,-2021 1018.16,-2021 1012.16,-2015 1012.16,-2009 1012.16,-2009 1012.16,-1746 1012.16,-1746 1012.16,-1740 1018.16,-1734 1024.16,-1734"/>
<text text-anchor="middle" x="1082.42" y="-2004.4" font-family="Arial" font-size="14.00" fill="#f7b529">Flow Control Types</text>
</g>
<g id="clust4" class="cluster">
<title>cluster_inputelement_types</title>
<path fill="#feefc3" stroke="#f7b529" d="M1003.55,-1373C1003.55,-1373 1161.29,-1373 1161.29,-1373 1167.29,-1373 1173.29,-1379 1173.29,-1385 1173.29,-1385 1173.29,-1714 1173.29,-1714 1173.29,-1720 1167.29,-1726 1161.29,-1726 1161.29,-1726 1003.55,-1726 1003.55,-1726 997.55,-1726 991.55,-1720 991.55,-1714 991.55,-1714 991.55,-1385 991.55,-1385 991.55,-1379 997.55,-1373 1003.55,-1373"/>
<text text-anchor="middle" x="1082.42" y="-1709.4" font-family="Arial" font-size="14.00" fill="#f7b529">Input Element Types</text>
</g>
<g id="clust5" class="cluster">
<title>cluster_aielement_types</title>
<path fill="#feefc3" stroke="#f7b529" d="M1018.33,-1210C1018.33,-1210 1146.52,-1210 1146.52,-1210 1152.52,-1210 1158.52,-1216 1158.52,-1222 1158.52,-1222 1158.52,-1353 1158.52,-1353 1158.52,-1359 1152.52,-1365 1146.52,-1365 1146.52,-1365 1018.33,-1365 1018.33,-1365 1012.33,-1365 1006.33,-1359 1006.33,-1353 1006.33,-1353 1006.33,-1222 1006.33,-1222 1006.33,-1216 1012.33,-1210 1018.33,-1210"/>
<text text-anchor="middle" x="1082.42" y="-1348.4" font-family="Arial" font-size="14.00" fill="#f7b529">AI Element Types</text>
</g>
<g id="clust6" class="cluster">
<title>cluster_services</title>
<path fill="#e8f0fe" stroke="#4285f4" d="M981.75,-485C981.75,-485 1183.09,-485 1183.09,-485 1189.09,-485 1195.09,-491 1195.09,-497 1195.09,-497 1195.09,-1026 1195.09,-1026 1195.09,-1032 1189.09,-1038 1183.09,-1038 1183.09,-1038 981.75,-1038 981.75,-1038 975.75,-1038 969.75,-1032 969.75,-1026 969.75,-1026 969.75,-497 969.75,-497 969.75,-491 975.75,-485 981.75,-485"/>
<text text-anchor="middle" x="1082.42" y="-1019.6" font-family="Arial" font-size="16.00" fill="#4285f4">Services</text>
</g>
<g id="clust7" class="cluster">
<title>cluster_communication</title>
<path fill="#e6f4ea" stroke="#0f9d58" d="M658.2,-122C658.2,-122 1155.08,-122 1155.08,-122 1161.08,-122 1167.08,-128 1167.08,-134 1167.08,-134 1167.08,-465 1167.08,-465 1167.08,-471 1161.08,-477 1155.08,-477 1155.08,-477 658.2,-477 658.2,-477 652.2,-477 646.2,-471 646.2,-465 646.2,-465 646.2,-134 646.2,-134 646.2,-128 652.2,-122 658.2,-122"/>
<text text-anchor="middle" x="906.64" y="-458.6" font-family="Arial" font-size="16.00" fill="#0f9d58">Communication</text>
</g>
<g id="clust8" class="cluster">
<title>cluster_dataflow</title>
<path fill="#f3e8ff" stroke="#7627bb" d="M1321.83,-1023C1321.83,-1023 1727.83,-1023 1727.83,-1023 1733.83,-1023 1739.83,-1029 1739.83,-1035 1739.83,-1035 1739.83,-1234 1739.83,-1234 1739.83,-1240 1733.83,-1246 1727.83,-1246 1727.83,-1246 1321.83,-1246 1321.83,-1246 1315.83,-1246 1309.83,-1240 1309.83,-1234 1309.83,-1234 1309.83,-1035 1309.83,-1035 1309.83,-1029 1315.83,-1023 1321.83,-1023"/>
<text text-anchor="middle" x="1524.83" y="-1227.6" font-family="Arial" font-size="16.00" fill="#7627bb">Data Flow Management</text>
</g>
<!-- FlowExecutor -->
<g id="node1" class="node">
<title>FlowExecutor</title>
<path fill="#fcd0cd" stroke="#333333" d="M193.91,-842C193.91,-842 28,-842 28,-842 22,-842 16,-836 16,-830 16,-830 16,-806 16,-806 16,-800 22,-794 28,-794 28,-794 193.91,-794 193.91,-794 199.91,-794 205.91,-800 205.91,-806 205.91,-806 205.91,-830 205.91,-830 205.91,-836 199.91,-842 193.91,-842"/>
<text text-anchor="middle" x="110.95" y="-822.2" font-family="Arial" font-size="14.00" fill="#333333">Flow Executor</text>
<text text-anchor="middle" x="110.95" y="-805.4" font-family="Arial" font-size="14.00" fill="#333333">Manages execution graph</text>
</g>
<!-- ExecutionContext -->
<g id="node2" class="node">
<title>ExecutionContext</title>
<path fill="#fcd0cd" stroke="#333333" d="M485.16,-842C485.16,-842 346.5,-842 346.5,-842 340.5,-842 334.5,-836 334.5,-830 334.5,-830 334.5,-806 334.5,-806 334.5,-800 340.5,-794 346.5,-794 346.5,-794 485.16,-794 485.16,-794 491.16,-794 497.16,-800 497.16,-806 497.16,-806 497.16,-830 497.16,-830 497.16,-836 491.16,-842 485.16,-842"/>
<text text-anchor="middle" x="415.83" y="-822.2" font-family="Arial" font-size="14.00" fill="#333333">Execution Context</text>
<text text-anchor="middle" x="415.83" y="-805.4" font-family="Arial" font-size="14.00" fill="#333333">Holds execution state</text>
</g>
<!-- FlowExecutor&#45;&gt;ExecutionContext -->
<g id="edge13" class="edge">
<title>FlowExecutor-&gt;ExecutionContext</title>
<path fill="none" stroke="#666666" stroke-width="1.2" d="M206.13,-818C243.26,-818 285.79,-818 322.72,-818"/>
<polygon fill="#666666" stroke="#666666" stroke-width="1.2" points="322.68,-821.5 332.68,-818 322.68,-814.5 322.68,-821.5"/>
<text text-anchor="middle" x="270.21" y="-822.2" font-family="Arial" font-size="14.00" fill="#666666">Manages</text>
</g>
<!-- ElementBase -->
<g id="node3" class="node">
<title>ElementBase</title>
<path fill="#fcd0cd" stroke="#333333" d="M478.92,-961C478.92,-961 352.74,-961 352.74,-961 346.74,-961 340.74,-955 340.74,-949 340.74,-949 340.74,-925 340.74,-925 340.74,-919 346.74,-913 352.74,-913 352.74,-913 478.92,-913 478.92,-913 484.92,-913 490.92,-919 490.92,-925 490.92,-925 490.92,-949 490.92,-949 490.92,-955 484.92,-961 478.92,-961"/>
<text text-anchor="middle" x="415.83" y="-941.2" font-family="Arial" font-size="14.00" fill="#333333">Element Base</text>
<text text-anchor="middle" x="415.83" y="-924.4" font-family="Arial" font-size="14.00" fill="#333333">Abstract base class</text>
</g>
<!-- FlowExecutor&#45;&gt;ElementBase -->
<g id="edge12" class="edge">
<title>FlowExecutor-&gt;ElementBase</title>
<path fill="none" stroke="#666666" stroke-width="1.2" d="M148.57,-842.4C169.87,-855.78 197.63,-871.86 223.91,-883 257.39,-897.19 295.72,-908.86 329.21,-917.67"/>
<polygon fill="#666666" stroke="#666666" stroke-width="1.2" points="328.06,-920.99 338.61,-920.1 329.81,-914.21 328.06,-920.99"/>
<text text-anchor="middle" x="270.21" y="-918.38" font-family="Arial" font-size="14.00" fill="#666666">Creates</text>
</g>
<!-- DependencyResolver -->
<g id="node4" class="node">
<title>DependencyResolver</title>
<path fill="#fcd0cd" stroke="#333333" d="M822.36,-917C822.36,-917 659.57,-917 659.57,-917 653.57,-917 647.57,-911 647.57,-905 647.57,-905 647.57,-881 647.57,-881 647.57,-875 653.57,-869 659.57,-869 659.57,-869 822.36,-869 822.36,-869 828.36,-869 834.36,-875 834.36,-881 834.36,-881 834.36,-905 834.36,-905 834.36,-911 828.36,-917 822.36,-917"/>
<text text-anchor="middle" x="740.96" y="-897.2" font-family="Arial" font-size="14.00" fill="#333333">Dependency Resolver</text>
<text text-anchor="middle" x="740.96" y="-880.4" font-family="Arial" font-size="14.00" fill="#333333">Manages execution order</text>
</g>
<!-- FlowExecutor&#45;&gt;DependencyResolver -->
<g id="edge14" class="edge">
<title>FlowExecutor-&gt;DependencyResolver</title>
<path fill="none" stroke="#666666" stroke-width="1.2" d="M206.24,-836.22C212.21,-837.21 218.14,-838.15 223.91,-839 366.06,-860.01 531.43,-875.81 635.89,-884.73"/>
<polygon fill="#666666" stroke="#666666" stroke-width="1.2" points="635.31,-888.19 645.57,-885.55 635.9,-881.21 635.31,-888.19"/>
<text text-anchor="middle" x="415.83" y="-876.04" font-family="Arial" font-size="14.00" fill="#666666">Uses</text>
</g>
<!-- CacheSystem -->
<g id="node5" class="node">
<title>CacheSystem</title>
<path fill="#fcd0cd" stroke="#333333" d="M465.32,-1027C465.32,-1027 366.34,-1027 366.34,-1027 360.34,-1027 354.34,-1021 354.34,-1015 354.34,-1015 354.34,-991 354.34,-991 354.34,-985 360.34,-979 366.34,-979 366.34,-979 465.32,-979 465.32,-979 471.32,-979 477.32,-985 477.32,-991 477.32,-991 477.32,-1015 477.32,-1015 477.32,-1021 471.32,-1027 465.32,-1027"/>
<text text-anchor="middle" x="415.83" y="-1007.2" font-family="Arial" font-size="14.00" fill="#333333">Cache System</text>
<text text-anchor="middle" x="415.83" y="-990.4" font-family="Arial" font-size="14.00" fill="#333333">Output caching</text>
</g>
<!-- FlowExecutor&#45;&gt;CacheSystem -->
<g id="edge16" class="edge">
<title>FlowExecutor-&gt;CacheSystem</title>
<path fill="none" stroke="#666666" stroke-width="1.2" d="M129.58,-842.28C149.72,-868.47 184.98,-909.78 223.91,-935 260.04,-958.4 305.24,-974.97 342.59,-985.89"/>
<polygon fill="#666666" stroke="#666666" stroke-width="1.2" points="341.59,-989.24 352.16,-988.6 343.5,-982.5 341.59,-989.24"/>
<text text-anchor="middle" x="270.21" y="-980.96" font-family="Arial" font-size="14.00" fill="#666666">Caches results</text>
</g>
<!-- LoggingService -->
<g id="node6" class="node">
<title>LoggingService</title>
<path fill="#fcd0cd" stroke="#333333" d="M468.43,-1093C468.43,-1093 363.23,-1093 363.23,-1093 357.23,-1093 351.23,-1087 351.23,-1081 351.23,-1081 351.23,-1057 351.23,-1057 351.23,-1051 357.23,-1045 363.23,-1045 363.23,-1045 468.43,-1045 468.43,-1045 474.43,-1045 480.43,-1051 480.43,-1057 480.43,-1057 480.43,-1081 480.43,-1081 480.43,-1087 474.43,-1093 468.43,-1093"/>
<text text-anchor="middle" x="415.83" y="-1073.2" font-family="Arial" font-size="14.00" fill="#333333">Logging Service</text>
<text text-anchor="middle" x="415.83" y="-1056.4" font-family="Arial" font-size="14.00" fill="#333333">Execution logs</text>
</g>
<!-- FlowExecutor&#45;&gt;LoggingService -->
<g id="edge17" class="edge">
<title>FlowExecutor-&gt;LoggingService</title>
<path fill="none" stroke="#666666" stroke-width="1.2" d="M120.97,-842.22C136.39,-880.5 171.34,-955.03 223.91,-998 257.3,-1025.29 302.21,-1042.7 340.08,-1053.44"/>
<polygon fill="#666666" stroke="#666666" stroke-width="1.2" points="338.76,-1056.7 349.32,-1055.95 340.59,-1049.95 338.76,-1056.7"/>
<text text-anchor="middle" x="270.21" y="-1050.27" font-family="Arial" font-size="14.00" fill="#666666">Logs activity</text>
</g>
<!-- ConfigManager -->
<g id="node7" class="node">
<title>ConfigManager</title>
<path fill="#fcd0cd" stroke="#333333" d="M476.59,-1159C476.59,-1159 355.06,-1159 355.06,-1159 349.06,-1159 343.06,-1153 343.06,-1147 343.06,-1147 343.06,-1123 343.06,-1123 343.06,-1117 349.06,-1111 355.06,-1111 355.06,-1111 476.59,-1111 476.59,-1111 482.59,-1111 488.59,-1117 488.59,-1123 488.59,-1123 488.59,-1147 488.59,-1147 488.59,-1153 482.59,-1159 476.59,-1159"/>
<text text-anchor="middle" x="415.83" y="-1139.2" font-family="Arial" font-size="14.00" fill="#333333">Config Manager</text>
<text text-anchor="middle" x="415.83" y="-1122.4" font-family="Arial" font-size="14.00" fill="#333333">Environment setup</text>
</g>
<!-- FlowExecutor&#45;&gt;ConfigManager -->
<g id="edge18" class="edge">
<title>FlowExecutor-&gt;ConfigManager</title>
<path fill="none" stroke="#666666" stroke-width="1.2" d="M116.27,-842.24C126.28,-891.51 155.63,-1004 223.91,-1067 253.55,-1094.35 294.94,-1110.84 331.6,-1120.72"/>
<polygon fill="#666666" stroke="#666666" stroke-width="1.2" points="330.49,-1124.05 341.04,-1123.12 332.22,-1117.26 330.49,-1124.05"/>
<text text-anchor="middle" x="270.21" y="-1119.96" font-family="Arial" font-size="14.00" fill="#666666">Reads config</text>
</g>
<!-- StreamManager -->
<g id="node26" class="node">
<title>StreamManager</title>
<path fill="#d2e3fc" stroke="#333333" d="M1153.3,-541C1153.3,-541 1011.55,-541 1011.55,-541 1005.55,-541 999.55,-535 999.55,-529 999.55,-529 999.55,-505 999.55,-505 999.55,-499 1005.55,-493 1011.55,-493 1011.55,-493 1153.3,-493 1153.3,-493 1159.3,-493 1165.3,-499 1165.3,-505 1165.3,-505 1165.3,-529 1165.3,-529 1165.3,-535 1159.3,-541 1153.3,-541"/>
<text text-anchor="middle" x="1082.42" y="-521.2" font-family="Arial" font-size="14.00" fill="#333333">Stream Manager</text>
<text text-anchor="middle" x="1082.42" y="-504.4" font-family="Arial" font-size="14.00" fill="#333333">WebSocket streaming</text>
</g>
<!-- FlowExecutor&#45;&gt;StreamManager -->
<g id="edge26" class="edge">
<title>FlowExecutor-&gt;StreamManager</title>
<path fill="none" stroke="#666666" stroke-width="1.2" d="M128.93,-793.6C148.75,-766.87 183.97,-724.54 223.91,-700 267.62,-673.15 284.85,-679.86 334.5,-667 567.15,-606.75 845.83,-556.46 987.99,-532.34"/>
<polygon fill="#666666" stroke="#666666" stroke-width="1.2" points="988.17,-535.86 997.45,-530.75 987,-528.96 988.17,-535.86"/>
<text text-anchor="middle" x="572.36" y="-626.49" font-family="Arial" font-size="14.00" fill="#666666">Publishes updates</text>
</g>
<!-- ValidationService -->
<g id="node27" class="node">
<title>ValidationService</title>
<path fill="#d2e3fc" stroke="#333333" d="M1153.32,-871C1153.32,-871 1011.53,-871 1011.53,-871 1005.53,-871 999.53,-865 999.53,-859 999.53,-859 999.53,-835 999.53,-835 999.53,-829 1005.53,-823 1011.53,-823 1011.53,-823 1153.32,-823 1153.32,-823 1159.32,-823 1165.32,-829 1165.32,-835 1165.32,-835 1165.32,-859 1165.32,-859 1165.32,-865 1159.32,-871 1153.32,-871"/>
<text text-anchor="middle" x="1082.42" y="-851.2" font-family="Arial" font-size="14.00" fill="#333333">Validation Service</text>
<text text-anchor="middle" x="1082.42" y="-834.4" font-family="Arial" font-size="14.00" fill="#333333">Input/output validation</text>
</g>
<!-- FlowExecutor&#45;&gt;ValidationService -->
<g id="edge27" class="edge">
<title>FlowExecutor-&gt;ValidationService</title>
<path fill="none" stroke="#666666" stroke-width="1.2" d="M206.37,-800.86C245.82,-794.52 292.24,-788.12 334.5,-785 569.59,-767.67 845.99,-805.91 987.51,-829.76"/>
<polygon fill="#666666" stroke="#666666" stroke-width="1.2" points="986.88,-833.2 997.33,-831.43 988.06,-826.3 986.88,-833.2"/>
<text text-anchor="middle" x="572.36" y="-790.7" font-family="Arial" font-size="14.00" fill="#666666">Validates I/O</text>
</g>
<!-- SecurityManager -->
<g id="node30" class="node">
<title>SecurityManager</title>
<path fill="#d2e3fc" stroke="#333333" d="M1171.2,-805C1171.2,-805 993.65,-805 993.65,-805 987.65,-805 981.65,-799 981.65,-793 981.65,-793 981.65,-769 981.65,-769 981.65,-763 987.65,-757 993.65,-757 993.65,-757 1171.2,-757 1171.2,-757 1177.2,-757 1183.2,-763 1183.2,-769 1183.2,-769 1183.2,-793 1183.2,-793 1183.2,-799 1177.2,-805 1171.2,-805"/>
<text text-anchor="middle" x="1082.42" y="-785.2" font-family="Arial" font-size="14.00" fill="#333333">Security Manager</text>
<text text-anchor="middle" x="1082.42" y="-768.4" font-family="Arial" font-size="14.00" fill="#333333">Access control enforcement</text>
</g>
<!-- FlowExecutor&#45;&gt;SecurityManager -->
<g id="edge30" class="edge">
<title>FlowExecutor-&gt;SecurityManager</title>
<path fill="none" stroke="#666666" stroke-width="1.2" d="M181.81,-793.52C195.62,-789.43 210.11,-785.66 223.91,-783 487.29,-732.19 804.7,-751.91 969.62,-768.05"/>
<polygon fill="#666666" stroke="#666666" stroke-width="1.2" points="969.12,-771.52 979.42,-769.03 969.82,-764.55 969.12,-771.52"/>
<text text-anchor="middle" x="572.36" y="-756.27" font-family="Arial" font-size="14.00" fill="#666666">Enforces access</text>
</g>
<!-- ErrorHandler -->
<g id="node31" class="node">
<title>ErrorHandler</title>
<path fill="#d2e3fc" stroke="#333333" d="M1175.09,-739C1175.09,-739 989.75,-739 989.75,-739 983.75,-739 977.75,-733 977.75,-727 977.75,-727 977.75,-703 977.75,-703 977.75,-697 983.75,-691 989.75,-691 989.75,-691 1175.09,-691 1175.09,-691 1181.09,-691 1187.09,-697 1187.09,-703 1187.09,-703 1187.09,-727 1187.09,-727 1187.09,-733 1181.09,-739 1175.09,-739"/>
<text text-anchor="middle" x="1082.42" y="-719.2" font-family="Arial" font-size="14.00" fill="#333333">Error Handler</text>
<text text-anchor="middle" x="1082.42" y="-702.4" font-family="Arial" font-size="14.00" fill="#333333">Graceful failure management</text>
</g>
<!-- FlowExecutor&#45;&gt;ErrorHandler -->
<g id="edge28" class="edge">
<title>FlowExecutor-&gt;ErrorHandler</title>
<path fill="none" stroke="#666666" stroke-width="1.2" d="M155.68,-793.57C175.89,-783.26 200.54,-772.05 223.91,-765 271.46,-750.66 285.23,-755.26 334.5,-749 414.63,-738.82 434.57,-734.62 515.16,-729.2 670.97,-718.73 851.36,-715.78 965.89,-715.06"/>
<polygon fill="#666666" stroke="#666666" stroke-width="1.2" points="965.66,-718.56 975.64,-715 965.62,-711.56 965.66,-718.56"/>
<text text-anchor="middle" x="572.36" y="-733.4" font-family="Arial" font-size="14.00" fill="#666666">Handles errors</text>
</g>
<!-- MetricsCollector -->
<g id="node32" class="node">
<title>MetricsCollector</title>
<path fill="#d2e3fc" stroke="#333333" d="M1159.52,-673C1159.52,-673 1005.32,-673 1005.32,-673 999.32,-673 993.32,-667 993.32,-661 993.32,-661 993.32,-637 993.32,-637 993.32,-631 999.32,-625 1005.32,-625 1005.32,-625 1159.52,-625 1159.52,-625 1165.52,-625 1171.52,-631 1171.52,-637 1171.52,-637 1171.52,-661 1171.52,-661 1171.52,-667 1165.52,-673 1159.52,-673"/>
<text text-anchor="middle" x="1082.42" y="-653.2" font-family="Arial" font-size="14.00" fill="#333333">Metrics Collector</text>
<text text-anchor="middle" x="1082.42" y="-636.4" font-family="Arial" font-size="14.00" fill="#333333">Performance monitoring</text>
</g>
<!-- FlowExecutor&#45;&gt;MetricsCollector -->
<g id="edge29" class="edge">
<title>FlowExecutor-&gt;MetricsCollector</title>
<path fill="none" stroke="#666666" stroke-width="1.2" d="M143,-793.67C164.54,-777.99 194.54,-758.46 223.91,-747 270.44,-728.84 285.17,-734.84 334.5,-727 564.86,-690.38 838.04,-666.85 981.68,-656"/>
<polygon fill="#666666" stroke="#666666" stroke-width="1.2" points="981.54,-659.52 991.25,-655.28 981.02,-652.54 981.54,-659.52"/>
<text text-anchor="middle" x="572.36" y="-704.91" font-family="Arial" font-size="14.00" fill="#666666">Reports metrics</text>
</g>
<!-- RateLimiter -->
<g id="node33" class="node">
<title>RateLimiter</title>
<path fill="#d2e3fc" stroke="#333333" d="M1138.12,-607C1138.12,-607 1026.73,-607 1026.73,-607 1020.73,-607 1014.73,-601 1014.73,-595 1014.73,-595 1014.73,-571 1014.73,-571 1014.73,-565 1020.73,-559 1026.73,-559 1026.73,-559 1138.12,-559 1138.12,-559 1144.12,-559 1150.12,-565 1150.12,-571 1150.12,-571 1150.12,-595 1150.12,-595 1150.12,-601 1144.12,-607 1138.12,-607"/>
<text text-anchor="middle" x="1082.42" y="-587.2" font-family="Arial" font-size="14.00" fill="#333333">Rate Limiter</text>
<text text-anchor="middle" x="1082.42" y="-570.4" font-family="Arial" font-size="14.00" fill="#333333">Throttling service</text>
</g>
<!-- FlowExecutor&#45;&gt;RateLimiter -->
<g id="edge31" class="edge">
<title>FlowExecutor-&gt;RateLimiter</title>
<path fill="none" stroke="#666666" stroke-width="1.2" d="M134.95,-793.52C156.1,-772.48 189.34,-742.92 223.91,-726 269.17,-703.85 285.12,-711.06 334.5,-701 576.53,-651.7 866.24,-611.13 1002.82,-593.09"/>
<polygon fill="#666666" stroke="#666666" stroke-width="1.2" points="1003.11,-596.58 1012.57,-591.8 1002.19,-589.64 1003.11,-596.58"/>
<text text-anchor="middle" x="572.36" y="-669.92" font-family="Arial" font-size="14.00" fill="#666666">Controls rate</text>
</g>
<!-- EventSystem -->
<g id="node36" class="node">
<title>EventSystem</title>
<path fill="#f5f5f5" stroke="#333333" d="M793.57,-442C793.57,-442 688.36,-442 688.36,-442 682.36,-442 676.36,-436 676.36,-430 676.36,-430 676.36,-406 676.36,-406 676.36,-400 682.36,-394 688.36,-394 688.36,-394 793.57,-394 793.57,-394 799.57,-394 805.57,-400 805.57,-406 805.57,-406 805.57,-430 805.57,-430 805.57,-436 799.57,-442 793.57,-442"/>
<text text-anchor="middle" x="740.96" y="-422.2" font-family="Arial" font-size="14.00" fill="#333333">Event System</text>
<text text-anchor="middle" x="740.96" y="-405.4" font-family="Arial" font-size="14.00" fill="#333333">Internal pub/sub</text>
</g>
<!-- FlowExecutor&#45;&gt;EventSystem -->
<g id="edge38" class="edge">
<title>FlowExecutor-&gt;EventSystem</title>
<path fill="none" stroke="#666666" stroke-width="1.2" d="M114.32,-793.55C120.94,-739.05 144.73,-607.02 223.91,-539 349.85,-430.81 554.6,-415.02 664.52,-415.12"/>
<polygon fill="#666666" stroke="#666666" stroke-width="1.2" points="664.31,-418.62 674.33,-415.18 664.36,-411.62 664.31,-418.62"/>
<text text-anchor="middle" x="415.83" y="-474.65" font-family="Arial" font-size="14.00" fill="#666666">Publishes events</text>
</g>
<!-- ElementBase&#45;&gt;DependencyResolver -->
<g id="edge15" class="edge">
<title>ElementBase-&gt;DependencyResolver</title>
<path fill="none" stroke="#666666" stroke-width="1.2" d="M491.37,-926.85C534.24,-921.01 588.77,-913.59 635.83,-907.18"/>
<polygon fill="#666666" stroke="#666666" stroke-width="1.2" points="636.07,-910.68 645.51,-905.86 635.12,-903.74 636.07,-910.68"/>
<text text-anchor="middle" x="572.36" y="-926.97" font-family="Arial" font-size="14.00" fill="#666666">Registers deps</text>
</g>
<!-- FlowControl -->
<g id="node8" class="node">
<title>FlowControl</title>
<path fill="#f5f5f5" stroke="#333333" d="M813.78,-1823C813.78,-1823 668.15,-1823 668.15,-1823 662.15,-1823 656.15,-1817 656.15,-1811 656.15,-1811 656.15,-1787 656.15,-1787 656.15,-1781 662.15,-1775 668.15,-1775 668.15,-1775 813.78,-1775 813.78,-1775 819.78,-1775 825.78,-1781 825.78,-1787 825.78,-1787 825.78,-1811 825.78,-1811 825.78,-1817 819.78,-1823 813.78,-1823"/>
<text text-anchor="middle" x="740.96" y="-1803.2" font-family="Arial" font-size="14.00" fill="#333333">Flow Control Elements</text>
<text text-anchor="middle" x="740.96" y="-1786.4" font-family="Arial" font-size="14.00" fill="#333333">Conditional execution</text>
</g>
<!-- ElementBase&#45;&gt;FlowControl -->
<g id="edge19" class="edge">
<title>ElementBase-&gt;FlowControl</title>
<path fill="none" stroke="#666666" stroke-width="1.2" stroke-dasharray="5,2" d="M489.43,-961.25C492.31,-963.87 494.92,-966.78 497.16,-970 532.46,-1020.87 493.26,-1469.08 515.16,-1527 553.77,-1629.11 647.54,-1720.85 700.98,-1767.19"/>
<polygon fill="#666666" stroke="#666666" stroke-width="1.2" points="698.58,-1769.74 708.46,-1773.59 703.14,-1764.43 698.58,-1769.74"/>
<text text-anchor="middle" x="572.36" y="-1697.02" font-family="Arial" font-size="14.00" fill="#666666">Extends</text>
</g>
<!-- InputElements -->
<g id="node9" class="node">
<title>InputElements</title>
<path fill="#f5f5f5" stroke="#333333" d="M803.69,-1532C803.69,-1532 678.24,-1532 678.24,-1532 672.24,-1532 666.24,-1526 666.24,-1520 666.24,-1520 666.24,-1496 666.24,-1496 666.24,-1490 672.24,-1484 678.24,-1484 678.24,-1484 803.69,-1484 803.69,-1484 809.69,-1484 815.69,-1490 815.69,-1496 815.69,-1496 815.69,-1520 815.69,-1520 815.69,-1526 809.69,-1532 803.69,-1532"/>
<text text-anchor="middle" x="740.96" y="-1512.2" font-family="Arial" font-size="14.00" fill="#333333">Input Elements</text>
<text text-anchor="middle" x="740.96" y="-1495.4" font-family="Arial" font-size="14.00" fill="#333333">Data input handling</text>
</g>
<!-- ElementBase&#45;&gt;InputElements -->
<g id="edge20" class="edge">
<title>ElementBase-&gt;InputElements</title>
<path fill="none" stroke="#666666" stroke-width="1.2" stroke-dasharray="5,2" d="M489.41,-961.26C492.3,-963.88 494.91,-966.79 497.16,-970 527.76,-1013.86 481.53,-1409.41 515.16,-1451 548.14,-1491.8 605.79,-1505.83 654.45,-1509.78"/>
<polygon fill="#666666" stroke="#666666" stroke-width="1.2" points="653.94,-1513.25 664.15,-1510.42 654.4,-1506.27 653.94,-1513.25"/>
<text text-anchor="middle" x="572.36" y="-1510.89" font-family="Arial" font-size="14.00" fill="#666666">Extends</text>
</g>
<!-- AIElements -->
<g id="node10" class="node">
<title>AIElements</title>
<path fill="#f5f5f5" stroke="#333333" d="M797.06,-1456C797.06,-1456 684.86,-1456 684.86,-1456 678.86,-1456 672.86,-1450 672.86,-1444 672.86,-1444 672.86,-1420 672.86,-1420 672.86,-1414 678.86,-1408 684.86,-1408 684.86,-1408 797.06,-1408 797.06,-1408 803.06,-1408 809.06,-1414 809.06,-1420 809.06,-1420 809.06,-1444 809.06,-1444 809.06,-1450 803.06,-1456 797.06,-1456"/>
<text text-anchor="middle" x="740.96" y="-1436.2" font-family="Arial" font-size="14.00" fill="#333333">AI Elements</text>
<text text-anchor="middle" x="740.96" y="-1419.4" font-family="Arial" font-size="14.00" fill="#333333">Model integration</text>
</g>
<!-- ElementBase&#45;&gt;AIElements -->
<g id="edge21" class="edge">
<title>ElementBase-&gt;AIElements</title>
<path fill="none" stroke="#666666" stroke-width="1.2" stroke-dasharray="5,2" d="M489.38,-961.28C492.28,-963.9 494.9,-966.79 497.16,-970 523,-1006.76 486.85,-1339.1 515.16,-1374 549.65,-1416.53 610.85,-1430.26 660.69,-1433.77"/>
<polygon fill="#666666" stroke="#666666" stroke-width="1.2" points="660.44,-1437.26 670.62,-1434.33 660.84,-1430.27 660.44,-1437.26"/>
<text text-anchor="middle" x="572.36" y="-1434.27" font-family="Arial" font-size="14.00" fill="#666666">Extends</text>
</g>
<!-- UtilityElements -->
<g id="node11" class="node">
<title>UtilityElements</title>
<path fill="#f5f5f5" stroke="#333333" d="M804.83,-1390C804.83,-1390 677.09,-1390 677.09,-1390 671.09,-1390 665.09,-1384 665.09,-1378 665.09,-1378 665.09,-1354 665.09,-1354 665.09,-1348 671.09,-1342 677.09,-1342 677.09,-1342 804.83,-1342 804.83,-1342 810.83,-1342 816.83,-1348 816.83,-1354 816.83,-1354 816.83,-1378 816.83,-1378 816.83,-1384 810.83,-1390 804.83,-1390"/>
<text text-anchor="middle" x="740.96" y="-1370.2" font-family="Arial" font-size="14.00" fill="#333333">Utility Elements</text>
<text text-anchor="middle" x="740.96" y="-1353.4" font-family="Arial" font-size="14.00" fill="#333333">Data transformation</text>
</g>
<!-- ElementBase&#45;&gt;UtilityElements -->
<g id="edge22" class="edge">
<title>ElementBase-&gt;UtilityElements</title>
<path fill="none" stroke="#666666" stroke-width="1.2" stroke-dasharray="5,2" d="M489.35,-961.3C492.26,-963.91 494.89,-966.8 497.16,-970 541.55,-1032.64 465.7,-1256.28 515.16,-1315 533.06,-1336.26 597.69,-1349.46 653.09,-1357.09"/>
<polygon fill="#666666" stroke="#666666" stroke-width="1.2" points="652.57,-1360.55 662.95,-1358.4 653.49,-1353.61 652.57,-1360.55"/>
<text text-anchor="middle" x="572.36" y="-1357.41" font-family="Arial" font-size="14.00" fill="#666666">Extends</text>
</g>
<!-- OutputElements -->
<g id="node12" class="node">
<title>OutputElements</title>
<path fill="#f5f5f5" stroke="#333333" d="M796.27,-1324C796.27,-1324 685.65,-1324 685.65,-1324 679.65,-1324 673.65,-1318 673.65,-1312 673.65,-1312 673.65,-1288 673.65,-1288 673.65,-1282 679.65,-1276 685.65,-1276 685.65,-1276 796.27,-1276 796.27,-1276 802.27,-1276 808.27,-1282 808.27,-1288 808.27,-1288 808.27,-1312 808.27,-1312 808.27,-1318 802.27,-1324 796.27,-1324"/>
<text text-anchor="middle" x="740.96" y="-1304.2" font-family="Arial" font-size="14.00" fill="#333333">Output Elements</text>
<text text-anchor="middle" x="740.96" y="-1287.4" font-family="Arial" font-size="14.00" fill="#333333">Result formatting</text>
</g>
<!-- ElementBase&#45;&gt;OutputElements -->
<g id="edge23" class="edge">
<title>ElementBase-&gt;OutputElements</title>
<path fill="none" stroke="#666666" stroke-width="1.2" stroke-dasharray="5,2" d="M489.29,-961.35C492.21,-963.95 494.86,-966.82 497.16,-970 531.66,-1017.89 478.11,-1189.05 515.16,-1235 549.98,-1278.19 611.62,-1293.8 661.55,-1298.96"/>
<polygon fill="#666666" stroke="#666666" stroke-width="1.2" points="661.24,-1302.44 671.51,-1299.85 661.86,-1295.47 661.24,-1302.44"/>
<text text-anchor="middle" x="572.36" y="-1298.28" font-family="Arial" font-size="14.00" fill="#666666">Extends</text>
</g>
<!-- BlockchainElements -->
<g id="node13" class="node">
<title>BlockchainElements</title>
<path fill="#f5f5f5" stroke="#333333" d="M811.46,-1258C811.46,-1258 670.47,-1258 670.47,-1258 664.47,-1258 658.47,-1252 658.47,-1246 658.47,-1246 658.47,-1222 658.47,-1222 658.47,-1216 664.47,-1210 670.47,-1210 670.47,-1210 811.46,-1210 811.46,-1210 817.46,-1210 823.46,-1216 823.46,-1222 823.46,-1222 823.46,-1246 823.46,-1246 823.46,-1252 817.46,-1258 811.46,-1258"/>
<text text-anchor="middle" x="740.96" y="-1238.2" font-family="Arial" font-size="14.00" fill="#333333">Blockchain Elements</text>
<text text-anchor="middle" x="740.96" y="-1221.4" font-family="Arial" font-size="14.00" fill="#333333">Blockchain interaction</text>
</g>
<!-- ElementBase&#45;&gt;BlockchainElements -->
<g id="edge24" class="edge">
<title>ElementBase-&gt;BlockchainElements</title>
<path fill="none" stroke="#666666" stroke-width="1.2" stroke-dasharray="5,2" d="M489.15,-961.45C492.11,-964.02 494.81,-966.86 497.16,-970 543.47,-1031.9 469.08,-1080.93 515.16,-1143 546.23,-1184.86 599.84,-1207.52 646.91,-1219.75"/>
<polygon fill="#666666" stroke="#666666" stroke-width="1.2" points="645.78,-1223.08 656.33,-1222.07 647.45,-1216.28 645.78,-1223.08"/>
<text text-anchor="middle" x="572.36" y="-1218.56" font-family="Arial" font-size="14.00" fill="#666666">Extends</text>
</g>
<!-- CustomElements -->
<g id="node14" class="node">
<title>CustomElements</title>
<path fill="#f5f5f5" stroke="#333333" d="M799.78,-1889C799.78,-1889 682.15,-1889 682.15,-1889 676.15,-1889 670.15,-1883 670.15,-1877 670.15,-1877 670.15,-1853 670.15,-1853 670.15,-1847 676.15,-1841 682.15,-1841 682.15,-1841 799.78,-1841 799.78,-1841 805.78,-1841 811.78,-1847 811.78,-1853 811.78,-1853 811.78,-1877 811.78,-1877 811.78,-1883 805.78,-1889 799.78,-1889"/>
<text text-anchor="middle" x="740.96" y="-1869.2" font-family="Arial" font-size="14.00" fill="#333333">Custom Elements</text>
<text text-anchor="middle" x="740.96" y="-1852.4" font-family="Arial" font-size="14.00" fill="#333333">User-defined logic</text>
</g>
<!-- ElementBase&#45;&gt;CustomElements -->
<g id="edge25" class="edge">
<title>ElementBase-&gt;CustomElements</title>
<path fill="none" stroke="#666666" stroke-width="1.2" stroke-dasharray="5,2" d="M489.46,-961.23C492.34,-963.86 494.93,-966.77 497.16,-970 520.59,-1004.06 497.88,-1676.44 515.16,-1714 547.9,-1785.21 578.81,-1791.99 646.2,-1832 650.38,-1834.48 654.77,-1836.81 659.27,-1839"/>
<polygon fill="#666666" stroke="#666666" stroke-width="1.2" points="657.74,-1842.15 668.3,-1843.09 660.63,-1835.77 657.74,-1842.15"/>
<text text-anchor="middle" x="572.36" y="-1825.1" font-family="Arial" font-size="14.00" fill="#666666">Extends</text>
</g>
<!-- InputMapping -->
<g id="node45" class="node">
<title>InputMapping</title>
<path fill="#f5f5f5" stroke="#333333" d="M1470.03,-1211C1470.03,-1211 1329.83,-1211 1329.83,-1211 1323.83,-1211 1317.83,-1205 1317.83,-1199 1317.83,-1199 1317.83,-1175 1317.83,-1175 1317.83,-1169 1323.83,-1163 1329.83,-1163 1329.83,-1163 1470.03,-1163 1470.03,-1163 1476.03,-1163 1482.03,-1169 1482.03,-1175 1482.03,-1175 1482.03,-1199 1482.03,-1199 1482.03,-1205 1476.03,-1211 1470.03,-1211"/>
<text text-anchor="middle" x="1399.93" y="-1191.2" font-family="Arial" font-size="14.00" fill="#333333">Input Mapping</text>
<text text-anchor="middle" x="1399.93" y="-1174.4" font-family="Arial" font-size="14.00" fill="#333333">Connects element I/O</text>
</g>
<!-- ElementBase&#45;&gt;InputMapping -->
<g id="edge48" class="edge">
<title>ElementBase-&gt;InputMapping</title>
<path fill="none" stroke="#666666" stroke-width="1.2" d="M479.11,-961.43C485.27,-964.19 491.37,-967.07 497.16,-970 505.52,-974.24 506.5,-977.4 515.16,-981 570.52,-1004.02 587.89,-999.09 646.2,-1013 883.75,-1069.65 1164.14,-1133.74 1306.29,-1166.02"/>
<polygon fill="#666666" stroke="#666666" stroke-width="1.2" points="1305.23,-1169.37 1315.75,-1168.17 1306.78,-1162.54 1305.23,-1169.37"/>
<text text-anchor="middle" x="906.05" y="-1089.91" font-family="Arial" font-size="14.00" fill="#666666">Uses</text>
</g>
<!-- OutputRouting -->
<g id="node46" class="node">
<title>OutputRouting</title>
<path fill="#f5f5f5" stroke="#333333" d="M1461.08,-1145C1461.08,-1145 1338.77,-1145 1338.77,-1145 1332.77,-1145 1326.77,-1139 1326.77,-1133 1326.77,-1133 1326.77,-1109 1326.77,-1109 1326.77,-1103 1332.77,-1097 1338.77,-1097 1338.77,-1097 1461.08,-1097 1461.08,-1097 1467.08,-1097 1473.08,-1103 1473.08,-1109 1473.08,-1109 1473.08,-1133 1473.08,-1133 1473.08,-1139 1467.08,-1145 1461.08,-1145"/>
<text text-anchor="middle" x="1399.93" y="-1125.2" font-family="Arial" font-size="14.00" fill="#333333">Output Routing</text>
<text text-anchor="middle" x="1399.93" y="-1108.4" font-family="Arial" font-size="14.00" fill="#333333">Manages data flow</text>
</g>
<!-- ElementBase&#45;&gt;OutputRouting -->
<g id="edge49" class="edge">
<title>ElementBase-&gt;OutputRouting</title>
<path fill="none" stroke="#666666" stroke-width="1.2" d="M491.03,-951.23C597.13,-971.54 798.31,-1009.94 969.75,-1042 1089.54,-1064.4 1228.24,-1089.84 1314.79,-1105.66"/>
<polygon fill="#666666" stroke="#666666" stroke-width="1.2" points="1314.13,-1109.09 1324.6,-1107.45 1315.39,-1102.21 1314.13,-1109.09"/>
<text text-anchor="middle" x="906.05" y="-1044.07" font-family="Arial" font-size="14.00" fill="#666666">Uses</text>
</g>
<!-- StartElement -->
<g id="node15" class="node">
<title>StartElement</title>
<path fill="#f5f5f5" stroke="#333333" d="M1127.23,-1988C1127.23,-1988 1037.62,-1988 1037.62,-1988 1031.62,-1988 1025.62,-1982 1025.62,-1976 1025.62,-1976 1025.62,-1952 1025.62,-1952 1025.62,-1946 1031.62,-1940 1037.62,-1940 1037.62,-1940 1127.23,-1940 1127.23,-1940 1133.23,-1940 1139.23,-1946 1139.23,-1952 1139.23,-1952 1139.23,-1976 1139.23,-1976 1139.23,-1982 1133.23,-1988 1127.23,-1988"/>
<text text-anchor="middle" x="1082.42" y="-1968.2" font-family="Arial" font-size="14.00" fill="#333333">Start Element</text>
<text text-anchor="middle" x="1082.42" y="-1951.4" font-family="Arial" font-size="14.00" fill="#333333">Entry point</text>
</g>
<!-- FlowControl&#45;&gt;StartElement -->
<g id="edge1" class="edge">
<title>FlowControl-&gt;StartElement</title>
<path fill="none" stroke="#666666" stroke-width="1.2" stroke-dasharray="5,2" d="M825.88,-1820.66C831.78,-1823.93 837.36,-1827.68 842.36,-1832 849.88,-1838.5 845.79,-1844.54 852.36,-1852 893.87,-1899.24 912.85,-1904.22 969.75,-1931 983.67,-1937.55 999.19,-1943.12 1014.11,-1947.72"/>
<polygon fill="#666666" stroke="#666666" stroke-width="1.2" points="1013.06,-1951.06 1023.64,-1950.53 1015.04,-1944.34 1013.06,-1951.06"/>
</g>
<!-- EndElement -->
<g id="node16" class="node">
<title>EndElement</title>
<path fill="#f5f5f5" stroke="#333333" d="M1124.9,-1790C1124.9,-1790 1039.94,-1790 1039.94,-1790 1033.94,-1790 1027.94,-1784 1027.94,-1778 1027.94,-1778 1027.94,-1754 1027.94,-1754 1027.94,-1748 1033.94,-1742 1039.94,-1742 1039.94,-1742 1124.9,-1742 1124.9,-1742 1130.9,-1742 1136.9,-1748 1136.9,-1754 1136.9,-1754 1136.9,-1778 1136.9,-1778 1136.9,-1784 1130.9,-1790 1124.9,-1790"/>
<text text-anchor="middle" x="1082.42" y="-1770.2" font-family="Arial" font-size="14.00" fill="#333333">End Element</text>
<text text-anchor="middle" x="1082.42" y="-1753.4" font-family="Arial" font-size="14.00" fill="#333333">Exit point</text>
</g>
<!-- FlowControl&#45;&gt;EndElement -->
<g id="edge2" class="edge">
<title>FlowControl-&gt;EndElement</title>
<path fill="none" stroke="#666666" stroke-width="1.2" stroke-dasharray="5,2" d="M825.87,-1790.84C884.59,-1785.13 961.9,-1777.62 1016.05,-1772.36"/>
<polygon fill="#666666" stroke="#666666" stroke-width="1.2" points="1016.16,-1775.86 1025.77,-1771.41 1015.48,-1768.89 1016.16,-1775.86"/>
</g>
<!-- CaseElement -->
<g id="node17" class="node">
<title>CaseElement</title>
<path fill="#f5f5f5" stroke="#333333" d="M1132.68,-1856C1132.68,-1856 1032.16,-1856 1032.16,-1856 1026.16,-1856 1020.16,-1850 1020.16,-1844 1020.16,-1844 1020.16,-1820 1020.16,-1820 1020.16,-1814 1026.16,-1808 1032.16,-1808 1032.16,-1808 1132.68,-1808 1132.68,-1808 1138.68,-1808 1144.68,-1814 1144.68,-1820 1144.68,-1820 1144.68,-1844 1144.68,-1844 1144.68,-1850 1138.68,-1856 1132.68,-1856"/>
<text text-anchor="middle" x="1082.42" y="-1836.2" font-family="Arial" font-size="14.00" fill="#333333">Case Element</text>
<text text-anchor="middle" x="1082.42" y="-1819.4" font-family="Arial" font-size="14.00" fill="#333333">Branching logic</text>
</g>
<!-- FlowControl&#45;&gt;CaseElement -->
<g id="edge3" class="edge">
<title>FlowControl-&gt;CaseElement</title>
<path fill="none" stroke="#666666" stroke-width="1.2" stroke-dasharray="5,2" d="M825.87,-1807.16C881.85,-1812.6 954.71,-1819.68 1008.31,-1824.89"/>
<polygon fill="#666666" stroke="#666666" stroke-width="1.2" points="1007.68,-1828.35 1017.98,-1825.83 1008.36,-1821.38 1007.68,-1828.35"/>
</g>
<!-- FlowSelectElement -->
<g id="node18" class="node">
<title>FlowSelectElement</title>
<path fill="#f5f5f5" stroke="#333333" d="M1128.8,-1922C1128.8,-1922 1036.05,-1922 1036.05,-1922 1030.05,-1922 1024.05,-1916 1024.05,-1910 1024.05,-1910 1024.05,-1886 1024.05,-1886 1024.05,-1880 1030.05,-1874 1036.05,-1874 1036.05,-1874 1128.8,-1874 1128.8,-1874 1134.8,-1874 1140.8,-1880 1140.8,-1886 1140.8,-1886 1140.8,-1910 1140.8,-1910 1140.8,-1916 1134.8,-1922 1128.8,-1922"/>
<text text-anchor="middle" x="1082.42" y="-1902.2" font-family="Arial" font-size="14.00" fill="#333333">Flow Select</text>
<text text-anchor="middle" x="1082.42" y="-1885.4" font-family="Arial" font-size="14.00" fill="#333333">Path selection</text>
</g>
<!-- FlowControl&#45;&gt;FlowSelectElement -->
<g id="edge4" class="edge">
<title>FlowControl-&gt;FlowSelectElement</title>
<path fill="none" stroke="#666666" stroke-width="1.2" stroke-dasharray="5,2" d="M825.87,-1823.47C883.34,-1840.23 958.61,-1862.18 1012.56,-1877.92"/>
<polygon fill="#666666" stroke="#666666" stroke-width="1.2" points="1011.4,-1881.23 1021.98,-1880.67 1013.36,-1874.51 1011.4,-1881.23"/>
</g>
<!-- ChatInputElement -->
<g id="node19" class="node">
<title>ChatInputElement</title>
<path fill="#f5f5f5" stroke="#333333" d="M1133.45,-1693C1133.45,-1693 1031.4,-1693 1031.4,-1693 1025.4,-1693 1019.4,-1687 1019.4,-1681 1019.4,-1681 1019.4,-1657 1019.4,-1657 1019.4,-1651 1025.4,-1645 1031.4,-1645 1031.4,-1645 1133.45,-1645 1133.45,-1645 1139.45,-1645 1145.45,-1651 1145.45,-1657 1145.45,-1657 1145.45,-1681 1145.45,-1681 1145.45,-1687 1139.45,-1693 1133.45,-1693"/>
<text text-anchor="middle" x="1082.42" y="-1673.2" font-family="Arial" font-size="14.00" fill="#333333">Chat Input</text>
<text text-anchor="middle" x="1082.42" y="-1656.4" font-family="Arial" font-size="14.00" fill="#333333">User messages</text>
</g>
<!-- InputElements&#45;&gt;ChatInputElement -->
<g id="edge5" class="edge">
<title>InputElements-&gt;ChatInputElement</title>
<path fill="none" stroke="#666666" stroke-width="1.2" stroke-dasharray="5,2" d="M779.32,-1532.46C823.39,-1560.49 899.55,-1606.35 969.75,-1636 981.85,-1641.11 995,-1645.75 1007.89,-1649.83"/>
<polygon fill="#666666" stroke="#666666" stroke-width="1.2" points="1006.79,-1653.16 1017.38,-1652.74 1008.85,-1646.47 1006.79,-1653.16"/>
</g>
<!-- ContextHistoryElement -->
<g id="node20" class="node">
<title>ContextHistoryElement</title>
<path fill="#f5f5f5" stroke="#333333" d="M1153.29,-1429C1153.29,-1429 1011.55,-1429 1011.55,-1429 1005.55,-1429 999.55,-1423 999.55,-1417 999.55,-1417 999.55,-1393 999.55,-1393 999.55,-1387 1005.55,-1381 1011.55,-1381 1011.55,-1381 1153.29,-1381 1153.29,-1381 1159.29,-1381 1165.29,-1387 1165.29,-1393 1165.29,-1393 1165.29,-1417 1165.29,-1417 1165.29,-1423 1159.29,-1429 1153.29,-1429"/>
<text text-anchor="middle" x="1082.42" y="-1409.2" font-family="Arial" font-size="14.00" fill="#333333">Context History</text>
<text text-anchor="middle" x="1082.42" y="-1392.4" font-family="Arial" font-size="14.00" fill="#333333">Conversation memory</text>
</g>
<!-- InputElements&#45;&gt;ContextHistoryElement -->
<g id="edge6" class="edge">
<title>InputElements-&gt;ContextHistoryElement</title>
<path fill="none" stroke="#666666" stroke-width="1.2" stroke-dasharray="5,2" d="M816.02,-1485.02C860.54,-1471.26 918.36,-1453.49 969.75,-1438 975.68,-1436.21 981.79,-1434.38 987.95,-1432.54"/>
<polygon fill="#666666" stroke="#666666" stroke-width="1.2" points="988.74,-1435.96 997.32,-1429.75 986.74,-1429.25 988.74,-1435.96"/>
</g>
<!-- RestAPIElement -->
<g id="node21" class="node">
<title>RestAPIElement</title>
<path fill="#f5f5f5" stroke="#333333" d="M1126.07,-1495C1126.07,-1495 1038.78,-1495 1038.78,-1495 1032.78,-1495 1026.78,-1489 1026.78,-1483 1026.78,-1483 1026.78,-1459 1026.78,-1459 1026.78,-1453 1032.78,-1447 1038.78,-1447 1038.78,-1447 1126.07,-1447 1126.07,-1447 1132.07,-1447 1138.07,-1453 1138.07,-1459 1138.07,-1459 1138.07,-1483 1138.07,-1483 1138.07,-1489 1132.07,-1495 1126.07,-1495"/>
<text text-anchor="middle" x="1082.42" y="-1475.2" font-family="Arial" font-size="14.00" fill="#333333">REST API</text>
<text text-anchor="middle" x="1082.42" y="-1458.4" font-family="Arial" font-size="14.00" fill="#333333">External data</text>
</g>
<!-- InputElements&#45;&gt;RestAPIElement -->
<g id="edge7" class="edge">
<title>InputElements-&gt;RestAPIElement</title>
<path fill="none" stroke="#666666" stroke-width="1.2" stroke-dasharray="5,2" d="M816.04,-1499.93C875.35,-1493.46 957.81,-1484.47 1015.01,-1478.24"/>
<polygon fill="#666666" stroke="#666666" stroke-width="1.2" points="1015.08,-1481.75 1024.65,-1477.19 1014.33,-1474.79 1015.08,-1481.75"/>
</g>
<!-- MetadataElement -->
<g id="node22" class="node">
<title>MetadataElement</title>
<path fill="#f5f5f5" stroke="#333333" d="M1142.03,-1561C1142.03,-1561 1022.82,-1561 1022.82,-1561 1016.82,-1561 1010.82,-1555 1010.82,-1549 1010.82,-1549 1010.82,-1525 1010.82,-1525 1010.82,-1519 1016.82,-1513 1022.82,-1513 1022.82,-1513 1142.03,-1513 1142.03,-1513 1148.03,-1513 1154.03,-1519 1154.03,-1525 1154.03,-1525 1154.03,-1549 1154.03,-1549 1154.03,-1555 1148.03,-1561 1142.03,-1561"/>
<text text-anchor="middle" x="1082.42" y="-1541.2" font-family="Arial" font-size="14.00" fill="#333333">Metadata</text>
<text text-anchor="middle" x="1082.42" y="-1524.4" font-family="Arial" font-size="14.00" fill="#333333">Configuration data</text>
</g>
<!-- InputElements&#45;&gt;MetadataElement -->
<g id="edge8" class="edge">
<title>InputElements-&gt;MetadataElement</title>
<path fill="none" stroke="#666666" stroke-width="1.2" stroke-dasharray="5,2" d="M816.04,-1514.33C869.95,-1518.93 942.97,-1525.17 998.78,-1529.94"/>
<polygon fill="#666666" stroke="#666666" stroke-width="1.2" points="998.34,-1533.41 1008.6,-1530.78 998.93,-1526.44 998.34,-1533.41"/>
</g>
<!-- ConstantsElement -->
<g id="node23" class="node">
<title>ConstantsElement</title>
<path fill="#f5f5f5" stroke="#333333" d="M1124.12,-1627C1124.12,-1627 1040.73,-1627 1040.73,-1627 1034.73,-1627 1028.73,-1621 1028.73,-1615 1028.73,-1615 1028.73,-1591 1028.73,-1591 1028.73,-1585 1034.73,-1579 1040.73,-1579 1040.73,-1579 1124.12,-1579 1124.12,-1579 1130.12,-1579 1136.12,-1585 1136.12,-1591 1136.12,-1591 1136.12,-1615 1136.12,-1615 1136.12,-1621 1130.12,-1627 1124.12,-1627"/>
<text text-anchor="middle" x="1082.42" y="-1607.2" font-family="Arial" font-size="14.00" fill="#333333">Constants</text>
<text text-anchor="middle" x="1082.42" y="-1590.4" font-family="Arial" font-size="14.00" fill="#333333">Fixed values</text>
</g>
<!-- InputElements&#45;&gt;ConstantsElement -->
<g id="edge9" class="edge">
<title>InputElements-&gt;ConstantsElement</title>
<path fill="none" stroke="#666666" stroke-width="1.2" stroke-dasharray="5,2" d="M816.04,-1528.73C876.12,-1545.54 959.94,-1569 1017.2,-1585.03"/>
<polygon fill="#666666" stroke="#666666" stroke-width="1.2" points="1015.96,-1588.32 1026.54,-1587.64 1017.85,-1581.57 1015.96,-1588.32"/>
</g>
<!-- LLMTextElement -->
<g id="node24" class="node">
<title>LLMTextElement</title>
<path fill="#f5f5f5" stroke="#333333" d="M1133.46,-1266C1133.46,-1266 1031.38,-1266 1031.38,-1266 1025.38,-1266 1019.38,-1260 1019.38,-1254 1019.38,-1254 1019.38,-1230 1019.38,-1230 1019.38,-1224 1025.38,-1218 1031.38,-1218 1031.38,-1218 1133.46,-1218 1133.46,-1218 1139.46,-1218 1145.46,-1224 1145.46,-1230 1145.46,-1230 1145.46,-1254 1145.46,-1254 1145.46,-1260 1139.46,-1266 1133.46,-1266"/>
<text text-anchor="middle" x="1082.42" y="-1246.2" font-family="Arial" font-size="14.00" fill="#333333">LLM Text</text>
<text text-anchor="middle" x="1082.42" y="-1229.4" font-family="Arial" font-size="14.00" fill="#333333">Text generation</text>
</g>
<!-- AIElements&#45;&gt;LLMTextElement -->
<g id="edge10" class="edge">
<title>AIElements-&gt;LLMTextElement</title>
<path fill="none" stroke="#666666" stroke-width="1.2" stroke-dasharray="5,2" d="M809.51,-1420.44C821.83,-1415.59 833.55,-1408.72 842.36,-1399 856.11,-1383.81 840.81,-1370.93 852.36,-1354 887.79,-1302.04 912.85,-1301.78 969.75,-1275 981.71,-1269.37 994.84,-1264.47 1007.76,-1260.29"/>
<polygon fill="#666666" stroke="#666666" stroke-width="1.2" points="1008.78,-1263.63 1017.3,-1257.33 1006.71,-1256.95 1008.78,-1263.63"/>
</g>
<!-- LLMStructuredElement -->
<g id="node25" class="node">
<title>LLMStructuredElement</title>
<path fill="#f5f5f5" stroke="#333333" d="M1138.52,-1332C1138.52,-1332 1026.33,-1332 1026.33,-1332 1020.33,-1332 1014.33,-1326 1014.33,-1320 1014.33,-1320 1014.33,-1296 1014.33,-1296 1014.33,-1290 1020.33,-1284 1026.33,-1284 1026.33,-1284 1138.52,-1284 1138.52,-1284 1144.52,-1284 1150.52,-1290 1150.52,-1296 1150.52,-1296 1150.52,-1320 1150.52,-1320 1150.52,-1326 1144.52,-1332 1138.52,-1332"/>
<text text-anchor="middle" x="1082.42" y="-1312.2" font-family="Arial" font-size="14.00" fill="#333333">LLM Structured</text>
<text text-anchor="middle" x="1082.42" y="-1295.4" font-family="Arial" font-size="14.00" fill="#333333">JSON generation</text>
</g>
<!-- AIElements&#45;&gt;LLMStructuredElement -->
<g id="edge11" class="edge">
<title>AIElements-&gt;LLMStructuredElement</title>
<path fill="none" stroke="#666666" stroke-width="1.2" stroke-dasharray="5,2" d="M809.34,-1410.33C820.4,-1406.63 831.72,-1402.77 842.36,-1399 898.66,-1379.04 961.81,-1354.93 1009.05,-1336.54"/>
<polygon fill="#666666" stroke="#666666" stroke-width="1.2" points="1010.06,-1339.91 1018.1,-1333.01 1007.51,-1333.39 1010.06,-1339.91"/>
</g>
<!-- AIServiceConnector -->
<g id="node28" class="node">
<title>AIServiceConnector</title>
<path fill="#d2e3fc" stroke="#333333" d="M1153.7,-1003C1153.7,-1003 1011.15,-1003 1011.15,-1003 1005.15,-1003 999.15,-997 999.15,-991 999.15,-991 999.15,-967 999.15,-967 999.15,-961 1005.15,-955 1011.15,-955 1011.15,-955 1153.7,-955 1153.7,-955 1159.7,-955 1165.7,-961 1165.7,-967 1165.7,-967 1165.7,-991 1165.7,-991 1165.7,-997 1159.7,-1003 1153.7,-1003"/>
<text text-anchor="middle" x="1082.42" y="-983.2" font-family="Arial" font-size="14.00" fill="#333333">AI Service Connector</text>
<text text-anchor="middle" x="1082.42" y="-966.4" font-family="Arial" font-size="14.00" fill="#333333">External AI integration</text>
</g>
<!-- AIElements&#45;&gt;AIServiceConnector -->
<g id="edge32" class="edge">
<title>AIElements-&gt;AIServiceConnector</title>
<path fill="none" stroke="#666666" stroke-width="1.2" d="M809.38,-1421.91C822.09,-1416.98 834,-1409.7 842.36,-1399 861.38,-1374.62 836.23,-1286.59 852.36,-1260.2 881.47,-1212.55 920.92,-1235.12 959.75,-1195 1012.05,-1140.97 1049.63,-1060.1 1068.22,-1014.17"/>
<polygon fill="#666666" stroke="#666666" stroke-width="1.2" points="1071.44,-1015.56 1071.87,-1004.98 1064.93,-1012.98 1071.44,-1015.56"/>
<text text-anchor="middle" x="906.05" y="-1264.4" font-family="Arial" font-size="14.00" fill="#666666">Uses</text>
</g>
<!-- BlockchainConnector -->
<g id="node29" class="node">
<title>BlockchainConnector</title>
<path fill="#d2e3fc" stroke="#333333" d="M1153.31,-937C1153.31,-937 1011.54,-937 1011.54,-937 1005.54,-937 999.54,-931 999.54,-925 999.54,-925 999.54,-901 999.54,-901 999.54,-895 1005.54,-889 1011.54,-889 1011.54,-889 1153.31,-889 1153.31,-889 1159.31,-889 1165.31,-895 1165.31,-901 1165.31,-901 1165.31,-925 1165.31,-925 1165.31,-931 1159.31,-937 1153.31,-937"/>
<text text-anchor="middle" x="1082.42" y="-917.2" font-family="Arial" font-size="14.00" fill="#333333">Blockchain Connector</text>
<text text-anchor="middle" x="1082.42" y="-900.4" font-family="Arial" font-size="14.00" fill="#333333">Blockchain integration</text>
</g>
<!-- BlockchainElements&#45;&gt;BlockchainConnector -->
<g id="edge33" class="edge">
<title>BlockchainElements-&gt;BlockchainConnector</title>
<path fill="none" stroke="#666666" stroke-width="1.2" d="M823.91,-1210.84C830.54,-1207.15 836.81,-1202.9 842.36,-1198 849.74,-1191.47 844.69,-1184.4 852.36,-1178.2 890.73,-1147.17 928.67,-1188.33 959.75,-1150 988.35,-1114.75 941.7,-981.68 969.75,-946 975.04,-939.28 981.62,-933.88 988.93,-929.55"/>
<polygon fill="#666666" stroke="#666666" stroke-width="1.2" points="990.35,-932.75 997.68,-925.1 987.18,-926.51 990.35,-932.75"/>
<text text-anchor="middle" x="906.05" y="-1182.4" font-family="Arial" font-size="14.00" fill="#666666">Uses</text>
</g>
<!-- DirectStreamManager -->
<g id="node38" class="node">
<title>DirectStreamManager</title>
<path fill="#f5f5f5" stroke="#333333" d="M815.72,-310C815.72,-310 666.2,-310 666.2,-310 660.2,-310 654.2,-304 654.2,-298 654.2,-298 654.2,-274 654.2,-274 654.2,-268 660.2,-262 666.2,-262 666.2,-262 815.72,-262 815.72,-262 821.72,-262 827.72,-268 827.72,-274 827.72,-274 827.72,-298 827.72,-298 827.72,-304 821.72,-310 815.72,-310"/>
<text text-anchor="middle" x="740.96" y="-290.2" font-family="Arial" font-size="14.00" fill="#333333">Direct Stream Manager</text>
<text text-anchor="middle" x="740.96" y="-273.4" font-family="Arial" font-size="14.00" fill="#333333">WebSocket client</text>
</g>
<!-- StreamManager&#45;&gt;DirectStreamManager -->
<g id="edge36" class="edge">
<title>StreamManager-&gt;DirectStreamManager</title>
<path fill="none" stroke="#666666" stroke-width="1.2" d="M999.13,-501.7C988.09,-496.64 977.81,-489.92 969.75,-481 955.5,-465.22 975.04,-448.99 959.75,-434.2 924.9,-400.49 885.37,-450.52 852.36,-415 837.75,-399.29 855.82,-335.7 842.36,-319 840.67,-316.91 838.85,-314.95 836.92,-313.12"/>
<polygon fill="#666666" stroke="#666666" stroke-width="1.2" points="839.2,-310.46 829.19,-306.97 834.83,-315.93 839.2,-310.46"/>
<text text-anchor="middle" x="906.05" y="-438.4" font-family="Arial" font-size="14.00" fill="#666666">Routes msgs</text>
</g>
<!-- SSEManager -->
<g id="node39" class="node">
<title>SSEManager</title>
<path fill="#f5f5f5" stroke="#333333" d="M804.06,-376C804.06,-376 677.87,-376 677.87,-376 671.87,-376 665.87,-370 665.87,-364 665.87,-364 665.87,-340 665.87,-340 665.87,-334 671.87,-328 677.87,-328 677.87,-328 804.06,-328 804.06,-328 810.06,-328 816.06,-334 816.06,-340 816.06,-340 816.06,-364 816.06,-364 816.06,-370 810.06,-376 804.06,-376"/>
<text text-anchor="middle" x="740.96" y="-356.2" font-family="Arial" font-size="14.00" fill="#333333">SSE Manager</text>
<text text-anchor="middle" x="740.96" y="-339.4" font-family="Arial" font-size="14.00" fill="#333333">Server-Sent Events</text>
</g>
<!-- StreamManager&#45;&gt;SSEManager -->
<g id="edge37" class="edge">
<title>StreamManager-&gt;SSEManager</title>
<path fill="none" stroke="#666666" stroke-width="1.2" d="M999.24,-493.49C989.13,-489.73 979.09,-485.56 969.75,-481 964.93,-478.64 964.73,-476.23 959.75,-474.2 914.85,-455.9 886.04,-489.88 852.36,-455 830.53,-432.39 862.54,-409.09 842.36,-385 837.9,-379.69 832.57,-375.22 826.73,-371.47"/>
<polygon fill="#666666" stroke="#666666" stroke-width="1.2" points="828.5,-368.45 818.05,-366.69 825.12,-374.58 828.5,-368.45"/>
<text text-anchor="middle" x="906.05" y="-478.4" font-family="Arial" font-size="14.00" fill="#666666">Routes msgs</text>
</g>
<!-- TypeConversion -->
<g id="node47" class="node">
<title>TypeConversion</title>
<path fill="#f5f5f5" stroke="#333333" d="M1719.83,-1145C1719.83,-1145 1592.09,-1145 1592.09,-1145 1586.09,-1145 1580.09,-1139 1580.09,-1133 1580.09,-1133 1580.09,-1109 1580.09,-1109 1580.09,-1103 1586.09,-1097 1592.09,-1097 1592.09,-1097 1719.83,-1097 1719.83,-1097 1725.83,-1097 1731.83,-1103 1731.83,-1109 1731.83,-1109 1731.83,-1133 1731.83,-1133 1731.83,-1139 1725.83,-1145 1719.83,-1145"/>
<text text-anchor="middle" x="1655.96" y="-1125.2" font-family="Arial" font-size="14.00" fill="#333333">Type Conversion</text>
<text text-anchor="middle" x="1655.96" y="-1108.4" font-family="Arial" font-size="14.00" fill="#333333">Data transformation</text>
</g>
<!-- ValidationService&#45;&gt;TypeConversion -->
<g id="edge52" class="edge">
<title>ValidationService-&gt;TypeConversion</title>
<path fill="none" stroke="#666666" stroke-width="1.2" d="M1165.8,-830.77C1176.31,-826.44 1186.41,-820.95 1195.09,-814 1202.23,-808.28 1197.71,-801.41 1205.09,-796 1235.3,-773.87 1250.4,-782.95 1287.66,-779.2 1386.95,-769.2 1429.14,-723.88 1512.19,-779.2 1617.18,-849.13 1645.1,-1012.56 1652.42,-1085.16"/>
<polygon fill="#666666" stroke="#666666" stroke-width="1.2" points="1648.92,-1085.36 1653.32,-1095 1655.89,-1084.72 1648.92,-1085.36"/>
<text text-anchor="middle" x="1399.93" y="-783.4" font-family="Arial" font-size="14.00" fill="#666666">Validates</text>
</g>
<!-- SchemaValidator -->
<g id="node48" class="node">
<title>SchemaValidator</title>
<path fill="#f5f5f5" stroke="#333333" d="M1457.58,-1079C1457.58,-1079 1342.27,-1079 1342.27,-1079 1336.27,-1079 1330.27,-1073 1330.27,-1067 1330.27,-1067 1330.27,-1043 1330.27,-1043 1330.27,-1037 1336.27,-1031 1342.27,-1031 1342.27,-1031 1457.58,-1031 1457.58,-1031 1463.58,-1031 1469.58,-1037 1469.58,-1043 1469.58,-1043 1469.58,-1067 1469.58,-1067 1469.58,-1073 1463.58,-1079 1457.58,-1079"/>
<text text-anchor="middle" x="1399.93" y="-1059.2" font-family="Arial" font-size="14.00" fill="#333333">Schema Validator</text>
<text text-anchor="middle" x="1399.93" y="-1042.4" font-family="Arial" font-size="14.00" fill="#333333">Type checking</text>
</g>
<!-- ValidationService&#45;&gt;SchemaValidator -->
<g id="edge50" class="edge">
<title>ValidationService-&gt;SchemaValidator</title>
<path fill="none" stroke="#666666" stroke-width="1.2" d="M1165.7,-853.72C1202.98,-861.15 1244.3,-876.36 1269.66,-907.2 1302.46,-947.09 1253.64,-983.14 1287.66,-1022 1296.04,-1031.58 1307.06,-1038.44 1318.9,-1043.34"/>
<polygon fill="#666666" stroke="#666666" stroke-width="1.2" points="1317.66,-1046.61 1328.25,-1046.69 1320.03,-1040.02 1317.66,-1046.61"/>
<text text-anchor="middle" x="1237.37" y="-911.4" font-family="Arial" font-size="14.00" fill="#666666">Uses</text>
</g>
<!-- BedrockAI -->
<g id="node40" class="node">
<title>BedrockAI</title>
<ellipse fill="#232f3e" stroke="#333333" cx="1399.93" cy="-979" rx="108.4" ry="33.94"/>
<text text-anchor="middle" x="1399.93" y="-983.2" font-family="Arial" font-size="14.00" fill="white">AWS Bedrock</text>
<text text-anchor="middle" x="1399.93" y="-966.4" font-family="Arial" font-size="14.00" fill="white">(Claude / Anthropic)</text>
</g>
<!-- AIServiceConnector&#45;&gt;BedrockAI -->
<g id="edge41" class="edge">
<title>AIServiceConnector-&gt;BedrockAI</title>
<path fill="none" stroke="#4285f4" stroke-width="1.2" d="M1165.91,-979C1200.57,-979 1241.57,-979 1279.44,-979"/>
<polygon fill="#4285f4" stroke="#4285f4" stroke-width="1.2" points="1279.26,-982.5 1289.26,-979 1279.26,-975.5 1279.26,-982.5"/>
<text text-anchor="middle" x="1237.37" y="-983.2" font-family="Arial" font-size="14.00" fill="#666666">API Calls</text>
</g>
<!-- DeepSeekAI -->
<g id="node41" class="node">
<title>DeepSeekAI</title>
<ellipse fill="#5a2ca0" stroke="#333333" cx="1399.93" cy="-893" rx="112.27" ry="33.94"/>
<text text-anchor="middle" x="1399.93" y="-897.2" font-family="Arial" font-size="14.00" fill="white">DeepSeek Reasoner</text>
<text text-anchor="middle" x="1399.93" y="-880.4" font-family="Arial" font-size="14.00" fill="white">(Custom AI Model)</text>
</g>
<!-- AIServiceConnector&#45;&gt;DeepSeekAI -->
<g id="edge42" class="edge">
<title>AIServiceConnector-&gt;DeepSeekAI</title>
<path fill="none" stroke="#4285f4" stroke-width="1.2" d="M1165.91,-956.52C1208.32,-944.96 1260.2,-930.81 1304.24,-918.81"/>
<polygon fill="#4285f4" stroke="#4285f4" stroke-width="1.2" points="1305.07,-922.21 1313.8,-916.2 1303.23,-915.46 1305.07,-922.21"/>
<text text-anchor="middle" x="1237.37" y="-947.9" font-family="Arial" font-size="14.00" fill="#666666">API Calls</text>
</g>
<!-- AptosBlockchain -->
<g id="node43" class="node">
<title>AptosBlockchain</title>
<path fill="#fef7e0" stroke="#f7b529" d="M1456.02,-841C1456.02,-841 1343.83,-841 1343.83,-841 1337.83,-841 1331.83,-835 1331.83,-829 1331.83,-829 1331.83,-817 1331.83,-817 1331.83,-811 1337.83,-805 1343.83,-805 1343.83,-805 1456.02,-805 1456.02,-805 1462.02,-805 1468.02,-811 1468.02,-817 1468.02,-817 1468.02,-829 1468.02,-829 1468.02,-835 1462.02,-841 1456.02,-841"/>
<text text-anchor="middle" x="1399.93" y="-818.8" font-family="Arial" font-size="14.00" fill="#f7b529">Aptos Blockchain</text>
</g>
<!-- BlockchainConnector&#45;&gt;AptosBlockchain -->
<g id="edge45" class="edge">
<title>BlockchainConnector-&gt;AptosBlockchain</title>
<path fill="none" stroke="#db4437" stroke-width="1.2" d="M1165.61,-900.36C1176.74,-895.54 1187.07,-888.96 1195.09,-880 1211.9,-861.23 1185.82,-840.43 1205.09,-824.2 1237.54,-796.88 1285.03,-796.17 1324.88,-802.49"/>
<polygon fill="#db4437" stroke="#db4437" stroke-width="1.2" points="1324.19,-805.93 1334.65,-804.24 1325.42,-799.04 1324.19,-805.93"/>
<text text-anchor="middle" x="1237.37" y="-828.4" font-family="Arial" font-size="14.00" fill="#666666">RPC Calls</text>
</g>
<!-- HTTPEndpoints -->
<g id="node34" class="node">
<title>HTTPEndpoints</title>
<path fill="#f5f5f5" stroke="#333333" d="M807.56,-178C807.56,-178 674.36,-178 674.36,-178 668.36,-178 662.36,-172 662.36,-166 662.36,-166 662.36,-142 662.36,-142 662.36,-136 668.36,-130 674.36,-130 674.36,-130 807.56,-130 807.56,-130 813.56,-130 819.56,-136 819.56,-142 819.56,-142 819.56,-166 819.56,-166 819.56,-172 813.56,-178 807.56,-178"/>
<text text-anchor="middle" x="740.96" y="-158.2" font-family="Arial" font-size="14.00" fill="#333333">HTTP Endpoints</text>
<text text-anchor="middle" x="740.96" y="-141.4" font-family="Arial" font-size="14.00" fill="#333333">REST API endpoints</text>
</g>
<!-- HTTPEndpoints&#45;&gt;FlowExecutor -->
<g id="edge34" class="edge">
<title>HTTPEndpoints-&gt;FlowExecutor</title>
<path fill="none" stroke="#666666" stroke-width="1.2" d="M664.99,-178.34C658.54,-181.05 652.2,-183.94 646.2,-187 442.94,-290.69 360.62,-296.3 223.91,-479 152.77,-574.07 125.41,-716.7 116.14,-782.46"/>
<polygon fill="#666666" stroke="#666666" stroke-width="1.2" points="112.72,-781.64 114.86,-792.02 119.66,-782.57 112.72,-781.64"/>
<text text-anchor="middle" x="415.83" y="-359.15" font-family="Arial" font-size="14.00" fill="#666666">Invokes</text>
</g>
<!-- MessagePasser -->
<g id="node42" class="node">
<title>MessagePasser</title>
<path fill="#e6f4ea" stroke="#0f9d58" d="M1157.97,-48C1157.97,-48 1006.88,-48 1006.88,-48 1000.88,-48 994.88,-42 994.88,-36 994.88,-36 994.88,-12 994.88,-12 994.88,-6 1000.88,0 1006.88,0 1006.88,0 1157.97,0 1157.97,0 1163.97,0 1169.97,-6 1169.97,-12 1169.97,-12 1169.97,-36 1169.97,-36 1169.97,-42 1163.97,-48 1157.97,-48"/>
<text text-anchor="middle" x="1082.42" y="-28.2" font-family="Arial" font-size="14.00" fill="#0f9d58">Neura Message Passer</text>
<text text-anchor="middle" x="1082.42" y="-11.4" font-family="Arial" font-size="14.00" fill="#0f9d58">(Backend 2)</text>
</g>
<!-- HTTPEndpoints&#45;&gt;MessagePasser -->
<g id="edge44" class="edge">
<title>HTTPEndpoints-&gt;MessagePasser</title>
<path fill="none" stroke="#db4437" stroke-width="1.2" d="M794.66,-129.51C840.4,-108.75 908.67,-78.95 969.75,-57 974.48,-55.3 979.35,-53.62 984.28,-51.97"/>
<polygon fill="#db4437" stroke="#db4437" stroke-width="1.2" points="985,-55.42 993.41,-48.98 982.82,-48.76 985,-55.42"/>
<text text-anchor="middle" x="906.05" y="-106.32" font-family="Arial" font-size="14.00" fill="#666666">HTTP/REST</text>
</g>
<!-- WebSocketServer -->
<g id="node35" class="node">
<title>WebSocketServer</title>
<path fill="#f5f5f5" stroke="#333333" d="M805.99,-244C805.99,-244 675.93,-244 675.93,-244 669.93,-244 663.93,-238 663.93,-232 663.93,-232 663.93,-208 663.93,-208 663.93,-202 669.93,-196 675.93,-196 675.93,-196 805.99,-196 805.99,-196 811.99,-196 817.99,-202 817.99,-208 817.99,-208 817.99,-232 817.99,-232 817.99,-238 811.99,-244 805.99,-244"/>
<text text-anchor="middle" x="740.96" y="-224.2" font-family="Arial" font-size="14.00" fill="#333333">WebSocket Server</text>
<text text-anchor="middle" x="740.96" y="-207.4" font-family="Arial" font-size="14.00" fill="#333333">Bidirectional comms</text>
</g>
<!-- WebSocketServer&#45;&gt;StreamManager -->
<g id="edge35" class="edge">
<title>WebSocketServer-&gt;StreamManager</title>
<path fill="none" stroke="#666666" stroke-width="1.2" d="M818.4,-234.18C827.61,-238.81 836,-244.93 842.36,-253 859.19,-274.36 834.06,-354.87 852.36,-375 884.97,-410.88 926.55,-358.86 959.75,-394.2 986.35,-422.5 945.13,-450.97 969.75,-481 975.13,-487.55 981.7,-492.92 988.95,-497.33"/>
<polygon fill="#666666" stroke="#666666" stroke-width="1.2" points="987.11,-500.32 997.58,-501.9 990.38,-494.13 987.11,-500.32"/>
<text text-anchor="middle" x="906.05" y="-398.4" font-family="Arial" font-size="14.00" fill="#666666">Provides channel</text>
</g>
<!-- WebSocketServer&#45;&gt;MessagePasser -->
<g id="edge43" class="edge">
<title>WebSocketServer-&gt;MessagePasser</title>
<path fill="none" stroke="#db4437" stroke-width="1.2" d="M818.3,-206.71C867.13,-193.96 927.22,-169.45 959.75,-123 976.78,-98.7 950.26,-79.36 969.75,-57 974.03,-52.09 979,-47.9 984.41,-44.32"/>
<polygon fill="#db4437" stroke="#db4437" stroke-width="1.2" points="986.06,-47.4 993.01,-39.41 982.59,-41.33 986.06,-47.4"/>
<text text-anchor="middle" x="906.05" y="-215.64" font-family="Arial" font-size="14.00" fill="#666666">WebSocket</text>
<text text-anchor="middle" x="906.05" y="-198.84" font-family="Arial" font-size="14.00" fill="#666666">Streaming</text>
</g>
<!-- EventSystem&#45;&gt;StreamManager -->
<g id="edge39" class="edge">
<title>EventSystem-&gt;StreamManager</title>
<path fill="none" stroke="#666666" stroke-width="1.2" d="M768.29,-442.28C789.36,-460.16 820.56,-483.31 852.36,-495 895.03,-510.69 945.03,-516.78 987.41,-518.7"/>
<polygon fill="#666666" stroke="#666666" stroke-width="1.2" points="987.21,-522.2 997.33,-519.07 987.47,-515.2 987.21,-522.2"/>
<text text-anchor="middle" x="906.05" y="-520.78" font-family="Arial" font-size="14.00" fill="#666666">Forwards events</text>
</g>
<!-- MessageQueue -->
<g id="node37" class="node">
<title>MessageQueue</title>
<path fill="#f5f5f5" stroke="#333333" d="M1147.08,-381C1147.08,-381 1017.76,-381 1017.76,-381 1011.76,-381 1005.76,-375 1005.76,-369 1005.76,-369 1005.76,-345 1005.76,-345 1005.76,-339 1011.76,-333 1017.76,-333 1017.76,-333 1147.08,-333 1147.08,-333 1153.08,-333 1159.08,-339 1159.08,-345 1159.08,-345 1159.08,-369 1159.08,-369 1159.08,-375 1153.08,-381 1147.08,-381"/>
<text text-anchor="middle" x="1082.42" y="-361.2" font-family="Arial" font-size="14.00" fill="#333333">Message Queue</text>
<text text-anchor="middle" x="1082.42" y="-344.4" font-family="Arial" font-size="14.00" fill="#333333">Async task handling</text>
</g>
<!-- EventSystem&#45;&gt;MessageQueue -->
<g id="edge40" class="edge">
<title>EventSystem-&gt;MessageQueue</title>
<path fill="none" stroke="#666666" stroke-width="1.2" d="M805.89,-406.42C819.2,-401.59 832.24,-394.73 842.36,-385 851.52,-376.19 841.93,-365.48 852.36,-358.2 892.86,-329.92 948,-328.8 994.02,-335.15"/>
<polygon fill="#666666" stroke="#666666" stroke-width="1.2" points="993.3,-338.58 1003.72,-336.63 994.36,-331.66 993.3,-338.58"/>
<text text-anchor="middle" x="906.05" y="-362.4" font-family="Arial" font-size="14.00" fill="#666666">Queues tasks</text>
</g>
<!-- DirectClient -->
<g id="node44" class="node">
<title>DirectClient</title>
<path fill="#e8f0fe" stroke="#4285f4" d="M1141.23,-114C1141.23,-114 1023.62,-114 1023.62,-114 1017.62,-114 1011.62,-108 1011.62,-102 1011.62,-102 1011.62,-78 1011.62,-78 1011.62,-72 1017.62,-66 1023.62,-66 1023.62,-66 1141.23,-66 1141.23,-66 1147.23,-66 1153.23,-72 1153.23,-78 1153.23,-78 1153.23,-102 1153.23,-102 1153.23,-108 1147.23,-114 1141.23,-114"/>
<text text-anchor="middle" x="1082.42" y="-94.2" font-family="Arial" font-size="14.00" fill="#4285f4">Direct Client</text>
<text text-anchor="middle" x="1082.42" y="-77.4" font-family="Arial" font-size="14.00" fill="#4285f4">(WebSocket/SSE)</text>
</g>
<!-- DirectStreamManager&#45;&gt;DirectClient -->
<g id="edge46" class="edge">
<title>DirectStreamManager-&gt;DirectClient</title>
<path fill="none" stroke="#db4437" stroke-width="1.2" d="M828.02,-269.6C884.97,-257.92 950.78,-242.49 959.75,-232 976.29,-212.68 953.25,-137.35 969.75,-118 977.85,-108.51 988.63,-101.99 1000.31,-97.54"/>
<polygon fill="#db4437" stroke="#db4437" stroke-width="1.2" points="1001.07,-100.98 1009.51,-94.58 998.92,-94.31 1001.07,-100.98"/>
<text text-anchor="middle" x="906.05" y="-267.59" font-family="Arial" font-size="14.00" fill="#666666">WebSocket</text>
</g>
<!-- SSEManager&#45;&gt;DirectClient -->
<g id="edge47" class="edge">
<title>SSEManager-&gt;DirectClient</title>
<path fill="none" stroke="#db4437" stroke-width="1.2" d="M816.37,-330.78C825.32,-327.28 834.18,-323.36 842.36,-319 847.33,-316.35 847.3,-313.7 852.36,-311.2 896.58,-289.31 928.44,-321.15 959.75,-283 983.06,-254.61 946.29,-146.26 969.75,-118 977.77,-108.34 988.57,-101.74 1000.31,-97.27"/>
<polygon fill="#db4437" stroke="#db4437" stroke-width="1.2" points="1001.11,-100.69 1009.57,-94.3 998.97,-94.03 1001.11,-100.69"/>
<text text-anchor="middle" x="906.05" y="-315.4" font-family="Arial" font-size="14.00" fill="#666666">SSE</text>
</g>
<!-- InputMapping&#45;&gt;TypeConversion -->
<g id="edge51" class="edge">
<title>InputMapping-&gt;TypeConversion</title>
<path fill="none" stroke="#666666" stroke-width="1.2" d="M1482.35,-1165.84C1509.78,-1158.72 1540.47,-1150.75 1568.28,-1143.52"/>
<polygon fill="#666666" stroke="#666666" stroke-width="1.2" points="1569.04,-1146.94 1577.84,-1141.04 1567.28,-1140.16 1569.04,-1146.94"/>
<text text-anchor="middle" x="1546.14" y="-1156.22" font-family="Arial" font-size="14.00" fill="#666666">Uses</text>
</g>
</g>
</svg>