<svg xmlns="http://www.w3.org/2000/svg" xmlns:xlink="http://www.w3.org/1999/xlink" width="2831pt" height="1487pt" viewBox="0.00 0.00 2831.45 1487.20">
<g id="graph0" class="graph" transform="scale(1 1) rotate(0) translate(4 1483.2)">
<title>Neura Message Passer Architecture</title>
<polygon fill="white" stroke="none" points="-4,4 -4,-1483.2 2827.45,-1483.2 2827.45,4 -4,4"/>
<g id="clust1" class="cluster">
<title>cluster_api</title>
<path fill="#e6f4ea" stroke="#0f9d58" d="M20,-728C20,-728 655.38,-728 655.38,-728 661.38,-728 667.38,-734 667.38,-740 667.38,-740 667.38,-1170 667.38,-1170 667.38,-1176 661.38,-1182 655.38,-1182 655.38,-1182 20,-1182 20,-1182 14,-1182 8,-1176 8,-1170 8,-1170 8,-740 8,-740 8,-734 14,-728 20,-728"/>
<text text-anchor="middle" x="337.69" y="-1163.6" font-family="Arial" font-size="16.00" fill="#0f9d58">API Layer</text>
</g>
<g id="clust2" class="cluster">
<title>cluster_api_endpoints</title>
<path fill="#ceead6" stroke="#0f9d58" d="M469.99,-794C469.99,-794 645.63,-794 645.63,-794 651.63,-794 657.63,-800 657.63,-806 657.63,-806 657.63,-1135 657.63,-1135 657.63,-1141 651.63,-1147 645.63,-1147 645.63,-1147 469.99,-1147 469.99,-1147 463.99,-1147 457.99,-1141 457.99,-1135 457.99,-1135 457.99,-806 457.99,-806 457.99,-800 463.99,-794 469.99,-794"/>
<text text-anchor="middle" x="557.81" y="-1130.4" font-family="Arial" font-size="14.00" fill="#0f9d58">API Endpoint Groups</text>
</g>
<g id="clust3" class="cluster">
<title>cluster_core</title>
<path fill="#e8f0fe" stroke="#4285f4" d="M700.38,-941C700.38,-941 1102.36,-941 1102.36,-941 1108.36,-941 1114.36,-947 1114.36,-953 1114.36,-953 1114.36,-1449 1114.36,-1449 1114.36,-1455 1108.36,-1461 1102.36,-1461 1102.36,-1461 700.38,-1461 700.38,-1461 694.38,-1461 688.38,-1455 688.38,-1449 688.38,-1449 688.38,-953 688.38,-953 688.38,-947 694.38,-941 700.38,-941"/>
<text text-anchor="middle" x="901.37" y="-1442.6" font-family="Arial" font-size="16.00" fill="#4285f4">Core Services</text>
</g>
<g id="clust4" class="cluster">
<title>cluster_flow_management</title>
<path fill="#d2e3fc" stroke="#4285f4" d="M935.83,-1139C935.83,-1139 1094.36,-1139 1094.36,-1139 1100.36,-1139 1106.36,-1145 1106.36,-1151 1106.36,-1151 1106.36,-1414 1106.36,-1414 1106.36,-1420 1100.36,-1426 1094.36,-1426 1094.36,-1426 935.83,-1426 935.83,-1426 929.83,-1426 923.83,-1420 923.83,-1414 923.83,-1414 923.83,-1151 923.83,-1151 923.83,-1145 929.83,-1139 935.83,-1139"/>
<text text-anchor="middle" x="1015.09" y="-1409.4" font-family="Arial" font-size="14.00" fill="#4285f4">Flow Management</text>
</g>
<g id="clust5" class="cluster">
<title>cluster_integration</title>
<path fill="#fce8e6" stroke="#db4437" d="M2007.63,-991C2007.63,-991 2532.52,-991 2532.52,-991 2538.52,-991 2544.52,-997 2544.52,-1003 2544.52,-1003 2544.52,-1433 2544.52,-1433 2544.52,-1439 2538.52,-1445 2532.52,-1445 2532.52,-1445 2007.63,-1445 2007.63,-1445 2001.63,-1445 1995.63,-1439 1995.63,-1433 1995.63,-1433 1995.63,-1003 1995.63,-1003 1995.63,-997 2001.63,-991 2007.63,-991"/>
<text text-anchor="middle" x="2270.08" y="-1426.6" font-family="Arial" font-size="16.00" fill="#db4437">Integration Services</text>
</g>
<g id="clust6" class="cluster">
<title>cluster_exec_engine_comms</title>
<path fill="#fcbdba" stroke="#db4437" d="M2322.41,-1123C2322.41,-1123 2524.52,-1123 2524.52,-1123 2530.52,-1123 2536.52,-1129 2536.52,-1135 2536.52,-1135 2536.52,-1398 2536.52,-1398 2536.52,-1404 2530.52,-1410 2524.52,-1410 2524.52,-1410 2322.41,-1410 2322.41,-1410 2316.41,-1410 2310.41,-1404 2310.41,-1398 2310.41,-1398 2310.41,-1135 2310.41,-1135 2310.41,-1129 2316.41,-1123 2322.41,-1123"/>
<text text-anchor="middle" x="2423.47" y="-1393.4" font-family="Arial" font-size="14.00" fill="#db4437">Execution Engine Communication</text>
</g>
<g id="clust7" class="cluster">
<title>cluster_data</title>
<path fill="#fef7e0" stroke="#f7b529" d="M950.6,-251C950.6,-251 1776.98,-251 1776.98,-251 1782.98,-251 1788.98,-257 1788.98,-263 1788.98,-263 1788.98,-825 1788.98,-825 1788.98,-831 1782.98,-837 1776.98,-837 1776.98,-837 950.6,-837 950.6,-837 944.6,-837 938.6,-831 938.6,-825 938.6,-825 938.6,-263 938.6,-263 938.6,-257 944.6,-251 950.6,-251"/>
<text text-anchor="middle" x="1363.79" y="-818.6" font-family="Arial" font-size="16.00" fill="#f7b529">Data Layer</text>
</g>
<g id="clust8" class="cluster">
<title>cluster_data_models</title>
<path fill="#feefc3" stroke="#f7b529" d="M1625.47,-383C1625.47,-383 1766.08,-383 1766.08,-383 1772.08,-383 1778.08,-389 1778.08,-395 1778.08,-395 1778.08,-790 1778.08,-790 1778.08,-796 1772.08,-802 1766.08,-802 1766.08,-802 1625.47,-802 1625.47,-802 1619.47,-802 1613.47,-796 1613.47,-790 1613.47,-790 1613.47,-395 1613.47,-395 1613.47,-389 1619.47,-383 1625.47,-383"/>
<text text-anchor="middle" x="1695.77" y="-785.4" font-family="Arial" font-size="14.00" fill="#f7b529">Data Models</text>
</g>
<g id="clust9" class="cluster">
<title>cluster_security</title>
<path fill="#f3e8ff" stroke="#7627bb" d="M1621.18,-20C1621.18,-20 1962.63,-20 1962.63,-20 1968.63,-20 1974.63,-26 1974.63,-32 1974.63,-32 1974.63,-231 1974.63,-231 1974.63,-237 1968.63,-243 1962.63,-243 1962.63,-243 1621.18,-243 1621.18,-243 1615.18,-243 1609.18,-237 1609.18,-231 1609.18,-231 1609.18,-32 1609.18,-32 1609.18,-26 1615.18,-20 1621.18,-20"/>
<text text-anchor="middle" x="1791.9" y="-224.6" font-family="Arial" font-size="16.00" fill="#7627bb">Security</text>
</g>
<!-- APIGateway -->
<g id="node1" class="node">
<title>APIGateway</title>
<path fill="#b7e1cd" stroke="#333333" d="M128.5,-1048C128.5,-1048 28,-1048 28,-1048 22,-1048 16,-1042 16,-1036 16,-1036 16,-1012 16,-1012 16,-1006 22,-1000 28,-1000 28,-1000 128.5,-1000 128.5,-1000 134.5,-1000 140.5,-1006 140.5,-1012 140.5,-1012 140.5,-1036 140.5,-1036 140.5,-1042 134.5,-1048 128.5,-1048"/>
<text text-anchor="middle" x="78.25" y="-1028.2" font-family="Arial" font-size="14.00" fill="#333333">API Gateway</text>
<text text-anchor="middle" x="78.25" y="-1011.4" font-family="Arial" font-size="14.00" fill="#333333">FastAPI Router</text>
</g>
<!-- RESTEndpoints -->
<g id="node2" class="node">
<title>RESTEndpoints</title>
<path fill="#b7e1cd" stroke="#333333" d="M314.13,-949C314.13,-949 205.83,-949 205.83,-949 199.83,-949 193.83,-943 193.83,-937 193.83,-937 193.83,-913 193.83,-913 193.83,-907 199.83,-901 205.83,-901 205.83,-901 314.13,-901 314.13,-901 320.13,-901 326.13,-907 326.13,-913 326.13,-913 326.13,-937 326.13,-937 326.13,-943 320.13,-949 314.13,-949"/>
<text text-anchor="middle" x="259.98" y="-929.2" font-family="Arial" font-size="14.00" fill="#333333">REST Endpoints</text>
<text text-anchor="middle" x="259.98" y="-912.4" font-family="Arial" font-size="14.00" fill="#333333">HTTP Handlers</text>
</g>
<!-- APIGateway&#45;&gt;RESTEndpoints -->
<g id="edge1" class="edge">
<title>APIGateway-&gt;RESTEndpoints</title>
<path fill="none" stroke="#666666" stroke-width="1.2" d="M111.84,-999.62C130.48,-986.32 154.64,-970.14 177.5,-958 179.89,-956.73 182.34,-955.48 184.83,-954.25"/>
<polygon fill="#666666" stroke="#666666" stroke-width="1.2" points="186.05,-957.55 193.59,-950.1 183.05,-951.22 186.05,-957.55"/>
</g>
<!-- WebSocketHandlers -->
<g id="node3" class="node">
<title>WebSocketHandlers</title>
<path fill="#b7e1cd" stroke="#333333" d="M330.46,-1015C330.46,-1015 189.5,-1015 189.5,-1015 183.5,-1015 177.5,-1009 177.5,-1003 177.5,-1003 177.5,-979 177.5,-979 177.5,-973 183.5,-967 189.5,-967 189.5,-967 330.46,-967 330.46,-967 336.46,-967 342.46,-973 342.46,-979 342.46,-979 342.46,-1003 342.46,-1003 342.46,-1009 336.46,-1015 330.46,-1015"/>
<text text-anchor="middle" x="259.98" y="-995.2" font-family="Arial" font-size="14.00" fill="#333333">WebSocket Handlers</text>
<text text-anchor="middle" x="259.98" y="-978.4" font-family="Arial" font-size="14.00" fill="#333333">WS Connection Mgmt</text>
</g>
<!-- APIGateway&#45;&gt;WebSocketHandlers -->
<g id="edge2" class="edge">
<title>APIGateway-&gt;WebSocketHandlers</title>
<path fill="none" stroke="#666666" stroke-width="1.2" d="M140.85,-1012.69C148.89,-1011.21 157.26,-1009.68 165.67,-1008.13"/>
<polygon fill="#666666" stroke="#666666" stroke-width="1.2" points="166.14,-1011.6 175.35,-1006.36 164.88,-1004.72 166.14,-1011.6"/>
</g>
<!-- RateLimiter -->
<g id="node5" class="node">
<title>RateLimiter</title>
<path fill="#b7e1cd" stroke="#333333" d="M317.25,-1081C317.25,-1081 202.72,-1081 202.72,-1081 196.72,-1081 190.72,-1075 190.72,-1069 190.72,-1069 190.72,-1045 190.72,-1045 190.72,-1039 196.72,-1033 202.72,-1033 202.72,-1033 317.25,-1033 317.25,-1033 323.25,-1033 329.25,-1039 329.25,-1045 329.25,-1045 329.25,-1069 329.25,-1069 329.25,-1075 323.25,-1081 317.25,-1081"/>
<text text-anchor="middle" x="259.98" y="-1061.2" font-family="Arial" font-size="14.00" fill="#333333">Rate Limiter</text>
<text text-anchor="middle" x="259.98" y="-1044.4" font-family="Arial" font-size="14.00" fill="#333333">Request throttling</text>
</g>
<!-- APIGateway&#45;&gt;RateLimiter -->
<g id="edge5" class="edge">
<title>APIGateway-&gt;RateLimiter</title>
<path fill="none" stroke="#666666" stroke-width="1.2" d="M140.85,-1035.31C153.07,-1037.55 166.06,-1039.94 178.79,-1042.28"/>
<polygon fill="#666666" stroke="#666666" stroke-width="1.2" points="178.12,-1045.71 188.59,-1044.07 179.38,-1038.83 178.12,-1045.71"/>
</g>
<!-- ErrorHandler -->
<g id="node6" class="node">
<title>ErrorHandler</title>
<path fill="#b7e1cd" stroke="#333333" d="M328.92,-1147C328.92,-1147 191.04,-1147 191.04,-1147 185.04,-1147 179.04,-1141 179.04,-1135 179.04,-1135 179.04,-1111 179.04,-1111 179.04,-1105 185.04,-1099 191.04,-1099 191.04,-1099 328.92,-1099 328.92,-1099 334.92,-1099 340.92,-1105 340.92,-1111 340.92,-1111 340.92,-1135 340.92,-1135 340.92,-1141 334.92,-1147 328.92,-1147"/>
<text text-anchor="middle" x="259.98" y="-1127.2" font-family="Arial" font-size="14.00" fill="#333333">Error Handler</text>
<text text-anchor="middle" x="259.98" y="-1110.4" font-family="Arial" font-size="14.00" fill="#333333">Exception processing</text>
</g>
<!-- APIGateway&#45;&gt;ErrorHandler -->
<g id="edge6" class="edge">
<title>APIGateway-&gt;ErrorHandler</title>
<path fill="none" stroke="#666666" stroke-width="1.2" d="M111.84,-1048.38C130.48,-1061.68 154.64,-1077.86 177.5,-1090 179.89,-1091.27 182.34,-1092.52 184.83,-1093.75"/>
<polygon fill="#666666" stroke="#666666" stroke-width="1.2" points="183.05,-1096.78 193.59,-1097.9 186.05,-1090.45 183.05,-1096.78"/>
</g>
<!-- AuthMiddleware -->
<g id="node4" class="node">
<title>AuthMiddleware</title>
<path fill="#b7e1cd" stroke="#333333" d="M647.38,-784C647.38,-784 468.24,-784 468.24,-784 462.24,-784 456.24,-778 456.24,-772 456.24,-772 456.24,-748 456.24,-748 456.24,-742 462.24,-736 468.24,-736 468.24,-736 647.38,-736 647.38,-736 653.38,-736 659.38,-742 659.38,-748 659.38,-748 659.38,-772 659.38,-772 659.38,-778 653.38,-784 647.38,-784"/>
<text text-anchor="middle" x="557.81" y="-764.2" font-family="Arial" font-size="14.00" fill="#333333">Auth Middleware</text>
<text text-anchor="middle" x="557.81" y="-747.4" font-family="Arial" font-size="14.00" fill="#333333">Authentication/Authorization</text>
</g>
<!-- RESTEndpoints&#45;&gt;AuthMiddleware -->
<g id="edge3" class="edge">
<title>RESTEndpoints-&gt;AuthMiddleware</title>
<path fill="none" stroke="#666666" stroke-width="1.2" d="M289.93,-900.58C326.54,-870.77 392.52,-820.58 456.24,-790 456.87,-789.7 457.5,-789.4 458.14,-789.1"/>
<polygon fill="#666666" stroke="#666666" stroke-width="1.2" points="459.27,-792.43 467.04,-785.22 456.47,-786.01 459.27,-792.43"/>
</g>
<!-- UserEndpoints -->
<g id="node7" class="node">
<title>UserEndpoints</title>
<path fill="#f5f5f5" stroke="#333333" d="M628.31,-916C628.31,-916 487.31,-916 487.31,-916 481.31,-916 475.31,-910 475.31,-904 475.31,-904 475.31,-880 475.31,-880 475.31,-874 481.31,-868 487.31,-868 487.31,-868 628.31,-868 628.31,-868 634.31,-868 640.31,-874 640.31,-880 640.31,-880 640.31,-904 640.31,-904 640.31,-910 634.31,-916 628.31,-916"/>
<text text-anchor="middle" x="557.81" y="-896.2" font-family="Arial" font-size="14.00" fill="#333333">User Endpoints</text>
<text text-anchor="middle" x="557.81" y="-879.4" font-family="Arial" font-size="14.00" fill="#333333">Account management</text>
</g>
<!-- RESTEndpoints&#45;&gt;UserEndpoints -->
<g id="edge7" class="edge">
<title>RESTEndpoints-&gt;UserEndpoints</title>
<path fill="none" stroke="#666666" stroke-width="1.2" d="M326.27,-917.72C366.57,-913.22 418.93,-907.38 463.56,-902.4"/>
<polygon fill="#666666" stroke="#666666" stroke-width="1.2" points="463.67,-905.91 473.22,-901.32 462.9,-898.95 463.67,-905.91"/>
</g>
<!-- FlowEndpoints -->
<g id="node8" class="node">
<title>FlowEndpoints</title>
<path fill="#f5f5f5" stroke="#333333" d="M631.79,-1114C631.79,-1114 483.83,-1114 483.83,-1114 477.83,-1114 471.83,-1108 471.83,-1102 471.83,-1102 471.83,-1078 471.83,-1078 471.83,-1072 477.83,-1066 483.83,-1066 483.83,-1066 631.79,-1066 631.79,-1066 637.79,-1066 643.79,-1072 643.79,-1078 643.79,-1078 643.79,-1102 643.79,-1102 643.79,-1108 637.79,-1114 631.79,-1114"/>
<text text-anchor="middle" x="557.81" y="-1094.2" font-family="Arial" font-size="14.00" fill="#333333">Flow Endpoints</text>
<text text-anchor="middle" x="557.81" y="-1077.4" font-family="Arial" font-size="14.00" fill="#333333">Workflow management</text>
</g>
<!-- RESTEndpoints&#45;&gt;FlowEndpoints -->
<g id="edge8" class="edge">
<title>RESTEndpoints-&gt;FlowEndpoints</title>
<path fill="none" stroke="#666666" stroke-width="1.2" d="M326.34,-948.49C331.96,-951.39 337.42,-954.56 342.46,-958 352.07,-964.55 351.98,-969.04 360.46,-977 400.89,-1014.97 407.74,-1030.09 456.24,-1057 458.49,-1058.25 460.8,-1059.46 463.15,-1060.63"/>
<polygon fill="#666666" stroke="#666666" stroke-width="1.2" points="461.49,-1063.72 472.03,-1064.78 464.45,-1057.38 461.49,-1063.72"/>
</g>
<!-- ExecutionEndpoints -->
<g id="node9" class="node">
<title>ExecutionEndpoints</title>
<path fill="#f5f5f5" stroke="#333333" d="M624.03,-1048C624.03,-1048 491.59,-1048 491.59,-1048 485.59,-1048 479.59,-1042 479.59,-1036 479.59,-1036 479.59,-1012 479.59,-1012 479.59,-1006 485.59,-1000 491.59,-1000 491.59,-1000 624.03,-1000 624.03,-1000 630.03,-1000 636.03,-1006 636.03,-1012 636.03,-1012 636.03,-1036 636.03,-1036 636.03,-1042 630.03,-1048 624.03,-1048"/>
<text text-anchor="middle" x="557.81" y="-1028.2" font-family="Arial" font-size="14.00" fill="#333333">Execution Endpoints</text>
<text text-anchor="middle" x="557.81" y="-1011.4" font-family="Arial" font-size="14.00" fill="#333333">Workflow execution</text>
</g>
<!-- RESTEndpoints&#45;&gt;ExecutionEndpoints -->
<g id="edge9" class="edge">
<title>RESTEndpoints-&gt;ExecutionEndpoints</title>
<path fill="none" stroke="#666666" stroke-width="1.2" d="M326.47,-947.3C364.35,-960.16 412.95,-976.58 456.24,-991 461.08,-992.61 466.05,-994.26 471.07,-995.92"/>
<polygon fill="#666666" stroke="#666666" stroke-width="1.2" points="469.78,-999.18 480.37,-999 471.97,-992.54 469.78,-999.18"/>
</g>
<!-- MarketplaceEndpoints -->
<g id="node10" class="node">
<title>MarketplaceEndpoints</title>
<path fill="#f5f5f5" stroke="#333333" d="M631.42,-982C631.42,-982 484.2,-982 484.2,-982 478.2,-982 472.2,-976 472.2,-970 472.2,-970 472.2,-946 472.2,-946 472.2,-940 478.2,-934 484.2,-934 484.2,-934 631.42,-934 631.42,-934 637.42,-934 643.42,-940 643.42,-946 643.42,-946 643.42,-970 643.42,-970 643.42,-976 637.42,-982 631.42,-982"/>
<text text-anchor="middle" x="557.81" y="-962.2" font-family="Arial" font-size="14.00" fill="#333333">Marketplace Endpoints</text>
<text text-anchor="middle" x="557.81" y="-945.4" font-family="Arial" font-size="14.00" fill="#333333">Trading interface</text>
</g>
<!-- RESTEndpoints&#45;&gt;MarketplaceEndpoints -->
<g id="edge10" class="edge">
<title>RESTEndpoints-&gt;MarketplaceEndpoints</title>
<path fill="none" stroke="#666666" stroke-width="1.2" d="M326.27,-932.28C365.55,-936.66 416.28,-942.32 460.15,-947.22"/>
<polygon fill="#666666" stroke="#666666" stroke-width="1.2" points="459.6,-950.68 469.93,-948.31 460.38,-943.72 459.6,-950.68"/>
</g>
<!-- AccessEndpoints -->
<g id="node11" class="node">
<title>AccessEndpoints</title>
<path fill="#f5f5f5" stroke="#333333" d="M637.63,-850C637.63,-850 477.99,-850 477.99,-850 471.99,-850 465.99,-844 465.99,-838 465.99,-838 465.99,-814 465.99,-814 465.99,-808 471.99,-802 477.99,-802 477.99,-802 637.63,-802 637.63,-802 643.63,-802 649.63,-808 649.63,-814 649.63,-814 649.63,-838 649.63,-838 649.63,-844 643.63,-850 637.63,-850"/>
<text text-anchor="middle" x="557.81" y="-830.2" font-family="Arial" font-size="14.00" fill="#333333">Access Endpoints</text>
<text text-anchor="middle" x="557.81" y="-813.4" font-family="Arial" font-size="14.00" fill="#333333">Permission management</text>
</g>
<!-- RESTEndpoints&#45;&gt;AccessEndpoints -->
<g id="edge11" class="edge">
<title>RESTEndpoints-&gt;AccessEndpoints</title>
<path fill="none" stroke="#666666" stroke-width="1.2" d="M326.47,-902.7C364.35,-889.84 412.95,-873.42 456.24,-859 461.08,-857.39 466.05,-855.74 471.07,-854.08"/>
<polygon fill="#666666" stroke="#666666" stroke-width="1.2" points="471.97,-857.46 480.37,-851 469.78,-850.82 471.97,-857.46"/>
</g>
<!-- ClientApp -->
<g id="node49" class="node">
<title>ClientApp</title>
<path fill="#e8f0fe" stroke="#4285f4" d="M614.3,-1238C614.3,-1238 501.32,-1238 501.32,-1238 495.32,-1238 489.32,-1232 489.32,-1226 489.32,-1226 489.32,-1202 489.32,-1202 489.32,-1196 495.32,-1190 501.32,-1190 501.32,-1190 614.3,-1190 614.3,-1190 620.3,-1190 626.3,-1196 626.3,-1202 626.3,-1202 626.3,-1226 626.3,-1226 626.3,-1232 620.3,-1238 614.3,-1238"/>
<text text-anchor="middle" x="557.81" y="-1218.2" font-family="Arial" font-size="14.00" fill="#4285f4">Client Application</text>
<text text-anchor="middle" x="557.81" y="-1201.4" font-family="Arial" font-size="14.00" fill="#4285f4">(Frontend)</text>
</g>
<!-- RESTEndpoints&#45;&gt;ClientApp -->
<g id="edge64" class="edge">
<title>RESTEndpoints-&gt;ClientApp</title>
<path fill="none" stroke="#0f9d58" stroke-width="1.2" d="M326.34,-944.97C332.3,-948.63 337.83,-952.93 342.46,-958 360.97,-978.23 348.33,-992.41 360.46,-1017 368.56,-1033.41 442.91,-1138.46 456.24,-1151 469.17,-1163.16 484.78,-1174.27 499.81,-1183.66"/>
<polygon fill="#0f9d58" stroke="#0f9d58" stroke-width="1.2" points="497.64,-1186.44 508.01,-1188.63 501.27,-1180.45 497.64,-1186.44"/>
<text text-anchor="middle" x="399.35" y="-1132.69" font-family="Arial" font-size="14.00" fill="#666666">HTTP/REST</text>
</g>
<!-- WebSocketHandlers&#45;&gt;AuthMiddleware -->
<g id="edge4" class="edge">
<title>WebSocketHandlers-&gt;AuthMiddleware</title>
<path fill="none" stroke="#666666" stroke-width="1.2" d="M329.68,-966.52C334.17,-963.92 338.48,-961.08 342.46,-958 398.94,-914.3 401.8,-890.41 438.24,-829 446.46,-815.15 443.35,-805.81 455.29,-792.3"/>
<polygon fill="#666666" stroke="#666666" stroke-width="1.2" points="457.52,-795.01 462.32,-785.57 452.68,-789.96 457.52,-795.01"/>
</g>
<!-- ChatHistoryManager -->
<g id="node15" class="node">
<title>ChatHistoryManager</title>
<path fill="#f5f5f5" stroke="#333333" d="M866.08,-1063C866.08,-1063 725.12,-1063 725.12,-1063 719.12,-1063 713.12,-1057 713.12,-1051 713.12,-1051 713.12,-1027 713.12,-1027 713.12,-1021 719.12,-1015 725.12,-1015 725.12,-1015 866.08,-1015 866.08,-1015 872.08,-1015 878.08,-1021 878.08,-1027 878.08,-1027 878.08,-1051 878.08,-1051 878.08,-1057 872.08,-1063 866.08,-1063"/>
<text text-anchor="middle" x="795.6" y="-1043.2" font-family="Arial" font-size="14.00" fill="#333333">Chat History Manager</text>
<text text-anchor="middle" x="795.6" y="-1026.4" font-family="Arial" font-size="14.00" fill="#333333">Conversation storage</text>
</g>
<!-- WebSocketHandlers&#45;&gt;ChatHistoryManager -->
<g id="edge43" class="edge">
<title>WebSocketHandlers-&gt;ChatHistoryManager</title>
<path fill="none" stroke="#666666" stroke-width="1.2" d="M334.38,-1015.33C337.37,-1017.94 340.09,-1020.81 342.46,-1024 368.42,-1058.93 332.79,-1185.42 360.46,-1219 388.67,-1253.23 412.34,-1240.71 456.24,-1247 549.13,-1260.3 597.18,-1309.28 667.38,-1247 696.68,-1221.01 663.31,-1102.1 688.38,-1072 692.51,-1067.04 697.38,-1062.81 702.71,-1059.21"/>
<polygon fill="#666666" stroke="#666666" stroke-width="1.2" points="704.3,-1062.33 711.2,-1054.29 700.79,-1056.28 704.3,-1062.33"/>
</g>
<!-- StreamManager -->
<g id="node32" class="node">
<title>StreamManager</title>
<path fill="#f5f5f5" stroke="#333333" d="M2486.83,-1377C2486.83,-1377 2359.1,-1377 2359.1,-1377 2353.1,-1377 2347.1,-1371 2347.1,-1365 2347.1,-1365 2347.1,-1341 2347.1,-1341 2347.1,-1335 2353.1,-1329 2359.1,-1329 2359.1,-1329 2486.83,-1329 2486.83,-1329 2492.83,-1329 2498.83,-1335 2498.83,-1341 2498.83,-1341 2498.83,-1365 2498.83,-1365 2498.83,-1371 2492.83,-1377 2486.83,-1377"/>
<text text-anchor="middle" x="2422.97" y="-1357.2" font-family="Arial" font-size="14.00" fill="#333333">Stream Manager</text>
<text text-anchor="middle" x="2422.97" y="-1340.4" font-family="Arial" font-size="14.00" fill="#333333">Stream multiplexing</text>
</g>
<!-- WebSocketHandlers&#45;&gt;StreamManager -->
<g id="edge44" class="edge">
<title>WebSocketHandlers-&gt;StreamManager</title>
<path fill="none" stroke="#666666" stroke-width="1.2" d="M334.42,-1015.3C337.4,-1017.91 340.11,-1020.8 342.46,-1024 371.76,-1063.89 341.62,-1200.23 360.46,-1246 412.02,-1371.22 421.39,-1479 556.81,-1479 556.81,-1479 556.81,-1479 2101.13,-1479 2187.18,-1479 2213.04,-1482.24 2292.41,-1449 2328.51,-1433.88 2363.83,-1406.63 2388.45,-1385.02"/>
<polygon fill="#666666" stroke="#666666" stroke-width="1.2" points="2390.55,-1387.84 2395.66,-1378.56 2385.88,-1382.63 2390.55,-1387.84"/>
</g>
<!-- WebSocketHandlers&#45;&gt;ClientApp -->
<g id="edge63" class="edge">
<title>WebSocketHandlers-&gt;ClientApp</title>
<path fill="none" stroke="#0f9d58" stroke-width="1.2" d="M334.2,-1015.47C337.23,-1018.04 340.02,-1020.87 342.46,-1024 377.81,-1069.28 323.35,-1108.15 360.46,-1152 389.21,-1185.97 436.44,-1201.57 477.37,-1208.62"/>
<polygon fill="#0f9d58" stroke="#0f9d58" stroke-width="1.2" points="476.79,-1212.07 487.21,-1210.15 477.87,-1205.16 476.79,-1212.07"/>
<text text-anchor="middle" x="399.35" y="-1202.19" font-family="Arial" font-size="14.00" fill="#666666">WebSocket</text>
</g>
<!-- JWTProvider -->
<g id="node52" class="node">
<title>JWTProvider</title>
<path fill="#f5f5f5" stroke="#333333" d="M1752.66,-76C1752.66,-76 1638.89,-76 1638.89,-76 1632.89,-76 1626.89,-70 1626.89,-64 1626.89,-64 1626.89,-40 1626.89,-40 1626.89,-34 1632.89,-28 1638.89,-28 1638.89,-28 1752.66,-28 1752.66,-28 1758.66,-28 1764.66,-34 1764.66,-40 1764.66,-40 1764.66,-64 1764.66,-64 1764.66,-70 1758.66,-76 1752.66,-76"/>
<text text-anchor="middle" x="1695.77" y="-56.2" font-family="Arial" font-size="14.00" fill="#333333">JWT Provider</text>
<text text-anchor="middle" x="1695.77" y="-39.4" font-family="Arial" font-size="14.00" fill="#333333">Token generation</text>
</g>
<!-- AuthMiddleware&#45;&gt;JWTProvider -->
<g id="edge70" class="edge">
<title>AuthMiddleware-&gt;JWTProvider</title>
<path fill="none" stroke="#666666" stroke-width="1.2" d="M561.68,-735.63C573.6,-637.54 621.75,-272.51 688.38,-180 720.59,-135.27 739.48,-116 794.6,-116 794.6,-116 794.6,-116 1351.46,-116 1443.07,-116 1546.13,-93.71 1615.21,-75.44"/>
<polygon fill="#666666" stroke="#666666" stroke-width="1.2" points="1615.92,-78.87 1624.67,-72.9 1614.11,-72.11 1615.92,-78.87"/>
</g>
<!-- PermissionValidator -->
<g id="node53" class="node">
<title>PermissionValidator</title>
<path fill="#f5f5f5" stroke="#333333" d="M1762.37,-142C1762.37,-142 1629.18,-142 1629.18,-142 1623.18,-142 1617.18,-136 1617.18,-130 1617.18,-130 1617.18,-106 1617.18,-106 1617.18,-100 1623.18,-94 1629.18,-94 1629.18,-94 1762.37,-94 1762.37,-94 1768.37,-94 1774.37,-100 1774.37,-106 1774.37,-106 1774.37,-130 1774.37,-130 1774.37,-136 1768.37,-142 1762.37,-142"/>
<text text-anchor="middle" x="1695.77" y="-122.2" font-family="Arial" font-size="14.00" fill="#333333">Permission Validator</text>
<text text-anchor="middle" x="1695.77" y="-105.4" font-family="Arial" font-size="14.00" fill="#333333">Access checking</text>
</g>
<!-- AuthMiddleware&#45;&gt;PermissionValidator -->
<g id="edge71" class="edge">
<title>AuthMiddleware-&gt;PermissionValidator</title>
<path fill="none" stroke="#666666" stroke-width="1.2" d="M563.2,-735.62C583.62,-625.98 673.45,-184 794.6,-184 794.6,-184 794.6,-184 1351.46,-184 1439,-184 1536.86,-163.05 1605.64,-144.76"/>
<polygon fill="#666666" stroke="#666666" stroke-width="1.2" points="1606.35,-148.19 1615.09,-142.21 1604.53,-141.44 1606.35,-148.19"/>
</g>
<!-- AuditLogger -->
<g id="node56" class="node">
<title>AuditLogger</title>
<path fill="#f5f5f5" stroke="#333333" d="M1942.56,-105C1942.56,-105 1842.05,-105 1842.05,-105 1836.05,-105 1830.05,-99 1830.05,-93 1830.05,-93 1830.05,-69 1830.05,-69 1830.05,-63 1836.05,-57 1842.05,-57 1842.05,-57 1942.56,-57 1942.56,-57 1948.56,-57 1954.56,-63 1954.56,-69 1954.56,-69 1954.56,-93 1954.56,-93 1954.56,-99 1948.56,-105 1942.56,-105"/>
<text text-anchor="middle" x="1892.3" y="-85.2" font-family="Arial" font-size="14.00" fill="#333333">Audit Logger</text>
<text text-anchor="middle" x="1892.3" y="-68.4" font-family="Arial" font-size="14.00" fill="#333333">Security events</text>
</g>
<!-- AuthMiddleware&#45;&gt;AuditLogger -->
<g id="edge75" class="edge">
<title>AuthMiddleware-&gt;AuditLogger</title>
<path fill="none" stroke="#666666" stroke-width="1.2" d="M560.92,-735.57C572.84,-605.49 636.77,0 794.6,0 794.6,0 794.6,0 1696.77,0 1738.62,0 1750.03,-3.71 1788.98,-19 1809.54,-27.07 1830.67,-39.13 1848.35,-50.47"/>
<polygon fill="#666666" stroke="#666666" stroke-width="1.2" points="1845.99,-53.11 1856.27,-55.67 1849.83,-47.26 1845.99,-53.11"/>
</g>
<!-- UserManager -->
<g id="node12" class="node">
<title>UserManager</title>
<path fill="#f5f5f5" stroke="#333333" d="M851.71,-1195C851.71,-1195 739.49,-1195 739.49,-1195 733.49,-1195 727.49,-1189 727.49,-1183 727.49,-1183 727.49,-1159 727.49,-1159 727.49,-1153 733.49,-1147 739.49,-1147 739.49,-1147 851.71,-1147 851.71,-1147 857.71,-1147 863.71,-1153 863.71,-1159 863.71,-1159 863.71,-1183 863.71,-1183 863.71,-1189 857.71,-1195 851.71,-1195"/>
<text text-anchor="middle" x="795.6" y="-1175.2" font-family="Arial" font-size="14.00" fill="#333333">User Manager</text>
<text text-anchor="middle" x="795.6" y="-1158.4" font-family="Arial" font-size="14.00" fill="#333333">Account handling</text>
</g>
<!-- UserEndpoints&#45;&gt;UserManager -->
<g id="edge37" class="edge">
<title>UserEndpoints-&gt;UserManager</title>
<path fill="none" stroke="#666666" stroke-width="1.2" d="M640.72,-905.08C650.92,-909.87 660.26,-916.32 667.38,-925 727.71,-998.55 628.27,-1064.27 688.38,-1138 695.74,-1147.04 705.54,-1153.65 716.22,-1158.47"/>
<polygon fill="#666666" stroke="#666666" stroke-width="1.2" points="714.85,-1161.69 725.44,-1162.07 717.39,-1155.17 714.85,-1161.69"/>
</g>
<!-- FlowManager -->
<g id="node13" class="node">
<title>FlowManager</title>
<path fill="#f5f5f5" stroke="#333333" d="M848.95,-1261C848.95,-1261 742.26,-1261 742.26,-1261 736.26,-1261 730.26,-1255 730.26,-1249 730.26,-1249 730.26,-1225 730.26,-1225 730.26,-1219 736.26,-1213 742.26,-1213 742.26,-1213 848.95,-1213 848.95,-1213 854.95,-1213 860.95,-1219 860.95,-1225 860.95,-1225 860.95,-1249 860.95,-1249 860.95,-1255 854.95,-1261 848.95,-1261"/>
<text text-anchor="middle" x="795.6" y="-1241.2" font-family="Arial" font-size="14.00" fill="#333333">Flow Manager</text>
<text text-anchor="middle" x="795.6" y="-1224.4" font-family="Arial" font-size="14.00" fill="#333333">Workflow CRUD</text>
</g>
<!-- FlowEndpoints&#45;&gt;FlowManager -->
<g id="edge38" class="edge">
<title>FlowEndpoints-&gt;FlowManager</title>
<path fill="none" stroke="#666666" stroke-width="1.2" d="M601.75,-1114.46C625.26,-1130.27 652.56,-1153.09 667.38,-1181 677.54,-1200.14 661.29,-1263.48 677.38,-1278 699.35,-1297.83 731.47,-1284.6 756.53,-1268.07"/>
<polygon fill="#666666" stroke="#666666" stroke-width="1.2" points="758.42,-1271.02 764.61,-1262.42 754.41,-1265.28 758.42,-1271.02"/>
</g>
<!-- ExecutionRecordManager -->
<g id="node16" class="node">
<title>ExecutionRecordManager</title>
<path fill="#f5f5f5" stroke="#333333" d="M882.83,-1129C882.83,-1129 708.38,-1129 708.38,-1129 702.38,-1129 696.38,-1123 696.38,-1117 696.38,-1117 696.38,-1093 696.38,-1093 696.38,-1087 702.38,-1081 708.38,-1081 708.38,-1081 882.83,-1081 882.83,-1081 888.83,-1081 894.83,-1087 894.83,-1093 894.83,-1093 894.83,-1117 894.83,-1117 894.83,-1123 888.83,-1129 882.83,-1129"/>
<text text-anchor="middle" x="795.6" y="-1109.2" font-family="Arial" font-size="14.00" fill="#333333">Execution Record Manager</text>
<text text-anchor="middle" x="795.6" y="-1092.4" font-family="Arial" font-size="14.00" fill="#333333">Execution tracking</text>
</g>
<!-- ExecutionEndpoints&#45;&gt;ExecutionRecordManager -->
<g id="edge39" class="edge">
<title>ExecutionEndpoints-&gt;ExecutionRecordManager</title>
<path fill="none" stroke="#666666" stroke-width="1.2" d="M636.52,-1044.23C647.1,-1047.96 657.66,-1052.21 667.38,-1057 677.67,-1062.07 678.1,-1066.9 688.38,-1072 691.16,-1073.38 694.01,-1074.72 696.91,-1076.01"/>
<polygon fill="#666666" stroke="#666666" stroke-width="1.2" points="695.36,-1079.16 705.93,-1079.81 698.07,-1072.7 695.36,-1079.16"/>
</g>
<!-- FlowExecution -->
<g id="node23" class="node">
<title>FlowExecution</title>
<path fill="#f5f5f5" stroke="#333333" d="M1086.36,-1393C1086.36,-1393 943.83,-1393 943.83,-1393 937.83,-1393 931.83,-1387 931.83,-1381 931.83,-1381 931.83,-1357 931.83,-1357 931.83,-1351 937.83,-1345 943.83,-1345 943.83,-1345 1086.36,-1345 1086.36,-1345 1092.36,-1345 1098.36,-1351 1098.36,-1357 1098.36,-1357 1098.36,-1381 1098.36,-1381 1098.36,-1387 1092.36,-1393 1086.36,-1393"/>
<text text-anchor="middle" x="1015.09" y="-1373.2" font-family="Arial" font-size="14.00" fill="#333333">Flow Execution</text>
<text text-anchor="middle" x="1015.09" y="-1356.4" font-family="Arial" font-size="14.00" fill="#333333">Runtime management</text>
</g>
<!-- ExecutionEndpoints&#45;&gt;FlowExecution -->
<g id="edge40" class="edge">
<title>ExecutionEndpoints-&gt;FlowExecution</title>
<path fill="none" stroke="#666666" stroke-width="1.2" d="M636.39,-1035.15C648.28,-1040.09 659.27,-1047.09 667.38,-1057 682.79,-1075.83 672.83,-1256.28 688.38,-1275 744.23,-1342.27 844.94,-1363.12 919.64,-1368.77"/>
<polygon fill="#666666" stroke="#666666" stroke-width="1.2" points="919.37,-1372.26 929.58,-1369.43 919.84,-1365.28 919.37,-1372.26"/>
</g>
<!-- MarketplaceEndpoints&#45;&gt;FlowManager -->
<g id="edge41" class="edge">
<title>MarketplaceEndpoints-&gt;FlowManager</title>
<path fill="none" stroke="#666666" stroke-width="1.2" d="M643.91,-972.65C652.86,-977.25 661.01,-983.23 667.38,-991 682.46,-1009.39 673.35,-1185.57 688.38,-1204 696.36,-1213.8 707.21,-1220.74 718.94,-1225.65"/>
<polygon fill="#666666" stroke="#666666" stroke-width="1.2" points="717.59,-1228.89 728.18,-1229 719.97,-1222.31 717.59,-1228.89"/>
</g>
<!-- AccessManager -->
<g id="node14" class="node">
<title>AccessManager</title>
<path fill="#f5f5f5" stroke="#333333" d="M873.48,-997C873.48,-997 717.73,-997 717.73,-997 711.73,-997 705.73,-991 705.73,-985 705.73,-985 705.73,-961 705.73,-961 705.73,-955 711.73,-949 717.73,-949 717.73,-949 873.48,-949 873.48,-949 879.48,-949 885.48,-955 885.48,-961 885.48,-961 885.48,-985 885.48,-985 885.48,-991 879.48,-997 873.48,-997"/>
<text text-anchor="middle" x="795.6" y="-977.2" font-family="Arial" font-size="14.00" fill="#333333">Access Manager</text>
<text text-anchor="middle" x="795.6" y="-960.4" font-family="Arial" font-size="14.00" fill="#333333">Permission enforcement</text>
</g>
<!-- AccessEndpoints&#45;&gt;AccessManager -->
<g id="edge42" class="edge">
<title>AccessEndpoints-&gt;AccessManager</title>
<path fill="none" stroke="#666666" stroke-width="1.2" d="M650.1,-850.48C656.07,-853.07 661.88,-855.91 667.38,-859 705.29,-880.35 741.53,-914.67 765.56,-940.08"/>
<polygon fill="#666666" stroke="#666666" stroke-width="1.2" points="762.93,-942.39 772.3,-947.33 768.06,-937.62 762.93,-942.39"/>
</g>
<!-- NotificationService -->
<g id="node17" class="node">
<title>NotificationService</title>
<path fill="#f5f5f5" stroke="#333333" d="M1077.41,-1063C1077.41,-1063 952.78,-1063 952.78,-1063 946.78,-1063 940.78,-1057 940.78,-1051 940.78,-1051 940.78,-1027 940.78,-1027 940.78,-1021 946.78,-1015 952.78,-1015 952.78,-1015 1077.41,-1015 1077.41,-1015 1083.41,-1015 1089.41,-1021 1089.41,-1027 1089.41,-1027 1089.41,-1051 1089.41,-1051 1089.41,-1057 1083.41,-1063 1077.41,-1063"/>
<text text-anchor="middle" x="1015.09" y="-1043.2" font-family="Arial" font-size="14.00" fill="#333333">Notification Service</text>
<text text-anchor="middle" x="1015.09" y="-1026.4" font-family="Arial" font-size="14.00" fill="#333333">User alerts</text>
</g>
<!-- UserManager&#45;&gt;NotificationService -->
<g id="edge16" class="edge">
<title>UserManager-&gt;NotificationService</title>
<path fill="none" stroke="#666666" stroke-width="1.2" d="M864.12,-1156.69C875.29,-1152.08 886.06,-1146.01 894.83,-1138 918.48,-1116.38 900.46,-1093.92 923.83,-1072 926.01,-1069.95 928.33,-1068.03 930.75,-1066.22"/>
<polygon fill="#666666" stroke="#666666" stroke-width="1.2" points="932.59,-1069.2 939.06,-1060.82 928.77,-1063.34 932.59,-1069.2"/>
</g>
<!-- AnalyticsService -->
<g id="node19" class="node">
<title>AnalyticsService</title>
<path fill="#f5f5f5" stroke="#333333" d="M1070.79,-997C1070.79,-997 959.4,-997 959.4,-997 953.4,-997 947.4,-991 947.4,-985 947.4,-985 947.4,-961 947.4,-961 947.4,-955 953.4,-949 959.4,-949 959.4,-949 1070.79,-949 1070.79,-949 1076.79,-949 1082.79,-955 1082.79,-961 1082.79,-961 1082.79,-985 1082.79,-985 1082.79,-991 1076.79,-997 1070.79,-997"/>
<text text-anchor="middle" x="1015.09" y="-977.2" font-family="Arial" font-size="14.00" fill="#333333">Analytics Service</text>
<text text-anchor="middle" x="1015.09" y="-960.4" font-family="Arial" font-size="14.00" fill="#333333">Usage tracking</text>
</g>
<!-- UserManager&#45;&gt;AnalyticsService -->
<g id="edge19" class="edge">
<title>UserManager-&gt;AnalyticsService</title>
<path fill="none" stroke="#666666" stroke-width="1.2" d="M863.99,-1158.69C875.58,-1153.89 886.53,-1147.24 894.83,-1138 914.89,-1115.65 904.06,-1028.61 923.83,-1006 927.71,-1001.56 932.24,-997.72 937.16,-994.39"/>
<polygon fill="#666666" stroke="#666666" stroke-width="1.2" points="938.62,-997.59 945.49,-989.53 935.09,-991.55 938.62,-997.59"/>
</g>
<!-- DBManager -->
<g id="node33" class="node">
<title>DBManager</title>
<path fill="#f5f5f5" stroke="#333333" d="M1412.4,-608C1412.4,-608 1288.52,-608 1288.52,-608 1282.52,-608 1276.52,-602 1276.52,-596 1276.52,-596 1276.52,-572 1276.52,-572 1276.52,-566 1282.52,-560 1288.52,-560 1288.52,-560 1412.4,-560 1412.4,-560 1418.4,-560 1424.4,-566 1424.4,-572 1424.4,-572 1424.4,-596 1424.4,-596 1424.4,-602 1418.4,-608 1412.4,-608"/>
<text text-anchor="middle" x="1350.46" y="-588.2" font-family="Arial" font-size="14.00" fill="#333333">Database Manager</text>
<text text-anchor="middle" x="1350.46" y="-571.4" font-family="Arial" font-size="14.00" fill="#333333">Data access layer</text>
</g>
<!-- UserManager&#45;&gt;DBManager -->
<g id="edge48" class="edge">
<title>UserManager-&gt;DBManager</title>
<path fill="none" stroke="#666666" stroke-width="1.2" d="M864.11,-1160.34C876.06,-1155.42 887.12,-1148.3 894.83,-1138 926.66,-1095.44 894.51,-709.89 912.83,-660 915.55,-652.57 916.98,-649.96 923.83,-646 952.72,-629.27 1149.01,-605.65 1264.68,-592.94"/>
<polygon fill="#666666" stroke="#666666" stroke-width="1.2" points="1264.93,-596.43 1274.49,-591.87 1264.17,-589.47 1264.93,-596.43"/>
</g>
<!-- AsyncProcessor -->
<g id="node51" class="node">
<title>AsyncProcessor</title>
<path fill="#e8f0fe" stroke="#333333" d="M1073.13,-931C1073.13,-931 957.05,-931 957.05,-931 951.05,-931 945.05,-925 945.05,-919 945.05,-919 945.05,-895 945.05,-895 945.05,-889 951.05,-883 957.05,-883 957.05,-883 1073.13,-883 1073.13,-883 1079.13,-883 1085.13,-889 1085.13,-895 1085.13,-895 1085.13,-919 1085.13,-919 1085.13,-925 1079.13,-931 1073.13,-931"/>
<text text-anchor="middle" x="1015.09" y="-911.2" font-family="Arial" font-size="14.00" fill="#333333">Async Processor</text>
<text text-anchor="middle" x="1015.09" y="-894.4" font-family="Arial" font-size="14.00" fill="#333333">Background tasks</text>
</g>
<!-- UserManager&#45;&gt;AsyncProcessor -->
<g id="edge67" class="edge">
<title>UserManager-&gt;AsyncProcessor</title>
<path fill="none" stroke="#666666" stroke-width="1.2" d="M864.18,-1159.48C875.89,-1154.63 886.85,-1147.74 894.83,-1138 923.41,-1103.08 894.11,-970.97 923.83,-937 927.07,-933.29 930.78,-930.04 934.8,-927.2"/>
<polygon fill="#666666" stroke="#666666" stroke-width="1.2" points="936.38,-930.33 943.14,-922.18 932.77,-924.33 936.38,-930.33"/>
</g>
<!-- FlowManager&#45;&gt;NotificationService -->
<g id="edge17" class="edge">
<title>FlowManager-&gt;NotificationService</title>
<path fill="none" stroke="#666666" stroke-width="1.2" d="M861.21,-1225.8C873.81,-1220.94 885.87,-1213.97 894.83,-1204 914.89,-1181.65 904.06,-1094.61 923.83,-1072 926.04,-1069.47 928.46,-1067.13 931.05,-1064.97"/>
<polygon fill="#666666" stroke="#666666" stroke-width="1.2" points="932.82,-1068.01 938.94,-1059.35 928.76,-1062.3 932.82,-1068.01"/>
</g>
<!-- SearchService -->
<g id="node18" class="node">
<title>SearchService</title>
<path fill="#f5f5f5" stroke="#333333" d="M1073.52,-1129C1073.52,-1129 956.67,-1129 956.67,-1129 950.67,-1129 944.67,-1123 944.67,-1117 944.67,-1117 944.67,-1093 944.67,-1093 944.67,-1087 950.67,-1081 956.67,-1081 956.67,-1081 1073.52,-1081 1073.52,-1081 1079.52,-1081 1085.52,-1087 1085.52,-1093 1085.52,-1093 1085.52,-1117 1085.52,-1117 1085.52,-1123 1079.52,-1129 1073.52,-1129"/>
<text text-anchor="middle" x="1015.09" y="-1109.2" font-family="Arial" font-size="14.00" fill="#333333">Search Service</text>
<text text-anchor="middle" x="1015.09" y="-1092.4" font-family="Arial" font-size="14.00" fill="#333333">Content discovery</text>
</g>
<!-- FlowManager&#45;&gt;SearchService -->
<g id="edge18" class="edge">
<title>FlowManager-&gt;SearchService</title>
<path fill="none" stroke="#666666" stroke-width="1.2" d="M861.43,-1223.92C873.58,-1219.19 885.4,-1212.75 894.83,-1204 919.2,-1181.36 899.41,-1157.6 923.83,-1135 927.04,-1132.02 930.57,-1129.34 934.3,-1126.92"/>
<polygon fill="#666666" stroke="#666666" stroke-width="1.2" points="936.01,-1129.97 943,-1122.01 932.57,-1123.87 936.01,-1129.97"/>
</g>
<!-- FlowManager&#45;&gt;AnalyticsService -->
<g id="edge20" class="edge">
<title>FlowManager-&gt;AnalyticsService</title>
<path fill="none" stroke="#666666" stroke-width="1.2" d="M861.25,-1226.46C874,-1221.57 886.12,-1214.42 894.83,-1204 909.08,-1186.94 909.79,-1023.25 923.83,-1006 927.61,-1001.35 932.11,-997.35 937.06,-993.91"/>
<polygon fill="#666666" stroke="#666666" stroke-width="1.2" points="938.67,-997.03 945.47,-988.91 935.09,-991.01 938.67,-997.03"/>
</g>
<!-- FlowVersioning -->
<g id="node20" class="node">
<title>FlowVersioning</title>
<path fill="#f5f5f5" stroke="#333333" d="M1067.29,-1195C1067.29,-1195 962.89,-1195 962.89,-1195 956.89,-1195 950.89,-1189 950.89,-1183 950.89,-1183 950.89,-1159 950.89,-1159 950.89,-1153 956.89,-1147 962.89,-1147 962.89,-1147 1067.29,-1147 1067.29,-1147 1073.29,-1147 1079.29,-1153 1079.29,-1159 1079.29,-1159 1079.29,-1183 1079.29,-1183 1079.29,-1189 1073.29,-1195 1067.29,-1195"/>
<text text-anchor="middle" x="1015.09" y="-1175.2" font-family="Arial" font-size="14.00" fill="#333333">Flow Versioning</text>
<text text-anchor="middle" x="1015.09" y="-1158.4" font-family="Arial" font-size="14.00" fill="#333333">Version control</text>
</g>
<!-- FlowManager&#45;&gt;FlowVersioning -->
<g id="edge12" class="edge">
<title>FlowManager-&gt;FlowVersioning</title>
<path fill="none" stroke="#666666" stroke-width="1.2" d="M861.27,-1217.38C885.81,-1209.93 913.96,-1201.39 939.35,-1193.68"/>
<polygon fill="#666666" stroke="#666666" stroke-width="1.2" points="940.14,-1197.1 948.69,-1190.85 938.1,-1190.4 940.14,-1197.1"/>
</g>
<!-- FlowValidation -->
<g id="node21" class="node">
<title>FlowValidation</title>
<path fill="#f5f5f5" stroke="#333333" d="M1075.47,-1261C1075.47,-1261 954.72,-1261 954.72,-1261 948.72,-1261 942.72,-1255 942.72,-1249 942.72,-1249 942.72,-1225 942.72,-1225 942.72,-1219 948.72,-1213 954.72,-1213 954.72,-1213 1075.47,-1213 1075.47,-1213 1081.47,-1213 1087.47,-1219 1087.47,-1225 1087.47,-1225 1087.47,-1249 1087.47,-1249 1087.47,-1255 1081.47,-1261 1075.47,-1261"/>
<text text-anchor="middle" x="1015.09" y="-1241.2" font-family="Arial" font-size="14.00" fill="#333333">Flow Validation</text>
<text text-anchor="middle" x="1015.09" y="-1224.4" font-family="Arial" font-size="14.00" fill="#333333">Structure checking</text>
</g>
<!-- FlowManager&#45;&gt;FlowValidation -->
<g id="edge13" class="edge">
<title>FlowManager-&gt;FlowValidation</title>
<path fill="none" stroke="#666666" stroke-width="1.2" d="M861.27,-1237C883.12,-1237 907.83,-1237 930.91,-1237"/>
<polygon fill="#666666" stroke="#666666" stroke-width="1.2" points="930.63,-1240.5 940.63,-1237 930.63,-1233.5 930.63,-1240.5"/>
</g>
<!-- FlowCompilation -->
<g id="node22" class="node">
<title>FlowCompilation</title>
<path fill="#f5f5f5" stroke="#333333" d="M1071.18,-1327C1071.18,-1327 959.01,-1327 959.01,-1327 953.01,-1327 947.01,-1321 947.01,-1315 947.01,-1315 947.01,-1291 947.01,-1291 947.01,-1285 953.01,-1279 959.01,-1279 959.01,-1279 1071.18,-1279 1071.18,-1279 1077.18,-1279 1083.18,-1285 1083.18,-1291 1083.18,-1291 1083.18,-1315 1083.18,-1315 1083.18,-1321 1077.18,-1327 1071.18,-1327"/>
<text text-anchor="middle" x="1015.09" y="-1307.2" font-family="Arial" font-size="14.00" fill="#333333">Flow Compilation</text>
<text text-anchor="middle" x="1015.09" y="-1290.4" font-family="Arial" font-size="14.00" fill="#333333">Optimization</text>
</g>
<!-- FlowManager&#45;&gt;FlowCompilation -->
<g id="edge14" class="edge">
<title>FlowManager-&gt;FlowCompilation</title>
<path fill="none" stroke="#666666" stroke-width="1.2" d="M861.33,-1245.23C878.9,-1248.94 897.56,-1254.29 913.83,-1262 918.97,-1264.44 918.86,-1267.21 923.83,-1270 927.8,-1272.24 931.96,-1274.37 936.21,-1276.4"/>
<polygon fill="#666666" stroke="#666666" stroke-width="1.2" points="934.72,-1279.57 945.28,-1280.49 937.6,-1273.19 934.72,-1279.57"/>
</g>
<!-- FlowManager&#45;&gt;FlowExecution -->
<g id="edge15" class="edge">
<title>FlowManager-&gt;FlowExecution</title>
<path fill="none" stroke="#666666" stroke-width="1.2" d="M861.35,-1244.81C880.81,-1250.28 900.51,-1259.5 913.83,-1275 931.73,-1295.84 906.31,-1314.84 923.83,-1336 923.99,-1336.2 924.16,-1336.4 924.33,-1336.6"/>
<polygon fill="#666666" stroke="#666666" stroke-width="1.2" points="921.81,-1339.03 931.43,-1343.47 926.68,-1334 921.81,-1339.03"/>
</g>
<!-- FlowManager&#45;&gt;DBManager -->
<g id="edge49" class="edge">
<title>FlowManager-&gt;DBManager</title>
<path fill="none" stroke="#666666" stroke-width="1.2" d="M861.2,-1227.32C874.2,-1222.4 886.43,-1215.02 894.83,-1204 930.22,-1157.52 885.32,-722.94 923.83,-679 952.23,-646.59 1072.05,-651.14 1114.36,-643 1175.71,-631.2 1191.87,-631.8 1252.31,-616 1257.28,-614.7 1262.36,-613.29 1267.47,-611.8"/>
<polygon fill="#666666" stroke="#666666" stroke-width="1.2" points="1268.35,-615.19 1276.93,-608.97 1266.35,-608.49 1268.35,-615.19"/>
</g>
<!-- StorageManager -->
<g id="node35" class="node">
<title>StorageManager</title>
<path fill="#f5f5f5" stroke="#333333" d="M1071.58,-802C1071.58,-802 958.6,-802 958.6,-802 952.6,-802 946.6,-796 946.6,-790 946.6,-790 946.6,-766 946.6,-766 946.6,-760 952.6,-754 958.6,-754 958.6,-754 1071.58,-754 1071.58,-754 1077.58,-754 1083.58,-760 1083.58,-766 1083.58,-766 1083.58,-790 1083.58,-790 1083.58,-796 1077.58,-802 1071.58,-802"/>
<text text-anchor="middle" x="1015.09" y="-782.2" font-family="Arial" font-size="14.00" fill="#333333">Storage Manager</text>
<text text-anchor="middle" x="1015.09" y="-765.4" font-family="Arial" font-size="14.00" fill="#333333">File storage</text>
</g>
<!-- FlowManager&#45;&gt;StorageManager -->
<g id="edge50" class="edge">
<title>FlowManager-&gt;StorageManager</title>
<path fill="none" stroke="#666666" stroke-width="1.2" d="M861.23,-1227.06C874.15,-1222.14 886.34,-1214.83 894.83,-1204 909.75,-1184.96 910.65,-1011.1 912.83,-987 917.36,-936.74 902.98,-919.95 923.83,-874 934.95,-849.47 954.94,-827.2 973.28,-810.3"/>
<polygon fill="#666666" stroke="#666666" stroke-width="1.2" points="975.6,-812.91 980.75,-803.65 970.95,-807.68 975.6,-812.91"/>
</g>
<!-- FlowManager&#45;&gt;AsyncProcessor -->
<g id="edge68" class="edge">
<title>FlowManager-&gt;AsyncProcessor</title>
<path fill="none" stroke="#666666" stroke-width="1.2" d="M861.28,-1226.8C874.12,-1221.89 886.26,-1214.65 894.83,-1204 913.53,-1180.75 905.08,-960.22 923.83,-937 926.98,-933.1 930.65,-929.7 934.68,-926.74"/>
<polygon fill="#666666" stroke="#666666" stroke-width="1.2" points="936.42,-929.78 943.1,-921.55 932.75,-923.82 936.42,-929.78"/>
</g>
<!-- BlockchainClient -->
<g id="node25" class="node">
<title>BlockchainClient</title>
<path fill="#fcd0cd" stroke="#333333" d="M2156.22,-1047C2156.22,-1047 2044.04,-1047 2044.04,-1047 2038.04,-1047 2032.04,-1041 2032.04,-1035 2032.04,-1035 2032.04,-1011 2032.04,-1011 2032.04,-1005 2038.04,-999 2044.04,-999 2044.04,-999 2156.22,-999 2156.22,-999 2162.22,-999 2168.22,-1005 2168.22,-1011 2168.22,-1011 2168.22,-1035 2168.22,-1035 2168.22,-1041 2162.22,-1047 2156.22,-1047"/>
<text text-anchor="middle" x="2100.13" y="-1027.2" font-family="Arial" font-size="14.00" fill="#333333">Blockchain Client</text>
<text text-anchor="middle" x="2100.13" y="-1010.4" font-family="Arial" font-size="14.00" fill="#333333">Aptos integration</text>
</g>
<!-- AccessManager&#45;&gt;BlockchainClient -->
<g id="edge46" class="edge">
<title>AccessManager-&gt;BlockchainClient</title>
<path fill="none" stroke="#666666" stroke-width="1.2" d="M818.12,-948.71C841.39,-924.45 880.94,-888.72 923.83,-874 1003.92,-846.51 1051.26,-817.52 1114.36,-874 1126.36,-884.74 1112.57,-933.22 1122.36,-946 1177.06,-1017.37 1429.67,-1023 1519.59,-1023 1519.59,-1023 1519.59,-1023 1893.3,-1023 1935.24,-1023 1981.98,-1023 2020.31,-1023"/>
<polygon fill="#666666" stroke="#666666" stroke-width="1.2" points="2020.11,-1026.5 2030.11,-1023 2020.11,-1019.5 2020.11,-1026.5"/>
</g>
<!-- AccessManager&#45;&gt;DBManager -->
<g id="edge52" class="edge">
<title>AccessManager-&gt;DBManager</title>
<path fill="none" stroke="#666666" stroke-width="1.2" d="M799.41,-948.53C809.87,-862.5 849.85,-576.76 923.83,-532 1048.73,-456.42 1110.7,-496.48 1252.31,-532 1270.27,-536.5 1288.54,-545.04 1304.32,-553.91"/>
<polygon fill="#666666" stroke="#666666" stroke-width="1.2" points="1302.33,-556.8 1312.73,-558.83 1305.86,-550.76 1302.33,-556.8"/>
</g>
<!-- CacheManager -->
<g id="node34" class="node">
<title>CacheManager</title>
<path fill="#f5f5f5" stroke="#333333" d="M1067.3,-736C1067.3,-736 962.89,-736 962.89,-736 956.89,-736 950.89,-730 950.89,-724 950.89,-724 950.89,-700 950.89,-700 950.89,-694 956.89,-688 962.89,-688 962.89,-688 1067.3,-688 1067.3,-688 1073.3,-688 1079.3,-694 1079.3,-700 1079.3,-700 1079.3,-724 1079.3,-724 1079.3,-730 1073.3,-736 1067.3,-736"/>
<text text-anchor="middle" x="1015.09" y="-716.2" font-family="Arial" font-size="14.00" fill="#333333">Cache Manager</text>
<text text-anchor="middle" x="1015.09" y="-699.4" font-family="Arial" font-size="14.00" fill="#333333">Redis caching</text>
</g>
<!-- AccessManager&#45;&gt;CacheManager -->
<g id="edge53" class="edge">
<title>AccessManager-&gt;CacheManager</title>
<path fill="none" stroke="#666666" stroke-width="1.2" d="M799.57,-948.73C810.1,-867.24 848.46,-605.85 912.83,-557 960.75,-520.63 992.74,-620.31 1006.47,-676.54"/>
<polygon fill="#666666" stroke="#666666" stroke-width="1.2" points="1003,-677.11 1008.7,-686.04 1009.82,-675.51 1003,-677.11"/>
</g>
<!-- ChatHistoryManager&#45;&gt;DBManager -->
<g id="edge54" class="edge">
<title>ChatHistoryManager-&gt;DBManager</title>
<path fill="none" stroke="#666666" stroke-width="1.2" d="M878.24,-1021.03C884.59,-1016.99 890.29,-1012.04 894.83,-1006 923.16,-968.31 894.8,-625.57 912.83,-582 915.59,-575.31 917.2,-572.91 923.83,-570 1033.88,-521.59 1175.87,-540.33 1264.81,-560.45"/>
<polygon fill="#666666" stroke="#666666" stroke-width="1.2" points="1263.89,-563.83 1274.43,-562.68 1265.48,-557.01 1263.89,-563.83"/>
</g>
<!-- ExecutionRecordManager&#45;&gt;AnalyticsService -->
<g id="edge21" class="edge">
<title>ExecutionRecordManager-&gt;AnalyticsService</title>
<path fill="none" stroke="#666666" stroke-width="1.2" d="M883.63,-1080.59C887.61,-1078.01 891.37,-1075.16 894.83,-1072 918.48,-1050.38 900.46,-1027.92 923.83,-1006 927.8,-1002.27 932.23,-998.96 936.93,-996.01"/>
<polygon fill="#666666" stroke="#666666" stroke-width="1.2" points="938.28,-999.27 945.32,-991.35 934.88,-993.15 938.28,-999.27"/>
</g>
<!-- ExecutionRecordManager&#45;&gt;DBManager -->
<g id="edge55" class="edge">
<title>ExecutionRecordManager-&gt;DBManager</title>
<path fill="none" stroke="#666666" stroke-width="1.2" d="M886.73,-1080.56C889.69,-1077.98 892.42,-1075.14 894.83,-1072 926.27,-1031.02 887.19,-644.41 923.83,-608 970.04,-562.06 1154.05,-567.97 1264.43,-576.13"/>
<polygon fill="#666666" stroke="#666666" stroke-width="1.2" points="1264.15,-579.61 1274.39,-576.89 1264.68,-572.64 1264.15,-579.61"/>
</g>
<!-- ExecutionRecordManager&#45;&gt;AsyncProcessor -->
<g id="edge69" class="edge">
<title>ExecutionRecordManager-&gt;AsyncProcessor</title>
<path fill="none" stroke="#666666" stroke-width="1.2" d="M886.13,-1080.75C889.3,-1078.13 892.23,-1075.22 894.83,-1072 917.31,-1044.16 886.74,-936.49 912.83,-912 918.69,-906.49 925.68,-902.79 933.22,-900.43"/>
<polygon fill="#666666" stroke="#666666" stroke-width="1.2" points="933.82,-903.88 942.81,-898.27 932.28,-897.05 933.82,-903.88"/>
</g>
<!-- WebhookService -->
<g id="node27" class="node">
<title>WebhookService</title>
<path fill="#fcd0cd" stroke="#333333" d="M2489.95,-1113C2489.95,-1113 2355.98,-1113 2355.98,-1113 2349.98,-1113 2343.98,-1107 2343.98,-1101 2343.98,-1101 2343.98,-1077 2343.98,-1077 2343.98,-1071 2349.98,-1065 2355.98,-1065 2355.98,-1065 2489.95,-1065 2489.95,-1065 2495.95,-1065 2501.95,-1071 2501.95,-1077 2501.95,-1077 2501.95,-1101 2501.95,-1101 2501.95,-1107 2495.95,-1113 2489.95,-1113"/>
<text text-anchor="middle" x="2422.97" y="-1093.2" font-family="Arial" font-size="14.00" fill="#333333">Webhook Service</text>
<text text-anchor="middle" x="2422.97" y="-1076.4" font-family="Arial" font-size="14.00" fill="#333333">External notifications</text>
</g>
<!-- NotificationService&#45;&gt;WebhookService -->
<g id="edge47" class="edge">
<title>NotificationService-&gt;WebhookService</title>
<path fill="none" stroke="#666666" stroke-width="1.2" d="M1089.77,-1055.13C1098.85,-1059.47 1107.37,-1064.99 1114.36,-1072 1122.3,-1079.96 1116.34,-1086.5 1122.36,-1096 1197.1,-1213.91 1209.86,-1313 1349.46,-1313 1349.46,-1313 1349.46,-1313 2101.13,-1313 2144.4,-1313 2160.8,-1318.27 2196.63,-1294 2273.44,-1241.97 2235.36,-1173.54 2310.41,-1119 2317.21,-1114.05 2324.78,-1109.92 2332.68,-1106.48"/>
<polygon fill="#666666" stroke="#666666" stroke-width="1.2" points="2333.9,-1109.76 2341.93,-1102.85 2331.34,-1103.24 2333.9,-1109.76"/>
</g>
<!-- NotificationService&#45;&gt;DBManager -->
<g id="edge56" class="edge">
<title>NotificationService-&gt;DBManager</title>
<path fill="none" stroke="#666666" stroke-width="1.2" d="M1089.75,-1024.89C1099.18,-1020.26 1107.81,-1014.12 1114.36,-1006 1134.58,-980.94 1105.35,-961.34 1122.36,-934 1158.56,-875.81 1209.45,-904.47 1252.31,-851 1308.67,-780.69 1334.07,-674.76 1343.99,-619.85"/>
<polygon fill="#666666" stroke="#666666" stroke-width="1.2" points="1347.42,-620.55 1345.67,-610.1 1340.52,-619.36 1347.42,-620.55"/>
</g>
<!-- MessageQueue -->
<g id="node50" class="node">
<title>MessageQueue</title>
<path fill="#6929c4" stroke="#333333" d="M1430.61,-1111C1430.61,-1114.31 1394.69,-1117 1350.46,-1117 1306.24,-1117 1270.31,-1114.31 1270.31,-1111 1270.31,-1111 1270.31,-1057 1270.31,-1057 1270.31,-1053.69 1306.24,-1051 1350.46,-1051 1394.69,-1051 1430.61,-1053.69 1430.61,-1057 1430.61,-1057 1430.61,-1111 1430.61,-1111"/>
<path fill="none" stroke="#333333" d="M1430.61,-1111C1430.61,-1107.69 1394.69,-1105 1350.46,-1105 1306.24,-1105 1270.31,-1107.69 1270.31,-1111"/>
<text text-anchor="middle" x="1350.46" y="-1088.2" font-family="Arial" font-size="14.00" fill="white">Message Queue</text>
<text text-anchor="middle" x="1350.46" y="-1071.4" font-family="Arial" font-size="14.00" fill="white">Kafka/Redis Streams</text>
</g>
<!-- NotificationService&#45;&gt;MessageQueue -->
<g id="edge66" class="edge">
<title>NotificationService-&gt;MessageQueue</title>
<path fill="none" stroke="#4285f4" stroke-width="1.2" d="M1089.72,-1053.61C1100.64,-1055.56 1111.78,-1057.42 1122.36,-1059 1167.01,-1065.65 1216.84,-1071.33 1258.42,-1075.58"/>
<polygon fill="#4285f4" stroke="#4285f4" stroke-width="1.2" points="1257.81,-1079.04 1268.11,-1076.56 1258.52,-1072.07 1257.81,-1079.04"/>
<text text-anchor="middle" x="1187.34" y="-1079.07" font-family="Arial" font-size="14.00" fill="#666666">Produces</text>
</g>
<!-- FlowVersioning&#45;&gt;StorageManager -->
<g id="edge51" class="edge">
<title>FlowVersioning-&gt;StorageManager</title>
<path fill="none" stroke="#666666" stroke-width="1.2" d="M950.64,-1163.98C933.78,-1158.62 917.93,-1149.47 909.33,-1134 895.77,-1109.63 898.61,-908.75 909.33,-883 921.61,-853.5 946.65,-828.03 969.29,-809.57"/>
<polygon fill="#666666" stroke="#666666" stroke-width="1.2" points="971.34,-812.4 977.04,-803.46 967.01,-806.9 971.34,-812.4"/>
</g>
<!-- ExecutionEngineClient -->
<g id="node24" class="node">
<title>ExecutionEngineClient</title>
<path fill="#fcd0cd" stroke="#333333" d="M2184.63,-1219C2184.63,-1219 2015.63,-1219 2015.63,-1219 2009.63,-1219 2003.63,-1213 2003.63,-1207 2003.63,-1207 2003.63,-1183 2003.63,-1183 2003.63,-1177 2009.63,-1171 2015.63,-1171 2015.63,-1171 2184.63,-1171 2184.63,-1171 2190.63,-1171 2196.63,-1177 2196.63,-1183 2196.63,-1183 2196.63,-1207 2196.63,-1207 2196.63,-1213 2190.63,-1219 2184.63,-1219"/>
<text text-anchor="middle" x="2100.13" y="-1199.2" font-family="Arial" font-size="14.00" fill="#333333">Execution Engine Client</text>
<text text-anchor="middle" x="2100.13" y="-1182.4" font-family="Arial" font-size="14.00" fill="#333333">Backend 1 communication</text>
</g>
<!-- FlowExecution&#45;&gt;ExecutionEngineClient -->
<g id="edge45" class="edge">
<title>FlowExecution-&gt;ExecutionEngineClient</title>
<path fill="none" stroke="#666666" stroke-width="1.2" d="M1090.9,-1344.59C1098.85,-1341.78 1106.8,-1338.89 1114.36,-1336 1220.6,-1295.42 1235.74,-1235 1349.46,-1235 1349.46,-1235 1349.46,-1235 1893.3,-1235 1928.87,-1235 1967.27,-1229.17 2001.16,-1221.97"/>
<polygon fill="#666666" stroke="#666666" stroke-width="1.2" points="2001.68,-1225.44 2010.69,-1219.87 2000.18,-1218.6 2001.68,-1225.44"/>
</g>
<!-- WSClient -->
<g id="node29" class="node">
<title>WSClient</title>
<path fill="#f5f5f5" stroke="#333333" d="M2506.29,-1179C2506.29,-1179 2339.64,-1179 2339.64,-1179 2333.64,-1179 2327.64,-1173 2327.64,-1167 2327.64,-1167 2327.64,-1143 2327.64,-1143 2327.64,-1137 2333.64,-1131 2339.64,-1131 2339.64,-1131 2506.29,-1131 2506.29,-1131 2512.29,-1131 2518.29,-1137 2518.29,-1143 2518.29,-1143 2518.29,-1167 2518.29,-1167 2518.29,-1173 2512.29,-1179 2506.29,-1179"/>
<text text-anchor="middle" x="2422.97" y="-1159.2" font-family="Arial" font-size="14.00" fill="#333333">WebSocket Client</text>
<text text-anchor="middle" x="2422.97" y="-1142.4" font-family="Arial" font-size="14.00" fill="#333333">Streaming communication</text>
</g>
<!-- ExecutionEngineClient&#45;&gt;WSClient -->
<g id="edge22" class="edge">
<title>ExecutionEngineClient-&gt;WSClient</title>
<path fill="none" stroke="#666666" stroke-width="1.2" d="M2196.96,-1183.05C2234.27,-1178.4 2277.19,-1173.05 2315.46,-1168.28"/>
<polygon fill="#666666" stroke="#666666" stroke-width="1.2" points="2315.89,-1171.75 2325.38,-1167.04 2315.03,-1164.81 2315.89,-1171.75"/>
</g>
<!-- RESTClient -->
<g id="node30" class="node">
<title>RESTClient</title>
<path fill="#f5f5f5" stroke="#333333" d="M2492.66,-1245C2492.66,-1245 2353.27,-1245 2353.27,-1245 2347.27,-1245 2341.27,-1239 2341.27,-1233 2341.27,-1233 2341.27,-1209 2341.27,-1209 2341.27,-1203 2347.27,-1197 2353.27,-1197 2353.27,-1197 2492.66,-1197 2492.66,-1197 2498.66,-1197 2504.66,-1203 2504.66,-1209 2504.66,-1209 2504.66,-1233 2504.66,-1233 2504.66,-1239 2498.66,-1245 2492.66,-1245"/>
<text text-anchor="middle" x="2422.97" y="-1225.2" font-family="Arial" font-size="14.00" fill="#333333">REST Client</text>
<text text-anchor="middle" x="2422.97" y="-1208.4" font-family="Arial" font-size="14.00" fill="#333333">HTTP communication</text>
</g>
<!-- ExecutionEngineClient&#45;&gt;RESTClient -->
<g id="edge23" class="edge">
<title>ExecutionEngineClient-&gt;RESTClient</title>
<path fill="none" stroke="#666666" stroke-width="1.2" d="M2196.96,-1202.77C2238.81,-1206.16 2287.7,-1210.12 2329.2,-1213.48"/>
<polygon fill="#666666" stroke="#666666" stroke-width="1.2" points="2328.92,-1216.97 2339.17,-1214.29 2329.48,-1209.99 2328.92,-1216.97"/>
</g>
<!-- ResponseProcessor -->
<g id="node31" class="node">
<title>ResponseProcessor</title>
<path fill="#f5f5f5" stroke="#333333" d="M2490.34,-1311C2490.34,-1311 2355.59,-1311 2355.59,-1311 2349.59,-1311 2343.59,-1305 2343.59,-1299 2343.59,-1299 2343.59,-1275 2343.59,-1275 2343.59,-1269 2349.59,-1263 2355.59,-1263 2355.59,-1263 2490.34,-1263 2490.34,-1263 2496.34,-1263 2502.34,-1269 2502.34,-1275 2502.34,-1275 2502.34,-1299 2502.34,-1299 2502.34,-1305 2496.34,-1311 2490.34,-1311"/>
<text text-anchor="middle" x="2422.97" y="-1291.2" font-family="Arial" font-size="14.00" fill="#333333">Response Processor</text>
<text text-anchor="middle" x="2422.97" y="-1274.4" font-family="Arial" font-size="14.00" fill="#333333">Result handling</text>
</g>
<!-- ExecutionEngineClient&#45;&gt;ResponseProcessor -->
<g id="edge24" class="edge">
<title>ExecutionEngineClient-&gt;ResponseProcessor</title>
<path fill="none" stroke="#666666" stroke-width="1.2" d="M2186.26,-1219.41C2231.28,-1232.32 2286.53,-1248.16 2332.22,-1261.27"/>
<polygon fill="#666666" stroke="#666666" stroke-width="1.2" points="2331,-1264.56 2341.57,-1263.95 2332.92,-1257.83 2331,-1264.56"/>
</g>
<!-- ExecutionEngineClient&#45;&gt;StreamManager -->
<g id="edge25" class="edge">
<title>ExecutionEngineClient-&gt;StreamManager</title>
<path fill="none" stroke="#666666" stroke-width="1.2" d="M2180.51,-1219.44C2186.1,-1222.06 2191.53,-1224.91 2196.63,-1228 2206.04,-1233.7 2206.29,-1237.82 2214.63,-1245 2255.61,-1280.27 2262.35,-1295.23 2310.41,-1320 2318.36,-1324.1 2326.9,-1327.77 2335.59,-1331.03"/>
<polygon fill="#666666" stroke="#666666" stroke-width="1.2" points="2334.33,-1334.3 2344.92,-1334.35 2336.67,-1327.7 2334.33,-1334.3"/>
</g>
<!-- ExecutionEngine -->
<g id="node47" class="node">
<title>ExecutionEngine</title>
<path fill="#fce8e6" stroke="#db4437" d="M2500.86,-981C2500.86,-981 2345.07,-981 2345.07,-981 2339.07,-981 2333.07,-975 2333.07,-969 2333.07,-969 2333.07,-945 2333.07,-945 2333.07,-939 2339.07,-933 2345.07,-933 2345.07,-933 2500.86,-933 2500.86,-933 2506.86,-933 2512.86,-939 2512.86,-945 2512.86,-945 2512.86,-969 2512.86,-969 2512.86,-975 2506.86,-981 2500.86,-981"/>
<text text-anchor="middle" x="2422.97" y="-961.2" font-family="Arial" font-size="14.00" fill="#db4437">Neura Execution Engine</text>
<text text-anchor="middle" x="2422.97" y="-944.4" font-family="Arial" font-size="14.00" fill="#db4437">(Backend 1)</text>
</g>
<!-- ExecutionEngineClient&#45;&gt;ExecutionEngine -->
<g id="edge60" class="edge">
<title>ExecutionEngineClient-&gt;ExecutionEngine</title>
<path fill="none" stroke="#db4437" stroke-width="1.2" d="M2118.61,-1170.68C2151.25,-1127.1 2225.84,-1035.7 2310.41,-987 2314.1,-984.87 2317.95,-982.89 2321.9,-981.05"/>
<polygon fill="#db4437" stroke="#db4437" stroke-width="1.2" points="2323.09,-984.35 2330.9,-977.2 2320.33,-977.91 2323.09,-984.35"/>
<text text-anchor="middle" x="2253.52" y="-1081.79" font-family="Arial" font-size="14.00" fill="#666666">WebSocket</text>
<text text-anchor="middle" x="2253.52" y="-1064.99" font-family="Arial" font-size="14.00" fill="#666666">HTTP/REST</text>
</g>
<!-- EventSubscriber -->
<g id="node26" class="node">
<title>EventSubscriber</title>
<path fill="#fcd0cd" stroke="#333333" d="M2502.8,-1047C2502.8,-1047 2343.13,-1047 2343.13,-1047 2337.13,-1047 2331.13,-1041 2331.13,-1035 2331.13,-1035 2331.13,-1011 2331.13,-1011 2331.13,-1005 2337.13,-999 2343.13,-999 2343.13,-999 2502.8,-999 2502.8,-999 2508.8,-999 2514.8,-1005 2514.8,-1011 2514.8,-1011 2514.8,-1035 2514.8,-1035 2514.8,-1041 2508.8,-1047 2502.8,-1047"/>
<text text-anchor="middle" x="2422.97" y="-1027.2" font-family="Arial" font-size="14.00" fill="#333333">Event Subscriber</text>
<text text-anchor="middle" x="2422.97" y="-1010.4" font-family="Arial" font-size="14.00" fill="#333333">Blockchain event listener</text>
</g>
<!-- BlockchainClient&#45;&gt;EventSubscriber -->
<g id="edge26" class="edge">
<title>BlockchainClient-&gt;EventSubscriber</title>
<path fill="none" stroke="#666666" stroke-width="1.2" d="M2168.39,-1023C2212.02,-1023 2269.73,-1023 2319.06,-1023"/>
<polygon fill="#666666" stroke="#666666" stroke-width="1.2" points="2318.94,-1026.5 2328.94,-1023 2318.94,-1019.5 2318.94,-1026.5"/>
</g>
<!-- BlockchainClient&#45;&gt;WebhookService -->
<g id="edge27" class="edge">
<title>BlockchainClient-&gt;WebhookService</title>
<path fill="none" stroke="#666666" stroke-width="1.2" d="M2168.39,-1036.84C2215.88,-1046.61 2280.04,-1059.8 2331.94,-1070.48"/>
<polygon fill="#666666" stroke="#666666" stroke-width="1.2" points="2331.21,-1073.9 2341.71,-1072.49 2332.62,-1067.05 2331.21,-1073.9"/>
</g>
<!-- AptosBlockchain -->
<g id="node48" class="node">
<title>AptosBlockchain</title>
<path fill="#fef7e0" stroke="#f7b529" d="M2811.45,-932C2811.45,-932 2699.25,-932 2699.25,-932 2693.25,-932 2687.25,-926 2687.25,-920 2687.25,-920 2687.25,-908 2687.25,-908 2687.25,-902 2693.25,-896 2699.25,-896 2699.25,-896 2811.45,-896 2811.45,-896 2817.45,-896 2823.45,-902 2823.45,-908 2823.45,-908 2823.45,-920 2823.45,-920 2823.45,-926 2817.45,-932 2811.45,-932"/>
<text text-anchor="middle" x="2755.35" y="-909.8" font-family="Arial" font-size="14.00" fill="#f7b529">Aptos Blockchain</text>
</g>
<!-- BlockchainClient&#45;&gt;AptosBlockchain -->
<g id="edge61" class="edge">
<title>BlockchainClient-&gt;AptosBlockchain</title>
<path fill="none" stroke="#db4437" stroke-width="1.2" d="M2132.97,-998.55C2172.2,-970.12 2242.06,-924.85 2310.41,-907.2 2434.82,-875.08 2585.44,-887.67 2675.38,-900.37"/>
<polygon fill="#db4437" stroke="#db4437" stroke-width="1.2" points="2674.66,-903.8 2685.06,-901.77 2675.67,-896.87 2674.66,-903.8"/>
<text text-anchor="middle" x="2422.97" y="-911.4" font-family="Arial" font-size="14.00" fill="#666666">RPC</text>
</g>
<!-- EventSubscriber&#45;&gt;AptosBlockchain -->
<g id="edge62" class="edge">
<title>EventSubscriber-&gt;AptosBlockchain</title>
<path fill="none" stroke="#db4437" stroke-width="1.2" stroke-dasharray="5,2" d="M2515.04,-998.91C2525.02,-996.02 2535.01,-993.02 2544.52,-990 2596.22,-973.59 2654.12,-952.4 2695.98,-936.57"/>
<polygon fill="#db4437" stroke="#db4437" stroke-width="1.2" points="2697,-939.92 2705.11,-933.1 2694.52,-933.38 2697,-939.92"/>
<text text-anchor="middle" x="2610.89" y="-990.53" font-family="Arial" font-size="14.00" fill="#666666">Event Subscription</text>
</g>
<!-- APIClientFactory -->
<g id="node28" class="node">
<title>APIClientFactory</title>
<path fill="#fcd0cd" stroke="#333333" d="M2176.07,-1285C2176.07,-1285 2024.19,-1285 2024.19,-1285 2018.19,-1285 2012.19,-1279 2012.19,-1273 2012.19,-1273 2012.19,-1249 2012.19,-1249 2012.19,-1243 2018.19,-1237 2024.19,-1237 2024.19,-1237 2176.07,-1237 2176.07,-1237 2182.07,-1237 2188.07,-1243 2188.07,-1249 2188.07,-1249 2188.07,-1273 2188.07,-1273 2188.07,-1279 2182.07,-1285 2176.07,-1285"/>
<text text-anchor="middle" x="2100.13" y="-1265.2" font-family="Arial" font-size="14.00" fill="#333333">API Client Factory</text>
<text text-anchor="middle" x="2100.13" y="-1248.4" font-family="Arial" font-size="14.00" fill="#333333">External API integration</text>
</g>
<!-- DataMigrationService -->
<g id="node36" class="node">
<title>DataMigrationService</title>
<path fill="#f5f5f5" stroke="#333333" d="M1768.98,-307C1768.98,-307 1622.57,-307 1622.57,-307 1616.57,-307 1610.57,-301 1610.57,-295 1610.57,-295 1610.57,-271 1610.57,-271 1610.57,-265 1616.57,-259 1622.57,-259 1622.57,-259 1768.98,-259 1768.98,-259 1774.98,-259 1780.98,-265 1780.98,-271 1780.98,-271 1780.98,-295 1780.98,-295 1780.98,-301 1774.98,-307 1768.98,-307"/>
<text text-anchor="middle" x="1695.77" y="-287.2" font-family="Arial" font-size="14.00" fill="#333333">Data Migration Service</text>
<text text-anchor="middle" x="1695.77" y="-270.4" font-family="Arial" font-size="14.00" fill="#333333">Schema evolution</text>
</g>
<!-- DBManager&#45;&gt;DataMigrationService -->
<g id="edge34" class="edge">
<title>DBManager-&gt;DataMigrationService</title>
<path fill="none" stroke="#666666" stroke-width="1.2" d="M1357.46,-559.71C1368.72,-518.76 1396.71,-435.61 1448.61,-386 1490.17,-346.27 1549.29,-320.85 1599.18,-305.21"/>
<polygon fill="#666666" stroke="#666666" stroke-width="1.2" points="1600.04,-308.61 1608.59,-302.35 1598.01,-301.91 1600.04,-308.61"/>
</g>
<!-- BackupService -->
<g id="node37" class="node">
<title>BackupService</title>
<path fill="#f5f5f5" stroke="#333333" d="M1746.81,-373C1746.81,-373 1644.74,-373 1644.74,-373 1638.74,-373 1632.74,-367 1632.74,-361 1632.74,-361 1632.74,-337 1632.74,-337 1632.74,-331 1638.74,-325 1644.74,-325 1644.74,-325 1746.81,-325 1746.81,-325 1752.81,-325 1758.81,-331 1758.81,-337 1758.81,-337 1758.81,-361 1758.81,-361 1758.81,-367 1752.81,-373 1746.81,-373"/>
<text text-anchor="middle" x="1695.77" y="-353.2" font-family="Arial" font-size="14.00" fill="#333333">Backup Service</text>
<text text-anchor="middle" x="1695.77" y="-336.4" font-family="Arial" font-size="14.00" fill="#333333">Data protection</text>
</g>
<!-- DBManager&#45;&gt;BackupService -->
<g id="edge35" class="edge">
<title>DBManager-&gt;BackupService</title>
<path fill="none" stroke="#666666" stroke-width="1.2" d="M1364.05,-559.67C1380.21,-530.49 1410.72,-481.68 1448.61,-451 1456.21,-444.85 1600.1,-382.62 1609.18,-379 1613.14,-377.42 1617.23,-375.84 1621.36,-374.27"/>
<polygon fill="#666666" stroke="#666666" stroke-width="1.2" points="1622.51,-377.58 1630.67,-370.81 1620.07,-371.02 1622.51,-377.58"/>
</g>
<!-- UserModel -->
<g id="node38" class="node">
<title>UserModel</title>
<path fill="#f5f5f5" stroke="#333333" d="M1739.04,-571C1739.04,-571 1652.51,-571 1652.51,-571 1646.51,-571 1640.51,-565 1640.51,-559 1640.51,-559 1640.51,-535 1640.51,-535 1640.51,-529 1646.51,-523 1652.51,-523 1652.51,-523 1739.04,-523 1739.04,-523 1745.04,-523 1751.04,-529 1751.04,-535 1751.04,-535 1751.04,-559 1751.04,-559 1751.04,-565 1745.04,-571 1739.04,-571"/>
<text text-anchor="middle" x="1695.77" y="-551.2" font-family="Arial" font-size="14.00" fill="#333333">User Model</text>
<text text-anchor="middle" x="1695.77" y="-534.4" font-family="Arial" font-size="14.00" fill="#333333">Account data</text>
</g>
<!-- DBManager&#45;&gt;UserModel -->
<g id="edge28" class="edge">
<title>DBManager-&gt;UserModel</title>
<path fill="none" stroke="#666666" stroke-width="1.2" d="M1424.69,-576.11C1485.12,-569.6 1570.13,-560.43 1628.55,-554.14"/>
<polygon fill="#666666" stroke="#666666" stroke-width="1.2" points="1628.85,-557.62 1638.42,-553.07 1628.1,-550.67 1628.85,-557.62"/>
</g>
<!-- FlowModel -->
<g id="node39" class="node">
<title>FlowModel</title>
<path fill="#f5f5f5" stroke="#333333" d="M1756.92,-637C1756.92,-637 1634.63,-637 1634.63,-637 1628.63,-637 1622.63,-631 1622.63,-625 1622.63,-625 1622.63,-601 1622.63,-601 1622.63,-595 1628.63,-589 1634.63,-589 1634.63,-589 1756.92,-589 1756.92,-589 1762.92,-589 1768.92,-595 1768.92,-601 1768.92,-601 1768.92,-625 1768.92,-625 1768.92,-631 1762.92,-637 1756.92,-637"/>
<text text-anchor="middle" x="1695.77" y="-617.2" font-family="Arial" font-size="14.00" fill="#333333">Flow Model</text>
<text text-anchor="middle" x="1695.77" y="-600.4" font-family="Arial" font-size="14.00" fill="#333333">Workflow definition</text>
</g>
<!-- DBManager&#45;&gt;FlowModel -->
<g id="edge29" class="edge">
<title>DBManager-&gt;FlowModel</title>
<path fill="none" stroke="#666666" stroke-width="1.2" d="M1424.69,-590.19C1479.22,-594.79 1553.78,-601.09 1610.74,-605.9"/>
<polygon fill="#666666" stroke="#666666" stroke-width="1.2" points="1610.18,-609.37 1620.44,-606.72 1610.77,-602.39 1610.18,-609.37"/>
</g>
<!-- ExecutionModel -->
<g id="node40" class="node">
<title>ExecutionModel</title>
<path fill="#f5f5f5" stroke="#333333" d="M1749.93,-703C1749.93,-703 1641.62,-703 1641.62,-703 1635.62,-703 1629.62,-697 1629.62,-691 1629.62,-691 1629.62,-667 1629.62,-667 1629.62,-661 1635.62,-655 1641.62,-655 1641.62,-655 1749.93,-655 1749.93,-655 1755.93,-655 1761.93,-661 1761.93,-667 1761.93,-667 1761.93,-691 1761.93,-691 1761.93,-697 1755.93,-703 1749.93,-703"/>
<text text-anchor="middle" x="1695.77" y="-683.2" font-family="Arial" font-size="14.00" fill="#333333">Execution Model</text>
<text text-anchor="middle" x="1695.77" y="-666.4" font-family="Arial" font-size="14.00" fill="#333333">Run records</text>
</g>
<!-- DBManager&#45;&gt;ExecutionModel -->
<g id="edge30" class="edge">
<title>DBManager-&gt;ExecutionModel</title>
<path fill="none" stroke="#666666" stroke-width="1.2" d="M1424.69,-604.26C1481.55,-620 1560.18,-641.76 1617.94,-657.74"/>
<polygon fill="#666666" stroke="#666666" stroke-width="1.2" points="1616.88,-661.08 1627.45,-660.37 1618.74,-654.33 1616.88,-661.08"/>
</g>
<!-- ChatModel -->
<g id="node41" class="node">
<title>ChatModel</title>
<path fill="#f5f5f5" stroke="#333333" d="M1754.99,-769C1754.99,-769 1636.56,-769 1636.56,-769 1630.56,-769 1624.56,-763 1624.56,-757 1624.56,-757 1624.56,-733 1624.56,-733 1624.56,-727 1630.56,-721 1636.56,-721 1636.56,-721 1754.99,-721 1754.99,-721 1760.99,-721 1766.99,-727 1766.99,-733 1766.99,-733 1766.99,-757 1766.99,-757 1766.99,-763 1760.99,-769 1754.99,-769"/>
<text text-anchor="middle" x="1695.77" y="-749.2" font-family="Arial" font-size="14.00" fill="#333333">Chat Model</text>
<text text-anchor="middle" x="1695.77" y="-732.4" font-family="Arial" font-size="14.00" fill="#333333">Conversation data</text>
</g>
<!-- DBManager&#45;&gt;ChatModel -->
<g id="edge31" class="edge">
<title>DBManager-&gt;ChatModel</title>
<path fill="none" stroke="#666666" stroke-width="1.2" d="M1396.85,-608.39C1447.8,-635.33 1533.27,-679.23 1609.18,-712 1612.44,-713.41 1615.78,-714.82 1619.16,-716.22"/>
<polygon fill="#666666" stroke="#666666" stroke-width="1.2" points="1617.79,-719.45 1628.38,-719.99 1620.44,-712.97 1617.79,-719.45"/>
</g>
<!-- AccessModel -->
<g id="node42" class="node">
<title>AccessModel</title>
<path fill="#f5f5f5" stroke="#333333" d="M1758.08,-439C1758.08,-439 1633.47,-439 1633.47,-439 1627.47,-439 1621.47,-433 1621.47,-427 1621.47,-427 1621.47,-403 1621.47,-403 1621.47,-397 1627.47,-391 1633.47,-391 1633.47,-391 1758.08,-391 1758.08,-391 1764.08,-391 1770.08,-397 1770.08,-403 1770.08,-403 1770.08,-427 1770.08,-427 1770.08,-433 1764.08,-439 1758.08,-439"/>
<text text-anchor="middle" x="1695.77" y="-419.2" font-family="Arial" font-size="14.00" fill="#333333">Access Model</text>
<text text-anchor="middle" x="1695.77" y="-402.4" font-family="Arial" font-size="14.00" fill="#333333">Permission records</text>
</g>
<!-- DBManager&#45;&gt;AccessModel -->
<g id="edge32" class="edge">
<title>DBManager-&gt;AccessModel</title>
<path fill="none" stroke="#666666" stroke-width="1.2" d="M1378.9,-559.74C1397.6,-544.07 1423.44,-524.07 1448.61,-510 1515.39,-472.67 1537.81,-475.54 1609.18,-448 1612.94,-446.55 1616.78,-445.07 1620.67,-443.57"/>
<polygon fill="#666666" stroke="#666666" stroke-width="1.2" points="1621.9,-446.84 1629.97,-439.98 1619.38,-440.31 1621.9,-446.84"/>
</g>
<!-- MarketplaceModel -->
<g id="node43" class="node">
<title>MarketplaceModel</title>
<path fill="#f5f5f5" stroke="#333333" d="M1757.31,-505C1757.31,-505 1634.24,-505 1634.24,-505 1628.24,-505 1622.24,-499 1622.24,-493 1622.24,-493 1622.24,-469 1622.24,-469 1622.24,-463 1628.24,-457 1634.24,-457 1634.24,-457 1757.31,-457 1757.31,-457 1763.31,-457 1769.31,-463 1769.31,-469 1769.31,-469 1769.31,-493 1769.31,-493 1769.31,-499 1763.31,-505 1757.31,-505"/>
<text text-anchor="middle" x="1695.77" y="-485.2" font-family="Arial" font-size="14.00" fill="#333333">Marketplace Model</text>
<text text-anchor="middle" x="1695.77" y="-468.4" font-family="Arial" font-size="14.00" fill="#333333">Listing data</text>
</g>
<!-- DBManager&#45;&gt;MarketplaceModel -->
<g id="edge33" class="edge">
<title>DBManager-&gt;MarketplaceModel</title>
<path fill="none" stroke="#666666" stroke-width="1.2" d="M1424.69,-562.03C1479.24,-545.66 1553.83,-523.28 1610.81,-506.19"/>
<polygon fill="#666666" stroke="#666666" stroke-width="1.2" points="1611.64,-509.6 1620.21,-503.37 1609.63,-502.89 1611.64,-509.6"/>
</g>
<!-- Database -->
<g id="node44" class="node">
<title>Database</title>
<path fill="#336791" stroke="#333333" d="M1773.22,-905C1773.22,-908.31 1738.5,-911 1695.77,-911 1653.04,-911 1618.33,-908.31 1618.33,-905 1618.33,-905 1618.33,-851 1618.33,-851 1618.33,-847.69 1653.04,-845 1695.77,-845 1738.5,-845 1773.22,-847.69 1773.22,-851 1773.22,-851 1773.22,-905 1773.22,-905"/>
<path fill="none" stroke="#333333" d="M1773.22,-905C1773.22,-901.69 1738.5,-899 1695.77,-899 1653.04,-899 1618.33,-901.69 1618.33,-905"/>
<text text-anchor="middle" x="1695.77" y="-882.2" font-family="Arial" font-size="14.00" fill="white">PostgreSQL</text>
<text text-anchor="middle" x="1695.77" y="-865.4" font-family="Arial" font-size="14.00" fill="white">Relational Database</text>
</g>
<!-- DBManager&#45;&gt;Database -->
<g id="edge57" class="edge">
<title>DBManager-&gt;Database</title>
<path fill="none" stroke="#f7b529" stroke-width="1.2" d="M1376.17,-608.33C1395.54,-627.17 1423.35,-653.72 1448.61,-676 1514.19,-733.83 1592.69,-797.3 1643.12,-837.38"/>
<polygon fill="#f7b529" stroke="#f7b529" stroke-width="1.2" points="1640.77,-839.98 1650.78,-843.45 1645.12,-834.49 1640.77,-839.98"/>
<text text-anchor="middle" x="1520.59" y="-796.84" font-family="Arial" font-size="14.00" fill="#666666">SQL</text>
</g>
<!-- EncryptionService -->
<g id="node55" class="node">
<title>EncryptionService</title>
<path fill="#f5f5f5" stroke="#333333" d="M1756.53,-208C1756.53,-208 1635.02,-208 1635.02,-208 1629.02,-208 1623.02,-202 1623.02,-196 1623.02,-196 1623.02,-172 1623.02,-172 1623.02,-166 1629.02,-160 1635.02,-160 1635.02,-160 1756.53,-160 1756.53,-160 1762.53,-160 1768.53,-166 1768.53,-172 1768.53,-172 1768.53,-196 1768.53,-196 1768.53,-202 1762.53,-208 1756.53,-208"/>
<text text-anchor="middle" x="1695.77" y="-188.2" font-family="Arial" font-size="14.00" fill="#333333">Encryption Service</text>
<text text-anchor="middle" x="1695.77" y="-171.4" font-family="Arial" font-size="14.00" fill="#333333">Data protection</text>
</g>
<!-- DBManager&#45;&gt;EncryptionService -->
<g id="edge74" class="edge">
<title>DBManager-&gt;EncryptionService</title>
<path fill="none" stroke="#666666" stroke-width="1.2" d="M1352.76,-559.88C1356.97,-504.59 1374.72,-367.3 1448.61,-287.2 1491.36,-240.85 1558.21,-214.62 1611.47,-200.21"/>
<polygon fill="#666666" stroke="#666666" stroke-width="1.2" points="1612.06,-203.67 1620.85,-197.77 1610.29,-196.9 1612.06,-203.67"/>
<text text-anchor="middle" x="1520.59" y="-291.4" font-family="Arial" font-size="14.00" fill="#666666">Encrypts sensitive data</text>
</g>
<!-- CacheManager&#45;&gt;DBManager -->
<g id="edge36" class="edge">
<title>CacheManager-&gt;DBManager</title>
<path fill="none" stroke="#666666" stroke-width="1.2" d="M1079.76,-711.67C1129.1,-709.13 1197.98,-700.47 1252.31,-674 1279.92,-660.55 1305.16,-636.64 1322.99,-616.85"/>
<polygon fill="#666666" stroke="#666666" stroke-width="1.2" points="1325.5,-619.29 1329.45,-609.46 1320.23,-614.68 1325.5,-619.29"/>
<text text-anchor="middle" x="1187.34" y="-711.7" font-family="Arial" font-size="14.00" fill="#666666">Caches</text>
</g>
<!-- CacheStore -->
<g id="node45" class="node">
<title>CacheStore</title>
<path fill="#dc382d" stroke="#333333" d="M1420.49,-905C1420.49,-908.31 1389.1,-911 1350.46,-911 1311.82,-911 1280.43,-908.31 1280.43,-905 1280.43,-905 1280.43,-851 1280.43,-851 1280.43,-847.69 1311.82,-845 1350.46,-845 1389.1,-845 1420.49,-847.69 1420.49,-851 1420.49,-851 1420.49,-905 1420.49,-905"/>
<path fill="none" stroke="#333333" d="M1420.49,-905C1420.49,-901.69 1389.1,-899 1350.46,-899 1311.82,-899 1280.43,-901.69 1280.43,-905"/>
<text text-anchor="middle" x="1350.46" y="-882.2" font-family="Arial" font-size="14.00" fill="white">Redis</text>
<text text-anchor="middle" x="1350.46" y="-865.4" font-family="Arial" font-size="14.00" fill="white">In-memory Cache</text>
</g>
<!-- CacheManager&#45;&gt;CacheStore -->
<g id="edge58" class="edge">
<title>CacheManager-&gt;CacheStore</title>
<path fill="none" stroke="#f7b529" stroke-width="1.2" d="M1079.57,-730.95C1091.33,-735.12 1103.36,-739.85 1114.36,-745 1188.07,-779.51 1198.67,-802.37 1270.31,-841 1270.92,-841.33 1271.53,-841.65 1272.14,-841.98"/>
<polygon fill="#f7b529" stroke="#f7b529" stroke-width="1.2" points="1270.16,-844.9 1280.65,-846.4 1273.39,-838.69 1270.16,-844.9"/>
<text text-anchor="middle" x="1187.34" y="-834.06" font-family="Arial" font-size="14.00" fill="#666666">Redis Protocol</text>
</g>
<!-- FileStorage -->
<g id="node46" class="node">
<title>FileStorage</title>
<path fill="#ff9900" stroke="#333333" d="M1411.55,-989C1411.55,-992.31 1384.17,-995 1350.46,-995 1316.75,-995 1289.37,-992.31 1289.37,-989 1289.37,-989 1289.37,-935 1289.37,-935 1289.37,-931.69 1316.75,-929 1350.46,-929 1384.17,-929 1411.55,-931.69 1411.55,-935 1411.55,-935 1411.55,-989 1411.55,-989"/>
<path fill="none" stroke="#333333" d="M1411.55,-989C1411.55,-985.69 1384.17,-983 1350.46,-983 1316.75,-983 1289.37,-985.69 1289.37,-989"/>
<text text-anchor="middle" x="1350.46" y="-966.2" font-family="Arial" font-size="14.00" fill="white">Object Storage</text>
<text text-anchor="middle" x="1350.46" y="-949.4" font-family="Arial" font-size="14.00" fill="white">S3-compatible</text>
</g>
<!-- StorageManager&#45;&gt;FileStorage -->
<g id="edge59" class="edge">
<title>StorageManager-&gt;FileStorage</title>
<path fill="none" stroke="#f7b529" stroke-width="1.2" d="M1060.83,-802.44C1078.44,-813.1 1098.25,-826.49 1114.36,-841 1118.59,-844.81 1117.92,-847.44 1122.36,-851 1169.23,-888.54 1230.88,-917.66 1278.12,-936.64"/>
<polygon fill="#f7b529" stroke="#f7b529" stroke-width="1.2" points="1276.61,-939.81 1287.2,-940.22 1279.18,-933.3 1276.61,-939.81"/>
<text text-anchor="middle" x="1187.34" y="-929.83" font-family="Arial" font-size="14.00" fill="#666666">S3 API</text>
</g>
<!-- AsyncProcessor&#45;&gt;MessageQueue -->
<g id="edge65" class="edge">
<title>AsyncProcessor-&gt;MessageQueue</title>
<path fill="none" stroke="#4285f4" stroke-width="1.2" d="M1085.29,-916.81C1096.43,-921.31 1106.78,-927.77 1114.36,-937 1125.56,-950.63 1110.32,-1003.1 1122.36,-1016 1162.36,-1058.82 1196.42,-1020.61 1252.31,-1038.2 1260.54,-1040.79 1268.96,-1043.94 1277.24,-1047.36"/>
<polygon fill="#4285f4" stroke="#4285f4" stroke-width="1.2" points="1275.78,-1050.54 1286.35,-1051.27 1278.54,-1044.1 1275.78,-1050.54"/>
<text text-anchor="middle" x="1187.34" y="-1042.4" font-family="Arial" font-size="14.00" fill="#666666">Produces/Consumes</text>
</g>
<!-- BlockchainVerifier -->
<g id="node54" class="node">
<title>BlockchainVerifier</title>
<path fill="#f5f5f5" stroke="#333333" d="M1954.63,-190C1954.63,-190 1829.98,-190 1829.98,-190 1823.98,-190 1817.98,-184 1817.98,-178 1817.98,-178 1817.98,-154 1817.98,-154 1817.98,-148 1823.98,-142 1829.98,-142 1829.98,-142 1954.63,-142 1954.63,-142 1960.63,-142 1966.63,-148 1966.63,-154 1966.63,-154 1966.63,-178 1966.63,-178 1966.63,-184 1960.63,-190 1954.63,-190"/>
<text text-anchor="middle" x="1892.3" y="-170.2" font-family="Arial" font-size="14.00" fill="#333333">Blockchain Verifier</text>
<text text-anchor="middle" x="1892.3" y="-153.4" font-family="Arial" font-size="14.00" fill="#333333">On-chain validation</text>
</g>
<!-- PermissionValidator&#45;&gt;BlockchainVerifier -->
<g id="edge72" class="edge">
<title>PermissionValidator-&gt;BlockchainVerifier</title>
<path fill="none" stroke="#666666" stroke-width="1.2" d="M1774.78,-137.25C1785.18,-139.81 1795.89,-142.46 1806.4,-145.05"/>
<polygon fill="#666666" stroke="#666666" stroke-width="1.2" points="1805.39,-148.41 1815.94,-147.4 1807.07,-141.61 1805.39,-148.41"/>
</g>
<!-- PermissionValidator&#45;&gt;AuditLogger -->
<g id="edge76" class="edge">
<title>PermissionValidator-&gt;AuditLogger</title>
<path fill="none" stroke="#666666" stroke-width="1.2" d="M1774.78,-103.16C1789.21,-100.42 1804.22,-97.56 1818.49,-94.85"/>
<polygon fill="#666666" stroke="#666666" stroke-width="1.2" points="1818.79,-98.35 1827.96,-93.05 1817.49,-91.48 1818.79,-98.35"/>
</g>
<!-- BlockchainVerifier&#45;&gt;BlockchainClient -->
<g id="edge73" class="edge">
<title>BlockchainVerifier-&gt;BlockchainClient</title>
<path fill="none" stroke="#666666" stroke-width="1.2" d="M1899.13,-190.27C1928.05,-310.69 2056.13,-843.96 2090.57,-987.38"/>
<polygon fill="#666666" stroke="#666666" stroke-width="1.2" points="2087.09,-987.86 2092.83,-996.77 2093.9,-986.23 2087.09,-987.86"/>
</g>
</g>
</svg>