<?xml version="1.0" standalone="no"?>
<svg xmlns="http://www.w3.org/2000/svg" xmlns:xlink="http://www.w3.org/1999/xlink" width="1751pt" height="2072pt" viewBox="0.00 0.00 1750.70 2071.80">
<g id="graph0" class="graph" transform="translate(47.817891702773096,1773.483804392261) scale(0.5000000000000009)" data-name="Neura Execution Engine Architecture">

<polygon fill="white" stroke="none" points="-4,4 -4,-2067.8 1746.7,-2067.8 1746.7,4 -4,4" style=""/>
<g id="clust1" class="cluster" data-name="cluster_core">

<path fill="#fce8e6" stroke="#db4437" d="M20,-785.8C20,-785.8 827.96,-785.8 827.96,-785.8 833.96,-785.8 839.96,-791.8 839.96,-797.8 839.96,-797.8 839.96,-1181.8 839.96,-1181.8 839.96,-1187.8 833.96,-1193.8 827.96,-1193.8 827.96,-1193.8 20,-1193.8 20,-1193.8 14,-1193.8 8,-1187.8 8,-1181.8 8,-1181.8 8,-797.8 8,-797.8 8,-791.8 14,-785.8 20,-785.8" style=""/>
<text text-anchor="middle" x="423.98" y="-1175.4" font-family="Arial" font-size="16.00" fill="#db4437" style="">Core Components</text>
</g>
<g id="clust2" class="cluster" data-name="cluster_elements">

<path fill="#fef7e0" stroke="#f7b529" d="M658.55,-1201.8C658.55,-1201.8 1166.09,-1201.8 1166.09,-1201.8 1172.09,-1201.8 1178.09,-1207.8 1178.09,-1213.8 1178.09,-1213.8 1178.09,-2043.8 1178.09,-2043.8 1178.09,-2049.8 1172.09,-2055.8 1166.09,-2055.8 1166.09,-2055.8 658.55,-2055.8 658.55,-2055.8 652.55,-2055.8 646.55,-2049.8 646.55,-2043.8 646.55,-2043.8 646.55,-1213.8 646.55,-1213.8 646.55,-1207.8 652.55,-1201.8 658.55,-1201.8" style=""/>
<text text-anchor="middle" x="912.32" y="-2037.4" font-family="Arial" font-size="16.00" fill="#f7b529" style="">Element Types</text>
</g>
<g id="clust3" class="cluster" data-name="cluster_flowelement_types">

<path fill="#feefc3" stroke="#f7b529" d="M1021.76,-1733.8C1021.76,-1733.8 1137.48,-1733.8 1137.48,-1733.8 1143.48,-1733.8 1149.48,-1739.8 1149.48,-1745.8 1149.48,-1745.8 1149.48,-2008.8 1149.48,-2008.8 1149.48,-2014.8 1143.48,-2020.8 1137.48,-2020.8 1137.48,-2020.8 1021.76,-2020.8 1021.76,-2020.8 1015.76,-2020.8 1009.76,-2014.8 1009.76,-2008.8 1009.76,-2008.8 1009.76,-1745.8 1009.76,-1745.8 1009.76,-1739.8 1015.76,-1733.8 1021.76,-1733.8" style=""/>
<text text-anchor="middle" x="1079.62" y="-2004.2" font-family="Arial" font-size="14.00" fill="#f7b529" style="">Flow Control Types</text>
</g>
<g id="clust4" class="cluster" data-name="cluster_inputelement_types">

<path fill="#feefc3" stroke="#f7b529" d="M1001.15,-1372.8C1001.15,-1372.8 1158.09,-1372.8 1158.09,-1372.8 1164.09,-1372.8 1170.09,-1378.8 1170.09,-1384.8 1170.09,-1384.8 1170.09,-1713.8 1170.09,-1713.8 1170.09,-1719.8 1164.09,-1725.8 1158.09,-1725.8 1158.09,-1725.8 1001.15,-1725.8 1001.15,-1725.8 995.15,-1725.8 989.15,-1719.8 989.15,-1713.8 989.15,-1713.8 989.15,-1384.8 989.15,-1384.8 989.15,-1378.8 995.15,-1372.8 1001.15,-1372.8" style=""/>
<text text-anchor="middle" x="1079.62" y="-1709.2" font-family="Arial" font-size="14.00" fill="#f7b529" style="">Input Element Types</text>
</g>
<g id="clust5" class="cluster" data-name="cluster_aielement_types">

<path fill="#feefc3" stroke="#f7b529" d="M1015.93,-1209.8C1015.93,-1209.8 1143.32,-1209.8 1143.32,-1209.8 1149.32,-1209.8 1155.32,-1215.8 1155.32,-1221.8 1155.32,-1221.8 1155.32,-1352.8 1155.32,-1352.8 1155.32,-1358.8 1149.32,-1364.8 1143.32,-1364.8 1143.32,-1364.8 1015.93,-1364.8 1015.93,-1364.8 1009.93,-1364.8 1003.93,-1358.8 1003.93,-1352.8 1003.93,-1352.8 1003.93,-1221.8 1003.93,-1221.8 1003.93,-1215.8 1009.93,-1209.8 1015.93,-1209.8" style=""/>
<text text-anchor="middle" x="1079.62" y="-1348.2" font-family="Arial" font-size="14.00" fill="#f7b529" style="">AI Element Types</text>
</g>
<g id="clust6" class="cluster" data-name="cluster_services">

<path fill="#e8f0fe" stroke="#4285f4" d="M979.35,-484.8C979.35,-484.8 1179.89,-484.8 1179.89,-484.8 1185.89,-484.8 1191.89,-490.8 1191.89,-496.8 1191.89,-496.8 1191.89,-1025.8 1191.89,-1025.8 1191.89,-1031.8 1185.89,-1037.8 1179.89,-1037.8 1179.89,-1037.8 979.35,-1037.8 979.35,-1037.8 973.35,-1037.8 967.35,-1031.8 967.35,-1025.8 967.35,-1025.8 967.35,-496.8 967.35,-496.8 967.35,-490.8 973.35,-484.8 979.35,-484.8" style=""/>
<text text-anchor="middle" x="1079.62" y="-1019.4" font-family="Arial" font-size="16.00" fill="#4285f4" style="">Services</text>
</g>
<g id="clust7" class="cluster" data-name="cluster_communication">

<path fill="#e6f4ea" stroke="#0f9d58" d="M656.6,-121.8C656.6,-121.8 1151.88,-121.8 1151.88,-121.8 1157.88,-121.8 1163.88,-127.8 1163.88,-133.8 1163.88,-133.8 1163.88,-464.8 1163.88,-464.8 1163.88,-470.8 1157.88,-476.8 1151.88,-476.8 1151.88,-476.8 656.6,-476.8 656.6,-476.8 650.6,-476.8 644.6,-470.8 644.6,-464.8 644.6,-464.8 644.6,-133.8 644.6,-133.8 644.6,-127.8 650.6,-121.8 656.6,-121.8" style=""/>
<text text-anchor="middle" x="904.24" y="-458.4" font-family="Arial" font-size="16.00" fill="#0f9d58" style="">Communication</text>
</g>
<g id="clust8" class="cluster" data-name="cluster_dataflow">

<path fill="#f3e8ff" stroke="#7627bb" d="M1318.46,-1021.8C1318.46,-1021.8 1722.7,-1021.8 1722.7,-1021.8 1728.7,-1021.8 1734.7,-1027.8 1734.7,-1033.8 1734.7,-1033.8 1734.7,-1232.8 1734.7,-1232.8 1734.7,-1238.8 1728.7,-1244.8 1722.7,-1244.8 1722.7,-1244.8 1318.46,-1244.8 1318.46,-1244.8 1312.46,-1244.8 1306.46,-1238.8 1306.46,-1232.8 1306.46,-1232.8 1306.46,-1033.8 1306.46,-1033.8 1306.46,-1027.8 1312.46,-1021.8 1318.46,-1021.8" style=""/>
<text text-anchor="middle" x="1520.58" y="-1226.4" font-family="Arial" font-size="16.00" fill="#7627bb" style="">Data Flow Management</text>
</g>
<!-- FlowExecutor -->
<g id="node1" class="node" pointer-events="visible" data-name="FlowExecutor">

<path fill="#fcd0cd" stroke="#333333" d="M193.16,-841.4C193.16,-841.4 27.95,-841.4 27.95,-841.4 21.95,-841.4 15.95,-835.4 15.95,-829.4 15.95,-829.4 15.95,-806.2 15.95,-806.2 15.95,-800.2 21.95,-794.2 27.95,-794.2 27.95,-794.2 193.16,-794.2 193.16,-794.2 199.16,-794.2 205.16,-800.2 205.16,-806.2 205.16,-806.2 205.16,-829.4 205.16,-829.4 205.16,-835.4 199.16,-841.4 193.16,-841.4" style=""/>
<text text-anchor="middle" x="110.55" y="-822" font-family="Arial" font-size="14.00" fill="#333333" style="">Flow Executor</text>
<text text-anchor="middle" x="110.55" y="-805.2" font-family="Arial" font-size="14.00" fill="#333333" style="">Manages execution graph</text>
</g>
<!-- ExecutionContext -->
<g id="node2" class="node" pointer-events="visible" data-name="ExecutionContext">

<path fill="#fcd0cd" stroke="#333333" d="M483.48,-841.4C483.48,-841.4 345.77,-841.4 345.77,-841.4 339.77,-841.4 333.77,-835.4 333.77,-829.4 333.77,-829.4 333.77,-806.2 333.77,-806.2 333.77,-800.2 339.77,-794.2 345.77,-794.2 345.77,-794.2 483.48,-794.2 483.48,-794.2 489.48,-794.2 495.48,-800.2 495.48,-806.2 495.48,-806.2 495.48,-829.4 495.48,-829.4 495.48,-835.4 489.48,-841.4 483.48,-841.4" style=""/>
<text text-anchor="middle" x="414.63" y="-822" font-family="Arial" font-size="14.00" fill="#333333" style="">Execution Context</text>
<text text-anchor="middle" x="414.63" y="-805.2" font-family="Arial" font-size="14.00" fill="#333333" style="">Holds execution state</text>
</g>
<!-- FlowExecutor&#45;&gt;ExecutionContext -->
<g id="edge13" class="edge" data-name="FlowExecutor-&gt;ExecutionContext">

<path fill="none" stroke="#666666" stroke-width="1.2" d="M205.48,-817.8C242.52,-817.8 284.93,-817.8 321.76,-817.8" style=""/>
<polygon fill="#666666" stroke="#666666" stroke-width="1.2" points="321.7,-821.3 331.7,-817.8 321.7,-814.3 321.7,-821.3" style=""/>
<text text-anchor="middle" x="269.41" y="-822" font-family="Arial" font-size="14.00" fill="#666666" style="">Manages</text>
</g>
<!-- ElementBase -->
<g id="node3" class="node" pointer-events="visible" data-name="ElementBase">

<path fill="#fcd0cd" stroke="#333333" d="M477.52,-960.4C477.52,-960.4 351.74,-960.4 351.74,-960.4 345.74,-960.4 339.74,-954.4 339.74,-948.4 339.74,-948.4 339.74,-925.2 339.74,-925.2 339.74,-919.2 345.74,-913.2 351.74,-913.2 351.74,-913.2 477.52,-913.2 477.52,-913.2 483.52,-913.2 489.52,-919.2 489.52,-925.2 489.52,-925.2 489.52,-948.4 489.52,-948.4 489.52,-954.4 483.52,-960.4 477.52,-960.4" style=""/>
<text text-anchor="middle" x="414.63" y="-941" font-family="Arial" font-size="14.00" fill="#333333" style="">Element Base</text>
<text text-anchor="middle" x="414.63" y="-924.2" font-family="Arial" font-size="14.00" fill="#333333" style="">Abstract base class</text>
</g>
<!-- FlowExecutor&#45;&gt;ElementBase -->
<g id="edge12" class="edge" data-name="FlowExecutor-&gt;ElementBase">

<path fill="none" stroke="#666666" stroke-width="1.2" d="M147.53,-841.88C168.82,-855.33 196.7,-871.58 223.11,-882.8 256.51,-897 294.76,-908.67 328.18,-917.48" style=""/>
<polygon fill="#666666" stroke="#666666" stroke-width="1.2" points="327,-920.79 337.56,-919.91 328.76,-914.01 327,-920.79" style=""/>
<text text-anchor="middle" x="269.41" y="-918" font-family="Arial" font-size="14.00" fill="#666666" style="">Creates</text>
</g>
<!-- DependencyResolver -->
<g id="node4" class="node" pointer-events="visible" data-name="DependencyResolver">

<path fill="#fcd0cd" stroke="#333333" d="M819.95,-916.4C819.95,-916.4 657.98,-916.4 657.98,-916.4 651.98,-916.4 645.98,-910.4 645.98,-904.4 645.98,-904.4 645.98,-881.2 645.98,-881.2 645.98,-875.2 651.98,-869.2 657.98,-869.2 657.98,-869.2 819.95,-869.2 819.95,-869.2 825.95,-869.2 831.95,-875.2 831.95,-881.2 831.95,-881.2 831.95,-904.4 831.95,-904.4 831.95,-910.4 825.95,-916.4 819.95,-916.4" style=""/>
<text text-anchor="middle" x="738.96" y="-897" font-family="Arial" font-size="14.00" fill="#333333" style="">Dependency Resolver</text>
<text text-anchor="middle" x="738.96" y="-880.2" font-family="Arial" font-size="14.00" fill="#333333" style="">Manages execution order</text>
</g>
<!-- FlowExecutor&#45;&gt;DependencyResolver -->
<g id="edge14" class="edge" data-name="FlowExecutor-&gt;DependencyResolver">

<path fill="none" stroke="#666666" stroke-width="1.2" d="M205.5,-836.03C211.45,-837.01 217.36,-837.95 223.11,-838.8 364.93,-859.81 529.92,-875.6 634.13,-884.52" style=""/>
<polygon fill="#666666" stroke="#666666" stroke-width="1.2" points="633.52,-887.98 643.78,-885.34 634.11,-881.01 633.52,-887.98" style=""/>
<text text-anchor="middle" x="414.63" y="-875" font-family="Arial" font-size="14.00" fill="#666666" style="">Uses</text>
</g>
<!-- CacheSystem -->
<g id="node5" class="node" pointer-events="visible" data-name="CacheSystem">

<path fill="#fcd0cd" stroke="#333333" d="M463.8,-1026.4C463.8,-1026.4 365.46,-1026.4 365.46,-1026.4 359.46,-1026.4 353.46,-1020.4 353.46,-1014.4 353.46,-1014.4 353.46,-991.2 353.46,-991.2 353.46,-985.2 359.46,-979.2 365.46,-979.2 365.46,-979.2 463.8,-979.2 463.8,-979.2 469.8,-979.2 475.8,-985.2 475.8,-991.2 475.8,-991.2 475.8,-1014.4 475.8,-1014.4 475.8,-1020.4 469.8,-1026.4 463.8,-1026.4" style=""/>
<text text-anchor="middle" x="414.63" y="-1007" font-family="Arial" font-size="14.00" fill="#333333" style="">Cache System</text>
<text text-anchor="middle" x="414.63" y="-990.2" font-family="Arial" font-size="14.00" fill="#333333" style="">Output caching</text>
</g>
<!-- FlowExecutor&#45;&gt;CacheSystem -->
<g id="edge16" class="edge" data-name="FlowExecutor-&gt;CacheSystem">

<path fill="none" stroke="#666666" stroke-width="1.2" d="M128.74,-841.61C148.73,-867.76 184.04,-909.42 223.11,-934.8 259.28,-958.29 304.58,-974.89 341.94,-985.81" style=""/>
<polygon fill="#666666" stroke="#666666" stroke-width="1.2" points="340.94,-989.16 351.51,-988.52 342.84,-982.43 340.94,-989.16" style=""/>
<text text-anchor="middle" x="269.41" y="-980" font-family="Arial" font-size="14.00" fill="#666666" style="">Caches results</text>
</g>
<!-- LoggingService -->
<g id="node6" class="node" pointer-events="visible" data-name="LoggingService">

<path fill="#fcd0cd" stroke="#333333" d="M467.03,-1092.4C467.03,-1092.4 362.23,-1092.4 362.23,-1092.4 356.23,-1092.4 350.23,-1086.4 350.23,-1080.4 350.23,-1080.4 350.23,-1057.2 350.23,-1057.2 350.23,-1051.2 356.23,-1045.2 362.23,-1045.2 362.23,-1045.2 467.03,-1045.2 467.03,-1045.2 473.03,-1045.2 479.03,-1051.2 479.03,-1057.2 479.03,-1057.2 479.03,-1080.4 479.03,-1080.4 479.03,-1086.4 473.03,-1092.4 467.03,-1092.4" style=""/>
<text text-anchor="middle" x="414.63" y="-1073" font-family="Arial" font-size="14.00" fill="#333333" style="">Logging Service</text>
<text text-anchor="middle" x="414.63" y="-1056.2" font-family="Arial" font-size="14.00" fill="#333333" style="">Execution logs</text>
</g>
<!-- FlowExecutor&#45;&gt;LoggingService -->
<g id="edge17" class="edge" data-name="FlowExecutor-&gt;LoggingService">

<path fill="none" stroke="#666666" stroke-width="1.2" d="M120.58,-841.86C136,-879.88 170.89,-953.93 223.11,-996.8 256.44,-1024.16 301.25,-1041.8 339.05,-1052.76" style=""/>
<polygon fill="#666666" stroke="#666666" stroke-width="1.2" points="337.69,-1056.02 348.26,-1055.33 339.57,-1049.27 337.69,-1056.02" style=""/>
<text text-anchor="middle" x="269.41" y="-1049" font-family="Arial" font-size="14.00" fill="#666666" style="">Logs activity</text>
</g>
<!-- ConfigManager -->
<g id="node7" class="node" pointer-events="visible" data-name="ConfigManager">

<path fill="#fcd0cd" stroke="#333333" d="M474.86,-1158.4C474.86,-1158.4 354.4,-1158.4 354.4,-1158.4 348.4,-1158.4 342.4,-1152.4 342.4,-1146.4 342.4,-1146.4 342.4,-1123.2 342.4,-1123.2 342.4,-1117.2 348.4,-1111.2 354.4,-1111.2 354.4,-1111.2 474.86,-1111.2 474.86,-1111.2 480.86,-1111.2 486.86,-1117.2 486.86,-1123.2 486.86,-1123.2 486.86,-1146.4 486.86,-1146.4 486.86,-1152.4 480.86,-1158.4 474.86,-1158.4" style=""/>
<text text-anchor="middle" x="414.63" y="-1139" font-family="Arial" font-size="14.00" fill="#333333" style="">Config Manager</text>
<text text-anchor="middle" x="414.63" y="-1122.2" font-family="Arial" font-size="14.00" fill="#333333" style="">Environment setup</text>
</g>
<!-- FlowExecutor&#45;&gt;ConfigManager -->
<g id="edge18" class="edge" data-name="FlowExecutor-&gt;ConfigManager">

<path fill="none" stroke="#666666" stroke-width="1.2" d="M115.81,-841.54C125.77,-890.36 155.09,-1002.72 223.11,-1065.8 252.8,-1093.33 294.3,-1110.06 330.99,-1120.12" style=""/>
<polygon fill="#666666" stroke="#666666" stroke-width="1.2" points="329.89,-1123.45 340.45,-1122.58 331.65,-1116.68 329.89,-1123.45" style=""/>
<text text-anchor="middle" x="269.41" y="-1119" font-family="Arial" font-size="14.00" fill="#666666" style="">Reads config</text>
</g>
<!-- StreamManager -->
<g id="node26" class="node" pointer-events="visible" data-name="StreamManager">

<path fill="#d2e3fc" stroke="#333333" d="M1150.07,-540.4C1150.07,-540.4 1009.18,-540.4 1009.18,-540.4 1003.18,-540.4 997.18,-534.4 997.18,-528.4 997.18,-528.4 997.18,-505.2 997.18,-505.2 997.18,-499.2 1003.18,-493.2 1009.18,-493.2 1009.18,-493.2 1150.07,-493.2 1150.07,-493.2 1156.07,-493.2 1162.07,-499.2 1162.07,-505.2 1162.07,-505.2 1162.07,-528.4 1162.07,-528.4 1162.07,-534.4 1156.07,-540.4 1150.07,-540.4" style=""/>
<text text-anchor="middle" x="1079.62" y="-521" font-family="Arial" font-size="14.00" fill="#333333" style="">Stream Manager</text>
<text text-anchor="middle" x="1079.62" y="-504.2" font-family="Arial" font-size="14.00" fill="#333333" style="">WebSocket streaming</text>
</g>
<!-- FlowExecutor&#45;&gt;StreamManager -->
<g id="edge26" class="edge" data-name="FlowExecutor-&gt;StreamManager">

<path fill="none" stroke="#666666" stroke-width="1.2" d="M127.61,-793.89C147.09,-766.7 182.41,-722.85 223.11,-697.8 266.68,-670.98 284.12,-678.45 333.7,-665.8 565.68,-606.64 843.21,-556.46 985.06,-532.27" style=""/>
<polygon fill="#666666" stroke="#666666" stroke-width="1.2" points="985.64,-535.73 994.91,-530.6 984.47,-528.82 985.64,-535.73" style=""/>
<text text-anchor="middle" x="570.76" y="-625" font-family="Arial" font-size="14.00" fill="#666666" style="">Publishes updates</text>
</g>
<!-- ValidationService -->
<g id="node27" class="node" pointer-events="visible" data-name="ValidationService">

<path fill="#d2e3fc" stroke="#333333" d="M1150.12,-870.4C1150.12,-870.4 1009.13,-870.4 1009.13,-870.4 1003.13,-870.4 997.13,-864.4 997.13,-858.4 997.13,-858.4 997.13,-835.2 997.13,-835.2 997.13,-829.2 1003.13,-823.2 1009.13,-823.2 1009.13,-823.2 1150.12,-823.2 1150.12,-823.2 1156.12,-823.2 1162.12,-829.2 1162.12,-835.2 1162.12,-835.2 1162.12,-858.4 1162.12,-858.4 1162.12,-864.4 1156.12,-870.4 1150.12,-870.4" style=""/>
<text text-anchor="middle" x="1079.62" y="-851" font-family="Arial" font-size="14.00" fill="#333333" style="">Validation Service</text>
<text text-anchor="middle" x="1079.62" y="-834.2" font-family="Arial" font-size="14.00" fill="#333333" style="">Input/output validation</text>
</g>
<!-- FlowExecutor&#45;&gt;ValidationService -->
<g id="edge27" class="edge" data-name="FlowExecutor-&gt;ValidationService">

<path fill="none" stroke="#666666" stroke-width="1.2" d="M205.52,-800.71C244.97,-794.35 291.42,-787.92 333.7,-784.8 568.32,-767.47 844.19,-805.77 985.24,-829.61" style=""/>
<polygon fill="#666666" stroke="#666666" stroke-width="1.2" points="984.58,-833.05 995.03,-831.28 985.76,-826.14 984.58,-833.05" style=""/>
<text text-anchor="middle" x="570.76" y="-790" font-family="Arial" font-size="14.00" fill="#666666" style="">Validates I/O</text>
</g>
<!-- SecurityManager -->
<g id="node30" class="node" pointer-events="visible" data-name="SecurityManager">

<path fill="#d2e3fc" stroke="#333333" d="M1167.87,-804.4C1167.87,-804.4 991.38,-804.4 991.38,-804.4 985.38,-804.4 979.38,-798.4 979.38,-792.4 979.38,-792.4 979.38,-769.2 979.38,-769.2 979.38,-763.2 985.38,-757.2 991.38,-757.2 991.38,-757.2 1167.87,-757.2 1167.87,-757.2 1173.87,-757.2 1179.87,-763.2 1179.87,-769.2 1179.87,-769.2 1179.87,-792.4 1179.87,-792.4 1179.87,-798.4 1173.87,-804.4 1167.87,-804.4" style=""/>
<text text-anchor="middle" x="1079.62" y="-785" font-family="Arial" font-size="14.00" fill="#333333" style="">Security Manager</text>
<text text-anchor="middle" x="1079.62" y="-768.2" font-family="Arial" font-size="14.00" fill="#333333" style="">Access control enforcement</text>
</g>
<!-- FlowExecutor&#45;&gt;SecurityManager -->
<g id="edge30" class="edge" data-name="FlowExecutor-&gt;SecurityManager">

<path fill="none" stroke="#666666" stroke-width="1.2" d="M177.24,-793.75C192.14,-789.1 208.03,-784.76 223.11,-781.8 485.9,-730.3 802.88,-750.84 967.38,-767.5" style=""/>
<polygon fill="#666666" stroke="#666666" stroke-width="1.2" points="966.84,-770.96 977.15,-768.5 967.56,-764 966.84,-770.96" style=""/>
<text text-anchor="middle" x="570.76" y="-754" font-family="Arial" font-size="14.00" fill="#666666" style="">Enforces access</text>
</g>
<!-- ErrorHandler -->
<g id="node31" class="node" pointer-events="visible" data-name="ErrorHandler">

<path fill="#d2e3fc" stroke="#333333" d="M1171.66,-738.4C1171.66,-738.4 987.59,-738.4 987.59,-738.4 981.59,-738.4 975.59,-732.4 975.59,-726.4 975.59,-726.4 975.59,-703.2 975.59,-703.2 975.59,-697.2 981.59,-691.2 987.59,-691.2 987.59,-691.2 1171.66,-691.2 1171.66,-691.2 1177.66,-691.2 1183.66,-697.2 1183.66,-703.2 1183.66,-703.2 1183.66,-726.4 1183.66,-726.4 1183.66,-732.4 1177.66,-738.4 1171.66,-738.4" style=""/>
<text text-anchor="middle" x="1079.62" y="-719" font-family="Arial" font-size="14.00" fill="#333333" style="">Error Handler</text>
<text text-anchor="middle" x="1079.62" y="-702.2" font-family="Arial" font-size="14.00" fill="#333333" style="">Graceful failure management</text>
</g>
<!-- FlowExecutor&#45;&gt;ErrorHandler -->
<g id="edge28" class="edge" data-name="FlowExecutor-&gt;ErrorHandler">

<path fill="none" stroke="#666666" stroke-width="1.2" d="M152.38,-793.81C172.95,-782.73 198.67,-770.38 223.11,-762.8 270.54,-748.08 284.42,-752.94 333.7,-746.8 413.46,-736.87 433.35,-733.12 513.56,-728 669.18,-718.06 849.34,-715.38 963.61,-714.77" style=""/>
<polygon fill="#666666" stroke="#666666" stroke-width="1.2" points="963.34,-718.27 973.33,-714.72 963.31,-711.27 963.34,-718.27" style=""/>
<text text-anchor="middle" x="570.76" y="-732" font-family="Arial" font-size="14.00" fill="#666666" style="">Handles errors</text>
</g>
<!-- MetricsCollector -->
<g id="node32" class="node" pointer-events="visible" data-name="MetricsCollector">

<path fill="#d2e3fc" stroke="#333333" d="M1156.52,-672.4C1156.52,-672.4 1002.72,-672.4 1002.72,-672.4 996.72,-672.4 990.72,-666.4 990.72,-660.4 990.72,-660.4 990.72,-637.2 990.72,-637.2 990.72,-631.2 996.72,-625.2 1002.72,-625.2 1002.72,-625.2 1156.52,-625.2 1156.52,-625.2 1162.52,-625.2 1168.52,-631.2 1168.52,-637.2 1168.52,-637.2 1168.52,-660.4 1168.52,-660.4 1168.52,-666.4 1162.52,-672.4 1156.52,-672.4" style=""/>
<text text-anchor="middle" x="1079.62" y="-653" font-family="Arial" font-size="14.00" fill="#333333" style="">Metrics Collector</text>
<text text-anchor="middle" x="1079.62" y="-636.2" font-family="Arial" font-size="14.00" fill="#333333" style="">Performance monitoring</text>
</g>
<!-- FlowExecutor&#45;&gt;MetricsCollector -->
<g id="edge29" class="edge" data-name="FlowExecutor-&gt;MetricsCollector">

<path fill="none" stroke="#666666" stroke-width="1.2" d="M140.43,-793.74C161.9,-777.11 192.65,-755.89 223.11,-743.8 269.46,-725.4 284.4,-732.29 333.7,-724.8 563.48,-689.87 835.63,-666.66 978.9,-655.84" style=""/>
<polygon fill="#666666" stroke="#666666" stroke-width="1.2" points="978.74,-659.36 988.45,-655.12 978.21,-652.38 978.74,-659.36" style=""/>
<text text-anchor="middle" x="570.76" y="-704" font-family="Arial" font-size="14.00" fill="#666666" style="">Reports metrics</text>
</g>
<!-- RateLimiter -->
<g id="node33" class="node" pointer-events="visible" data-name="RateLimiter">

<path fill="#d2e3fc" stroke="#333333" d="M1134.72,-606.4C1134.72,-606.4 1024.53,-606.4 1024.53,-606.4 1018.53,-606.4 1012.53,-600.4 1012.53,-594.4 1012.53,-594.4 1012.53,-571.2 1012.53,-571.2 1012.53,-565.2 1018.53,-559.2 1024.53,-559.2 1024.53,-559.2 1134.72,-559.2 1134.72,-559.2 1140.72,-559.2 1146.72,-565.2 1146.72,-571.2 1146.72,-571.2 1146.72,-594.4 1146.72,-594.4 1146.72,-600.4 1140.72,-606.4 1134.72,-606.4" style=""/>
<text text-anchor="middle" x="1079.62" y="-587" font-family="Arial" font-size="14.00" fill="#333333" style="">Rate Limiter</text>
<text text-anchor="middle" x="1079.62" y="-570.2" font-family="Arial" font-size="14.00" fill="#333333" style="">Throttling service</text>
</g>
<!-- FlowExecutor&#45;&gt;RateLimiter -->
<g id="edge31" class="edge" data-name="FlowExecutor-&gt;RateLimiter">

<path fill="none" stroke="#666666" stroke-width="1.2" d="M132.64,-794.11C153.47,-772.23 187.31,-740.51 223.11,-722.8 268.19,-700.49 284.35,-708.51 333.7,-698.8 575.47,-651.21 864.51,-610.88 1000.54,-592.87" style=""/>
<polygon fill="#666666" stroke="#666666" stroke-width="1.2" points="1000.78,-596.37 1010.24,-591.59 999.87,-589.43 1000.78,-596.37" style=""/>
<text text-anchor="middle" x="570.76" y="-670" font-family="Arial" font-size="14.00" fill="#666666" style="">Controls rate</text>
</g>
<!-- EventSystem -->
<g id="node36" class="node" pointer-events="visible" data-name="EventSystem">

<path fill="#f5f5f5" stroke="#333333" d="M791.37,-441.4C791.37,-441.4 686.56,-441.4 686.56,-441.4 680.56,-441.4 674.56,-435.4 674.56,-429.4 674.56,-429.4 674.56,-406.2 674.56,-406.2 674.56,-400.2 680.56,-394.2 686.56,-394.2 686.56,-394.2 791.37,-394.2 791.37,-394.2 797.37,-394.2 803.37,-400.2 803.37,-406.2 803.37,-406.2 803.37,-429.4 803.37,-429.4 803.37,-435.4 797.37,-441.4 791.37,-441.4" style=""/>
<text text-anchor="middle" x="738.96" y="-422" font-family="Arial" font-size="14.00" fill="#333333" style="">Event System</text>
<text text-anchor="middle" x="738.96" y="-405.2" font-family="Arial" font-size="14.00" fill="#333333" style="">Internal pub/sub</text>
</g>
<!-- FlowExecutor&#45;&gt;EventSystem -->
<g id="edge38" class="edge" data-name="FlowExecutor-&gt;EventSystem">

<path fill="none" stroke="#666666" stroke-width="1.2" d="M113.83,-793.77C120.31,-739.52 143.83,-607.03 223.11,-538.8 348.68,-430.73 552.99,-414.89 662.68,-414.96" style=""/>
<polygon fill="#666666" stroke="#666666" stroke-width="1.2" points="662.44,-418.45 672.46,-415.01 662.48,-411.45 662.44,-418.45" style=""/>
<text text-anchor="middle" x="414.63" y="-474" font-family="Arial" font-size="14.00" fill="#666666" style="">Publishes events</text>
</g>
<!-- ElementBase&#45;&gt;DependencyResolver -->
<g id="edge15" class="edge" data-name="ElementBase-&gt;DependencyResolver">

<path fill="none" stroke="#666666" stroke-width="1.2" d="M489.98,-926.65C532.75,-920.81 587.15,-913.39 634.09,-906.98" style=""/>
<polygon fill="#666666" stroke="#666666" stroke-width="1.2" points="634.3,-910.48 643.74,-905.66 633.35,-903.55 634.3,-910.48" style=""/>
<text text-anchor="middle" x="570.76" y="-926" font-family="Arial" font-size="14.00" fill="#666666" style="">Registers deps</text>
</g>
<!-- FlowControl -->
<g id="node8" class="node" pointer-events="visible" data-name="FlowControl">

<path fill="#f5f5f5" stroke="#333333" d="M811.29,-1822.4C811.29,-1822.4 666.64,-1822.4 666.64,-1822.4 660.64,-1822.4 654.64,-1816.4 654.64,-1810.4 654.64,-1810.4 654.64,-1787.2 654.64,-1787.2 654.64,-1781.2 660.64,-1775.2 666.64,-1775.2 666.64,-1775.2 811.29,-1775.2 811.29,-1775.2 817.29,-1775.2 823.29,-1781.2 823.29,-1787.2 823.29,-1787.2 823.29,-1810.4 823.29,-1810.4 823.29,-1816.4 817.29,-1822.4 811.29,-1822.4" style=""/>
<text text-anchor="middle" x="738.96" y="-1803" font-family="Arial" font-size="14.00" fill="#333333" style="">Flow Control Elements</text>
<text text-anchor="middle" x="738.96" y="-1786.2" font-family="Arial" font-size="14.00" fill="#333333" style="">Conditional execution</text>
</g>
<!-- ElementBase&#45;&gt;FlowControl -->
<g id="edge19" class="edge" data-name="ElementBase-&gt;FlowControl">

<path fill="none" stroke="#666666" stroke-width="1.2" stroke-dasharray="5,2" d="M487.54,-960.78C490.54,-963.47 493.25,-966.47 495.56,-969.8 530.81,-1020.7 491.68,-1468.87 513.56,-1526.8 552.2,-1629.12 646.2,-1721.11 699.48,-1767.34" style=""/>
<polygon fill="#666666" stroke="#666666" stroke-width="1.2" points="697.04,-1769.87 706.92,-1773.72 701.6,-1764.55 697.04,-1769.87" style=""/>
<text text-anchor="middle" x="570.76" y="-1696" font-family="Arial" font-size="14.00" fill="#666666" style="">Extends</text>
</g>
<!-- InputElements -->
<g id="node9" class="node" pointer-events="visible" data-name="InputElements">

<path fill="#f5f5f5" stroke="#333333" d="M801.11,-1531.4C801.11,-1531.4 676.81,-1531.4 676.81,-1531.4 670.81,-1531.4 664.81,-1525.4 664.81,-1519.4 664.81,-1519.4 664.81,-1496.2 664.81,-1496.2 664.81,-1490.2 670.81,-1484.2 676.81,-1484.2 676.81,-1484.2 801.11,-1484.2 801.11,-1484.2 807.11,-1484.2 813.11,-1490.2 813.11,-1496.2 813.11,-1496.2 813.11,-1519.4 813.11,-1519.4 813.11,-1525.4 807.11,-1531.4 801.11,-1531.4" style=""/>
<text text-anchor="middle" x="738.96" y="-1512" font-family="Arial" font-size="14.00" fill="#333333" style="">Input Elements</text>
<text text-anchor="middle" x="738.96" y="-1495.2" font-family="Arial" font-size="14.00" fill="#333333" style="">Data input handling</text>
</g>
<!-- ElementBase&#45;&gt;InputElements -->
<g id="edge20" class="edge" data-name="ElementBase-&gt;InputElements">

<path fill="none" stroke="#666666" stroke-width="1.2" stroke-dasharray="5,2" d="M487.52,-960.79C490.52,-963.48 493.24,-966.47 495.56,-969.8 526.12,-1013.69 479.94,-1409.2 513.56,-1450.8 546.54,-1491.61 604.23,-1505.62 652.86,-1509.55" style=""/>
<polygon fill="#666666" stroke="#666666" stroke-width="1.2" points="652.34,-1513.03 662.55,-1510.19 652.8,-1506.04 652.34,-1513.03" style=""/>
<text text-anchor="middle" x="570.76" y="-1510" font-family="Arial" font-size="14.00" fill="#666666" style="">Extends</text>
</g>
<!-- AIElements -->
<g id="node10" class="node" pointer-events="visible" data-name="AIElements">

<path fill="#f5f5f5" stroke="#333333" d="M794.86,-1455.4C794.86,-1455.4 683.06,-1455.4 683.06,-1455.4 677.06,-1455.4 671.06,-1449.4 671.06,-1443.4 671.06,-1443.4 671.06,-1420.2 671.06,-1420.2 671.06,-1414.2 677.06,-1408.2 683.06,-1408.2 683.06,-1408.2 794.86,-1408.2 794.86,-1408.2 800.86,-1408.2 806.86,-1414.2 806.86,-1420.2 806.86,-1420.2 806.86,-1443.4 806.86,-1443.4 806.86,-1449.4 800.86,-1455.4 794.86,-1455.4" style=""/>
<text text-anchor="middle" x="738.96" y="-1436" font-family="Arial" font-size="14.00" fill="#333333" style="">AI Elements</text>
<text text-anchor="middle" x="738.96" y="-1419.2" font-family="Arial" font-size="14.00" fill="#333333" style="">Model integration</text>
</g>
<!-- ElementBase&#45;&gt;AIElements -->
<g id="edge21" class="edge" data-name="ElementBase-&gt;AIElements">

<path fill="none" stroke="#666666" stroke-width="1.2" stroke-dasharray="5,2" d="M487.49,-960.81C490.5,-963.5 493.23,-966.48 495.56,-969.8 521.37,-1006.58 485.26,-1338.89 513.56,-1373.8 548.04,-1416.34 609.28,-1430.04 659.08,-1433.55" style=""/>
<polygon fill="#666666" stroke="#666666" stroke-width="1.2" points="658.82,-1437.04 669,-1434.1 659.21,-1430.05 658.82,-1437.04" style=""/>
<text text-anchor="middle" x="570.76" y="-1434" font-family="Arial" font-size="14.00" fill="#666666" style="">Extends</text>
</g>
<!-- UtilityElements -->
<g id="node11" class="node" pointer-events="visible" data-name="UtilityElements">

<path fill="#f5f5f5" stroke="#333333" d="M802.41,-1389.4C802.41,-1389.4 675.52,-1389.4 675.52,-1389.4 669.52,-1389.4 663.52,-1383.4 663.52,-1377.4 663.52,-1377.4 663.52,-1354.2 663.52,-1354.2 663.52,-1348.2 669.52,-1342.2 675.52,-1342.2 675.52,-1342.2 802.41,-1342.2 802.41,-1342.2 808.41,-1342.2 814.41,-1348.2 814.41,-1354.2 814.41,-1354.2 814.41,-1377.4 814.41,-1377.4 814.41,-1383.4 808.41,-1389.4 802.41,-1389.4" style=""/>
<text text-anchor="middle" x="738.96" y="-1370" font-family="Arial" font-size="14.00" fill="#333333" style="">Utility Elements</text>
<text text-anchor="middle" x="738.96" y="-1353.2" font-family="Arial" font-size="14.00" fill="#333333" style="">Data transformation</text>
</g>
<!-- ElementBase&#45;&gt;UtilityElements -->
<g id="edge22" class="edge" data-name="ElementBase-&gt;UtilityElements">

<path fill="none" stroke="#666666" stroke-width="1.2" stroke-dasharray="5,2" d="M487.46,-960.83C490.48,-963.51 493.22,-966.49 495.56,-969.8 539.89,-1032.47 464.12,-1256.07 513.56,-1314.8 531.45,-1336.06 596.16,-1349.27 651.52,-1356.91" style=""/>
<polygon fill="#666666" stroke="#666666" stroke-width="1.2" points="651,-1360.37 661.37,-1358.21 651.92,-1353.43 651,-1360.37" style=""/>
<text text-anchor="middle" x="570.76" y="-1357" font-family="Arial" font-size="14.00" fill="#666666" style="">Extends</text>
</g>
<!-- OutputElements -->
<g id="node12" class="node" pointer-events="visible" data-name="OutputElements">

<path fill="#f5f5f5" stroke="#333333" d="M793.78,-1323.4C793.78,-1323.4 684.14,-1323.4 684.14,-1323.4 678.14,-1323.4 672.14,-1317.4 672.14,-1311.4 672.14,-1311.4 672.14,-1288.2 672.14,-1288.2 672.14,-1282.2 678.14,-1276.2 684.14,-1276.2 684.14,-1276.2 793.78,-1276.2 793.78,-1276.2 799.78,-1276.2 805.78,-1282.2 805.78,-1288.2 805.78,-1288.2 805.78,-1311.4 805.78,-1311.4 805.78,-1317.4 799.78,-1323.4 793.78,-1323.4" style=""/>
<text text-anchor="middle" x="738.96" y="-1304" font-family="Arial" font-size="14.00" fill="#333333" style="">Output Elements</text>
<text text-anchor="middle" x="738.96" y="-1287.2" font-family="Arial" font-size="14.00" fill="#333333" style="">Result formatting</text>
</g>
<!-- ElementBase&#45;&gt;OutputElements -->
<g id="edge23" class="edge" data-name="ElementBase-&gt;OutputElements">

<path fill="none" stroke="#666666" stroke-width="1.2" stroke-dasharray="5,2" d="M487.4,-960.88C490.43,-963.55 493.19,-966.51 495.56,-969.8 530.02,-1017.72 476.52,-1188.84 513.56,-1234.8 548.37,-1278 610.05,-1293.59 659.94,-1298.74" style=""/>
<polygon fill="#666666" stroke="#666666" stroke-width="1.2" points="659.61,-1302.23 669.88,-1299.63 660.24,-1295.26 659.61,-1302.23" style=""/>
<text text-anchor="middle" x="570.76" y="-1298" font-family="Arial" font-size="14.00" fill="#666666" style="">Extends</text>
</g>
<!-- BlockchainElements -->
<g id="node13" class="node" pointer-events="visible" data-name="BlockchainElements">

<path fill="#f5f5f5" stroke="#333333" d="M809.15,-1257.4C809.15,-1257.4 668.78,-1257.4 668.78,-1257.4 662.78,-1257.4 656.78,-1251.4 656.78,-1245.4 656.78,-1245.4 656.78,-1222.2 656.78,-1222.2 656.78,-1216.2 662.78,-1210.2 668.78,-1210.2 668.78,-1210.2 809.15,-1210.2 809.15,-1210.2 815.15,-1210.2 821.15,-1216.2 821.15,-1222.2 821.15,-1222.2 821.15,-1245.4 821.15,-1245.4 821.15,-1251.4 815.15,-1257.4 809.15,-1257.4" style=""/>
<text text-anchor="middle" x="738.96" y="-1238" font-family="Arial" font-size="14.00" fill="#333333" style="">Blockchain Elements</text>
<text text-anchor="middle" x="738.96" y="-1221.2" font-family="Arial" font-size="14.00" fill="#333333" style="">Blockchain interaction</text>
</g>
<!-- ElementBase&#45;&gt;BlockchainElements -->
<g id="edge24" class="edge" data-name="ElementBase-&gt;BlockchainElements">

<path fill="none" stroke="#666666" stroke-width="1.2" stroke-dasharray="5,2" d="M486.91,-960.69C490.12,-963.41 493.04,-966.43 495.56,-969.8 541.81,-1031.74 467.48,-1080.73 513.56,-1142.8 544.58,-1184.59 598.07,-1207.24 645.05,-1219.49" style=""/>
<polygon fill="#666666" stroke="#666666" stroke-width="1.2" points="644.21,-1222.89 654.76,-1221.88 645.88,-1216.09 644.21,-1222.89" style=""/>
<text text-anchor="middle" x="570.76" y="-1218" font-family="Arial" font-size="14.00" fill="#666666" style="">Extends</text>
</g>
<!-- CustomElements -->
<g id="node14" class="node" pointer-events="visible" data-name="CustomElements">

<path fill="#f5f5f5" stroke="#333333" d="M797.3,-1888.4C797.3,-1888.4 680.63,-1888.4 680.63,-1888.4 674.63,-1888.4 668.63,-1882.4 668.63,-1876.4 668.63,-1876.4 668.63,-1853.2 668.63,-1853.2 668.63,-1847.2 674.63,-1841.2 680.63,-1841.2 680.63,-1841.2 797.3,-1841.2 797.3,-1841.2 803.3,-1841.2 809.3,-1847.2 809.3,-1853.2 809.3,-1853.2 809.3,-1876.4 809.3,-1876.4 809.3,-1882.4 803.3,-1888.4 797.3,-1888.4" style=""/>
<text text-anchor="middle" x="738.96" y="-1869" font-family="Arial" font-size="14.00" fill="#333333" style="">Custom Elements</text>
<text text-anchor="middle" x="738.96" y="-1852.2" font-family="Arial" font-size="14.00" fill="#333333" style="">User-defined logic</text>
</g>
<!-- ElementBase&#45;&gt;CustomElements -->
<g id="edge25" class="edge" data-name="ElementBase-&gt;CustomElements">

<path fill="none" stroke="#666666" stroke-width="1.2" stroke-dasharray="5,2" d="M487.57,-960.75C490.56,-963.45 493.26,-966.46 495.56,-969.8 518.93,-1003.84 496.39,-1675.25 513.56,-1712.8 546.27,-1784.35 577.06,-1791.45 644.6,-1831.8 648.75,-1834.28 653.12,-1836.61 657.6,-1838.8" style=""/>
<polygon fill="#666666" stroke="#666666" stroke-width="1.2" points="656.03,-1841.93 666.58,-1842.89 658.93,-1835.56 656.03,-1841.93" style=""/>
<text text-anchor="middle" x="570.76" y="-1824" font-family="Arial" font-size="14.00" fill="#666666" style="">Extends</text>
</g>
<!-- InputMapping -->
<g id="node45" class="node" pointer-events="visible" data-name="InputMapping">

<path fill="#f5f5f5" stroke="#333333" d="M1466.06,-1209.4C1466.06,-1209.4 1326.26,-1209.4 1326.26,-1209.4 1320.26,-1209.4 1314.26,-1203.4 1314.26,-1197.4 1314.26,-1197.4 1314.26,-1174.2 1314.26,-1174.2 1314.26,-1168.2 1320.26,-1162.2 1326.26,-1162.2 1326.26,-1162.2 1466.06,-1162.2 1466.06,-1162.2 1472.06,-1162.2 1478.06,-1168.2 1478.06,-1174.2 1478.06,-1174.2 1478.06,-1197.4 1478.06,-1197.4 1478.06,-1203.4 1472.06,-1209.4 1466.06,-1209.4" style=""/>
<text text-anchor="middle" x="1396.16" y="-1190" font-family="Arial" font-size="14.00" fill="#333333" style="">Input Mapping</text>
<text text-anchor="middle" x="1396.16" y="-1173.2" font-family="Arial" font-size="14.00" fill="#333333" style="">Connects element I/O</text>
</g>
<!-- ElementBase&#45;&gt;InputMapping -->
<g id="edge48" class="edge" data-name="ElementBase-&gt;InputMapping">

<path fill="none" stroke="#666666" stroke-width="1.2" d="M475.76,-960.74C482.49,-963.68 489.2,-966.74 495.56,-969.8 503.8,-973.78 505.05,-976.43 513.56,-979.8 569.4,-1001.9 586.22,-998.72 644.6,-1012.8 881.29,-1069.87 1160.95,-1133.27 1302.74,-1165.13" style=""/>
<polygon fill="#666666" stroke="#666666" stroke-width="1.2" points="1301.66,-1168.47 1312.18,-1167.25 1303.19,-1161.64 1301.66,-1168.47" style=""/>
<text text-anchor="middle" x="903.65" y="-1089" font-family="Arial" font-size="14.00" fill="#666666" style="">Uses</text>
</g>
<!-- OutputRouting -->
<g id="node46" class="node" pointer-events="visible" data-name="OutputRouting">

<path fill="#f5f5f5" stroke="#333333" d="M1456.68,-1143.4C1456.68,-1143.4 1335.64,-1143.4 1335.64,-1143.4 1329.64,-1143.4 1323.64,-1137.4 1323.64,-1131.4 1323.64,-1131.4 1323.64,-1108.2 1323.64,-1108.2 1323.64,-1102.2 1329.64,-1096.2 1335.64,-1096.2 1335.64,-1096.2 1456.68,-1096.2 1456.68,-1096.2 1462.68,-1096.2 1468.68,-1102.2 1468.68,-1108.2 1468.68,-1108.2 1468.68,-1131.4 1468.68,-1131.4 1468.68,-1137.4 1462.68,-1143.4 1456.68,-1143.4" style=""/>
<text text-anchor="middle" x="1396.16" y="-1124" font-family="Arial" font-size="14.00" fill="#333333" style="">Output Routing</text>
<text text-anchor="middle" x="1396.16" y="-1107.2" font-family="Arial" font-size="14.00" fill="#333333" style="">Manages data flow</text>
</g>
<!-- ElementBase&#45;&gt;OutputRouting -->
<g id="edge49" class="edge" data-name="ElementBase-&gt;OutputRouting">

<path fill="none" stroke="#666666" stroke-width="1.2" d="M489.66,-951.08C595.52,-971.45 796.25,-1009.92 967.35,-1041.8 1086.92,-1064.08 1225.41,-1089.2 1311.66,-1104.77" style=""/>
<polygon fill="#666666" stroke="#666666" stroke-width="1.2" points="1310.97,-1108.2 1321.43,-1106.54 1312.21,-1101.32 1310.97,-1108.2" style=""/>
<text text-anchor="middle" x="903.65" y="-1043" font-family="Arial" font-size="14.00" fill="#666666" style="">Uses</text>
</g>
<!-- StartElement -->
<g id="node15" class="node" pointer-events="visible" data-name="StartElement">

<path fill="#f5f5f5" stroke="#333333" d="M1123.94,-1987.4C1123.94,-1987.4 1035.31,-1987.4 1035.31,-1987.4 1029.31,-1987.4 1023.31,-1981.4 1023.31,-1975.4 1023.31,-1975.4 1023.31,-1952.2 1023.31,-1952.2 1023.31,-1946.2 1029.31,-1940.2 1035.31,-1940.2 1035.31,-1940.2 1123.94,-1940.2 1123.94,-1940.2 1129.94,-1940.2 1135.94,-1946.2 1135.94,-1952.2 1135.94,-1952.2 1135.94,-1975.4 1135.94,-1975.4 1135.94,-1981.4 1129.94,-1987.4 1123.94,-1987.4" style=""/>
<text text-anchor="middle" x="1079.62" y="-1968" font-family="Arial" font-size="14.00" fill="#333333" style="">Start Element</text>
<text text-anchor="middle" x="1079.62" y="-1951.2" font-family="Arial" font-size="14.00" fill="#333333" style="">Entry point</text>
</g>
<!-- FlowControl&#45;&gt;StartElement -->
<g id="edge1" class="edge" data-name="FlowControl-&gt;StartElement">

<path fill="none" stroke="#666666" stroke-width="1.2" stroke-dasharray="5,2" d="M823.55,-1820.49C829.42,-1823.75 834.98,-1827.5 839.96,-1831.8 847.47,-1838.3 843.39,-1844.34 849.96,-1851.8 891.47,-1899.04 910.46,-1903.99 967.35,-1930.8 981.3,-1937.37 996.84,-1942.96 1011.79,-1947.57" style=""/>
<polygon fill="#666666" stroke="#666666" stroke-width="1.2" points="1010.74,-1950.91 1021.32,-1950.39 1012.73,-1944.2 1010.74,-1950.91" style=""/>
</g>
<!-- EndElement -->
<g id="node16" class="node" pointer-events="visible" data-name="EndElement">

<path fill="#f5f5f5" stroke="#333333" d="M1121.78,-1789.4C1121.78,-1789.4 1037.46,-1789.4 1037.46,-1789.4 1031.46,-1789.4 1025.46,-1783.4 1025.46,-1777.4 1025.46,-1777.4 1025.46,-1754.2 1025.46,-1754.2 1025.46,-1748.2 1031.46,-1742.2 1037.46,-1742.2 1037.46,-1742.2 1121.78,-1742.2 1121.78,-1742.2 1127.78,-1742.2 1133.78,-1748.2 1133.78,-1754.2 1133.78,-1754.2 1133.78,-1777.4 1133.78,-1777.4 1133.78,-1783.4 1127.78,-1789.4 1121.78,-1789.4" style=""/>
<text text-anchor="middle" x="1079.62" y="-1770" font-family="Arial" font-size="14.00" fill="#333333" style="">End Element</text>
<text text-anchor="middle" x="1079.62" y="-1753.2" font-family="Arial" font-size="14.00" fill="#333333" style="">Exit point</text>
</g>
<!-- FlowControl&#45;&gt;EndElement -->
<g id="edge2" class="edge" data-name="FlowControl-&gt;EndElement">

<path fill="none" stroke="#666666" stroke-width="1.2" stroke-dasharray="5,2" d="M823.68,-1790.64C882.34,-1784.93 959.62,-1777.4 1013.66,-1772.13" style=""/>
<polygon fill="#666666" stroke="#666666" stroke-width="1.2" points="1013.74,-1775.64 1023.35,-1771.19 1013.06,-1768.67 1013.74,-1775.64" style=""/>
</g>
<!-- CaseElement -->
<g id="node17" class="node" pointer-events="visible" data-name="CaseElement">

<path fill="#f5f5f5" stroke="#333333" d="M1129.35,-1855.4C1129.35,-1855.4 1029.9,-1855.4 1029.9,-1855.4 1023.9,-1855.4 1017.9,-1849.4 1017.9,-1843.4 1017.9,-1843.4 1017.9,-1820.2 1017.9,-1820.2 1017.9,-1814.2 1023.9,-1808.2 1029.9,-1808.2 1029.9,-1808.2 1129.35,-1808.2 1129.35,-1808.2 1135.35,-1808.2 1141.35,-1814.2 1141.35,-1820.2 1141.35,-1820.2 1141.35,-1843.4 1141.35,-1843.4 1141.35,-1849.4 1135.35,-1855.4 1129.35,-1855.4" style=""/>
<text text-anchor="middle" x="1079.62" y="-1836" font-family="Arial" font-size="14.00" fill="#333333" style="">Case Element</text>
<text text-anchor="middle" x="1079.62" y="-1819.2" font-family="Arial" font-size="14.00" fill="#333333" style="">Branching logic</text>
</g>
<!-- FlowControl&#45;&gt;CaseElement -->
<g id="edge3" class="edge" data-name="FlowControl-&gt;CaseElement">

<path fill="none" stroke="#666666" stroke-width="1.2" stroke-dasharray="5,2" d="M823.68,-1806.96C879.7,-1812.42 952.69,-1819.53 1006.21,-1824.74" style=""/>
<polygon fill="#666666" stroke="#666666" stroke-width="1.2" points="1005.56,-1828.2 1015.85,-1825.68 1006.24,-1821.23 1005.56,-1828.2" style=""/>
</g>
<!-- FlowSelectElement -->
<g id="node18" class="node" pointer-events="visible" data-name="FlowSelectElement">

<path fill="#f5f5f5" stroke="#333333" d="M1125.57,-1921.4C1125.57,-1921.4 1033.68,-1921.4 1033.68,-1921.4 1027.68,-1921.4 1021.68,-1915.4 1021.68,-1909.4 1021.68,-1909.4 1021.68,-1886.2 1021.68,-1886.2 1021.68,-1880.2 1027.68,-1874.2 1033.68,-1874.2 1033.68,-1874.2 1125.57,-1874.2 1125.57,-1874.2 1131.57,-1874.2 1137.57,-1880.2 1137.57,-1886.2 1137.57,-1886.2 1137.57,-1909.4 1137.57,-1909.4 1137.57,-1915.4 1131.57,-1921.4 1125.57,-1921.4" style=""/>
<text text-anchor="middle" x="1079.62" y="-1902" font-family="Arial" font-size="14.00" fill="#333333" style="">Flow Select</text>
<text text-anchor="middle" x="1079.62" y="-1885.2" font-family="Arial" font-size="14.00" fill="#333333" style="">Path selection</text>
</g>
<!-- FlowControl&#45;&gt;FlowSelectElement -->
<g id="edge4" class="edge" data-name="FlowControl-&gt;FlowSelectElement">

<path fill="none" stroke="#666666" stroke-width="1.2" stroke-dasharray="5,2" d="M822.38,-1822.89C879.95,-1839.72 955.93,-1861.93 1010.17,-1877.79" style=""/>
<polygon fill="#666666" stroke="#666666" stroke-width="1.2" points="1009.08,-1881.12 1019.66,-1880.56 1011.04,-1874.4 1009.08,-1881.12" style=""/>
</g>
<!-- ChatInputElement -->
<g id="node19" class="node" pointer-events="visible" data-name="ChatInputElement">

<path fill="#f5f5f5" stroke="#333333" d="M1130.38,-1428.4C1130.38,-1428.4 1028.87,-1428.4 1028.87,-1428.4 1022.87,-1428.4 1016.87,-1422.4 1016.87,-1416.4 1016.87,-1416.4 1016.87,-1393.2 1016.87,-1393.2 1016.87,-1387.2 1022.87,-1381.2 1028.87,-1381.2 1028.87,-1381.2 1130.38,-1381.2 1130.38,-1381.2 1136.38,-1381.2 1142.38,-1387.2 1142.38,-1393.2 1142.38,-1393.2 1142.38,-1416.4 1142.38,-1416.4 1142.38,-1422.4 1136.38,-1428.4 1130.38,-1428.4" style=""/>
<text text-anchor="middle" x="1079.62" y="-1409" font-family="Arial" font-size="14.00" fill="#333333" style="">Chat Input</text>
<text text-anchor="middle" x="1079.62" y="-1392.2" font-family="Arial" font-size="14.00" fill="#333333" style="">User messages</text>
</g>
<!-- InputElements&#45;&gt;ChatInputElement -->
<g id="edge5" class="edge" data-name="InputElements-&gt;ChatInputElement">

<path fill="none" stroke="#666666" stroke-width="1.2" stroke-dasharray="5,2" d="M813.38,-1484.99C857.89,-1471.21 915.85,-1453.36 967.35,-1437.8 979.66,-1434.08 992.75,-1430.17 1005.46,-1426.38" style=""/>
<polygon fill="#666666" stroke="#666666" stroke-width="1.2" points="1006.17,-1429.82 1014.76,-1423.62 1004.18,-1423.11 1006.17,-1429.82" style=""/>
</g>
<!-- ContextHistoryElement -->
<g id="node20" class="node" pointer-events="visible" data-name="ContextHistoryElement">

<path fill="#f5f5f5" stroke="#333333" d="M1150.06,-1494.4C1150.06,-1494.4 1009.19,-1494.4 1009.19,-1494.4 1003.19,-1494.4 997.19,-1488.4 997.19,-1482.4 997.19,-1482.4 997.19,-1459.2 997.19,-1459.2 997.19,-1453.2 1003.19,-1447.2 1009.19,-1447.2 1009.19,-1447.2 1150.06,-1447.2 1150.06,-1447.2 1156.06,-1447.2 1162.06,-1453.2 1162.06,-1459.2 1162.06,-1459.2 1162.06,-1482.4 1162.06,-1482.4 1162.06,-1488.4 1156.06,-1494.4 1150.06,-1494.4" style=""/>
<text text-anchor="middle" x="1079.62" y="-1475" font-family="Arial" font-size="14.00" fill="#333333" style="">Context History</text>
<text text-anchor="middle" x="1079.62" y="-1458.2" font-family="Arial" font-size="14.00" fill="#333333" style="">Conversation memory</text>
</g>
<!-- InputElements&#45;&gt;ContextHistoryElement -->
<g id="edge6" class="edge" data-name="InputElements-&gt;ContextHistoryElement">

<path fill="none" stroke="#666666" stroke-width="1.2" stroke-dasharray="5,2" d="M813.45,-1499.77C863.83,-1494.27 931.1,-1486.92 985.27,-1481" style=""/>
<polygon fill="#666666" stroke="#666666" stroke-width="1.2" points="985.61,-1484.48 995.17,-1479.92 984.85,-1477.52 985.61,-1484.48" style=""/>
</g>
<!-- RestAPIElement -->
<g id="node21" class="node" pointer-events="visible" data-name="RestAPIElement">

<path fill="#f5f5f5" stroke="#333333" d="M1123.12,-1560.4C1123.12,-1560.4 1036.13,-1560.4 1036.13,-1560.4 1030.13,-1560.4 1024.13,-1554.4 1024.13,-1548.4 1024.13,-1548.4 1024.13,-1525.2 1024.13,-1525.2 1024.13,-1519.2 1030.13,-1513.2 1036.13,-1513.2 1036.13,-1513.2 1123.12,-1513.2 1123.12,-1513.2 1129.12,-1513.2 1135.12,-1519.2 1135.12,-1525.2 1135.12,-1525.2 1135.12,-1548.4 1135.12,-1548.4 1135.12,-1554.4 1129.12,-1560.4 1123.12,-1560.4" style=""/>
<text text-anchor="middle" x="1079.62" y="-1541" font-family="Arial" font-size="14.00" fill="#333333" style="">REST API</text>
<text text-anchor="middle" x="1079.62" y="-1524.2" font-family="Arial" font-size="14.00" fill="#333333" style="">External data</text>
</g>
<!-- InputElements&#45;&gt;RestAPIElement -->
<g id="edge7" class="edge" data-name="InputElements-&gt;RestAPIElement">

<path fill="none" stroke="#666666" stroke-width="1.2" stroke-dasharray="5,2" d="M813.45,-1514.09C872.6,-1519.16 955.01,-1526.21 1012.2,-1531.11" style=""/>
<polygon fill="#666666" stroke="#666666" stroke-width="1.2" points="1011.57,-1534.57 1021.83,-1531.94 1012.17,-1527.6 1011.57,-1534.57" style=""/>
</g>
<!-- MetadataElement -->
<g id="node22" class="node" pointer-events="visible" data-name="MetadataElement">

<path fill="#f5f5f5" stroke="#333333" d="M1139.04,-1626.4C1139.04,-1626.4 1020.21,-1626.4 1020.21,-1626.4 1014.21,-1626.4 1008.21,-1620.4 1008.21,-1614.4 1008.21,-1614.4 1008.21,-1591.2 1008.21,-1591.2 1008.21,-1585.2 1014.21,-1579.2 1020.21,-1579.2 1020.21,-1579.2 1139.04,-1579.2 1139.04,-1579.2 1145.04,-1579.2 1151.04,-1585.2 1151.04,-1591.2 1151.04,-1591.2 1151.04,-1614.4 1151.04,-1614.4 1151.04,-1620.4 1145.04,-1626.4 1139.04,-1626.4" style=""/>
<text text-anchor="middle" x="1079.62" y="-1607" font-family="Arial" font-size="14.00" fill="#333333" style="">Metadata</text>
<text text-anchor="middle" x="1079.62" y="-1590.2" font-family="Arial" font-size="14.00" fill="#333333" style="">Configuration data</text>
</g>
<!-- InputElements&#45;&gt;MetadataElement -->
<g id="edge8" class="edge" data-name="InputElements-&gt;MetadataElement">

<path fill="none" stroke="#666666" stroke-width="1.2" stroke-dasharray="5,2" d="M813.45,-1528.41C867.41,-1543.55 940.74,-1564.12 996.6,-1579.79" style=""/>
<polygon fill="#666666" stroke="#666666" stroke-width="1.2" points="995.57,-1583.14 1006.14,-1582.47 997.46,-1576.4 995.57,-1583.14" style=""/>
</g>
<!-- ConstantsElement -->
<g id="node23" class="node" pointer-events="visible" data-name="ConstantsElement">

<path fill="#f5f5f5" stroke="#333333" d="M1120.72,-1692.4C1120.72,-1692.4 1038.53,-1692.4 1038.53,-1692.4 1032.53,-1692.4 1026.53,-1686.4 1026.53,-1680.4 1026.53,-1680.4 1026.53,-1657.2 1026.53,-1657.2 1026.53,-1651.2 1032.53,-1645.2 1038.53,-1645.2 1038.53,-1645.2 1120.72,-1645.2 1120.72,-1645.2 1126.72,-1645.2 1132.72,-1651.2 1132.72,-1657.2 1132.72,-1657.2 1132.72,-1680.4 1132.72,-1680.4 1132.72,-1686.4 1126.72,-1692.4 1120.72,-1692.4" style=""/>
<text text-anchor="middle" x="1079.62" y="-1673" font-family="Arial" font-size="14.00" fill="#333333" style="">Constants</text>
<text text-anchor="middle" x="1079.62" y="-1656.2" font-family="Arial" font-size="14.00" fill="#333333" style="">Fixed values</text>
</g>
<!-- InputElements&#45;&gt;ConstantsElement -->
<g id="edge9" class="edge" data-name="InputElements-&gt;ConstantsElement">

<path fill="none" stroke="#666666" stroke-width="1.2" stroke-dasharray="5,2" d="M776.47,-1531.76C820.34,-1559.73 896.85,-1605.95 967.35,-1635.8 982.43,-1642.18 999.15,-1647.84 1014.95,-1652.59" style=""/>
<polygon fill="#666666" stroke="#666666" stroke-width="1.2" points="1013.93,-1655.94 1024.51,-1655.37 1015.89,-1649.22 1013.93,-1655.94" style=""/>
</g>
<!-- LLMTextElement -->
<g id="node24" class="node" pointer-events="visible" data-name="LLMTextElement">

<path fill="#f5f5f5" stroke="#333333" d="M1130.41,-1331.4C1130.41,-1331.4 1028.84,-1331.4 1028.84,-1331.4 1022.84,-1331.4 1016.84,-1325.4 1016.84,-1319.4 1016.84,-1319.4 1016.84,-1296.2 1016.84,-1296.2 1016.84,-1290.2 1022.84,-1284.2 1028.84,-1284.2 1028.84,-1284.2 1130.41,-1284.2 1130.41,-1284.2 1136.41,-1284.2 1142.41,-1290.2 1142.41,-1296.2 1142.41,-1296.2 1142.41,-1319.4 1142.41,-1319.4 1142.41,-1325.4 1136.41,-1331.4 1130.41,-1331.4" style=""/>
<text text-anchor="middle" x="1079.62" y="-1312" font-family="Arial" font-size="14.00" fill="#333333" style="">LLM Text</text>
<text text-anchor="middle" x="1079.62" y="-1295.2" font-family="Arial" font-size="14.00" fill="#333333" style="">Text generation</text>
</g>
<!-- AIElements&#45;&gt;LLMTextElement -->
<g id="edge10" class="edge" data-name="AIElements-&gt;LLMTextElement">

<path fill="none" stroke="#666666" stroke-width="1.2" stroke-dasharray="5,2" d="M807.34,-1410.03C818.27,-1406.36 829.45,-1402.53 839.96,-1398.8 896.55,-1378.68 960.07,-1354.38 1007.34,-1335.95" style=""/>
<polygon fill="#666666" stroke="#666666" stroke-width="1.2" points="1008.35,-1339.31 1016.39,-1332.42 1005.81,-1332.79 1008.35,-1339.31" style=""/>
</g>
<!-- LLMStructuredElement -->
<g id="node25" class="node" pointer-events="visible" data-name="LLMStructuredElement">

<path fill="#f5f5f5" stroke="#333333" d="M1135.52,-1265.4C1135.52,-1265.4 1023.73,-1265.4 1023.73,-1265.4 1017.73,-1265.4 1011.73,-1259.4 1011.73,-1253.4 1011.73,-1253.4 1011.73,-1230.2 1011.73,-1230.2 1011.73,-1224.2 1017.73,-1218.2 1023.73,-1218.2 1023.73,-1218.2 1135.52,-1218.2 1135.52,-1218.2 1141.52,-1218.2 1147.52,-1224.2 1147.52,-1230.2 1147.52,-1230.2 1147.52,-1253.4 1147.52,-1253.4 1147.52,-1259.4 1141.52,-1265.4 1135.52,-1265.4" style=""/>
<text text-anchor="middle" x="1079.62" y="-1246" font-family="Arial" font-size="14.00" fill="#333333" style="">LLM Structured</text>
<text text-anchor="middle" x="1079.62" y="-1229.2" font-family="Arial" font-size="14.00" fill="#333333" style="">JSON generation</text>
</g>
<!-- AIElements&#45;&gt;LLMStructuredElement -->
<g id="edge11" class="edge" data-name="AIElements-&gt;LLMStructuredElement">

<path fill="none" stroke="#666666" stroke-width="1.2" stroke-dasharray="5,2" d="M807.28,-1420.22C819.55,-1415.38 831.21,-1408.51 839.96,-1398.8 853.95,-1383.25 838.16,-1370.08 849.96,-1352.8 885.29,-1301.07 910.61,-1301.33 967.35,-1274.8 977.69,-1269.97 988.9,-1265.66 1000.08,-1261.88" style=""/>
<polygon fill="#666666" stroke="#666666" stroke-width="1.2" points="1001.07,-1265.24 1009.5,-1258.83 998.91,-1258.58 1001.07,-1265.24" style=""/>
</g>
<!-- AIServiceConnector -->
<g id="node28" class="node" pointer-events="visible" data-name="AIServiceConnector">

<path fill="#d2e3fc" stroke="#333333" d="M1150.37,-1002.4C1150.37,-1002.4 1008.88,-1002.4 1008.88,-1002.4 1002.88,-1002.4 996.88,-996.4 996.88,-990.4 996.88,-990.4 996.88,-967.2 996.88,-967.2 996.88,-961.2 1002.88,-955.2 1008.88,-955.2 1008.88,-955.2 1150.37,-955.2 1150.37,-955.2 1156.37,-955.2 1162.37,-961.2 1162.37,-967.2 1162.37,-967.2 1162.37,-990.4 1162.37,-990.4 1162.37,-996.4 1156.37,-1002.4 1150.37,-1002.4" style=""/>
<text text-anchor="middle" x="1079.62" y="-983" font-family="Arial" font-size="14.00" fill="#333333" style="">AI Service Connector</text>
<text text-anchor="middle" x="1079.62" y="-966.2" font-family="Arial" font-size="14.00" fill="#333333" style="">External AI integration</text>
</g>
<!-- AIElements&#45;&gt;AIServiceConnector -->
<g id="edge32" class="edge" data-name="AIElements-&gt;AIServiceConnector">

<path fill="none" stroke="#666666" stroke-width="1.2" d="M807.12,-1421.66C819.78,-1416.73 831.64,-1409.47 839.96,-1398.8 859.09,-1374.23 833.63,-1285.52 849.96,-1259 879.1,-1211.64 918.57,-1234.65 957.35,-1194.8 1009.89,-1140.82 1047.31,-1059.59 1065.7,-1013.67" style=""/>
<polygon fill="#666666" stroke="#666666" stroke-width="1.2" points="1068.91,-1015.07 1069.3,-1004.48 1062.39,-1012.51 1068.91,-1015.07" style=""/>
<text text-anchor="middle" x="903.65" y="-1263" font-family="Arial" font-size="14.00" fill="#666666" style="">Uses</text>
</g>
<!-- BlockchainConnector -->
<g id="node29" class="node" pointer-events="visible" data-name="BlockchainConnector">

<path fill="#d2e3fc" stroke="#333333" d="M1150.09,-936.4C1150.09,-936.4 1009.15,-936.4 1009.15,-936.4 1003.15,-936.4 997.15,-930.4 997.15,-924.4 997.15,-924.4 997.15,-901.2 997.15,-901.2 997.15,-895.2 1003.15,-889.2 1009.15,-889.2 1009.15,-889.2 1150.09,-889.2 1150.09,-889.2 1156.09,-889.2 1162.09,-895.2 1162.09,-901.2 1162.09,-901.2 1162.09,-924.4 1162.09,-924.4 1162.09,-930.4 1156.09,-936.4 1150.09,-936.4" style=""/>
<text text-anchor="middle" x="1079.62" y="-917" font-family="Arial" font-size="14.00" fill="#333333" style="">Blockchain Connector</text>
<text text-anchor="middle" x="1079.62" y="-900.2" font-family="Arial" font-size="14.00" fill="#333333" style="">Blockchain integration</text>
</g>
<!-- BlockchainElements&#45;&gt;BlockchainConnector -->
<g id="edge33" class="edge" data-name="BlockchainElements-&gt;BlockchainConnector">

<path fill="none" stroke="#666666" stroke-width="1.2" d="M821.59,-1210.61C828.19,-1206.93 834.43,-1202.69 839.96,-1197.8 847.34,-1191.27 842.29,-1184.2 849.96,-1178 888.33,-1146.97 926.27,-1188.13 957.35,-1149.8 985.95,-1114.55 939.32,-981.5 967.35,-945.8 972.62,-939.1 979.18,-933.71 986.46,-929.39" style=""/>
<polygon fill="#666666" stroke="#666666" stroke-width="1.2" points="987.85,-932.61 995.17,-924.95 984.67,-926.37 987.85,-932.61" style=""/>
<text text-anchor="middle" x="903.65" y="-1182" font-family="Arial" font-size="14.00" fill="#666666" style="">Uses</text>
</g>
<!-- DirectStreamManager -->
<g id="node38" class="node" pointer-events="visible" data-name="DirectStreamManager">

<path fill="#f5f5f5" stroke="#333333" d="M813.18,-375.4C813.18,-375.4 664.75,-375.4 664.75,-375.4 658.75,-375.4 652.75,-369.4 652.75,-363.4 652.75,-363.4 652.75,-340.2 652.75,-340.2 652.75,-334.2 658.75,-328.2 664.75,-328.2 664.75,-328.2 813.18,-328.2 813.18,-328.2 819.18,-328.2 825.18,-334.2 825.18,-340.2 825.18,-340.2 825.18,-363.4 825.18,-363.4 825.18,-369.4 819.18,-375.4 813.18,-375.4" style=""/>
<text text-anchor="middle" x="738.96" y="-356" font-family="Arial" font-size="14.00" fill="#333333" style="">Direct Stream Manager</text>
<text text-anchor="middle" x="738.96" y="-339.2" font-family="Arial" font-size="14.00" fill="#333333" style="">WebSocket client</text>
</g>
<!-- StreamManager&#45;&gt;DirectStreamManager -->
<g id="edge36" class="edge" data-name="StreamManager-&gt;DirectStreamManager">

<path fill="none" stroke="#666666" stroke-width="1.2" d="M996.74,-493.27C986.67,-489.52 976.66,-485.35 967.35,-480.8 962.53,-478.44 962.33,-476.03 957.35,-474 912.45,-455.7 883.64,-489.68 849.96,-454.8 828.13,-432.19 860.13,-408.9 839.96,-384.8 838.29,-382.81 836.5,-380.93 834.6,-379.17" style=""/>
<polygon fill="#666666" stroke="#666666" stroke-width="1.2" points="837.13,-376.71 827.1,-373.27 832.8,-382.21 837.13,-376.71" style=""/>
<text text-anchor="middle" x="903.65" y="-478" font-family="Arial" font-size="14.00" fill="#666666" style="">Routes msgs</text>
</g>
<!-- SSEManager -->
<g id="node39" class="node" pointer-events="visible" data-name="SSEManager">

<path fill="#f5f5f5" stroke="#333333" d="M801.85,-309.4C801.85,-309.4 676.08,-309.4 676.08,-309.4 670.08,-309.4 664.08,-303.4 664.08,-297.4 664.08,-297.4 664.08,-274.2 664.08,-274.2 664.08,-268.2 670.08,-262.2 676.08,-262.2 676.08,-262.2 801.85,-262.2 801.85,-262.2 807.85,-262.2 813.85,-268.2 813.85,-274.2 813.85,-274.2 813.85,-297.4 813.85,-297.4 813.85,-303.4 807.85,-309.4 801.85,-309.4" style=""/>
<text text-anchor="middle" x="738.96" y="-290" font-family="Arial" font-size="14.00" fill="#333333" style="">SSE Manager</text>
<text text-anchor="middle" x="738.96" y="-273.2" font-family="Arial" font-size="14.00" fill="#333333" style="">Server-Sent Events</text>
</g>
<!-- StreamManager&#45;&gt;SSEManager -->
<g id="edge37" class="edge" data-name="StreamManager-&gt;SSEManager">

<path fill="none" stroke="#666666" stroke-width="1.2" d="M996.9,-501.58C985.79,-496.51 975.45,-489.77 967.35,-480.8 953.1,-465.01 972.64,-448.79 957.35,-434 922.5,-400.29 882.97,-450.32 849.96,-414.8 835.35,-399.09 853.41,-335.51 839.96,-318.8 835.44,-313.19 829.95,-308.53 823.89,-304.65" style=""/>
<polygon fill="#666666" stroke="#666666" stroke-width="1.2" points="825.99,-301.82 815.55,-300.06 822.62,-307.95 825.99,-301.82" style=""/>
<text text-anchor="middle" x="903.65" y="-438" font-family="Arial" font-size="14.00" fill="#666666" style="">Routes msgs</text>
</g>
<!-- TypeConversion -->
<g id="node47" class="node" pointer-events="visible" data-name="TypeConversion">

<path fill="#f5f5f5" stroke="#333333" d="M1714.68,-1143.4C1714.68,-1143.4 1587.79,-1143.4 1587.79,-1143.4 1581.79,-1143.4 1575.79,-1137.4 1575.79,-1131.4 1575.79,-1131.4 1575.79,-1108.2 1575.79,-1108.2 1575.79,-1102.2 1581.79,-1096.2 1587.79,-1096.2 1587.79,-1096.2 1714.68,-1096.2 1714.68,-1096.2 1720.68,-1096.2 1726.68,-1102.2 1726.68,-1108.2 1726.68,-1108.2 1726.68,-1131.4 1726.68,-1131.4 1726.68,-1137.4 1720.68,-1143.4 1714.68,-1143.4" style=""/>
<text text-anchor="middle" x="1651.23" y="-1124" font-family="Arial" font-size="14.00" fill="#333333" style="">Type Conversion</text>
<text text-anchor="middle" x="1651.23" y="-1107.2" font-family="Arial" font-size="14.00" fill="#333333" style="">Data transformation</text>
</g>
<!-- ValidationService&#45;&gt;TypeConversion -->
<g id="edge52" class="edge" data-name="ValidationService-&gt;TypeConversion">

<path fill="none" stroke="#666666" stroke-width="1.2" d="M1162.55,-830.34C1173.05,-826.04 1183.16,-820.63 1191.89,-813.8 1198.8,-808.4 1194.76,-801.89 1201.89,-796.8 1232.37,-775.04 1247.2,-783.75 1284.46,-780 1383.25,-770.05 1425.19,-725 1507.86,-780 1612.32,-849.49 1640.29,-1011.99 1647.65,-1084.16" style=""/>
<polygon fill="#666666" stroke="#666666" stroke-width="1.2" points="1644.15,-1084.31 1648.57,-1093.94 1651.12,-1083.66 1644.15,-1084.31" style=""/>
<text text-anchor="middle" x="1396.16" y="-784" font-family="Arial" font-size="14.00" fill="#666666" style="">Validates</text>
</g>
<!-- SchemaValidator -->
<g id="node48" class="node" pointer-events="visible" data-name="SchemaValidator">

<path fill="#f5f5f5" stroke="#333333" d="M1453.16,-1077.4C1453.16,-1077.4 1339.16,-1077.4 1339.16,-1077.4 1333.16,-1077.4 1327.16,-1071.4 1327.16,-1065.4 1327.16,-1065.4 1327.16,-1042.2 1327.16,-1042.2 1327.16,-1036.2 1333.16,-1030.2 1339.16,-1030.2 1339.16,-1030.2 1453.16,-1030.2 1453.16,-1030.2 1459.16,-1030.2 1465.16,-1036.2 1465.16,-1042.2 1465.16,-1042.2 1465.16,-1065.4 1465.16,-1065.4 1465.16,-1071.4 1459.16,-1077.4 1453.16,-1077.4" style=""/>
<text text-anchor="middle" x="1396.16" y="-1058" font-family="Arial" font-size="14.00" fill="#333333" style="">Schema Validator</text>
<text text-anchor="middle" x="1396.16" y="-1041.2" font-family="Arial" font-size="14.00" fill="#333333" style="">Type checking</text>
</g>
<!-- ValidationService&#45;&gt;SchemaValidator -->
<g id="edge50" class="edge" data-name="ValidationService-&gt;SchemaValidator">

<path fill="none" stroke="#666666" stroke-width="1.2" d="M1162.25,-853.48C1199.57,-860.89 1241.04,-876.09 1266.46,-907 1299.26,-946.89 1250.31,-983.06 1284.46,-1021.8 1292.86,-1031.34 1303.92,-1038.11 1315.79,-1042.91" style=""/>
<polygon fill="#666666" stroke="#666666" stroke-width="1.2" points="1314.56,-1046.18 1325.15,-1046.18 1316.86,-1039.58 1314.56,-1046.18" style=""/>
<text text-anchor="middle" x="1234.17" y="-911" font-family="Arial" font-size="14.00" fill="#666666" style="">Uses</text>
</g>
<!-- BedrockAI -->
<g id="node40" class="node" pointer-events="visible" data-name="BedrockAI">

<ellipse fill="#232f3e" stroke="#333333" cx="1396.16" cy="-978.8" rx="107.67" ry="33.82" style=""/>
<text text-anchor="middle" x="1396.16" y="-983" font-family="Arial" font-size="14.00" fill="white" style="">AWS Bedrock</text>
<text text-anchor="middle" x="1396.16" y="-966.2" font-family="Arial" font-size="14.00" fill="white" style="">(Claude / Anthropic)</text>
</g>
<!-- AIServiceConnector&#45;&gt;BedrockAI -->
<g id="edge41" class="edge" data-name="AIServiceConnector-&gt;BedrockAI">

<path fill="none" stroke="#4285f4" stroke-width="1.2" d="M1162.85,-978.8C1197.58,-978.8 1238.67,-978.8 1276.58,-978.8" style=""/>
<polygon fill="#4285f4" stroke="#4285f4" stroke-width="1.2" points="1276.41,-982.3 1286.41,-978.8 1276.41,-975.3 1276.41,-982.3" style=""/>
<text text-anchor="middle" x="1234.17" y="-983" font-family="Arial" font-size="14.00" fill="#666666" style="">API Calls</text>
</g>
<!-- DeepSeekAI -->
<g id="node41" class="node" pointer-events="visible" data-name="DeepSeekAI">

<ellipse fill="#5a2ca0" stroke="#333333" cx="1396.16" cy="-893.8" rx="111.91" ry="33.82" style=""/>
<text text-anchor="middle" x="1396.16" y="-898" font-family="Arial" font-size="14.00" fill="white" style="">DeepSeek Reasoner</text>
<text text-anchor="middle" x="1396.16" y="-881.2" font-family="Arial" font-size="14.00" fill="white" style="">(Custom AI Model)</text>
</g>
<!-- AIServiceConnector&#45;&gt;DeepSeekAI -->
<g id="edge42" class="edge" data-name="AIServiceConnector-&gt;DeepSeekAI">

<path fill="none" stroke="#4285f4" stroke-width="1.2" d="M1162.85,-956.58C1205.05,-945.18 1256.66,-931.23 1300.51,-919.38" style=""/>
<polygon fill="#4285f4" stroke="#4285f4" stroke-width="1.2" points="1301.28,-922.8 1310.02,-916.81 1299.45,-916.04 1301.28,-922.8" style=""/>
<text text-anchor="middle" x="1234.17" y="-948" font-family="Arial" font-size="14.00" fill="#666666" style="">API Calls</text>
</g>
<!-- AptosBlockchain -->
<g id="node43" class="node" pointer-events="visible" data-name="AptosBlockchain">

<path fill="#fef7e0" stroke="#f7b529" d="M1452.05,-841.8C1452.05,-841.8 1340.27,-841.8 1340.27,-841.8 1334.27,-841.8 1328.27,-835.8 1328.27,-829.8 1328.27,-829.8 1328.27,-817.8 1328.27,-817.8 1328.27,-811.8 1334.27,-805.8 1340.27,-805.8 1340.27,-805.8 1452.05,-805.8 1452.05,-805.8 1458.05,-805.8 1464.05,-811.8 1464.05,-817.8 1464.05,-817.8 1464.05,-829.8 1464.05,-829.8 1464.05,-835.8 1458.05,-841.8 1452.05,-841.8" style=""/>
<text text-anchor="middle" x="1396.16" y="-819.6" font-family="Arial" font-size="14.00" fill="#f7b529" style="">Aptos Blockchain</text>
</g>
<!-- BlockchainConnector&#45;&gt;AptosBlockchain -->
<g id="edge45" class="edge" data-name="BlockchainConnector-&gt;AptosBlockchain">

<path fill="none" stroke="#db4437" stroke-width="1.2" d="M1162.5,-900.09C1173.59,-895.28 1183.88,-888.72 1191.89,-879.8 1208.43,-861.38 1182.93,-840.92 1201.89,-825 1234.17,-797.91 1281.3,-797.11 1320.94,-803.33" style=""/>
<polygon fill="#db4437" stroke="#db4437" stroke-width="1.2" points="1320.19,-806.75 1330.65,-805.04 1321.41,-799.86 1320.19,-806.75" style=""/>
<text text-anchor="middle" x="1234.17" y="-829" font-family="Arial" font-size="14.00" fill="#666666" style="">RPC Calls</text>
</g>
<!-- HTTPEndpoints -->
<g id="node34" class="node" pointer-events="visible" data-name="HTTPEndpoints">

<path fill="#f5f5f5" stroke="#333333" d="M805.36,-177.4C805.36,-177.4 672.56,-177.4 672.56,-177.4 666.56,-177.4 660.56,-171.4 660.56,-165.4 660.56,-165.4 660.56,-142.2 660.56,-142.2 660.56,-136.2 666.56,-130.2 672.56,-130.2 672.56,-130.2 805.36,-130.2 805.36,-130.2 811.36,-130.2 817.36,-136.2 817.36,-142.2 817.36,-142.2 817.36,-165.4 817.36,-165.4 817.36,-171.4 811.36,-177.4 805.36,-177.4" style=""/>
<text text-anchor="middle" x="738.96" y="-158" font-family="Arial" font-size="14.00" fill="#333333" style="">HTTP Endpoints</text>
<text text-anchor="middle" x="738.96" y="-141.2" font-family="Arial" font-size="14.00" fill="#333333" style="">REST API endpoints</text>
</g>
<!-- HTTPEndpoints&#45;&gt;FlowExecutor -->
<g id="edge34" class="edge" data-name="HTTPEndpoints-&gt;FlowExecutor">

<path fill="none" stroke="#666666" stroke-width="1.2" d="M664.3,-177.74C657.54,-180.56 650.88,-183.59 644.6,-186.8 441.71,-290.58 359.47,-296.2 223.11,-478.8 151.91,-574.14 124.76,-717.22 115.63,-782.75" style=""/>
<polygon fill="#666666" stroke="#666666" stroke-width="1.2" points="112.22,-781.88 114.37,-792.26 119.16,-782.8 112.22,-781.88" style=""/>
<text text-anchor="middle" x="414.63" y="-359" font-family="Arial" font-size="14.00" fill="#666666" style="">Invokes</text>
</g>
<!-- MessagePasser -->
<g id="node42" class="node" pointer-events="visible" data-name="MessagePasser">

<path fill="#e6f4ea" stroke="#0f9d58" d="M1154.91,-47.4C1154.91,-47.4 1004.33,-47.4 1004.33,-47.4 998.33,-47.4 992.33,-41.4 992.33,-35.4 992.33,-35.4 992.33,-12.2 992.33,-12.2 992.33,-6.2 998.33,-0.2 1004.33,-0.2 1004.33,-0.2 1154.91,-0.2 1154.91,-0.2 1160.91,-0.2 1166.91,-6.2 1166.91,-12.2 1166.91,-12.2 1166.91,-35.4 1166.91,-35.4 1166.91,-41.4 1160.91,-47.4 1154.91,-47.4" style=""/>
<text text-anchor="middle" x="1079.62" y="-28" font-family="Arial" font-size="14.00" fill="#0f9d58" style="">Neura Message Passer</text>
<text text-anchor="middle" x="1079.62" y="-11.2" font-family="Arial" font-size="14.00" fill="#0f9d58" style="">(Backend 2)</text>
</g>
<!-- HTTPEndpoints&#45;&gt;MessagePasser -->
<g id="edge44" class="edge" data-name="HTTPEndpoints-&gt;MessagePasser">

<path fill="none" stroke="#db4437" stroke-width="1.2" d="M791.67,-129.73C837.32,-108.96 905.98,-78.91 967.35,-56.8 972.42,-54.98 977.64,-53.17 982.93,-51.41" style=""/>
<polygon fill="#db4437" stroke="#db4437" stroke-width="1.2" points="983.7,-54.83 992.12,-48.4 981.53,-48.18 983.7,-54.83" style=""/>
<text text-anchor="middle" x="903.65" y="-107" font-family="Arial" font-size="14.00" fill="#666666" style="">HTTP/REST</text>
</g>
<!-- WebSocketServer -->
<g id="node35" class="node" pointer-events="visible" data-name="WebSocketServer">

<path fill="#f5f5f5" stroke="#333333" d="M803.72,-243.4C803.72,-243.4 674.2,-243.4 674.2,-243.4 668.2,-243.4 662.2,-237.4 662.2,-231.4 662.2,-231.4 662.2,-208.2 662.2,-208.2 662.2,-202.2 668.2,-196.2 674.2,-196.2 674.2,-196.2 803.72,-196.2 803.72,-196.2 809.72,-196.2 815.72,-202.2 815.72,-208.2 815.72,-208.2 815.72,-231.4 815.72,-231.4 815.72,-237.4 809.72,-243.4 803.72,-243.4" style=""/>
<text text-anchor="middle" x="738.96" y="-224" font-family="Arial" font-size="14.00" fill="#333333" style="">WebSocket Server</text>
<text text-anchor="middle" x="738.96" y="-207.2" font-family="Arial" font-size="14.00" fill="#333333" style="">Bidirectional comms</text>
</g>
<!-- WebSocketServer&#45;&gt;StreamManager -->
<g id="edge35" class="edge" data-name="WebSocketServer-&gt;StreamManager">

<path fill="none" stroke="#666666" stroke-width="1.2" d="M816.1,-234.02C825.28,-238.65 833.62,-244.76 839.96,-252.8 856.78,-274.17 831.66,-354.67 849.96,-374.8 882.57,-410.68 924.15,-358.66 957.35,-394 983.95,-422.3 942.75,-450.76 967.35,-480.8 972.71,-487.33 979.26,-492.69 986.47,-497.09" style=""/>
<polygon fill="#666666" stroke="#666666" stroke-width="1.2" points="984.6,-500.06 995.07,-501.66 987.88,-493.88 984.6,-500.06" style=""/>
<text text-anchor="middle" x="903.65" y="-398" font-family="Arial" font-size="14.00" fill="#666666" style="">Provides channel</text>
</g>
<!-- WebSocketServer&#45;&gt;MessagePasser -->
<g id="edge43" class="edge" data-name="WebSocketServer-&gt;MessagePasser">

<path fill="none" stroke="#db4437" stroke-width="1.2" d="M816.13,-206.82C864.85,-194.27 924.83,-170.02 957.35,-123.8 974.68,-99.18 947.61,-79.53 967.35,-56.8 971.61,-51.9 976.55,-47.72 981.94,-44.14" style=""/>
<polygon fill="#db4437" stroke="#db4437" stroke-width="1.2" points="983.57,-47.24 990.5,-39.24 980.09,-41.17 983.57,-47.24" style=""/>
<text text-anchor="middle" x="903.65" y="-216.8" font-family="Arial" font-size="14.00" fill="#666666" style="">WebSocket</text>
<text text-anchor="middle" x="903.65" y="-200" font-family="Arial" font-size="14.00" fill="#666666" style="">Streaming</text>
</g>
<!-- EventSystem&#45;&gt;StreamManager -->
<g id="edge39" class="edge" data-name="EventSystem-&gt;StreamManager">

<path fill="none" stroke="#666666" stroke-width="1.2" d="M765.75,-441.71C786.74,-459.63 818.02,-483.02 849.96,-494.8 892.62,-510.54 942.65,-516.62 985.01,-518.53" style=""/>
<polygon fill="#666666" stroke="#666666" stroke-width="1.2" points="984.81,-522.02 994.93,-518.89 985.07,-515.03 984.81,-522.02" style=""/>
<text text-anchor="middle" x="903.65" y="-520" font-family="Arial" font-size="14.00" fill="#666666" style="">Forwards events</text>
</g>
<!-- MessageQueue -->
<g id="node37" class="node" pointer-events="visible" data-name="MessageQueue">

<path fill="#f5f5f5" stroke="#333333" d="M1143.64,-380.4C1143.64,-380.4 1015.61,-380.4 1015.61,-380.4 1009.61,-380.4 1003.61,-374.4 1003.61,-368.4 1003.61,-368.4 1003.61,-345.2 1003.61,-345.2 1003.61,-339.2 1009.61,-333.2 1015.61,-333.2 1015.61,-333.2 1143.64,-333.2 1143.64,-333.2 1149.64,-333.2 1155.64,-339.2 1155.64,-345.2 1155.64,-345.2 1155.64,-368.4 1155.64,-368.4 1155.64,-374.4 1149.64,-380.4 1143.64,-380.4" style=""/>
<text text-anchor="middle" x="1079.62" y="-361" font-family="Arial" font-size="14.00" fill="#333333" style="">Message Queue</text>
<text text-anchor="middle" x="1079.62" y="-344.2" font-family="Arial" font-size="14.00" fill="#333333" style="">Async task handling</text>
</g>
<!-- EventSystem&#45;&gt;MessageQueue -->
<g id="edge40" class="edge" data-name="EventSystem-&gt;MessageQueue">

<path fill="none" stroke="#666666" stroke-width="1.2" d="M803.64,-406.18C816.9,-401.35 829.88,-394.5 839.96,-384.8 849.12,-375.98 839.53,-365.28 849.96,-358 890.47,-329.72 945.63,-328.65 991.63,-335.02" style=""/>
<polygon fill="#666666" stroke="#666666" stroke-width="1.2" points="990.9,-338.45 1001.32,-336.51 991.97,-331.53 990.9,-338.45" style=""/>
<text text-anchor="middle" x="903.65" y="-362" font-family="Arial" font-size="14.00" fill="#666666" style="">Queues tasks</text>
</g>
<!-- DirectClient -->
<g id="node44" class="node" pointer-events="visible" data-name="DirectClient">

<path fill="#e8f0fe" stroke="#4285f4" d="M1137.94,-113.4C1137.94,-113.4 1021.31,-113.4 1021.31,-113.4 1015.31,-113.4 1009.31,-107.4 1009.31,-101.4 1009.31,-101.4 1009.31,-78.2 1009.31,-78.2 1009.31,-72.2 1015.31,-66.2 1021.31,-66.2 1021.31,-66.2 1137.94,-66.2 1137.94,-66.2 1143.94,-66.2 1149.94,-72.2 1149.94,-78.2 1149.94,-78.2 1149.94,-101.4 1149.94,-101.4 1149.94,-107.4 1143.94,-113.4 1137.94,-113.4" style=""/>
<text text-anchor="middle" x="1079.62" y="-94" font-family="Arial" font-size="14.00" fill="#4285f4" style="">Direct Client</text>
<text text-anchor="middle" x="1079.62" y="-77.2" font-family="Arial" font-size="14.00" fill="#4285f4" style="">(WebSocket/SSE)</text>
</g>
<!-- DirectStreamManager&#45;&gt;DirectClient -->
<g id="edge46" class="edge" data-name="DirectStreamManager-&gt;DirectClient">

<path fill="none" stroke="#db4437" stroke-width="1.2" d="M820.93,-327.78C827.49,-325.02 833.91,-322.03 839.96,-318.8 844.93,-316.14 844.9,-313.5 849.96,-311 894.18,-289.11 926.04,-320.95 957.35,-282.8 980.66,-254.41 943.9,-146.07 967.35,-117.8 975.39,-108.12 986.23,-101.51 998.01,-97.04" style=""/>
<polygon fill="#db4437" stroke="#db4437" stroke-width="1.2" points="998.84,-100.45 1007.3,-94.07 996.71,-93.78 998.84,-100.45" style=""/>
<text text-anchor="middle" x="903.65" y="-315" font-family="Arial" font-size="14.00" fill="#666666" style="">WebSocket</text>
</g>
<!-- SSEManager&#45;&gt;DirectClient -->
<g id="edge47" class="edge" data-name="SSEManager-&gt;DirectClient">

<path fill="none" stroke="#db4437" stroke-width="1.2" d="M814.28,-271.75C873.4,-259.85 947.78,-242.99 957.35,-231.8 973.88,-212.47 950.86,-137.15 967.35,-117.8 975.47,-108.28 986.29,-101.75 998.01,-97.31" style=""/>
<polygon fill="#db4437" stroke="#db4437" stroke-width="1.2" points="998.79,-100.73 1007.25,-94.35 996.65,-94.07 998.79,-100.73" style=""/>
<text text-anchor="middle" x="903.65" y="-267" font-family="Arial" font-size="14.00" fill="#666666" style="">SSE</text>
</g>
<!-- InputMapping&#45;&gt;TypeConversion -->
<g id="edge51" class="edge" data-name="InputMapping-&gt;TypeConversion">

<path fill="none" stroke="#666666" stroke-width="1.2" d="M1478.28,-1164.64C1505.72,-1157.49 1536.46,-1149.47 1564.27,-1142.22" style=""/>
<polygon fill="#666666" stroke="#666666" stroke-width="1.2" points="1565.03,-1145.64 1573.82,-1139.73 1563.26,-1138.86 1565.03,-1145.64" style=""/>
<text text-anchor="middle" x="1541.81" y="-1155" font-family="Arial" font-size="14.00" fill="#666666" style="">Uses</text>
</g>
</g>
</svg>