<svg xmlns="http://www.w3.org/2000/svg" xmlns:xlink="http://www.w3.org/1999/xlink" width="2727pt" height="1933pt" viewBox="0.00 0.00 2727.46 1933.38">
<g id="graph0" class="graph" transform="scale(1 1) rotate(0) translate(4 1929.38)">
<title>Blockchain / Smart Contract Architecture</title>
<polygon fill="white" stroke="none" points="-4,4 -4,-1929.38 2723.46,-1929.38 2723.46,4 -4,4"/>
<g id="clust1" class="cluster">
<title>cluster_contract</title>
<path fill="#fef7e0" stroke="#f7b529" d="M369.16,-510.38C369.16,-510.38 1125.76,-510.38 1125.76,-510.38 1131.76,-510.38 1137.76,-516.38 1137.76,-522.38 1137.76,-522.38 1137.76,-1048.38 1137.76,-1048.38 1137.76,-1054.38 1131.76,-1060.38 1125.76,-1060.38 1125.76,-1060.38 369.16,-1060.38 369.16,-1060.38 363.16,-1060.38 357.16,-1054.38 357.16,-1048.38 357.16,-1048.38 357.16,-522.38 357.16,-522.38 357.16,-516.38 363.16,-510.38 369.16,-510.38"/>
<text text-anchor="middle" x="747.46" y="-1041.98" font-family="Arial" font-size="16.00" fill="#f7b529">NFT Smart Contract</text>
</g>
<g id="clust2" class="cluster">
<title>cluster_contract_functions</title>
<path fill="#ffe8a6" stroke="#f7b529" d="M689.4,-563.38C689.4,-563.38 826.95,-563.38 826.95,-563.38 832.95,-563.38 838.95,-569.38 838.95,-575.38 838.95,-575.38 838.95,-904.38 838.95,-904.38 838.95,-910.38 832.95,-916.38 826.95,-916.38 826.95,-916.38 689.4,-916.38 689.4,-916.38 683.4,-916.38 677.4,-910.38 677.4,-904.38 677.4,-904.38 677.4,-575.38 677.4,-575.38 677.4,-569.38 683.4,-563.38 689.4,-563.38"/>
<text text-anchor="middle" x="758.18" y="-899.78" font-family="Arial" font-size="14.00" fill="#f7b529">Core Functions</text>
</g>
<g id="clust3" class="cluster">
<title>cluster_access</title>
<path fill="#fce8e6" stroke="#db4437" d="M980.07,-1068.38C980.07,-1068.38 2699.46,-1068.38 2699.46,-1068.38 2705.46,-1068.38 2711.46,-1074.38 2711.46,-1080.38 2711.46,-1080.38 2711.46,-1608.38 2711.46,-1608.38 2711.46,-1614.38 2705.46,-1620.38 2699.46,-1620.38 2699.46,-1620.38 980.07,-1620.38 980.07,-1620.38 974.07,-1620.38 968.07,-1614.38 968.07,-1608.38 968.07,-1608.38 968.07,-1080.38 968.07,-1080.38 968.07,-1074.38 974.07,-1068.38 980.07,-1068.38"/>
<text text-anchor="middle" x="1839.77" y="-1601.98" font-family="Arial" font-size="16.00" fill="#db4437">Access Control</text>
</g>
<g id="clust4" class="cluster">
<title>cluster_access_levels</title>
<path fill="#fcbdba" stroke="#db4437" d="M1276.29,-1489.38C1276.29,-1489.38 2691.46,-1489.38 2691.46,-1489.38 2697.46,-1489.38 2703.46,-1495.38 2703.46,-1501.38 2703.46,-1501.38 2703.46,-1566.38 2703.46,-1566.38 2703.46,-1572.38 2697.46,-1578.38 2691.46,-1578.38 2691.46,-1578.38 1276.29,-1578.38 1276.29,-1578.38 1270.29,-1578.38 1264.29,-1572.38 1264.29,-1566.38 1264.29,-1566.38 1264.29,-1501.38 1264.29,-1501.38 1264.29,-1495.38 1270.29,-1489.38 1276.29,-1489.38"/>
<text text-anchor="middle" x="1983.87" y="-1561.78" font-family="Arial" font-size="14.00" fill="#db4437">Access Level Definitions</text>
</g>
<g id="clust5" class="cluster">
<title>cluster_access_functions</title>
<path fill="#fcbdba" stroke="#db4437" d="M1271.74,-1076.38C1271.74,-1076.38 1422.47,-1076.38 1422.47,-1076.38 1428.47,-1076.38 1434.47,-1082.38 1434.47,-1088.38 1434.47,-1088.38 1434.47,-1417.38 1434.47,-1417.38 1434.47,-1423.38 1428.47,-1429.38 1422.47,-1429.38 1422.47,-1429.38 1271.74,-1429.38 1271.74,-1429.38 1265.74,-1429.38 1259.74,-1423.38 1259.74,-1417.38 1259.74,-1417.38 1259.74,-1088.38 1259.74,-1088.38 1259.74,-1082.38 1265.74,-1076.38 1271.74,-1076.38"/>
<text text-anchor="middle" x="1347.11" y="-1412.78" font-family="Arial" font-size="14.00" fill="#db4437">Access Control Functions</text>
</g>
<g id="clust6" class="cluster">
<title>cluster_events</title>
<path fill="#e6f4ea" stroke="#0f9d58" d="M1530.51,-434.38C1530.51,-434.38 1965.33,-434.38 1965.33,-434.38 1971.33,-434.38 1977.33,-440.38 1977.33,-446.38 1977.33,-446.38 1977.33,-777.38 1977.33,-777.38 1977.33,-783.38 1971.33,-789.38 1965.33,-789.38 1965.33,-789.38 1530.51,-789.38 1530.51,-789.38 1524.51,-789.38 1518.51,-783.38 1518.51,-777.38 1518.51,-777.38 1518.51,-446.38 1518.51,-446.38 1518.51,-440.38 1524.51,-434.38 1530.51,-434.38"/>
<text text-anchor="middle" x="1747.92" y="-770.98" font-family="Arial" font-size="16.00" fill="#0f9d58">Blockchain Events</text>
</g>
<g id="clust7" class="cluster">
<title>cluster_event_fields</title>
<path fill="#ceead6" stroke="#0f9d58" d="M1822.93,-467.38C1822.93,-467.38 1957.33,-467.38 1957.33,-467.38 1963.33,-467.38 1969.33,-473.38 1969.33,-479.38 1969.33,-479.38 1969.33,-742.38 1969.33,-742.38 1969.33,-748.38 1963.33,-754.38 1957.33,-754.38 1957.33,-754.38 1822.93,-754.38 1822.93,-754.38 1816.93,-754.38 1810.93,-748.38 1810.93,-742.38 1810.93,-742.38 1810.93,-479.38 1810.93,-479.38 1810.93,-473.38 1816.93,-467.38 1822.93,-467.38"/>
<text text-anchor="middle" x="1890.13" y="-737.78" font-family="Arial" font-size="14.00" fill="#0f9d58">Event Fields</text>
</g>
<g id="clust8" class="cluster">
<title>cluster_storage</title>
<path fill="#e8f0fe" stroke="#4285f4" d="M1823.32,-38.38C1823.32,-38.38 2239.09,-38.38 2239.09,-38.38 2245.09,-38.38 2251.09,-44.38 2251.09,-50.38 2251.09,-50.38 2251.09,-414.38 2251.09,-414.38 2251.09,-420.38 2245.09,-426.38 2239.09,-426.38 2239.09,-426.38 1823.32,-426.38 1823.32,-426.38 1817.32,-426.38 1811.32,-420.38 1811.32,-414.38 1811.32,-414.38 1811.32,-50.38 1811.32,-50.38 1811.32,-44.38 1817.32,-38.38 1823.32,-38.38"/>
<text text-anchor="middle" x="2031.2" y="-407.98" font-family="Arial" font-size="16.00" fill="#4285f4">Blockchain Storage</text>
</g>
<g id="clust9" class="cluster">
<title>cluster_tables</title>
<path fill="#d2e3fc" stroke="#4285f4" d="M2078.01,-104.38C2078.01,-104.38 2231.09,-104.38 2231.09,-104.38 2237.09,-104.38 2243.09,-110.38 2243.09,-116.38 2243.09,-116.38 2243.09,-379.38 2243.09,-379.38 2243.09,-385.38 2237.09,-391.38 2231.09,-391.38 2231.09,-391.38 2078.01,-391.38 2078.01,-391.38 2072.01,-391.38 2066.01,-385.38 2066.01,-379.38 2066.01,-379.38 2066.01,-116.38 2066.01,-116.38 2066.01,-110.38 2072.01,-104.38 2078.01,-104.38"/>
<text text-anchor="middle" x="2154.55" y="-374.78" font-family="Arial" font-size="14.00" fill="#4285f4">Storage Tables</text>
</g>
<g id="clust10" class="cluster">
<title>cluster_utils</title>
<path fill="#f3e8ff" stroke="#7627bb" d="M1274.73,-1628.38C1274.73,-1628.38 1418.49,-1628.38 1418.49,-1628.38 1424.49,-1628.38 1430.49,-1634.38 1430.49,-1640.38 1430.49,-1640.38 1430.49,-1905.38 1430.49,-1905.38 1430.49,-1911.38 1424.49,-1917.38 1418.49,-1917.38 1418.49,-1917.38 1274.73,-1917.38 1274.73,-1917.38 1268.73,-1917.38 1262.73,-1911.38 1262.73,-1905.38 1262.73,-1905.38 1262.73,-1640.38 1262.73,-1640.38 1262.73,-1634.38 1268.73,-1628.38 1274.73,-1628.38"/>
<text text-anchor="middle" x="1346.61" y="-1898.98" font-family="Arial" font-size="16.00" fill="#7627bb">Utility Functions</text>
</g>
<g id="clust11" class="cluster">
<title>cluster_blockchain_internals</title>
<path fill="#f4e9fd" stroke="#a142f4" d="M966.84,-213.38C966.84,-213.38 1147.38,-213.38 1147.38,-213.38 1153.38,-213.38 1159.38,-219.38 1159.38,-225.38 1159.38,-225.38 1159.38,-490.38 1159.38,-490.38 1159.38,-496.38 1153.38,-502.38 1147.38,-502.38 1147.38,-502.38 966.84,-502.38 966.84,-502.38 960.84,-502.38 954.84,-496.38 954.84,-490.38 954.84,-490.38 954.84,-225.38 954.84,-225.38 954.84,-219.38 960.84,-213.38 966.84,-213.38"/>
<text text-anchor="middle" x="1057.11" y="-483.98" font-family="Arial" font-size="16.00" fill="#a142f4">Aptos Blockchain Internals</text>
</g>
<!-- NFTContract -->
<g id="node1" class="node">
<title>NFTContract</title>
<path fill="#feefc3" stroke="#333333" d="M535.26,-843.38C535.26,-843.38 377.16,-843.38 377.16,-843.38 371.16,-843.38 365.16,-837.38 365.16,-831.38 365.16,-831.38 365.16,-807.38 365.16,-807.38 365.16,-801.38 371.16,-795.38 377.16,-795.38 377.16,-795.38 535.26,-795.38 535.26,-795.38 541.26,-795.38 547.26,-801.38 547.26,-807.38 547.26,-807.38 547.26,-831.38 547.26,-831.38 547.26,-837.38 541.26,-843.38 535.26,-843.38"/>
<text text-anchor="middle" x="456.21" y="-823.58" font-family="Arial" font-size="14.00" fill="#333333">NFT Contract Module</text>
<text text-anchor="middle" x="456.21" y="-806.78" font-family="Arial" font-size="14.00" fill="#333333">Main contract entry point</text>
</g>
<!-- NFTInfo -->
<g id="node2" class="node">
<title>NFTInfo</title>
<path fill="#feefc3" stroke="#333333" d="M1116.58,-685.38C1116.58,-685.38 996.64,-685.38 996.64,-685.38 990.64,-685.38 984.64,-679.38 984.64,-673.38 984.64,-673.38 984.64,-649.38 984.64,-649.38 984.64,-643.38 990.64,-637.38 996.64,-637.38 996.64,-637.38 1116.58,-637.38 1116.58,-637.38 1122.58,-637.38 1128.58,-643.38 1128.58,-649.38 1128.58,-649.38 1128.58,-673.38 1128.58,-673.38 1128.58,-679.38 1122.58,-685.38 1116.58,-685.38"/>
<text text-anchor="middle" x="1056.61" y="-665.58" font-family="Arial" font-size="14.00" fill="#333333">NFT Info Structure</text>
<text text-anchor="middle" x="1056.61" y="-648.78" font-family="Arial" font-size="14.00" fill="#333333">Token metadata</text>
</g>
<!-- NFTContract&#45;&gt;NFTInfo -->
<g id="edge6" class="edge">
<title>NFTContract-&gt;NFTInfo</title>
<path fill="none" stroke="#666666" stroke-width="1.2" d="M465.27,-794.96C486.27,-736.11 549.05,-587.99 661.87,-542.58 741.29,-510.62 771.9,-520.01 854.48,-542.58 916.33,-559.48 978.5,-600.82 1017,-629.96"/>
<polygon fill="#666666" stroke="#666666" stroke-width="1.2" points="1014.76,-632.66 1024.83,-635.98 1019.03,-627.11 1014.76,-632.66"/>
<text text-anchor="middle" x="758.18" y="-546.78" font-family="Arial" font-size="14.00" fill="#666666">Contains</text>
</g>
<!-- NFTOwnership -->
<g id="node3" class="node">
<title>NFTOwnership</title>
<path fill="#feefc3" stroke="#333333" d="M1117.76,-839.38C1117.76,-839.38 995.47,-839.38 995.47,-839.38 989.47,-839.38 983.47,-833.38 983.47,-827.38 983.47,-827.38 983.47,-803.38 983.47,-803.38 983.47,-797.38 989.47,-791.38 995.47,-791.38 995.47,-791.38 1117.76,-791.38 1117.76,-791.38 1123.76,-791.38 1129.76,-797.38 1129.76,-803.38 1129.76,-803.38 1129.76,-827.38 1129.76,-827.38 1129.76,-833.38 1123.76,-839.38 1117.76,-839.38"/>
<text text-anchor="middle" x="1056.61" y="-819.58" font-family="Arial" font-size="14.00" fill="#333333">NFT Ownership</text>
<text text-anchor="middle" x="1056.61" y="-802.78" font-family="Arial" font-size="14.00" fill="#333333">Ownership records</text>
</g>
<!-- NFTContract&#45;&gt;NFTOwnership -->
<g id="edge7" class="edge">
<title>NFTContract-&gt;NFTOwnership</title>
<path fill="none" stroke="#666666" stroke-width="1.2" d="M493.72,-843.87C533.2,-868.77 598.98,-905.7 661.87,-920.38 745.24,-939.83 771.24,-940.35 854.48,-920.38 912.8,-906.39 972.89,-871.9 1012.01,-846.25"/>
<polygon fill="#666666" stroke="#666666" stroke-width="1.2" points="1013.85,-849.23 1020.23,-840.77 1009.97,-843.4 1013.85,-849.23"/>
<text text-anchor="middle" x="758.18" y="-939.36" font-family="Arial" font-size="14.00" fill="#666666">Manages</text>
</g>
<!-- NFTAccess -->
<g id="node4" class="node">
<title>NFTAccess</title>
<path fill="#feefc3" stroke="#333333" d="M823.2,-1025.38C823.2,-1025.38 693.15,-1025.38 693.15,-1025.38 687.15,-1025.38 681.15,-1019.38 681.15,-1013.38 681.15,-1013.38 681.15,-989.38 681.15,-989.38 681.15,-983.38 687.15,-977.38 693.15,-977.38 693.15,-977.38 823.2,-977.38 823.2,-977.38 829.2,-977.38 835.2,-983.38 835.2,-989.38 835.2,-989.38 835.2,-1013.38 835.2,-1013.38 835.2,-1019.38 829.2,-1025.38 823.2,-1025.38"/>
<text text-anchor="middle" x="758.18" y="-1005.58" font-family="Arial" font-size="14.00" fill="#333333">NFT Access Control</text>
<text text-anchor="middle" x="758.18" y="-988.78" font-family="Arial" font-size="14.00" fill="#333333">Permission system</text>
</g>
<!-- NFTContract&#45;&gt;NFTAccess -->
<g id="edge8" class="edge">
<title>NFTContract-&gt;NFTAccess</title>
<path fill="none" stroke="#666666" stroke-width="1.2" d="M471.37,-843.69C489.48,-872.67 523.57,-920.54 565.26,-947.38 596.38,-967.41 634.97,-980.13 669.38,-988.15"/>
<polygon fill="#666666" stroke="#666666" stroke-width="1.2" points="668.58,-991.56 679.1,-990.3 670.09,-984.72 668.58,-991.56"/>
<text text-anchor="middle" x="604.57" y="-984.4" font-family="Arial" font-size="14.00" fill="#666666">Controls</text>
</g>
<!-- Initialize -->
<g id="node5" class="node">
<title>Initialize</title>
<path fill="#f5f5f5" stroke="#333333" d="M805.71,-751.38C805.71,-751.38 710.64,-751.38 710.64,-751.38 704.64,-751.38 698.64,-745.38 698.64,-739.38 698.64,-739.38 698.64,-715.38 698.64,-715.38 698.64,-709.38 704.64,-703.38 710.64,-703.38 710.64,-703.38 805.71,-703.38 805.71,-703.38 811.71,-703.38 817.71,-709.38 817.71,-715.38 817.71,-715.38 817.71,-739.38 817.71,-739.38 817.71,-745.38 811.71,-751.38 805.71,-751.38"/>
<text text-anchor="middle" x="758.18" y="-731.58" font-family="Arial" font-size="14.00" fill="#333333">Initialize</text>
<text text-anchor="middle" x="758.18" y="-714.78" font-family="Arial" font-size="14.00" fill="#333333">Setup contract</text>
</g>
<!-- NFTContract&#45;&gt;Initialize -->
<g id="edge1" class="edge">
<title>NFTContract-&gt;Initialize</title>
<path fill="none" stroke="#666666" stroke-width="1.2" d="M536.81,-794.97C583.53,-780.64 642.04,-762.69 687.02,-748.9"/>
<polygon fill="#666666" stroke="#666666" stroke-width="1.2" points="687.88,-752.29 696.42,-746.01 685.83,-745.6 687.88,-752.29"/>
</g>
<!-- CreateNFT -->
<g id="node6" class="node">
<title>CreateNFT</title>
<path fill="#f5f5f5" stroke="#333333" d="M807.66,-883.38C807.66,-883.38 708.7,-883.38 708.7,-883.38 702.7,-883.38 696.7,-877.38 696.7,-871.38 696.7,-871.38 696.7,-847.38 696.7,-847.38 696.7,-841.38 702.7,-835.38 708.7,-835.38 708.7,-835.38 807.66,-835.38 807.66,-835.38 813.66,-835.38 819.66,-841.38 819.66,-847.38 819.66,-847.38 819.66,-871.38 819.66,-871.38 819.66,-877.38 813.66,-883.38 807.66,-883.38"/>
<text text-anchor="middle" x="758.18" y="-863.58" font-family="Arial" font-size="14.00" fill="#333333">Create NFT</text>
<text text-anchor="middle" x="758.18" y="-846.78" font-family="Arial" font-size="14.00" fill="#333333">Mint new token</text>
</g>
<!-- NFTContract&#45;&gt;CreateNFT -->
<g id="edge2" class="edge">
<title>NFTContract-&gt;CreateNFT</title>
<path fill="none" stroke="#666666" stroke-width="1.2" d="M547.62,-831.43C591.52,-837.29 643.55,-844.23 684.78,-849.73"/>
<polygon fill="#666666" stroke="#666666" stroke-width="1.2" points="684.21,-853.18 694.58,-851.03 685.13,-846.24 684.21,-853.18"/>
</g>
<!-- TransferNFT -->
<g id="node7" class="node">
<title>TransferNFT</title>
<path fill="#f5f5f5" stroke="#333333" d="M818.95,-817.38C818.95,-817.38 697.4,-817.38 697.4,-817.38 691.4,-817.38 685.4,-811.38 685.4,-805.38 685.4,-805.38 685.4,-781.38 685.4,-781.38 685.4,-775.38 691.4,-769.38 697.4,-769.38 697.4,-769.38 818.95,-769.38 818.95,-769.38 824.95,-769.38 830.95,-775.38 830.95,-781.38 830.95,-781.38 830.95,-805.38 830.95,-805.38 830.95,-811.38 824.95,-817.38 818.95,-817.38"/>
<text text-anchor="middle" x="758.18" y="-797.58" font-family="Arial" font-size="14.00" fill="#333333">Transfer NFT</text>
<text text-anchor="middle" x="758.18" y="-780.78" font-family="Arial" font-size="14.00" fill="#333333">Change ownership</text>
</g>
<!-- NFTContract&#45;&gt;TransferNFT -->
<g id="edge3" class="edge">
<title>NFTContract-&gt;TransferNFT</title>
<path fill="none" stroke="#666666" stroke-width="1.2" d="M547.62,-811.54C587.57,-808.08 634.25,-804.03 673.41,-800.64"/>
<polygon fill="#666666" stroke="#666666" stroke-width="1.2" points="673.56,-804.14 683.22,-799.79 672.96,-797.17 673.56,-804.14"/>
</g>
<!-- BurnNFT -->
<g id="node8" class="node">
<title>BurnNFT</title>
<path fill="#f5f5f5" stroke="#333333" d="M803.76,-619.38C803.76,-619.38 712.59,-619.38 712.59,-619.38 706.59,-619.38 700.59,-613.38 700.59,-607.38 700.59,-607.38 700.59,-583.38 700.59,-583.38 700.59,-577.38 706.59,-571.38 712.59,-571.38 712.59,-571.38 803.76,-571.38 803.76,-571.38 809.76,-571.38 815.76,-577.38 815.76,-583.38 815.76,-583.38 815.76,-607.38 815.76,-607.38 815.76,-613.38 809.76,-619.38 803.76,-619.38"/>
<text text-anchor="middle" x="758.18" y="-599.58" font-family="Arial" font-size="14.00" fill="#333333">Burn NFT</text>
<text text-anchor="middle" x="758.18" y="-582.78" font-family="Arial" font-size="14.00" fill="#333333">Destroy token</text>
</g>
<!-- NFTContract&#45;&gt;BurnNFT -->
<g id="edge4" class="edge">
<title>NFTContract-&gt;BurnNFT</title>
<path fill="none" stroke="#666666" stroke-width="1.2" d="M476.09,-794.94C509.14,-753.94 581.62,-671.55 661.87,-628.38 670.46,-623.76 679.83,-619.59 689.22,-615.89"/>
<polygon fill="#666666" stroke="#666666" stroke-width="1.2" points="690.38,-619.19 698.52,-612.4 687.93,-612.63 690.38,-619.19"/>
</g>
<!-- GetNFTInfo -->
<g id="node9" class="node">
<title>GetNFTInfo</title>
<path fill="#f5f5f5" stroke="#333333" d="M808.44,-685.38C808.44,-685.38 707.91,-685.38 707.91,-685.38 701.91,-685.38 695.91,-679.38 695.91,-673.38 695.91,-673.38 695.91,-649.38 695.91,-649.38 695.91,-643.38 701.91,-637.38 707.91,-637.38 707.91,-637.38 808.44,-637.38 808.44,-637.38 814.44,-637.38 820.44,-643.38 820.44,-649.38 820.44,-649.38 820.44,-673.38 820.44,-673.38 820.44,-679.38 814.44,-685.38 808.44,-685.38"/>
<text text-anchor="middle" x="758.18" y="-665.58" font-family="Arial" font-size="14.00" fill="#333333">Get NFT Info</text>
<text text-anchor="middle" x="758.18" y="-648.78" font-family="Arial" font-size="14.00" fill="#333333">Read metadata</text>
</g>
<!-- NFTContract&#45;&gt;GetNFTInfo -->
<g id="edge5" class="edge">
<title>NFTContract-&gt;GetNFTInfo</title>
<path fill="none" stroke="#666666" stroke-width="1.2" d="M491.78,-795.07C531.46,-767.94 599.18,-723.96 661.87,-694.38 669.14,-690.95 676.86,-687.69 684.64,-684.65"/>
<polygon fill="#666666" stroke="#666666" stroke-width="1.2" points="685.82,-687.95 693.94,-681.14 683.35,-681.4 685.82,-687.95"/>
</g>
<!-- AptosBlockchain -->
<g id="node41" class="node">
<title>AptosBlockchain</title>
<ellipse fill="#5a2ca0" stroke="#333333" cx="758.18" cy="-377.38" rx="96.3" ry="33.94"/>
<text text-anchor="middle" x="758.18" y="-381.58" font-family="Arial" font-size="14.00" fill="white">Aptos Blockchain</text>
<text text-anchor="middle" x="758.18" y="-364.78" font-family="Arial" font-size="14.00" fill="white">L1 Network</text>
</g>
<!-- NFTContract&#45;&gt;AptosBlockchain -->
<g id="edge71" class="edge">
<title>NFTContract-&gt;AptosBlockchain</title>
<path fill="none" stroke="#666666" stroke-width="1.2" stroke-dasharray="5,2" d="M460.76,-794.88C469.76,-739.86 497.72,-604.28 565.26,-514.58 598.42,-470.54 649.76,-434.89 691,-410.97"/>
<polygon fill="#666666" stroke="#666666" stroke-width="1.2" points="692.71,-414.03 699.67,-406.04 689.25,-407.94 692.71,-414.03"/>
<text text-anchor="middle" x="604.57" y="-518.78" font-family="Arial" font-size="14.00" fill="#666666">Deployed on</text>
</g>
<!-- HashGenerator -->
<g id="node45" class="node">
<title>HashGenerator</title>
<path fill="#e9d7fe" stroke="#333333" d="M1406.21,-1750.38C1406.21,-1750.38 1287,-1750.38 1287,-1750.38 1281,-1750.38 1275,-1744.38 1275,-1738.38 1275,-1738.38 1275,-1714.38 1275,-1714.38 1275,-1708.38 1281,-1702.38 1287,-1702.38 1287,-1702.38 1406.21,-1702.38 1406.21,-1702.38 1412.21,-1702.38 1418.21,-1708.38 1418.21,-1714.38 1418.21,-1714.38 1418.21,-1738.38 1418.21,-1738.38 1418.21,-1744.38 1412.21,-1750.38 1406.21,-1750.38"/>
<text text-anchor="middle" x="1346.61" y="-1730.58" font-family="Arial" font-size="14.00" fill="#333333">Hash Generator</text>
<text text-anchor="middle" x="1346.61" y="-1713.78" font-family="Arial" font-size="14.00" fill="#333333">Token uniqueness</text>
</g>
<!-- NFTContract&#45;&gt;HashGenerator -->
<g id="edge79" class="edge">
<title>NFTContract-&gt;HashGenerator</title>
<path fill="none" stroke="#666666" stroke-width="1.2" d="M464.4,-843.64C498.38,-953.9 654.03,-1411.61 954.84,-1624.38 1047.37,-1689.83 1178.85,-1713.29 1263.2,-1721.7"/>
<polygon fill="#666666" stroke="#666666" stroke-width="1.2" points="1262.69,-1725.17 1272.97,-1722.62 1263.34,-1718.2 1262.69,-1725.17"/>
<text text-anchor="middle" x="908.66" y="-1617.15" font-family="Arial" font-size="14.00" fill="#666666">Uses</text>
</g>
<!-- ErrorHandler -->
<g id="node47" class="node">
<title>ErrorHandler</title>
<path fill="#e9d7fe" stroke="#333333" d="M1396.47,-1882.38C1396.47,-1882.38 1296.75,-1882.38 1296.75,-1882.38 1290.75,-1882.38 1284.75,-1876.38 1284.75,-1870.38 1284.75,-1870.38 1284.75,-1846.38 1284.75,-1846.38 1284.75,-1840.38 1290.75,-1834.38 1296.75,-1834.38 1296.75,-1834.38 1396.47,-1834.38 1396.47,-1834.38 1402.47,-1834.38 1408.47,-1840.38 1408.47,-1846.38 1408.47,-1846.38 1408.47,-1870.38 1408.47,-1870.38 1408.47,-1876.38 1402.47,-1882.38 1396.47,-1882.38"/>
<text text-anchor="middle" x="1346.61" y="-1862.58" font-family="Arial" font-size="14.00" fill="#333333">Error Handler</text>
<text text-anchor="middle" x="1346.61" y="-1845.78" font-family="Arial" font-size="14.00" fill="#333333">Error constants</text>
</g>
<!-- NFTContract&#45;&gt;ErrorHandler -->
<g id="edge81" class="edge">
<title>NFTContract-&gt;ErrorHandler</title>
<path fill="none" stroke="#666666" stroke-width="1.2" d="M457.3,-843.82C458.94,-943.07 477.52,-1321.24 661.87,-1543.38 823.73,-1738.41 1132.72,-1818.72 1273.05,-1846.2"/>
<polygon fill="#666666" stroke="#666666" stroke-width="1.2" points="1272.21,-1849.6 1282.69,-1848.05 1273.53,-1842.73 1272.21,-1849.6"/>
<text text-anchor="middle" x="908.66" y="-1745.82" font-family="Arial" font-size="14.00" fill="#666666">Uses</text>
</g>
<!-- Validator -->
<g id="node48" class="node">
<title>Validator</title>
<path fill="#e9d7fe" stroke="#333333" d="M1396.1,-1816.38C1396.1,-1816.38 1297.12,-1816.38 1297.12,-1816.38 1291.12,-1816.38 1285.12,-1810.38 1285.12,-1804.38 1285.12,-1804.38 1285.12,-1780.38 1285.12,-1780.38 1285.12,-1774.38 1291.12,-1768.38 1297.12,-1768.38 1297.12,-1768.38 1396.1,-1768.38 1396.1,-1768.38 1402.1,-1768.38 1408.1,-1774.38 1408.1,-1780.38 1408.1,-1780.38 1408.1,-1804.38 1408.1,-1804.38 1408.1,-1810.38 1402.1,-1816.38 1396.1,-1816.38"/>
<text text-anchor="middle" x="1346.61" y="-1796.58" font-family="Arial" font-size="14.00" fill="#333333">Validator</text>
<text text-anchor="middle" x="1346.61" y="-1779.78" font-family="Arial" font-size="14.00" fill="#333333">Input validation</text>
</g>
<!-- NFTContract&#45;&gt;Validator -->
<g id="edge82" class="edge">
<title>NFTContract-&gt;Validator</title>
<path fill="none" stroke="#666666" stroke-width="1.2" d="M460.59,-843.87C473.5,-930.63 526.02,-1228.96 661.87,-1429.38 757.75,-1570.83 796.91,-1613.1 954.84,-1678.38 1062.53,-1722.89 1193.61,-1757.36 1273.27,-1776.25"/>
<polygon fill="#666666" stroke="#666666" stroke-width="1.2" points="1272.34,-1779.63 1282.88,-1778.51 1273.94,-1772.82 1272.34,-1779.63"/>
<text text-anchor="middle" x="908.66" y="-1678.1" font-family="Arial" font-size="14.00" fill="#666666">Uses</text>
</g>
<!-- NFTTable -->
<g id="node37" class="node">
<title>NFTTable</title>
<path fill="#f5f5f5" stroke="#333333" d="M2201.69,-292.38C2201.69,-292.38 2107.41,-292.38 2107.41,-292.38 2101.41,-292.38 2095.41,-286.38 2095.41,-280.38 2095.41,-280.38 2095.41,-256.38 2095.41,-256.38 2095.41,-250.38 2101.41,-244.38 2107.41,-244.38 2107.41,-244.38 2201.69,-244.38 2201.69,-244.38 2207.69,-244.38 2213.69,-250.38 2213.69,-256.38 2213.69,-256.38 2213.69,-280.38 2213.69,-280.38 2213.69,-286.38 2207.69,-292.38 2201.69,-292.38"/>
<text text-anchor="middle" x="2154.55" y="-272.58" font-family="Arial" font-size="14.00" fill="#333333">NFT Table</text>
<text text-anchor="middle" x="2154.55" y="-255.78" font-family="Arial" font-size="14.00" fill="#333333">Token records</text>
</g>
<!-- NFTInfo&#45;&gt;NFTTable -->
<g id="edge63" class="edge">
<title>NFTInfo-&gt;NFTTable</title>
<path fill="none" stroke="#666666" stroke-width="1.2" d="M1074.34,-685.53C1114.35,-740.13 1221.53,-868.38 1345.61,-868.38 1345.61,-868.38 1345.61,-868.38 1891.13,-868.38 1962.73,-868.38 2002.41,-885.04 2047.44,-829.38 2084.36,-783.74 2031.17,-349.04 2065.44,-301.38 2070.54,-294.28 2077.36,-288.7 2084.96,-284.33"/>
<polygon fill="#666666" stroke="#666666" stroke-width="1.2" points="2086.26,-287.59 2093.69,-280.04 2083.17,-281.31 2086.26,-287.59"/>
<text text-anchor="middle" x="1608.99" y="-872.58" font-family="Arial" font-size="14.00" fill="#666666">Stored in</text>
</g>
<!-- OwnershipTable -->
<g id="node38" class="node">
<title>OwnershipTable</title>
<path fill="#f5f5f5" stroke="#333333" d="M2209.86,-226.38C2209.86,-226.38 2099.23,-226.38 2099.23,-226.38 2093.23,-226.38 2087.23,-220.38 2087.23,-214.38 2087.23,-214.38 2087.23,-190.38 2087.23,-190.38 2087.23,-184.38 2093.23,-178.38 2099.23,-178.38 2099.23,-178.38 2209.86,-178.38 2209.86,-178.38 2215.86,-178.38 2221.86,-184.38 2221.86,-190.38 2221.86,-190.38 2221.86,-214.38 2221.86,-214.38 2221.86,-220.38 2215.86,-226.38 2209.86,-226.38"/>
<text text-anchor="middle" x="2154.55" y="-206.58" font-family="Arial" font-size="14.00" fill="#333333">Ownership Table</text>
<text text-anchor="middle" x="2154.55" y="-189.78" font-family="Arial" font-size="14.00" fill="#333333">Owner mapping</text>
</g>
<!-- NFTOwnership&#45;&gt;OwnershipTable -->
<g id="edge62" class="edge">
<title>NFTOwnership-&gt;OwnershipTable</title>
<path fill="none" stroke="#666666" stroke-width="1.2" d="M1130.11,-815.38C1188.34,-815.38 1272.23,-815.38 1345.61,-815.38 1345.61,-815.38 1345.61,-815.38 1891.13,-815.38 1937.06,-815.38 1951.45,-796.32 1977.33,-758.38 2061.32,-635.22 2024.97,-577.75 2047.44,-430.38 2054,-387.36 2039.02,-269.96 2065.44,-235.38 2068.7,-231.1 2072.59,-227.38 2076.88,-224.14"/>
<polygon fill="#666666" stroke="#666666" stroke-width="1.2" points="2078.76,-227.09 2085.31,-218.76 2075,-221.19 2078.76,-227.09"/>
<text text-anchor="middle" x="1608.99" y="-819.58" font-family="Arial" font-size="14.00" fill="#666666">Stored in</text>
</g>
<!-- AccessLevels -->
<g id="node10" class="node">
<title>AccessLevels</title>
<path fill="#f5f5f5" stroke="#333333" d="M1124.37,-1502.38C1124.37,-1502.38 988.86,-1502.38 988.86,-1502.38 982.86,-1502.38 976.86,-1496.38 976.86,-1490.38 976.86,-1490.38 976.86,-1466.38 976.86,-1466.38 976.86,-1460.38 982.86,-1454.38 988.86,-1454.38 988.86,-1454.38 1124.37,-1454.38 1124.37,-1454.38 1130.37,-1454.38 1136.37,-1460.38 1136.37,-1466.38 1136.37,-1466.38 1136.37,-1490.38 1136.37,-1490.38 1136.37,-1496.38 1130.37,-1502.38 1124.37,-1502.38"/>
<text text-anchor="middle" x="1056.61" y="-1482.58" font-family="Arial" font-size="14.00" fill="#333333">Access Levels</text>
<text text-anchor="middle" x="1056.61" y="-1465.78" font-family="Arial" font-size="14.00" fill="#333333">Permission hierarchy</text>
</g>
<!-- NFTAccess&#45;&gt;AccessLevels -->
<g id="edge31" class="edge">
<title>NFTAccess-&gt;AccessLevels</title>
<path fill="none" stroke="#666666" stroke-width="1.2" d="M783.34,-1025.76C803.79,-1047.18 833.11,-1079.77 854.48,-1111.38 909.08,-1192.12 907.88,-1220.96 954.84,-1306.38 981.43,-1354.75 1014,-1409.62 1034.78,-1444.11"/>
<polygon fill="#666666" stroke="#666666" stroke-width="1.2" points="1031.73,-1445.82 1039.9,-1452.57 1037.72,-1442.2 1031.73,-1445.82"/>
<text text-anchor="middle" x="908.66" y="-1291.11" font-family="Arial" font-size="14.00" fill="#666666">Defines</text>
</g>
<!-- PermissionManager -->
<g id="node11" class="node">
<title>PermissionManager</title>
<path fill="#f5f5f5" stroke="#333333" d="M1123.2,-1297.38C1123.2,-1297.38 990.02,-1297.38 990.02,-1297.38 984.02,-1297.38 978.02,-1291.38 978.02,-1285.38 978.02,-1285.38 978.02,-1261.38 978.02,-1261.38 978.02,-1255.38 984.02,-1249.38 990.02,-1249.38 990.02,-1249.38 1123.2,-1249.38 1123.2,-1249.38 1129.2,-1249.38 1135.2,-1255.38 1135.2,-1261.38 1135.2,-1261.38 1135.2,-1285.38 1135.2,-1285.38 1135.2,-1291.38 1129.2,-1297.38 1123.2,-1297.38"/>
<text text-anchor="middle" x="1056.61" y="-1277.58" font-family="Arial" font-size="14.00" fill="#333333">Permission Manager</text>
<text text-anchor="middle" x="1056.61" y="-1260.78" font-family="Arial" font-size="14.00" fill="#333333">Access operations</text>
</g>
<!-- NFTAccess&#45;&gt;PermissionManager -->
<g id="edge32" class="edge">
<title>NFTAccess-&gt;PermissionManager</title>
<path fill="none" stroke="#666666" stroke-width="1.2" d="M831.66,-1025.85C845.21,-1030.38 859.27,-1035.05 872.48,-1039.38 904.57,-1049.9 923.97,-1036.03 944.84,-1062.58 963.95,-1086.89 939.71,-1174.41 954.84,-1201.38 964.16,-1218 979.1,-1231.74 994.65,-1242.6"/>
<polygon fill="#666666" stroke="#666666" stroke-width="1.2" points="992.58,-1245.42 1002.86,-1247.99 996.42,-1239.58 992.58,-1245.42"/>
<text text-anchor="middle" x="908.66" y="-1066.78" font-family="Arial" font-size="14.00" fill="#666666">Implements</text>
</g>
<!-- VerificationLogic -->
<g id="node12" class="node">
<title>VerificationLogic</title>
<path fill="#f5f5f5" stroke="#333333" d="M1112.32,-1192.38C1112.32,-1192.38 1000.9,-1192.38 1000.9,-1192.38 994.9,-1192.38 988.9,-1186.38 988.9,-1180.38 988.9,-1180.38 988.9,-1156.38 988.9,-1156.38 988.9,-1150.38 994.9,-1144.38 1000.9,-1144.38 1000.9,-1144.38 1112.32,-1144.38 1112.32,-1144.38 1118.32,-1144.38 1124.32,-1150.38 1124.32,-1156.38 1124.32,-1156.38 1124.32,-1180.38 1124.32,-1180.38 1124.32,-1186.38 1118.32,-1192.38 1112.32,-1192.38"/>
<text text-anchor="middle" x="1056.61" y="-1172.58" font-family="Arial" font-size="14.00" fill="#333333">Verification Logic</text>
<text text-anchor="middle" x="1056.61" y="-1155.78" font-family="Arial" font-size="14.00" fill="#333333">Access checking</text>
</g>
<!-- NFTAccess&#45;&gt;VerificationLogic -->
<g id="edge33" class="edge">
<title>NFTAccess-&gt;VerificationLogic</title>
<path fill="none" stroke="#666666" stroke-width="1.2" d="M835.63,-1000.65C879.87,-1001.99 929.71,-1007.09 944.84,-1022.58 962.11,-1040.27 939.62,-1113.9 954.84,-1133.38 960.98,-1141.25 969.01,-1147.35 977.85,-1152.09"/>
<polygon fill="#666666" stroke="#666666" stroke-width="1.2" points="976.35,-1155.25 986.9,-1156.28 979.3,-1148.9 976.35,-1155.25"/>
<text text-anchor="middle" x="908.66" y="-1026.78" font-family="Arial" font-size="14.00" fill="#666666">Uses</text>
</g>
<!-- DefaultAccessTable -->
<g id="node13" class="node">
<title>DefaultAccessTable</title>
<path fill="#f5f5f5" stroke="#333333" d="M1125.15,-1124.38C1125.15,-1124.38 988.07,-1124.38 988.07,-1124.38 982.07,-1124.38 976.07,-1118.38 976.07,-1112.38 976.07,-1112.38 976.07,-1088.38 976.07,-1088.38 976.07,-1082.38 982.07,-1076.38 988.07,-1076.38 988.07,-1076.38 1125.15,-1076.38 1125.15,-1076.38 1131.15,-1076.38 1137.15,-1082.38 1137.15,-1088.38 1137.15,-1088.38 1137.15,-1112.38 1137.15,-1112.38 1137.15,-1118.38 1131.15,-1124.38 1125.15,-1124.38"/>
<text text-anchor="middle" x="1056.61" y="-1104.58" font-family="Arial" font-size="14.00" fill="#333333">Default Access Table</text>
<text text-anchor="middle" x="1056.61" y="-1087.78" font-family="Arial" font-size="14.00" fill="#333333">Fallback permissions</text>
</g>
<!-- NFTAccess&#45;&gt;DefaultAccessTable -->
<g id="edge34" class="edge">
<title>NFTAccess-&gt;DefaultAccessTable</title>
<path fill="none" stroke="#666666" stroke-width="1.2" d="M835.43,-977.01C870.06,-970.07 910.79,-967.86 944.84,-982.58 984.14,-999.57 1015.93,-1038.13 1035.21,-1066.52"/>
<polygon fill="#666666" stroke="#666666" stroke-width="1.2" points="1032.08,-1068.14 1040.5,-1074.57 1037.93,-1064.3 1032.08,-1068.14"/>
<text text-anchor="middle" x="908.66" y="-986.78" font-family="Arial" font-size="14.00" fill="#666666">Maintains</text>
</g>
<!-- AccessTable -->
<g id="node39" class="node">
<title>AccessTable</title>
<path fill="#f5f5f5" stroke="#333333" d="M2220.36,-160.38C2220.36,-160.38 2088.73,-160.38 2088.73,-160.38 2082.73,-160.38 2076.73,-154.38 2076.73,-148.38 2076.73,-148.38 2076.73,-124.38 2076.73,-124.38 2076.73,-118.38 2082.73,-112.38 2088.73,-112.38 2088.73,-112.38 2220.36,-112.38 2220.36,-112.38 2226.36,-112.38 2232.36,-118.38 2232.36,-124.38 2232.36,-124.38 2232.36,-148.38 2232.36,-148.38 2232.36,-154.38 2226.36,-160.38 2220.36,-160.38"/>
<text text-anchor="middle" x="2154.55" y="-140.58" font-family="Arial" font-size="14.00" fill="#333333">Access Table</text>
<text text-anchor="middle" x="2154.55" y="-123.78" font-family="Arial" font-size="14.00" fill="#333333">Permission mapping</text>
</g>
<!-- NFTAccess&#45;&gt;AccessTable -->
<g id="edge64" class="edge">
<title>NFTAccess-&gt;AccessTable</title>
<path fill="none" stroke="#666666" stroke-width="1.2" d="M832.8,-977.17C841.27,-971.58 848.87,-964.73 854.48,-956.38 896.42,-893.94 825.12,-676.82 872.48,-618.38 979.45,-486.37 1083.9,-582.27 1241.74,-519.38 1505.27,-414.37 1537.38,-315.05 1802.97,-215.38 1889.46,-182.92 1993.19,-161.58 2065.28,-149.35"/>
<polygon fill="#666666" stroke="#666666" stroke-width="1.2" points="2065.49,-152.87 2074.78,-147.77 2064.34,-145.96 2065.49,-152.87"/>
<text text-anchor="middle" x="1480.49" y="-414.43" font-family="Arial" font-size="14.00" fill="#666666">Stored in</text>
</g>
<!-- CreateNFT&#45;&gt;NFTInfo -->
<g id="edge9" class="edge">
<title>CreateNFT-&gt;NFTInfo</title>
<path fill="none" stroke="#666666" stroke-width="1.2" d="M819.88,-839.63C836.85,-834.26 855.34,-828.56 872.48,-823.58 904.43,-814.3 919.43,-825.86 944.84,-804.38 953.04,-797.45 949.13,-791.48 954.84,-782.38 974.94,-750.35 1002.74,-717.61 1024.05,-694.27"/>
<polygon fill="#666666" stroke="#666666" stroke-width="1.2" points="1026.42,-696.86 1030.64,-687.14 1021.28,-692.11 1026.42,-696.86"/>
<text text-anchor="middle" x="908.66" y="-827.78" font-family="Arial" font-size="14.00" fill="#666666">Creates</text>
</g>
<!-- CreateNFT&#45;&gt;NFTOwnership -->
<g id="edge10" class="edge">
<title>CreateNFT-&gt;NFTOwnership</title>
<path fill="none" stroke="#666666" stroke-width="1.2" d="M820.13,-857.15C856.53,-855.15 903.55,-851.4 944.84,-844.38 953.59,-842.89 962.66,-841.04 971.66,-839"/>
<polygon fill="#666666" stroke="#666666" stroke-width="1.2" points="972.32,-842.44 981.25,-836.74 970.71,-835.63 972.32,-842.44"/>
<text text-anchor="middle" x="908.66" y="-857.49" font-family="Arial" font-size="14.00" fill="#666666">Updates</text>
</g>
<!-- CreateEvent -->
<g id="node25" class="node">
<title>CreateEvent</title>
<path fill="#f5f5f5" stroke="#333333" d="M1669.37,-556.38C1669.37,-556.38 1548.62,-556.38 1548.62,-556.38 1542.62,-556.38 1536.62,-550.38 1536.62,-544.38 1536.62,-544.38 1536.62,-520.38 1536.62,-520.38 1536.62,-514.38 1542.62,-508.38 1548.62,-508.38 1548.62,-508.38 1669.37,-508.38 1669.37,-508.38 1675.37,-508.38 1681.37,-514.38 1681.37,-520.38 1681.37,-520.38 1681.37,-544.38 1681.37,-544.38 1681.37,-550.38 1675.37,-556.38 1669.37,-556.38"/>
<text text-anchor="middle" x="1608.99" y="-536.58" font-family="Arial" font-size="14.00" fill="#333333">Create Event</text>
<text text-anchor="middle" x="1608.99" y="-519.78" font-family="Arial" font-size="14.00" fill="#333333">Minting notification</text>
</g>
<!-- CreateNFT&#45;&gt;CreateEvent -->
<g id="edge52" class="edge">
<title>CreateNFT-&gt;CreateEvent</title>
<path fill="none" stroke="#666666" stroke-width="1.2" d="M819.84,-877.24C845.97,-884.9 870.96,-892.16 872.48,-892.38 998.71,-910.39 1040.47,-938.41 1159.38,-892.38 1360.69,-814.46 1334.02,-677.46 1518.51,-565.38 1520.98,-563.87 1523.54,-562.42 1526.15,-561.02"/>
<polygon fill="#666666" stroke="#666666" stroke-width="1.2" points="1527.46,-564.28 1534.84,-556.68 1524.33,-558.02 1527.46,-564.28"/>
<text text-anchor="middle" x="1205.56" y="-891.09" font-family="Arial" font-size="14.00" fill="#666666">Emits</text>
</g>
<!-- TransferNFT&#45;&gt;NFTOwnership -->
<g id="edge11" class="edge">
<title>TransferNFT-&gt;NFTOwnership</title>
<path fill="none" stroke="#666666" stroke-width="1.2" d="M831.27,-785.99C865.75,-783.76 907.55,-782.97 944.84,-787.58 953.62,-788.66 962.71,-790.22 971.74,-792.04"/>
<polygon fill="#666666" stroke="#666666" stroke-width="1.2" points="970.81,-795.42 981.32,-794.1 972.28,-788.58 970.81,-795.42"/>
<text text-anchor="middle" x="908.66" y="-791.78" font-family="Arial" font-size="14.00" fill="#666666">Updates</text>
</g>
<!-- TransferEvent -->
<g id="node26" class="node">
<title>TransferEvent</title>
<path fill="#f5f5f5" stroke="#333333" d="M1669.76,-490.38C1669.76,-490.38 1548.22,-490.38 1548.22,-490.38 1542.22,-490.38 1536.22,-484.38 1536.22,-478.38 1536.22,-478.38 1536.22,-454.38 1536.22,-454.38 1536.22,-448.38 1542.22,-442.38 1548.22,-442.38 1548.22,-442.38 1669.76,-442.38 1669.76,-442.38 1675.76,-442.38 1681.76,-448.38 1681.76,-454.38 1681.76,-454.38 1681.76,-478.38 1681.76,-478.38 1681.76,-484.38 1675.76,-490.38 1669.76,-490.38"/>
<text text-anchor="middle" x="1608.99" y="-470.58" font-family="Arial" font-size="14.00" fill="#333333">Transfer Event</text>
<text text-anchor="middle" x="1608.99" y="-453.78" font-family="Arial" font-size="14.00" fill="#333333">Ownership change</text>
</g>
<!-- TransferNFT&#45;&gt;TransferEvent -->
<g id="edge53" class="edge">
<title>TransferNFT-&gt;TransferEvent</title>
<path fill="none" stroke="#666666" stroke-width="1.2" d="M831.3,-778.84C840.23,-774.26 848.35,-768.26 854.48,-760.38 883.64,-722.88 840.12,-582.16 872.48,-547.38 883.51,-535.52 1333.53,-492.09 1524.11,-474.18"/>
<polygon fill="#666666" stroke="#666666" stroke-width="1.2" points="1524.3,-477.68 1533.93,-473.26 1523.64,-470.71 1524.3,-477.68"/>
<text text-anchor="middle" x="1205.56" y="-513.14" font-family="Arial" font-size="14.00" fill="#666666">Emits</text>
</g>
<!-- BurnNFT&#45;&gt;NFTInfo -->
<g id="edge13" class="edge">
<title>BurnNFT-&gt;NFTInfo</title>
<path fill="none" stroke="#666666" stroke-width="1.2" d="M815.98,-608.03C860.43,-617.92 922.88,-631.83 972.88,-642.96"/>
<polygon fill="#666666" stroke="#666666" stroke-width="1.2" points="972.03,-646.36 982.55,-645.11 973.55,-639.52 972.03,-646.36"/>
<text text-anchor="middle" x="908.66" y="-640.43" font-family="Arial" font-size="14.00" fill="#666666">Deletes</text>
</g>
<!-- BurnNFT&#45;&gt;NFTOwnership -->
<g id="edge12" class="edge">
<title>BurnNFT-&gt;NFTOwnership</title>
<path fill="none" stroke="#666666" stroke-width="1.2" d="M815.93,-605.71C829.99,-610.6 844.02,-617.79 854.48,-628.38 872.26,-646.37 857.53,-661.97 872.48,-682.38 904.84,-726.56 956.24,-762.05 996.36,-785.22"/>
<polygon fill="#666666" stroke="#666666" stroke-width="1.2" points="994.55,-788.22 1004.98,-790.1 998,-782.13 994.55,-788.22"/>
<text text-anchor="middle" x="908.66" y="-754.74" font-family="Arial" font-size="14.00" fill="#666666">Updates</text>
</g>
<!-- BurnEvent -->
<g id="node27" class="node">
<title>BurnEvent</title>
<path fill="#f5f5f5" stroke="#333333" d="M1667.03,-622.38C1667.03,-622.38 1550.95,-622.38 1550.95,-622.38 1544.95,-622.38 1538.95,-616.38 1538.95,-610.38 1538.95,-610.38 1538.95,-586.38 1538.95,-586.38 1538.95,-580.38 1544.95,-574.38 1550.95,-574.38 1550.95,-574.38 1667.03,-574.38 1667.03,-574.38 1673.03,-574.38 1679.03,-580.38 1679.03,-586.38 1679.03,-586.38 1679.03,-610.38 1679.03,-610.38 1679.03,-616.38 1673.03,-622.38 1667.03,-622.38"/>
<text text-anchor="middle" x="1608.99" y="-602.58" font-family="Arial" font-size="14.00" fill="#333333">Burn Event</text>
<text text-anchor="middle" x="1608.99" y="-585.78" font-family="Arial" font-size="14.00" fill="#333333">Token destruction</text>
</g>
<!-- BurnNFT&#45;&gt;BurnEvent -->
<g id="edge54" class="edge">
<title>BurnNFT-&gt;BurnEvent</title>
<path fill="none" stroke="#666666" stroke-width="1.2" d="M815.92,-587.64C829.82,-583.49 843.76,-577.13 854.48,-567.38 870.41,-552.89 854.64,-534.46 872.48,-522.38 899.11,-504.35 912.74,-520.35 944.84,-522.38 1085.64,-531.29 1119.59,-546.24 1259.74,-562.38 1351.26,-572.92 1456.48,-583.6 1527.1,-590.56"/>
<polygon fill="#666666" stroke="#666666" stroke-width="1.2" points="1526.46,-594.01 1536.76,-591.51 1527.15,-587.04 1526.46,-594.01"/>
<text text-anchor="middle" x="1205.56" y="-564.35" font-family="Arial" font-size="14.00" fill="#666666">Emits</text>
</g>
<!-- GetNFTInfo&#45;&gt;NFTInfo -->
<g id="edge14" class="edge">
<title>GetNFTInfo-&gt;NFTInfo</title>
<path fill="none" stroke="#666666" stroke-width="1.2" d="M820.6,-661.38C864.62,-661.38 924.42,-661.38 972.68,-661.38"/>
<polygon fill="#666666" stroke="#666666" stroke-width="1.2" points="972.55,-664.88 982.55,-661.38 972.55,-657.88 972.55,-664.88"/>
<text text-anchor="middle" x="908.66" y="-665.58" font-family="Arial" font-size="14.00" fill="#666666">Reads</text>
</g>
<!-- Level1 -->
<g id="node14" class="node">
<title>Level1</title>
<path fill="#f5f5f5" stroke="#333333" d="M1408.93,-1545.38C1408.93,-1545.38 1284.29,-1545.38 1284.29,-1545.38 1278.29,-1545.38 1272.29,-1539.38 1272.29,-1533.38 1272.29,-1533.38 1272.29,-1509.38 1272.29,-1509.38 1272.29,-1503.38 1278.29,-1497.38 1284.29,-1497.38 1284.29,-1497.38 1408.93,-1497.38 1408.93,-1497.38 1414.93,-1497.38 1420.93,-1503.38 1420.93,-1509.38 1420.93,-1509.38 1420.93,-1533.38 1420.93,-1533.38 1420.93,-1539.38 1414.93,-1545.38 1408.93,-1545.38"/>
<text text-anchor="middle" x="1346.61" y="-1525.58" font-family="Arial" font-size="14.00" fill="#333333">Level 1: Use Model</text>
<text text-anchor="middle" x="1346.61" y="-1508.78" font-family="Arial" font-size="14.00" fill="#333333">Execution only</text>
</g>
<!-- AccessLevels&#45;&gt;Level1 -->
<g id="edge20" class="edge">
<title>AccessLevels-&gt;Level1</title>
<path fill="none" stroke="#666666" stroke-width="1.2" d="M1136.69,-1490.19C1175.1,-1495.92 1221.31,-1502.82 1260.49,-1508.67"/>
<polygon fill="#666666" stroke="#666666" stroke-width="1.2" points="1259.94,-1512.13 1270.35,-1510.14 1260.97,-1505.2 1259.94,-1512.13"/>
</g>
<!-- Level2 -->
<g id="node15" class="node">
<title>Level2</title>
<path fill="#f5f5f5" stroke="#333333" d="M1662.36,-1545.38C1662.36,-1545.38 1555.62,-1545.38 1555.62,-1545.38 1549.62,-1545.38 1543.62,-1539.38 1543.62,-1533.38 1543.62,-1533.38 1543.62,-1509.38 1543.62,-1509.38 1543.62,-1503.38 1549.62,-1497.38 1555.62,-1497.38 1555.62,-1497.38 1662.36,-1497.38 1662.36,-1497.38 1668.36,-1497.38 1674.36,-1503.38 1674.36,-1509.38 1674.36,-1509.38 1674.36,-1533.38 1674.36,-1533.38 1674.36,-1539.38 1668.36,-1545.38 1662.36,-1545.38"/>
<text text-anchor="middle" x="1608.99" y="-1525.58" font-family="Arial" font-size="14.00" fill="#333333">Level 2: Resale</text>
<text text-anchor="middle" x="1608.99" y="-1508.78" font-family="Arial" font-size="14.00" fill="#333333">Grant L1 access</text>
</g>
<!-- AccessLevels&#45;&gt;Level2 -->
<g id="edge21" class="edge">
<title>AccessLevels-&gt;Level2</title>
<path fill="none" stroke="#666666" stroke-width="1.2" d="M1107.26,-1502.81C1147.32,-1521.09 1205.7,-1544.56 1259.74,-1554.38 1352.57,-1571.25 1460.98,-1555.5 1531.87,-1540.5"/>
<polygon fill="#666666" stroke="#666666" stroke-width="1.2" points="1532.55,-1543.93 1541.58,-1538.39 1531.07,-1537.09 1532.55,-1543.93"/>
</g>
<!-- Level3 -->
<g id="node16" class="node">
<title>Level3</title>
<path fill="#f5f5f5" stroke="#333333" d="M1965.29,-1545.38C1965.29,-1545.38 1814.97,-1545.38 1814.97,-1545.38 1808.97,-1545.38 1802.97,-1539.38 1802.97,-1533.38 1802.97,-1533.38 1802.97,-1509.38 1802.97,-1509.38 1802.97,-1503.38 1808.97,-1497.38 1814.97,-1497.38 1814.97,-1497.38 1965.29,-1497.38 1965.29,-1497.38 1971.29,-1497.38 1977.29,-1503.38 1977.29,-1509.38 1977.29,-1509.38 1977.29,-1533.38 1977.29,-1533.38 1977.29,-1539.38 1971.29,-1545.38 1965.29,-1545.38"/>
<text text-anchor="middle" x="1890.13" y="-1525.58" font-family="Arial" font-size="14.00" fill="#333333">Level 3: Create Replica</text>
<text text-anchor="middle" x="1890.13" y="-1508.78" font-family="Arial" font-size="14.00" fill="#333333">Derivative works</text>
</g>
<!-- AccessLevels&#45;&gt;Level3 -->
<g id="edge22" class="edge">
<title>AccessLevels-&gt;Level3</title>
<path fill="none" stroke="#666666" stroke-width="1.2" d="M1091.85,-1502.58C1113.24,-1516.66 1141.86,-1533.69 1169.38,-1544.38 1207.64,-1559.23 1218.93,-1559.13 1259.74,-1563.38 1450.64,-1583.23 1500.52,-1573.58 1691.48,-1554.38 1724.16,-1551.09 1759.61,-1545.74 1791.35,-1540.3"/>
<polygon fill="#666666" stroke="#666666" stroke-width="1.2" points="1791.83,-1543.77 1801.08,-1538.6 1790.63,-1536.87 1791.83,-1543.77"/>
</g>
<!-- Level4 -->
<g id="node17" class="node">
<title>Level4</title>
<path fill="#f5f5f5" stroke="#333333" d="M2231.66,-1545.38C2231.66,-1545.38 2077.44,-1545.38 2077.44,-1545.38 2071.44,-1545.38 2065.44,-1539.38 2065.44,-1533.38 2065.44,-1533.38 2065.44,-1509.38 2065.44,-1509.38 2065.44,-1503.38 2071.44,-1497.38 2077.44,-1497.38 2077.44,-1497.38 2231.66,-1497.38 2231.66,-1497.38 2237.66,-1497.38 2243.66,-1503.38 2243.66,-1509.38 2243.66,-1509.38 2243.66,-1533.38 2243.66,-1533.38 2243.66,-1539.38 2237.66,-1545.38 2231.66,-1545.38"/>
<text text-anchor="middle" x="2154.55" y="-1525.58" font-family="Arial" font-size="14.00" fill="#333333">Level 4: View Download</text>
<text text-anchor="middle" x="2154.55" y="-1508.78" font-family="Arial" font-size="14.00" fill="#333333">See internals</text>
</g>
<!-- AccessLevels&#45;&gt;Level4 -->
<g id="edge23" class="edge">
<title>AccessLevels-&gt;Level4</title>
<path fill="none" stroke="#666666" stroke-width="1.2" d="M1136.76,-1478.38C1194.62,-1478.38 1274.98,-1478.38 1345.61,-1478.38 1345.61,-1478.38 1345.61,-1478.38 1891.13,-1478.38 1945.3,-1478.38 2004.95,-1487.41 2053.67,-1497.2"/>
<polygon fill="#666666" stroke="#666666" stroke-width="1.2" points="2052.88,-1500.61 2063.38,-1499.2 2054.29,-1493.76 2052.88,-1500.61"/>
</g>
<!-- Level5 -->
<g id="node18" class="node">
<title>Level5</title>
<path fill="#f5f5f5" stroke="#333333" d="M2459.11,-1545.38C2459.11,-1545.38 2343.8,-1545.38 2343.8,-1545.38 2337.8,-1545.38 2331.8,-1539.38 2331.8,-1533.38 2331.8,-1533.38 2331.8,-1509.38 2331.8,-1509.38 2331.8,-1503.38 2337.8,-1497.38 2343.8,-1497.38 2343.8,-1497.38 2459.11,-1497.38 2459.11,-1497.38 2465.11,-1497.38 2471.11,-1503.38 2471.11,-1509.38 2471.11,-1509.38 2471.11,-1533.38 2471.11,-1533.38 2471.11,-1539.38 2465.11,-1545.38 2459.11,-1545.38"/>
<text text-anchor="middle" x="2401.46" y="-1525.58" font-family="Arial" font-size="14.00" fill="#333333">Level 5: Edit Data</text>
<text text-anchor="middle" x="2401.46" y="-1508.78" font-family="Arial" font-size="14.00" fill="#333333">Modify workflow</text>
</g>
<!-- AccessLevels&#45;&gt;Level5 -->
<g id="edge24" class="edge">
<title>AccessLevels-&gt;Level5</title>
<path fill="none" stroke="#666666" stroke-width="1.2" d="M1136.66,-1469.93C1194.46,-1464.47 1274.81,-1458.38 1345.61,-1458.38 1345.61,-1458.38 1345.61,-1458.38 2155.55,-1458.38 2215.62,-1458.38 2281.45,-1476.38 2329.72,-1493.14"/>
<polygon fill="#666666" stroke="#666666" stroke-width="1.2" points="2328.36,-1496.37 2338.95,-1496.41 2330.7,-1489.77 2328.36,-1496.37"/>
</g>
<!-- Level6 -->
<g id="node19" class="node">
<title>Level6</title>
<path fill="#f5f5f5" stroke="#333333" d="M2683.46,-1545.38C2683.46,-1545.38 2571.26,-1545.38 2571.26,-1545.38 2565.26,-1545.38 2559.26,-1539.38 2559.26,-1533.38 2559.26,-1533.38 2559.26,-1509.38 2559.26,-1509.38 2559.26,-1503.38 2565.26,-1497.38 2571.26,-1497.38 2571.26,-1497.38 2683.46,-1497.38 2683.46,-1497.38 2689.46,-1497.38 2695.46,-1503.38 2695.46,-1509.38 2695.46,-1509.38 2695.46,-1533.38 2695.46,-1533.38 2695.46,-1539.38 2689.46,-1545.38 2683.46,-1545.38"/>
<text text-anchor="middle" x="2627.36" y="-1525.58" font-family="Arial" font-size="14.00" fill="#333333">Level 6: Absolute</text>
<text text-anchor="middle" x="2627.36" y="-1508.78" font-family="Arial" font-size="14.00" fill="#333333">Complete control</text>
</g>
<!-- AccessLevels&#45;&gt;Level6 -->
<g id="edge25" class="edge">
<title>AccessLevels-&gt;Level6</title>
<path fill="none" stroke="#666666" stroke-width="1.2" d="M1136.66,-1461.42C1194.29,-1450.51 1274.43,-1438.38 1345.61,-1438.38 1345.61,-1438.38 1345.61,-1438.38 2402.46,-1438.38 2465.4,-1438.38 2532.44,-1467.57 2576.57,-1491.33"/>
<polygon fill="#666666" stroke="#666666" stroke-width="1.2" points="2574.69,-1494.29 2585.14,-1496.05 2578.07,-1488.16 2574.69,-1494.29"/>
</g>
<!-- GrantAccess -->
<g id="node20" class="node">
<title>GrantAccess</title>
<path fill="#f5f5f5" stroke="#333333" d="M1405.81,-1396.38C1405.81,-1396.38 1287.41,-1396.38 1287.41,-1396.38 1281.41,-1396.38 1275.41,-1390.38 1275.41,-1384.38 1275.41,-1384.38 1275.41,-1360.38 1275.41,-1360.38 1275.41,-1354.38 1281.41,-1348.38 1287.41,-1348.38 1287.41,-1348.38 1405.81,-1348.38 1405.81,-1348.38 1411.81,-1348.38 1417.81,-1354.38 1417.81,-1360.38 1417.81,-1360.38 1417.81,-1384.38 1417.81,-1384.38 1417.81,-1390.38 1411.81,-1396.38 1405.81,-1396.38"/>
<text text-anchor="middle" x="1346.61" y="-1376.58" font-family="Arial" font-size="14.00" fill="#333333">Grant Access</text>
<text text-anchor="middle" x="1346.61" y="-1359.78" font-family="Arial" font-size="14.00" fill="#333333">Assign permission</text>
</g>
<!-- PermissionManager&#45;&gt;GrantAccess -->
<g id="edge26" class="edge">
<title>PermissionManager-&gt;GrantAccess</title>
<path fill="none" stroke="#666666" stroke-width="1.2" d="M1128.8,-1297.85C1169.87,-1311.97 1221.65,-1329.77 1264.32,-1344.43"/>
<polygon fill="#666666" stroke="#666666" stroke-width="1.2" points="1262.92,-1347.66 1273.52,-1347.6 1265.2,-1341.04 1262.92,-1347.66"/>
</g>
<!-- RevokeAccess -->
<g id="node21" class="node">
<title>RevokeAccess</title>
<path fill="#f5f5f5" stroke="#333333" d="M1410.86,-1330.38C1410.86,-1330.38 1282.35,-1330.38 1282.35,-1330.38 1276.35,-1330.38 1270.35,-1324.38 1270.35,-1318.38 1270.35,-1318.38 1270.35,-1294.38 1270.35,-1294.38 1270.35,-1288.38 1276.35,-1282.38 1282.35,-1282.38 1282.35,-1282.38 1410.86,-1282.38 1410.86,-1282.38 1416.86,-1282.38 1422.86,-1288.38 1422.86,-1294.38 1422.86,-1294.38 1422.86,-1318.38 1422.86,-1318.38 1422.86,-1324.38 1416.86,-1330.38 1410.86,-1330.38"/>
<text text-anchor="middle" x="1346.61" y="-1310.58" font-family="Arial" font-size="14.00" fill="#333333">Revoke Access</text>
<text text-anchor="middle" x="1346.61" y="-1293.78" font-family="Arial" font-size="14.00" fill="#333333">Remove permission</text>
</g>
<!-- PermissionManager&#45;&gt;RevokeAccess -->
<g id="edge27" class="edge">
<title>PermissionManager-&gt;RevokeAccess</title>
<path fill="none" stroke="#666666" stroke-width="1.2" d="M1135.55,-1282.31C1173.52,-1286.66 1219.32,-1291.91 1258.45,-1296.39"/>
<polygon fill="#666666" stroke="#666666" stroke-width="1.2" points="1257.96,-1299.86 1268.29,-1297.52 1258.76,-1292.9 1257.96,-1299.86"/>
</g>
<!-- SetDefaultAccess -->
<g id="node23" class="node">
<title>SetDefaultAccess</title>
<path fill="#f5f5f5" stroke="#333333" d="M1408.15,-1264.38C1408.15,-1264.38 1285.07,-1264.38 1285.07,-1264.38 1279.07,-1264.38 1273.07,-1258.38 1273.07,-1252.38 1273.07,-1252.38 1273.07,-1228.38 1273.07,-1228.38 1273.07,-1222.38 1279.07,-1216.38 1285.07,-1216.38 1285.07,-1216.38 1408.15,-1216.38 1408.15,-1216.38 1414.15,-1216.38 1420.15,-1222.38 1420.15,-1228.38 1420.15,-1228.38 1420.15,-1252.38 1420.15,-1252.38 1420.15,-1258.38 1414.15,-1264.38 1408.15,-1264.38"/>
<text text-anchor="middle" x="1346.61" y="-1244.58" font-family="Arial" font-size="14.00" fill="#333333">Set Default Access</text>
<text text-anchor="middle" x="1346.61" y="-1227.78" font-family="Arial" font-size="14.00" fill="#333333">Default permission</text>
</g>
<!-- PermissionManager&#45;&gt;SetDefaultAccess -->
<g id="edge28" class="edge">
<title>PermissionManager-&gt;SetDefaultAccess</title>
<path fill="none" stroke="#666666" stroke-width="1.2" d="M1135.55,-1264.45C1174.51,-1259.98 1221.72,-1254.58 1261.5,-1250.02"/>
<polygon fill="#666666" stroke="#666666" stroke-width="1.2" points="1261.71,-1253.52 1271.25,-1248.9 1260.91,-1246.56 1261.71,-1253.52"/>
</g>
<!-- CheckAccess -->
<g id="node22" class="node">
<title>CheckAccess</title>
<path fill="#f5f5f5" stroke="#333333" d="M1402.69,-1132.38C1402.69,-1132.38 1290.53,-1132.38 1290.53,-1132.38 1284.53,-1132.38 1278.53,-1126.38 1278.53,-1120.38 1278.53,-1120.38 1278.53,-1096.38 1278.53,-1096.38 1278.53,-1090.38 1284.53,-1084.38 1290.53,-1084.38 1290.53,-1084.38 1402.69,-1084.38 1402.69,-1084.38 1408.69,-1084.38 1414.69,-1090.38 1414.69,-1096.38 1414.69,-1096.38 1414.69,-1120.38 1414.69,-1120.38 1414.69,-1126.38 1408.69,-1132.38 1402.69,-1132.38"/>
<text text-anchor="middle" x="1346.61" y="-1112.58" font-family="Arial" font-size="14.00" fill="#333333">Check Access</text>
<text text-anchor="middle" x="1346.61" y="-1095.78" font-family="Arial" font-size="14.00" fill="#333333">Verify permission</text>
</g>
<!-- VerificationLogic&#45;&gt;CheckAccess -->
<g id="edge29" class="edge">
<title>VerificationLogic-&gt;CheckAccess</title>
<path fill="none" stroke="#666666" stroke-width="1.2" d="M1124.77,-1154.39C1167.28,-1145.53 1222.42,-1134.04 1266.96,-1124.76"/>
<polygon fill="#666666" stroke="#666666" stroke-width="1.2" points="1267.49,-1128.23 1276.56,-1122.76 1266.06,-1121.38 1267.49,-1128.23"/>
</g>
<!-- GetAccessLevel -->
<g id="node24" class="node">
<title>GetAccessLevel</title>
<path fill="#f5f5f5" stroke="#333333" d="M1403.48,-1198.38C1403.48,-1198.38 1289.74,-1198.38 1289.74,-1198.38 1283.74,-1198.38 1277.74,-1192.38 1277.74,-1186.38 1277.74,-1186.38 1277.74,-1162.38 1277.74,-1162.38 1277.74,-1156.38 1283.74,-1150.38 1289.74,-1150.38 1289.74,-1150.38 1403.48,-1150.38 1403.48,-1150.38 1409.48,-1150.38 1415.48,-1156.38 1415.48,-1162.38 1415.48,-1162.38 1415.48,-1186.38 1415.48,-1186.38 1415.48,-1192.38 1409.48,-1198.38 1403.48,-1198.38"/>
<text text-anchor="middle" x="1346.61" y="-1178.58" font-family="Arial" font-size="14.00" fill="#333333">Get Access Level</text>
<text text-anchor="middle" x="1346.61" y="-1161.78" font-family="Arial" font-size="14.00" fill="#333333">Read permission</text>
</g>
<!-- VerificationLogic&#45;&gt;GetAccessLevel -->
<g id="edge30" class="edge">
<title>VerificationLogic-&gt;GetAccessLevel</title>
<path fill="none" stroke="#666666" stroke-width="1.2" d="M1124.77,-1169.78C1166.88,-1170.66 1221.39,-1171.79 1265.72,-1172.71"/>
<polygon fill="#666666" stroke="#666666" stroke-width="1.2" points="1265.46,-1176.21 1275.53,-1172.92 1265.6,-1169.21 1265.46,-1176.21"/>
</g>
<!-- AccessVerifier -->
<g id="node46" class="node">
<title>AccessVerifier</title>
<path fill="#e9d7fe" stroke="#333333" d="M1410.49,-1684.38C1410.49,-1684.38 1282.73,-1684.38 1282.73,-1684.38 1276.73,-1684.38 1270.73,-1678.38 1270.73,-1672.38 1270.73,-1672.38 1270.73,-1648.38 1270.73,-1648.38 1270.73,-1642.38 1276.73,-1636.38 1282.73,-1636.38 1282.73,-1636.38 1410.49,-1636.38 1410.49,-1636.38 1416.49,-1636.38 1422.49,-1642.38 1422.49,-1648.38 1422.49,-1648.38 1422.49,-1672.38 1422.49,-1672.38 1422.49,-1678.38 1416.49,-1684.38 1410.49,-1684.38"/>
<text text-anchor="middle" x="1346.61" y="-1664.58" font-family="Arial" font-size="14.00" fill="#333333">Access Verifier</text>
<text text-anchor="middle" x="1346.61" y="-1647.78" font-family="Arial" font-size="14.00" fill="#333333">Checkpoint function</text>
</g>
<!-- VerificationLogic&#45;&gt;AccessVerifier -->
<g id="edge80" class="edge">
<title>VerificationLogic-&gt;AccessVerifier</title>
<path fill="none" stroke="#666666" stroke-width="1.2" d="M1105.4,-1192.86C1124.62,-1204.84 1145.48,-1220.92 1159.38,-1240.38 1251.46,-1369.28 1175.68,-1448.12 1259.74,-1582.38 1270.73,-1599.93 1286.74,-1615.97 1301.97,-1628.87"/>
<polygon fill="#666666" stroke="#666666" stroke-width="1.2" points="1299.44,-1631.32 1309.4,-1634.95 1303.88,-1625.91 1299.44,-1631.32"/>
<text text-anchor="middle" x="1205.56" y="-1547.86" font-family="Arial" font-size="14.00" fill="#666666">Implements</text>
</g>
<!-- DefaultAccessTable2 -->
<g id="node40" class="node">
<title>DefaultAccessTable2</title>
<path fill="#f5f5f5" stroke="#333333" d="M2223.09,-358.38C2223.09,-358.38 2086.01,-358.38 2086.01,-358.38 2080.01,-358.38 2074.01,-352.38 2074.01,-346.38 2074.01,-346.38 2074.01,-322.38 2074.01,-322.38 2074.01,-316.38 2080.01,-310.38 2086.01,-310.38 2086.01,-310.38 2223.09,-310.38 2223.09,-310.38 2229.09,-310.38 2235.09,-316.38 2235.09,-322.38 2235.09,-322.38 2235.09,-346.38 2235.09,-346.38 2235.09,-352.38 2229.09,-358.38 2223.09,-358.38"/>
<text text-anchor="middle" x="2154.55" y="-338.58" font-family="Arial" font-size="14.00" fill="#333333">Default Access Table</text>
<text text-anchor="middle" x="2154.55" y="-321.78" font-family="Arial" font-size="14.00" fill="#333333">Default settings</text>
</g>
<!-- DefaultAccessTable&#45;&gt;DefaultAccessTable2 -->
<g id="edge65" class="edge">
<title>DefaultAccessTable-&gt;DefaultAccessTable2</title>
<path fill="none" stroke="#666666" stroke-width="1.2" d="M1097.46,-1076C1151.58,-1045.26 1252.31,-996.38 1345.61,-996.38 1345.61,-996.38 1345.61,-996.38 1891.13,-996.38 1982.63,-996.38 2001.16,-941.32 2047.44,-862.38 2143.96,-697.71 2154.02,-459.9 2154.13,-370.32"/>
<polygon fill="#666666" stroke="#666666" stroke-width="1.2" points="2157.63,-370.49 2154.09,-360.5 2150.63,-370.52 2157.63,-370.49"/>
<text text-anchor="middle" x="1608.99" y="-1000.58" font-family="Arial" font-size="14.00" fill="#666666">Stored in</text>
</g>
<!-- Level1&#45;&gt;Level2 -->
<g id="edge15" class="edge">
<title>Level1-&gt;Level2</title>
<path fill="none" stroke="#666666" stroke-width="1.2" d="M1432.54,-1515.4C1439.28,-1515.07 1445.99,-1514.79 1452.47,-1514.58 1477.36,-1513.77 1483.62,-1513.73 1508.51,-1514.58 1519.75,-1514.96 1531.7,-1515.59 1543.27,-1516.31"/>
<polygon fill="#666666" stroke="#666666" stroke-width="1.2" points="1432.82,-1511.88 1423.01,-1515.91 1433.18,-1518.87 1432.82,-1511.88"/>
<text text-anchor="middle" x="1480.49" y="-1518.78" font-family="Arial" font-size="14.00" fill="#666666">Includes</text>
</g>
<!-- Level2&#45;&gt;Level3 -->
<g id="edge16" class="edge">
<title>Level2-&gt;Level3</title>
<path fill="none" stroke="#666666" stroke-width="1.2" d="M1686.46,-1515.62C1694.23,-1515.2 1702.01,-1514.83 1709.48,-1514.58 1743.01,-1513.43 1751.44,-1513.49 1784.97,-1514.58 1790.67,-1514.77 1796.55,-1515.01 1802.47,-1515.29"/>
<polygon fill="#666666" stroke="#666666" stroke-width="1.2" points="1686.3,-1512.13 1676.53,-1516.21 1686.72,-1519.11 1686.3,-1512.13"/>
<text text-anchor="middle" x="1747.22" y="-1518.78" font-family="Arial" font-size="14.00" fill="#666666">Includes</text>
</g>
<!-- Level3&#45;&gt;Level4 -->
<g id="edge17" class="edge">
<title>Level3-&gt;Level4</title>
<path fill="none" stroke="#666666" stroke-width="1.2" d="M1989.45,-1521.38C2014.31,-1521.38 2040.86,-1521.38 2065.19,-1521.38"/>
<polygon fill="#666666" stroke="#666666" stroke-width="1.2" points="1989.6,-1517.88 1979.6,-1521.38 1989.6,-1524.88 1989.6,-1517.88"/>
<text text-anchor="middle" x="2021.36" y="-1525.58" font-family="Arial" font-size="14.00" fill="#666666">Includes</text>
</g>
<!-- Level4&#45;&gt;Level5 -->
<g id="edge18" class="edge">
<title>Level4-&gt;Level5</title>
<path fill="none" stroke="#666666" stroke-width="1.2" d="M2255.56,-1521.38C2281.03,-1521.38 2307.84,-1521.38 2331.38,-1521.38"/>
<polygon fill="#666666" stroke="#666666" stroke-width="1.2" points="2255.78,-1517.88 2245.78,-1521.38 2255.78,-1524.88 2255.78,-1517.88"/>
<text text-anchor="middle" x="2287.73" y="-1525.58" font-family="Arial" font-size="14.00" fill="#666666">Includes</text>
</g>
<!-- Level5&#45;&gt;Level6 -->
<g id="edge19" class="edge">
<title>Level5-&gt;Level6</title>
<path fill="none" stroke="#666666" stroke-width="1.2" d="M2483.11,-1521.38C2508.03,-1521.38 2535.2,-1521.38 2559.12,-1521.38"/>
<polygon fill="#666666" stroke="#666666" stroke-width="1.2" points="2483.28,-1517.88 2473.28,-1521.38 2483.28,-1524.88 2483.28,-1517.88"/>
<text text-anchor="middle" x="2515.18" y="-1525.58" font-family="Arial" font-size="14.00" fill="#666666">Includes</text>
</g>
<!-- AccessGrantEvent -->
<g id="node28" class="node">
<title>AccessGrantEvent</title>
<path fill="#f5f5f5" stroke="#333333" d="M1673.25,-754.38C1673.25,-754.38 1544.73,-754.38 1544.73,-754.38 1538.73,-754.38 1532.73,-748.38 1532.73,-742.38 1532.73,-742.38 1532.73,-718.38 1532.73,-718.38 1532.73,-712.38 1538.73,-706.38 1544.73,-706.38 1544.73,-706.38 1673.25,-706.38 1673.25,-706.38 1679.25,-706.38 1685.25,-712.38 1685.25,-718.38 1685.25,-718.38 1685.25,-742.38 1685.25,-742.38 1685.25,-748.38 1679.25,-754.38 1673.25,-754.38"/>
<text text-anchor="middle" x="1608.99" y="-734.58" font-family="Arial" font-size="14.00" fill="#333333">Access Grant Event</text>
<text text-anchor="middle" x="1608.99" y="-717.78" font-family="Arial" font-size="14.00" fill="#333333">Permission granted</text>
</g>
<!-- GrantAccess&#45;&gt;AccessGrantEvent -->
<g id="edge55" class="edge">
<title>GrantAccess-&gt;AccessGrantEvent</title>
<path fill="none" stroke="#666666" stroke-width="1.2" d="M1418.1,-1353.62C1424.3,-1349.73 1429.93,-1345.04 1434.47,-1339.38 1451.74,-1317.88 1448.35,-1243.85 1452.47,-1216.58 1480.95,-1028.36 1418.02,-955.06 1518.51,-793.38 1526.26,-780.9 1537.5,-770.21 1549.4,-761.37"/>
<polygon fill="#666666" stroke="#666666" stroke-width="1.2" points="1551.33,-764.29 1557.55,-755.71 1547.34,-758.54 1551.33,-764.29"/>
<text text-anchor="middle" x="1480.49" y="-1220.78" font-family="Arial" font-size="14.00" fill="#666666">Emits</text>
</g>
<!-- AccessRevokeEvent -->
<g id="node29" class="node">
<title>AccessRevokeEvent</title>
<path fill="#f5f5f5" stroke="#333333" d="M1679.48,-688.38C1679.48,-688.38 1538.51,-688.38 1538.51,-688.38 1532.51,-688.38 1526.51,-682.38 1526.51,-676.38 1526.51,-676.38 1526.51,-652.38 1526.51,-652.38 1526.51,-646.38 1532.51,-640.38 1538.51,-640.38 1538.51,-640.38 1679.48,-640.38 1679.48,-640.38 1685.48,-640.38 1691.48,-646.38 1691.48,-652.38 1691.48,-652.38 1691.48,-676.38 1691.48,-676.38 1691.48,-682.38 1685.48,-688.38 1679.48,-688.38"/>
<text text-anchor="middle" x="1608.99" y="-668.58" font-family="Arial" font-size="14.00" fill="#333333">Access Revoke Event</text>
<text text-anchor="middle" x="1608.99" y="-651.78" font-family="Arial" font-size="14.00" fill="#333333">Permission removed</text>
</g>
<!-- RevokeAccess&#45;&gt;AccessRevokeEvent -->
<g id="edge56" class="edge">
<title>RevokeAccess-&gt;AccessRevokeEvent</title>
<path fill="none" stroke="#666666" stroke-width="1.2" d="M1423.07,-1285.02C1427.39,-1281.69 1431.27,-1277.84 1434.47,-1273.38 1465.71,-1229.86 1435.4,-842.36 1452.47,-791.58 1468.77,-743.12 1478,-728.58 1518.51,-697.38 1519.52,-696.6 1520.56,-695.83 1521.62,-695.08"/>
<polygon fill="#666666" stroke="#666666" stroke-width="1.2" points="1523.44,-698.07 1530.02,-689.76 1519.7,-692.15 1523.44,-698.07"/>
<text text-anchor="middle" x="1480.49" y="-795.78" font-family="Arial" font-size="14.00" fill="#666666">Emits</text>
</g>
<!-- TokenFields -->
<g id="node30" class="node">
<title>TokenFields</title>
<path fill="#f5f5f5" stroke="#333333" d="M1932.61,-589.38C1932.61,-589.38 1847.65,-589.38 1847.65,-589.38 1841.65,-589.38 1835.65,-583.38 1835.65,-577.38 1835.65,-577.38 1835.65,-553.38 1835.65,-553.38 1835.65,-547.38 1841.65,-541.38 1847.65,-541.38 1847.65,-541.38 1932.61,-541.38 1932.61,-541.38 1938.61,-541.38 1944.61,-547.38 1944.61,-553.38 1944.61,-553.38 1944.61,-577.38 1944.61,-577.38 1944.61,-583.38 1938.61,-589.38 1932.61,-589.38"/>
<text text-anchor="middle" x="1890.13" y="-569.58" font-family="Arial" font-size="14.00" fill="#333333">Token Fields</text>
<text text-anchor="middle" x="1890.13" y="-552.78" font-family="Arial" font-size="14.00" fill="#333333">ID, metadata</text>
</g>
<!-- CreateEvent&#45;&gt;TokenFields -->
<g id="edge35" class="edge">
<title>CreateEvent-&gt;TokenFields</title>
<path fill="none" stroke="#666666" stroke-width="1.2" d="M1681.84,-553.98C1691.08,-556.13 1700.45,-558.02 1709.48,-559.38 1747.02,-565.02 1789.45,-566.66 1823.65,-566.82"/>
<polygon fill="#666666" stroke="#666666" stroke-width="1.2" points="1823.56,-570.32 1833.56,-566.82 1823.56,-563.32 1823.56,-570.32"/>
</g>
<!-- AddressFields -->
<g id="node31" class="node">
<title>AddressFields</title>
<path fill="#f5f5f5" stroke="#333333" d="M1943.89,-655.38C1943.89,-655.38 1836.37,-655.38 1836.37,-655.38 1830.37,-655.38 1824.37,-649.38 1824.37,-643.38 1824.37,-643.38 1824.37,-619.38 1824.37,-619.38 1824.37,-613.38 1830.37,-607.38 1836.37,-607.38 1836.37,-607.38 1943.89,-607.38 1943.89,-607.38 1949.89,-607.38 1955.89,-613.38 1955.89,-619.38 1955.89,-619.38 1955.89,-643.38 1955.89,-643.38 1955.89,-649.38 1949.89,-655.38 1943.89,-655.38"/>
<text text-anchor="middle" x="1890.13" y="-635.58" font-family="Arial" font-size="14.00" fill="#333333">Address Fields</text>
<text text-anchor="middle" x="1890.13" y="-618.78" font-family="Arial" font-size="14.00" fill="#333333">Sender, receiver</text>
</g>
<!-- CreateEvent&#45;&gt;AddressFields -->
<g id="edge36" class="edge">
<title>CreateEvent-&gt;AddressFields</title>
<path fill="none" stroke="#666666" stroke-width="1.2" d="M1681.41,-556.61C1685.04,-559.25 1688.44,-562.16 1691.48,-565.38 1708.56,-583.47 1689.79,-603.17 1709.48,-618.38 1713.74,-621.67 1765.48,-625.19 1812.35,-627.73"/>
<polygon fill="#666666" stroke="#666666" stroke-width="1.2" points="1812.14,-631.23 1822.31,-628.26 1812.51,-624.24 1812.14,-631.23"/>
</g>
<!-- TimestampFields -->
<g id="node32" class="node">
<title>TimestampFields</title>
<path fill="#f5f5f5" stroke="#333333" d="M1947.76,-523.38C1947.76,-523.38 1832.5,-523.38 1832.5,-523.38 1826.5,-523.38 1820.5,-517.38 1820.5,-511.38 1820.5,-511.38 1820.5,-487.38 1820.5,-487.38 1820.5,-481.38 1826.5,-475.38 1832.5,-475.38 1832.5,-475.38 1947.76,-475.38 1947.76,-475.38 1953.76,-475.38 1959.76,-481.38 1959.76,-487.38 1959.76,-487.38 1959.76,-511.38 1959.76,-511.38 1959.76,-517.38 1953.76,-523.38 1947.76,-523.38"/>
<text text-anchor="middle" x="1890.13" y="-503.58" font-family="Arial" font-size="14.00" fill="#333333">Timestamp Fields</text>
<text text-anchor="middle" x="1890.13" y="-486.78" font-family="Arial" font-size="14.00" fill="#333333">Event time</text>
</g>
<!-- CreateEvent&#45;&gt;TimestampFields -->
<g id="edge37" class="edge">
<title>CreateEvent-&gt;TimestampFields</title>
<path fill="none" stroke="#666666" stroke-width="1.2" d="M1681.83,-534.1C1713.59,-533.89 1751.29,-532.32 1784.97,-527.38 1792.78,-526.23 1800.84,-524.71 1808.85,-522.96"/>
<polygon fill="#666666" stroke="#666666" stroke-width="1.2" points="1809.41,-526.42 1818.36,-520.76 1807.83,-519.6 1809.41,-526.42"/>
</g>
<!-- EventStore -->
<g id="node36" class="node">
<title>EventStore</title>
<path fill="#f5f5f5" stroke="#333333" d="M1932.99,-391.38C1932.99,-391.38 1847.27,-391.38 1847.27,-391.38 1841.27,-391.38 1835.27,-385.38 1835.27,-379.38 1835.27,-379.38 1835.27,-355.38 1835.27,-355.38 1835.27,-349.38 1841.27,-343.38 1847.27,-343.38 1847.27,-343.38 1932.99,-343.38 1932.99,-343.38 1938.99,-343.38 1944.99,-349.38 1944.99,-355.38 1944.99,-355.38 1944.99,-379.38 1944.99,-379.38 1944.99,-385.38 1938.99,-391.38 1932.99,-391.38"/>
<text text-anchor="middle" x="1890.13" y="-371.58" font-family="Arial" font-size="14.00" fill="#333333">Event Store</text>
<text text-anchor="middle" x="1890.13" y="-354.78" font-family="Arial" font-size="14.00" fill="#333333">Event history</text>
</g>
<!-- CreateEvent&#45;&gt;EventStore -->
<g id="edge66" class="edge">
<title>CreateEvent-&gt;EventStore</title>
<path fill="none" stroke="#666666" stroke-width="1.2" d="M1681.74,-509.02C1685.34,-506.17 1688.64,-502.97 1691.48,-499.38 1723.83,-458.56 1671.49,-419.21 1709.48,-383.58 1725.68,-368.39 1779.07,-365.06 1823.47,-365.11"/>
<polygon fill="#666666" stroke="#666666" stroke-width="1.2" points="1823.28,-368.61 1833.31,-365.18 1823.33,-361.61 1823.28,-368.61"/>
<text text-anchor="middle" x="1747.22" y="-387.78" font-family="Arial" font-size="14.00" fill="#666666">Recorded in</text>
</g>
<!-- TransferEvent&#45;&gt;TokenFields -->
<g id="edge38" class="edge">
<title>TransferEvent-&gt;TokenFields</title>
<path fill="none" stroke="#666666" stroke-width="1.2" d="M1679.34,-490.8C1683.63,-493.41 1687.72,-496.26 1691.48,-499.38 1702.87,-508.82 1697.3,-518.98 1709.48,-527.38 1742.86,-550.41 1787.44,-559.94 1823.84,-563.69"/>
<polygon fill="#666666" stroke="#666666" stroke-width="1.2" points="1823.26,-567.15 1833.53,-564.56 1823.88,-560.18 1823.26,-567.15"/>
</g>
<!-- TransferEvent&#45;&gt;AddressFields -->
<g id="edge39" class="edge">
<title>TransferEvent-&gt;AddressFields</title>
<path fill="none" stroke="#666666" stroke-width="1.2" d="M1681.29,-490.73C1684.96,-493.33 1688.39,-496.21 1691.48,-499.38 1707.38,-515.7 1694.54,-530.18 1709.48,-547.38 1740.51,-583.12 1760,-578.54 1802.97,-598.38 1806.39,-599.96 1809.9,-601.52 1813.47,-603.07"/>
<polygon fill="#666666" stroke="#666666" stroke-width="1.2" points="1812.03,-606.26 1822.61,-606.91 1814.75,-599.81 1812.03,-606.26"/>
</g>
<!-- TransferEvent&#45;&gt;TimestampFields -->
<g id="edge40" class="edge">
<title>TransferEvent-&gt;TimestampFields</title>
<path fill="none" stroke="#666666" stroke-width="1.2" d="M1677.63,-490.72C1682.47,-493.38 1687.14,-496.26 1691.48,-499.38 1701.46,-506.56 1698.31,-515.24 1709.48,-520.38 1727.07,-528.47 1769.41,-523.89 1808.56,-516.97"/>
<polygon fill="#666666" stroke="#666666" stroke-width="1.2" points="1809.05,-520.44 1818.25,-515.19 1807.78,-513.56 1809.05,-520.44"/>
</g>
<!-- TransferEvent&#45;&gt;EventStore -->
<g id="edge67" class="edge">
<title>TransferEvent-&gt;EventStore</title>
<path fill="none" stroke="#666666" stroke-width="1.2" d="M1638.13,-441.9C1655.1,-426.12 1676.29,-404.48 1691.48,-382.38 1702.25,-366.71 1693.46,-353.81 1709.48,-343.58 1743.48,-321.87 1788.5,-327.88 1824.96,-339.29"/>
<polygon fill="#666666" stroke="#666666" stroke-width="1.2" points="1823.67,-342.55 1834.26,-342.4 1825.89,-335.91 1823.67,-342.55"/>
<text text-anchor="middle" x="1747.22" y="-347.78" font-family="Arial" font-size="14.00" fill="#666666">Recorded in</text>
</g>
<!-- BurnEvent&#45;&gt;TokenFields -->
<g id="edge41" class="edge">
<title>BurnEvent-&gt;TokenFields</title>
<path fill="none" stroke="#666666" stroke-width="1.2" d="M1679.3,-589.99C1689.42,-588.77 1699.72,-587.54 1709.48,-586.38 1747.28,-581.89 1789.55,-576.94 1823.6,-572.98"/>
<polygon fill="#666666" stroke="#666666" stroke-width="1.2" points="1823.94,-576.46 1833.47,-571.83 1823.13,-569.51 1823.94,-576.46"/>
</g>
<!-- BurnEvent&#45;&gt;AddressFields -->
<g id="edge42" class="edge">
<title>BurnEvent-&gt;AddressFields</title>
<path fill="none" stroke="#666666" stroke-width="1.2" d="M1679.36,-620.24C1689.38,-622.72 1699.63,-624.88 1709.48,-626.38 1743,-631.48 1780.42,-633.15 1812.41,-633.39"/>
<polygon fill="#666666" stroke="#666666" stroke-width="1.2" points="1812.1,-636.89 1822.11,-633.41 1812.12,-629.89 1812.1,-636.89"/>
</g>
<!-- BurnEvent&#45;&gt;TimestampFields -->
<g id="edge43" class="edge">
<title>BurnEvent-&gt;TimestampFields</title>
<path fill="none" stroke="#666666" stroke-width="1.2" d="M1677.63,-574.03C1682.47,-571.38 1687.14,-568.5 1691.48,-565.38 1701.46,-558.2 1698.67,-550.24 1709.48,-544.38 1739.23,-528.24 1752,-542.03 1784.97,-534.38 1793.66,-532.36 1802.65,-529.92 1811.54,-527.26"/>
<polygon fill="#666666" stroke="#666666" stroke-width="1.2" points="1812.46,-530.64 1820.98,-524.34 1810.39,-523.95 1812.46,-530.64"/>
</g>
<!-- BurnEvent&#45;&gt;EventStore -->
<g id="edge68" class="edge">
<title>BurnEvent-&gt;EventStore</title>
<path fill="none" stroke="#666666" stroke-width="1.2" d="M1679.3,-577.07C1683.88,-573.72 1688.03,-569.85 1691.48,-565.38 1730.23,-515.04 1668.58,-472.19 1709.48,-423.58 1732.08,-396.72 1751.46,-410.84 1784.97,-400.38 1797.5,-396.47 1810.88,-392.26 1823.72,-388.2"/>
<polygon fill="#666666" stroke="#666666" stroke-width="1.2" points="1824.62,-391.58 1833.1,-385.23 1822.51,-384.91 1824.62,-391.58"/>
<text text-anchor="middle" x="1747.22" y="-427.78" font-family="Arial" font-size="14.00" fill="#666666">Recorded in</text>
</g>
<!-- AccessGrantEvent&#45;&gt;TokenFields -->
<g id="edge44" class="edge">
<title>AccessGrantEvent-&gt;TokenFields</title>
<path fill="none" stroke="#666666" stroke-width="1.2" d="M1679.28,-705.88C1683.58,-703.29 1687.69,-700.46 1691.48,-697.38 1702.66,-688.27 1699.63,-680.92 1709.48,-670.38 1727.38,-651.22 1780.1,-611.2 1802.97,-598.38 1809.73,-594.59 1817.01,-591.05 1824.37,-587.81"/>
<polygon fill="#666666" stroke="#666666" stroke-width="1.2" points="1825.63,-591.08 1833.5,-583.98 1822.92,-584.62 1825.63,-591.08"/>
</g>
<!-- AccessGrantEvent&#45;&gt;AddressFields -->
<g id="edge45" class="edge">
<title>AccessGrantEvent-&gt;AddressFields</title>
<path fill="none" stroke="#666666" stroke-width="1.2" d="M1682.51,-706.02C1714.06,-695.29 1751.41,-682.41 1784.97,-670.38 1794.34,-667.02 1804.17,-663.43 1813.89,-659.84"/>
<polygon fill="#666666" stroke="#666666" stroke-width="1.2" points="1814.92,-663.19 1823.08,-656.43 1812.48,-656.62 1814.92,-663.19"/>
</g>
<!-- AccessGrantEvent&#45;&gt;TimestampFields -->
<g id="edge46" class="edge">
<title>AccessGrantEvent-&gt;TimestampFields</title>
<path fill="none" stroke="#666666" stroke-width="1.2" d="M1682.62,-706.01C1685.86,-703.41 1688.84,-700.55 1691.48,-697.38 1717.01,-666.69 1684.2,-640.27 1709.48,-609.38 1732.56,-581.18 1759.47,-603.41 1784.97,-577.38 1800.04,-561.99 1787.62,-547.5 1802.97,-532.38 1805.24,-530.14 1807.69,-528.05 1810.26,-526.09"/>
<polygon fill="#666666" stroke="#666666" stroke-width="1.2" points="1812.13,-529.05 1818.54,-520.61 1808.27,-523.21 1812.13,-529.05"/>
</g>
<!-- AccessFields -->
<g id="node33" class="node">
<title>AccessFields</title>
<path fill="#f5f5f5" stroke="#333333" d="M1949.33,-721.38C1949.33,-721.38 1830.93,-721.38 1830.93,-721.38 1824.93,-721.38 1818.93,-715.38 1818.93,-709.38 1818.93,-709.38 1818.93,-685.38 1818.93,-685.38 1818.93,-679.38 1824.93,-673.38 1830.93,-673.38 1830.93,-673.38 1949.33,-673.38 1949.33,-673.38 1955.33,-673.38 1961.33,-679.38 1961.33,-685.38 1961.33,-685.38 1961.33,-709.38 1961.33,-709.38 1961.33,-715.38 1955.33,-721.38 1949.33,-721.38"/>
<text text-anchor="middle" x="1890.13" y="-701.58" font-family="Arial" font-size="14.00" fill="#333333">Access Fields</text>
<text text-anchor="middle" x="1890.13" y="-684.78" font-family="Arial" font-size="14.00" fill="#333333">Permission details</text>
</g>
<!-- AccessGrantEvent&#45;&gt;AccessFields -->
<g id="edge47" class="edge">
<title>AccessGrantEvent-&gt;AccessFields</title>
<path fill="none" stroke="#666666" stroke-width="1.2" d="M1685.53,-721.45C1723.14,-717 1768.66,-711.62 1807.12,-707.08"/>
<polygon fill="#666666" stroke="#666666" stroke-width="1.2" points="1807.48,-710.56 1817,-705.91 1806.66,-703.6 1807.48,-710.56"/>
</g>
<!-- AccessGrantEvent&#45;&gt;EventStore -->
<g id="edge69" class="edge">
<title>AccessGrantEvent-&gt;EventStore</title>
<path fill="none" stroke="#666666" stroke-width="1.2" d="M1683.26,-705.94C1686.29,-703.37 1689.06,-700.52 1691.48,-697.38 1729.99,-647.41 1681.82,-613.28 1709.48,-556.58 1730.38,-513.74 1752.03,-514.84 1784.97,-480.38 1810.35,-453.81 1838.57,-423.13 1859.23,-400.44"/>
<polygon fill="#666666" stroke="#666666" stroke-width="1.2" points="1861.67,-402.96 1865.81,-393.21 1856.49,-398.25 1861.67,-402.96"/>
<text text-anchor="middle" x="1747.22" y="-560.78" font-family="Arial" font-size="14.00" fill="#666666">Recorded in</text>
</g>
<!-- AccessRevokeEvent&#45;&gt;TokenFields -->
<g id="edge48" class="edge">
<title>AccessRevokeEvent-&gt;TokenFields</title>
<path fill="none" stroke="#666666" stroke-width="1.2" d="M1678.99,-639.91C1723.4,-624.16 1780.74,-603.82 1824.3,-588.37"/>
<polygon fill="#666666" stroke="#666666" stroke-width="1.2" points="1825.38,-591.7 1833.64,-585.06 1823.04,-585.1 1825.38,-591.7"/>
</g>
<!-- AccessRevokeEvent&#45;&gt;AddressFields -->
<g id="edge49" class="edge">
<title>AccessRevokeEvent-&gt;AddressFields</title>
<path fill="none" stroke="#666666" stroke-width="1.2" d="M1691.86,-654.7C1730.05,-650.19 1775.25,-644.84 1812.74,-640.41"/>
<polygon fill="#666666" stroke="#666666" stroke-width="1.2" points="1812.78,-643.93 1822.3,-639.28 1811.96,-636.98 1812.78,-643.93"/>
</g>
<!-- AccessRevokeEvent&#45;&gt;TimestampFields -->
<g id="edge50" class="edge">
<title>AccessRevokeEvent-&gt;TimestampFields</title>
<path fill="none" stroke="#666666" stroke-width="1.2" d="M1679.95,-639.96C1684.04,-637.36 1687.93,-634.5 1691.48,-631.38 1703.73,-620.6 1698.59,-611.53 1709.48,-599.38 1718.01,-589.86 1791.72,-538.44 1802.97,-532.38 1805.26,-531.15 1807.61,-529.94 1810,-528.75"/>
<polygon fill="#666666" stroke="#666666" stroke-width="1.2" points="1811.47,-531.93 1819.03,-524.5 1808.49,-525.59 1811.47,-531.93"/>
</g>
<!-- AccessRevokeEvent&#45;&gt;AccessFields -->
<g id="edge51" class="edge">
<title>AccessRevokeEvent-&gt;AccessFields</title>
<path fill="none" stroke="#666666" stroke-width="1.2" d="M1691.86,-674.06C1728.15,-678.35 1770.75,-683.38 1807.07,-687.68"/>
<polygon fill="#666666" stroke="#666666" stroke-width="1.2" points="1806.47,-691.13 1816.82,-688.83 1807.3,-684.18 1806.47,-691.13"/>
</g>
<!-- AccessRevokeEvent&#45;&gt;EventStore -->
<g id="edge70" class="edge">
<title>AccessRevokeEvent-&gt;EventStore</title>
<path fill="none" stroke="#666666" stroke-width="1.2" d="M1683.34,-640C1686.34,-637.41 1689.09,-634.55 1691.48,-631.38 1736.66,-571.51 1661.75,-521.44 1709.48,-463.58 1731.81,-436.5 1753.44,-455.8 1784.97,-440.38 1808.05,-429.1 1831.66,-412.99 1850.56,-398.78"/>
<polygon fill="#666666" stroke="#666666" stroke-width="1.2" points="1852.46,-401.73 1858.27,-392.87 1848.2,-396.18 1852.46,-401.73"/>
<text text-anchor="middle" x="1747.22" y="-467.78" font-family="Arial" font-size="14.00" fill="#666666">Recorded in</text>
</g>
<!-- ResourcesTables -->
<g id="node34" class="node">
<title>ResourcesTables</title>
<path fill="#f5f5f5" stroke="#333333" d="M1948.94,-282.38C1948.94,-282.38 1831.32,-282.38 1831.32,-282.38 1825.32,-282.38 1819.32,-276.38 1819.32,-270.38 1819.32,-270.38 1819.32,-246.38 1819.32,-246.38 1819.32,-240.38 1825.32,-234.38 1831.32,-234.38 1831.32,-234.38 1948.94,-234.38 1948.94,-234.38 1954.94,-234.38 1960.94,-240.38 1960.94,-246.38 1960.94,-246.38 1960.94,-270.38 1960.94,-270.38 1960.94,-276.38 1954.94,-282.38 1948.94,-282.38"/>
<text text-anchor="middle" x="1890.13" y="-262.58" font-family="Arial" font-size="14.00" fill="#333333">Resources Tables</text>
<text text-anchor="middle" x="1890.13" y="-245.78" font-family="Arial" font-size="14.00" fill="#333333">On-chain storage</text>
</g>
<!-- TableStructure -->
<g id="node35" class="node">
<title>TableStructure</title>
<path fill="#f5f5f5" stroke="#333333" d="M2205.58,-94.38C2205.58,-94.38 2103.51,-94.38 2103.51,-94.38 2097.51,-94.38 2091.51,-88.38 2091.51,-82.38 2091.51,-82.38 2091.51,-58.38 2091.51,-58.38 2091.51,-52.38 2097.51,-46.38 2103.51,-46.38 2103.51,-46.38 2205.58,-46.38 2205.58,-46.38 2211.58,-46.38 2217.58,-52.38 2217.58,-58.38 2217.58,-58.38 2217.58,-82.38 2217.58,-82.38 2217.58,-88.38 2211.58,-94.38 2205.58,-94.38"/>
<text text-anchor="middle" x="2154.55" y="-74.58" font-family="Arial" font-size="14.00" fill="#333333">Table Structure</text>
<text text-anchor="middle" x="2154.55" y="-57.78" font-family="Arial" font-size="14.00" fill="#333333">Key-value store</text>
</g>
<!-- ResourcesTables&#45;&gt;TableStructure -->
<g id="edge57" class="edge">
<title>ResourcesTables-&gt;TableStructure</title>
<path fill="none" stroke="#666666" stroke-width="1.2" d="M1911.85,-234.17C1942.32,-199.95 2002.44,-137.48 2065.44,-100.38 2070.36,-97.48 2075.6,-94.81 2080.98,-92.36"/>
<polygon fill="#666666" stroke="#666666" stroke-width="1.2" points="2081.94,-95.76 2089.78,-88.63 2079.2,-89.31 2081.94,-95.76"/>
<text text-anchor="middle" x="2021.36" y="-153.73" font-family="Arial" font-size="14.00" fill="#666666">Uses</text>
</g>
<!-- ResourcesTables&#45;&gt;NFTTable -->
<g id="edge58" class="edge">
<title>ResourcesTables-&gt;NFTTable</title>
<path fill="none" stroke="#666666" stroke-width="1.2" d="M1961.44,-261.91C1972.76,-262.43 1984.35,-262.94 1995.29,-263.38 2024.13,-264.53 2055.94,-265.57 2083.42,-266.41"/>
<polygon fill="#666666" stroke="#666666" stroke-width="1.2" points="2083,-269.9 2093.1,-266.7 2083.21,-262.9 2083,-269.9"/>
</g>
<!-- ResourcesTables&#45;&gt;OwnershipTable -->
<g id="edge59" class="edge">
<title>ResourcesTables-&gt;OwnershipTable</title>
<path fill="none" stroke="#666666" stroke-width="1.2" d="M1961.2,-263.03C1995.35,-264.19 2032.26,-263.48 2047.44,-256.38 2058.57,-251.17 2055.36,-242.42 2065.44,-235.38 2068.92,-232.94 2072.61,-230.66 2076.42,-228.53"/>
<polygon fill="#666666" stroke="#666666" stroke-width="1.2" points="2077.84,-231.73 2085.13,-224.05 2074.64,-225.5 2077.84,-231.73"/>
</g>
<!-- ResourcesTables&#45;&gt;AccessTable -->
<g id="edge60" class="edge">
<title>ResourcesTables-&gt;AccessTable</title>
<path fill="none" stroke="#666666" stroke-width="1.2" d="M1961.24,-258.17C1999.57,-257.38 2040.62,-255.16 2047.44,-249.38 2075.23,-225.8 2041.49,-196.85 2065.44,-169.38 2066.14,-168.57 2066.87,-167.78 2067.61,-167.01"/>
<polygon fill="#666666" stroke="#666666" stroke-width="1.2" points="2069.66,-169.87 2074.94,-160.68 2065.08,-164.57 2069.66,-169.87"/>
</g>
<!-- ResourcesTables&#45;&gt;DefaultAccessTable2 -->
<g id="edge61" class="edge">
<title>ResourcesTables-&gt;DefaultAccessTable2</title>
<path fill="none" stroke="#666666" stroke-width="1.2" d="M1961.11,-278.65C1992.21,-287.65 2029.23,-298.37 2062.45,-308"/>
<polygon fill="#666666" stroke="#666666" stroke-width="1.2" points="2061.23,-311.29 2071.81,-310.71 2063.18,-304.56 2061.23,-311.29"/>
</g>
<!-- MoveVM -->
<g id="node49" class="node">
<title>MoveVM</title>
<path fill="#f5f5f5" stroke="#333333" d="M1130.22,-467.38C1130.22,-467.38 983,-467.38 983,-467.38 977,-467.38 971,-461.38 971,-455.38 971,-455.38 971,-431.38 971,-431.38 971,-425.38 977,-419.38 983,-419.38 983,-419.38 1130.22,-419.38 1130.22,-419.38 1136.22,-419.38 1142.22,-425.38 1142.22,-431.38 1142.22,-431.38 1142.22,-455.38 1142.22,-455.38 1142.22,-461.38 1136.22,-467.38 1130.22,-467.38"/>
<text text-anchor="middle" x="1056.61" y="-447.58" font-family="Arial" font-size="14.00" fill="#333333">Move VM</text>
<text text-anchor="middle" x="1056.61" y="-430.78" font-family="Arial" font-size="14.00" fill="#333333">Execution environment</text>
</g>
<!-- AptosBlockchain&#45;&gt;MoveVM -->
<g id="edge83" class="edge">
<title>AptosBlockchain-&gt;MoveVM</title>
<path fill="none" stroke="#666666" stroke-width="1.2" d="M840.18,-395.41C877,-403.61 920.84,-413.37 959.33,-421.94"/>
<polygon fill="#666666" stroke="#666666" stroke-width="1.2" points="958.27,-425.29 968.79,-424.05 959.79,-418.46 958.27,-425.29"/>
</g>
<!-- Consensus -->
<g id="node50" class="node">
<title>Consensus</title>
<path fill="#f5f5f5" stroke="#333333" d="M1099.08,-401.38C1099.08,-401.38 1014.14,-401.38 1014.14,-401.38 1008.14,-401.38 1002.14,-395.38 1002.14,-389.38 1002.14,-389.38 1002.14,-365.38 1002.14,-365.38 1002.14,-359.38 1008.14,-353.38 1014.14,-353.38 1014.14,-353.38 1099.08,-353.38 1099.08,-353.38 1105.08,-353.38 1111.08,-359.38 1111.08,-365.38 1111.08,-365.38 1111.08,-389.38 1111.08,-389.38 1111.08,-395.38 1105.08,-401.38 1099.08,-401.38"/>
<text text-anchor="middle" x="1056.61" y="-381.58" font-family="Arial" font-size="14.00" fill="#333333">Consensus</text>
<text text-anchor="middle" x="1056.61" y="-364.78" font-family="Arial" font-size="14.00" fill="#333333">BFT protocol</text>
</g>
<!-- AptosBlockchain&#45;&gt;Consensus -->
<g id="edge84" class="edge">
<title>AptosBlockchain-&gt;Consensus</title>
<path fill="none" stroke="#666666" stroke-width="1.2" d="M854.6,-377.38C898.87,-377.38 950.37,-377.38 990.16,-377.38"/>
<polygon fill="#666666" stroke="#666666" stroke-width="1.2" points="990.03,-380.88 1000.03,-377.38 990.03,-373.88 990.03,-380.88"/>
</g>
<!-- Storage -->
<g id="node51" class="node">
<title>Storage</title>
<path fill="#f5f5f5" stroke="#333333" d="M1113.87,-335.38C1113.87,-335.38 999.35,-335.38 999.35,-335.38 993.35,-335.38 987.35,-329.38 987.35,-323.38 987.35,-323.38 987.35,-299.38 987.35,-299.38 987.35,-293.38 993.35,-287.38 999.35,-287.38 999.35,-287.38 1113.87,-287.38 1113.87,-287.38 1119.87,-287.38 1125.87,-293.38 1125.87,-299.38 1125.87,-299.38 1125.87,-323.38 1125.87,-323.38 1125.87,-329.38 1119.87,-335.38 1113.87,-335.38"/>
<text text-anchor="middle" x="1056.61" y="-315.58" font-family="Arial" font-size="14.00" fill="#333333">Storage</text>
<text text-anchor="middle" x="1056.61" y="-298.78" font-family="Arial" font-size="14.00" fill="#333333">Distributed ledger</text>
</g>
<!-- AptosBlockchain&#45;&gt;Storage -->
<g id="edge85" class="edge">
<title>AptosBlockchain-&gt;Storage</title>
<path fill="none" stroke="#666666" stroke-width="1.2" d="M840.18,-359.34C882.42,-349.94 933.9,-338.48 975.94,-329.12"/>
<polygon fill="#666666" stroke="#666666" stroke-width="1.2" points="976.48,-332.58 985.48,-326.99 974.96,-325.75 976.48,-332.58"/>
</g>
<!-- Network -->
<g id="node52" class="node">
<title>Network</title>
<path fill="#f5f5f5" stroke="#333333" d="M1121.26,-269.38C1121.26,-269.38 991.96,-269.38 991.96,-269.38 985.96,-269.38 979.96,-263.38 979.96,-257.38 979.96,-257.38 979.96,-233.38 979.96,-233.38 979.96,-227.38 985.96,-221.38 991.96,-221.38 991.96,-221.38 1121.26,-221.38 1121.26,-221.38 1127.26,-221.38 1133.26,-227.38 1133.26,-233.38 1133.26,-233.38 1133.26,-257.38 1133.26,-257.38 1133.26,-263.38 1127.26,-269.38 1121.26,-269.38"/>
<text text-anchor="middle" x="1056.61" y="-249.58" font-family="Arial" font-size="14.00" fill="#333333">Network</text>
<text text-anchor="middle" x="1056.61" y="-232.78" font-family="Arial" font-size="14.00" fill="#333333">P2P communication</text>
</g>
<!-- AptosBlockchain&#45;&gt;Network -->
<g id="edge86" class="edge">
<title>AptosBlockchain-&gt;Network</title>
<path fill="none" stroke="#666666" stroke-width="1.2" d="M810.49,-348.71C849.38,-327.65 904.54,-299.2 954.84,-278.38 959.29,-276.54 963.88,-274.73 968.54,-272.96"/>
<polygon fill="#666666" stroke="#666666" stroke-width="1.2" points="969.61,-276.3 977.79,-269.56 967.2,-269.73 969.61,-276.3"/>
</g>
<!-- MessagePasser -->
<g id="node42" class="node">
<title>MessagePasser</title>
<path fill="#e6f4ea" stroke="#0f9d58" d="M165.44,-181.38C165.44,-181.38 14.35,-181.38 14.35,-181.38 8.35,-181.38 2.35,-175.38 2.35,-169.38 2.35,-169.38 2.35,-145.38 2.35,-145.38 2.35,-139.38 8.35,-133.38 14.35,-133.38 14.35,-133.38 165.44,-133.38 165.44,-133.38 171.44,-133.38 177.44,-139.38 177.44,-145.38 177.44,-145.38 177.44,-169.38 177.44,-169.38 177.44,-175.38 171.44,-181.38 165.44,-181.38"/>
<text text-anchor="middle" x="89.89" y="-161.58" font-family="Arial" font-size="14.00" fill="#0f9d58">Neura Message Passer</text>
<text text-anchor="middle" x="89.89" y="-144.78" font-family="Arial" font-size="14.00" fill="#0f9d58">(Backend 2)</text>
</g>
<!-- MessagePasser&#45;&gt;NFTContract -->
<g id="edge72" class="edge">
<title>MessagePasser-&gt;NFTContract</title>
<path fill="none" stroke="#0f9d58" stroke-width="1.2" d="M104.29,-181.73C159.75,-282.5 371.46,-667.19 436.26,-784.93"/>
<polygon fill="#0f9d58" stroke="#0f9d58" stroke-width="1.2" points="433.12,-786.5 441.01,-793.57 439.25,-783.12 433.12,-786.5"/>
<text text-anchor="middle" x="272.47" y="-609.45" font-family="Arial" font-size="14.00" fill="#666666">Interacts via RPC</text>
</g>
<!-- MessagePasser&#45;&gt;CreateEvent -->
<g id="edge75" class="edge">
<title>MessagePasser-&gt;CreateEvent</title>
<path fill="none" stroke="#0f9d58" stroke-width="1.2" stroke-dasharray="5,2" d="M177.83,-142.43C251.45,-131.07 359.93,-117.38 455.21,-117.38 455.21,-117.38 455.21,-117.38 909.66,-117.38 1021.16,-117.38 1083.65,-59.55 1159.38,-141.38 1185.81,-169.93 1142.75,-463.02 1169.38,-491.38 1221.19,-546.54 1433.18,-515.15 1508.51,-522.38 1513.84,-522.89 1519.34,-523.43 1524.88,-523.97"/>
<polygon fill="#0f9d58" stroke="#0f9d58" stroke-width="1.2" points="1524.17,-527.42 1534.46,-524.91 1524.86,-520.45 1524.17,-527.42"/>
<text text-anchor="middle" x="908.66" y="-121.58" font-family="Arial" font-size="14.00" fill="#666666">Listens for</text>
</g>
<!-- MessagePasser&#45;&gt;TransferEvent -->
<g id="edge76" class="edge">
<title>MessagePasser-&gt;TransferEvent</title>
<path fill="none" stroke="#0f9d58" stroke-width="1.2" stroke-dasharray="5,2" d="M128.89,-133.12C148.63,-121.86 173.63,-109.61 197.79,-103.38 611.64,3.29 765.36,62.14 1159.38,-103.38 1254.27,-143.24 1485.78,-352.91 1573.52,-434.16"/>
<polygon fill="#0f9d58" stroke="#0f9d58" stroke-width="1.2" points="1570.99,-436.6 1580.71,-440.83 1575.76,-431.47 1570.99,-436.6"/>
<text text-anchor="middle" x="908.66" y="-32.61" font-family="Arial" font-size="14.00" fill="#666666">Listens for</text>
</g>
<!-- MessagePasser&#45;&gt;AccessGrantEvent -->
<g id="edge77" class="edge">
<title>MessagePasser-&gt;AccessGrantEvent</title>
<path fill="none" stroke="#0f9d58" stroke-width="1.2" stroke-dasharray="5,2" d="M177.54,-160.82C430.51,-170.97 1150.83,-200.61 1159.38,-209.38 1175.45,-225.85 1157.79,-603.51 1169.38,-623.38 1192.96,-663.79 1215.71,-661.56 1259.74,-677.38 1306.38,-694.13 1433.52,-710.91 1520.55,-720.97"/>
<polygon fill="#0f9d58" stroke="#0f9d58" stroke-width="1.2" points="1520.15,-724.45 1530.49,-722.11 1520.95,-717.49 1520.15,-724.45"/>
<text text-anchor="middle" x="908.66" y="-198.62" font-family="Arial" font-size="14.00" fill="#666666">Listens for</text>
</g>
<!-- MessagePasser&#45;&gt;AccessRevokeEvent -->
<g id="edge78" class="edge">
<title>MessagePasser-&gt;AccessRevokeEvent</title>
<path fill="none" stroke="#0f9d58" stroke-width="1.2" stroke-dasharray="5,2" d="M177.73,-152.23C420.55,-138.77 1093.22,-108.29 1159.38,-179.38 1174.6,-195.73 1154.92,-564.35 1169.38,-581.38 1252.74,-679.47 1412.57,-685.22 1514.55,-677.15"/>
<polygon fill="#0f9d58" stroke="#0f9d58" stroke-width="1.2" points="1514.6,-680.66 1524.26,-676.32 1514,-673.69 1514.6,-680.66"/>
<text text-anchor="middle" x="908.66" y="-142.63" font-family="Arial" font-size="14.00" fill="#666666">Listens for</text>
</g>
<!-- FrontendClient -->
<g id="node43" class="node">
<title>FrontendClient</title>
<path fill="#e8f0fe" stroke="#4285f4" d="M146.38,-876.38C146.38,-876.38 33.41,-876.38 33.41,-876.38 27.41,-876.38 21.41,-870.38 21.41,-864.38 21.41,-864.38 21.41,-840.38 21.41,-840.38 21.41,-834.38 27.41,-828.38 33.41,-828.38 33.41,-828.38 146.38,-828.38 146.38,-828.38 152.38,-828.38 158.38,-834.38 158.38,-840.38 158.38,-840.38 158.38,-864.38 158.38,-864.38 158.38,-870.38 152.38,-876.38 146.38,-876.38"/>
<text text-anchor="middle" x="89.89" y="-856.58" font-family="Arial" font-size="14.00" fill="#4285f4">Client Application</text>
<text text-anchor="middle" x="89.89" y="-839.78" font-family="Arial" font-size="14.00" fill="#4285f4">(Frontend)</text>
</g>
<!-- FrontendClient&#45;&gt;NFTContract -->
<g id="edge73" class="edge">
<title>FrontendClient-&gt;NFTContract</title>
<path fill="none" stroke="#4285f4" stroke-width="1.2" stroke-dasharray="5,2" d="M158.56,-846.25C213.29,-841.29 291.2,-834.24 353.45,-828.6"/>
<polygon fill="#4285f4" stroke="#4285f4" stroke-width="1.2" points="353.42,-832.11 363.07,-827.73 352.79,-825.14 353.42,-832.11"/>
<text text-anchor="middle" x="272.47" y="-846.83" font-family="Arial" font-size="14.00" fill="#666666">Submits txns via wallet</text>
</g>
<!-- ExecutionEngine -->
<g id="node44" class="node">
<title>ExecutionEngine</title>
<path fill="#fce8e6" stroke="#db4437" d="M167.79,-810.38C167.79,-810.38 12,-810.38 12,-810.38 6,-810.38 0,-804.38 0,-798.38 0,-798.38 0,-774.38 0,-774.38 0,-768.38 6,-762.38 12,-762.38 12,-762.38 167.79,-762.38 167.79,-762.38 173.79,-762.38 179.79,-768.38 179.79,-774.38 179.79,-774.38 179.79,-798.38 179.79,-798.38 179.79,-804.38 173.79,-810.38 167.79,-810.38"/>
<text text-anchor="middle" x="89.89" y="-790.58" font-family="Arial" font-size="14.00" fill="#db4437">Neura Execution Engine</text>
<text text-anchor="middle" x="89.89" y="-773.78" font-family="Arial" font-size="14.00" fill="#db4437">(Backend 1)</text>
</g>
<!-- ExecutionEngine&#45;&gt;NFTContract -->
<g id="edge74" class="edge">
<title>ExecutionEngine-&gt;NFTContract</title>
<path fill="none" stroke="#db4437" stroke-width="1.2" stroke-dasharray="5,2" d="M180.14,-794.45C229.4,-798.91 291.66,-804.55 347.16,-809.58 349.13,-809.76 351.12,-809.94 353.12,-810.12"/>
<polygon fill="#db4437" stroke="#db4437" stroke-width="1.2" points="352.63,-813.59 362.91,-811.01 353.27,-806.62 352.63,-813.59"/>
<text text-anchor="middle" x="272.47" y="-813.78" font-family="Arial" font-size="14.00" fill="#666666">Verifies access via RPC</text>
</g>
<!-- MoveVM&#45;&gt;NFTContract -->
<g id="edge87" class="edge">
<title>MoveVM-&gt;NFTContract</title>
<path fill="none" stroke="#666666" stroke-width="1.2" d="M995.49,-467.78C979.47,-477.35 964.07,-490.03 954.84,-506.38 938.09,-536.03 969.12,-1095.49 944.84,-1119.38 818.9,-1243.28 700.28,-1115.31 565.26,-1001.38 518,-961.5 486.18,-895.41 469.93,-854.79"/>
<polygon fill="#666666" stroke="#666666" stroke-width="1.2" points="473.2,-853.56 466.32,-845.5 466.68,-856.09 473.2,-853.56"/>
<text text-anchor="middle" x="758.18" y="-1174.31" font-family="Arial" font-size="14.00" fill="#666666">Executes</text>
</g>
<!-- Storage&#45;&gt;ResourcesTables -->
<g id="edge88" class="edge">
<title>Storage-&gt;ResourcesTables</title>
<path fill="none" stroke="#666666" stroke-width="1.2" d="M1126.36,-292.85C1137.69,-288.75 1149.08,-283.93 1159.38,-278.38 1164.39,-275.68 1164.1,-272.5 1169.38,-270.38 1386.31,-183.47 1670.35,-217.12 1807.72,-241.58"/>
<polygon fill="#666666" stroke="#666666" stroke-width="1.2" points="1806.7,-244.95 1817.16,-243.29 1807.95,-238.06 1806.7,-244.95"/>
<text text-anchor="middle" x="1480.49" y="-219.52" font-family="Arial" font-size="14.00" fill="#666666">Stores</text>
</g>
<!-- Storage&#45;&gt;EventStore -->
<g id="edge89" class="edge">
<title>Storage-&gt;EventStore</title>
<path fill="none" stroke="#666666" stroke-width="1.2" d="M1126.21,-302.33C1256.9,-287.33 1549.55,-264.65 1784.97,-325.38 1798.32,-328.82 1812.24,-333.57 1825.4,-338.63"/>
<polygon fill="#666666" stroke="#666666" stroke-width="1.2" points="1823.97,-341.83 1834.55,-342.27 1826.55,-335.33 1823.97,-341.83"/>
<text text-anchor="middle" x="1480.49" y="-291.53" font-family="Arial" font-size="14.00" fill="#666666">Records</text>
</g>
</g>
</svg>